<svg viewBox="0 0 114 20" style="background-color:#ffffff00" xmlns="http://www.w3.org/2000/svg" width="114" height="20"><g><path d="M11 0l2.265 7.882 8.196-.281-6.796 4.59 2.8 7.709-6.466-5.045-6.466 5.045 2.8-7.709-6.796-4.59 8.196.281 2.265-7.882zM34 0l2.266 7.882 8.196-.281-6.796 4.59 2.8 7.709-6.466-5.045-6.466 5.045 2.8-7.709-6.796-4.59 8.196.281 2.265-7.882zM57 0l2.266 7.882 8.196-.281-6.796 4.59 2.8 7.709-6.466-5.045-6.466 5.045 2.8-7.709-6.796-4.59 8.196.281 2.266-7.882zM80 0l2.266 7.882 8.196-.281-6.796 4.59 2.8 7.709-6.466-5.045-6.466 5.045 2.8-7.709-6.796-4.59 8.196.281 2.266-7.882zM103 0l2.266 7.882 8.196-.281-6.796 4.59 2.8 7.709-6.466-5.045-6.466 5.045 2.8-7.709-6.796-4.59 8.196.281 2.266-7.882z" fill="#5d4f2e"/></g></svg>