<svg viewBox="0 0 21 18" style="background-color:#ffffff00" xmlns="http://www.w3.org/2000/svg" width="21" height="18"><path d="M20.53 2.332c-.754.343-1.567.574-2.419.678.869-.532 1.538-1.375 1.852-2.38-.814.494-1.715.851-2.674 1.045-.768-.836-1.863-1.359-3.075-1.359-2.325 0-4.212 1.926-4.212 4.302 0 .337.037.664.109.979-3.5-.179-6.604-1.892-8.681-4.493-.363.634-.57 1.373-.57 2.162 0 1.492.744 2.809 1.873 3.58-.689-.022-1.339-.216-1.907-.538v.054c0 2.084 1.452 3.822 3.379 4.218-.353.098-.725.15-1.11.15-.271 0-.536-.026-.792-.077.536 1.709 2.091 2.953 3.934 2.988-1.441 1.153-3.257 1.841-5.231 1.841-.34 0-.675-.021-1.005-.06 1.865 1.221 4.079 1.933 6.457 1.933 7.747 0 11.983-6.555 11.983-12.239l-.012-.557c.823-.605 1.538-1.363 2.102-2.226z" fill="#e68e2f"/></svg>