<svg viewBox="0 0 21 21" style="background-color:#ffffff00" xmlns="http://www.w3.org/2000/svg" width="21" height="21"><g fill="#fff"><path d="M16.605 20.267c.853.858 2.421.858 3.274 0l.434-.466c.853-.858.853-2.435 0-3.294l-15.966-15.864c-.853-.858-2.421-.858-3.274 0l-.434.466c-.853.858-.853 2.435 0 3.294l15.966 15.864zM.645 16.637c-.847.828-.847 2.384-.003 3.25l.457.441c.842.863 2.39.902 3.237.081l15.977-15.68c.882-.855.921-2.469.079-3.371l-.458-.461c-.845-.905-2.434-.944-3.316-.081l-15.974 15.822z"/></g></svg>