<svg viewBox="0 0 23 32" style="background-color:#ffffff00" xmlns="http://www.w3.org/2000/svg" width="23" height="32"><g><path d="M15.315 19.971c.996.982 2.826.982 3.822 0l2.116-2.086c.996-.982.996-2.787 0-3.769l-13.568-13.379c-.996-.982-2.826-.982-3.822 0l-2.116 2.086c-.996.982-.996 2.787 0 3.769l13.568 13.379zM21.253 17.884c.996-.982.996-2.787 0-3.769l-2.116-2.086c-.996-.982-2.826-.982-3.822 0l-13.568 13.379c-.996.982-.996 2.787 0 3.769l2.116 2.086c.996.982 2.826.982 3.822 0l13.568-13.379z" fill="#fff"/></g></svg>