<svg viewBox="0 0 17 15" style="background-color:#ffffff00" xmlns="http://www.w3.org/2000/svg" width="17" height="15"><path d="M17.38 2.502c-.647.283-2.036 1.456-2.765 1.544.744-.44 2.014-2.12 2.282-2.948a7.247 7.247 0 0 1-2.287.861A3.62 3.62 0 0 0 11.98.835c-1.99 0-3.6 1.59-3.6 3.553 0 .279.03.55.092.81a10.25 10.25 0 0 1-7.424-3.715A3.518 3.518 0 0 0 .561 3.27c0 1.232 2.003 2.708 2.97 3.345-.592-.014-2.516-.562-3-.83v.045c0 1.723 3.13 3.373 4.778 3.698-.3.081-2.509-.09-2.836-.09-.23 0-.458-.022-.677-.066a3.6 3.6 0 0 0 3.366 2.468 7.285 7.285 0 0 1-5.334 1.47 10.199 10.199 0 0 0 5.516 1.606c6.628 0 10.251-5.417 10.251-10.114 0-.155-.003-.309-.011-.459a7.323 7.323 0 0 0 1.797-1.841z" fill="#ffc819"/></svg>