<svg viewBox="0 0 16 16" style="background-color:#ffffff00" xmlns="http://www.w3.org/2000/svg" width="16" height="16"><path d="M12.601.5H3.4A2.902 2.902 0 0 0 .5 3.399V12.6c0 1.6 1.3 2.9 2.899 2.9h9.203c1.598 0 2.898-1.3 2.898-2.899V3.4c0-1.601-1.3-2.9-2.899-2.9zm.832 1.728h.331V4.77l-2.534.008-.008-2.542 2.21-.008zM5.859 6.46A2.64 2.64 0 0 1 8 5.36c.881 0 1.66.435 2.14 1.1.313.434.5.965.5 1.54A2.643 2.643 0 0 1 8 10.64 2.642 2.642 0 0 1 5.36 8c0-.575.187-1.106.499-1.54zm8.18 6.14a1.44 1.44 0 0 1-1.438 1.439H3.4A1.439 1.439 0 0 1 1.96 12.6V6.46H4.2A4.071 4.071 0 0 0 3.898 8c0 2.26 1.84 4.102 4.102 4.102A4.107 4.107 0 0 0 12.102 8c0-.544-.11-1.064-.303-1.54h2.24v6.14z" fill="#ffc819"/></svg>