<svg viewBox="0 0 18 18" style="background-color:#ffffff00" xmlns="http://www.w3.org/2000/svg" width="18" height="18"><path d="M16.019 8.428c.422 0 .775.138 1.057.414.283.275.424.621.424 1.037 0 .66-.317 1.103-.95 1.328l-1.757.602.572 1.707c.048.142.071.302.071.48 0 .402-.143.75-.429 1.042a1.39 1.39 0 0 1-1.032.44 1.49 1.49 0 0 1-.873-.277 1.427 1.427 0 0 1-.547-.736l-.562-1.685-3.167 1.083.562 1.676c.055.163.082.323.082.48 0 .401-.143.75-.43 1.042a1.397 1.397 0 0 1-1.041.439c-.32 0-.61-.092-.869-.275a1.439 1.439 0 0 1-.541-.737l-.562-1.664-1.563.541c-.198.06-.368.092-.51.092a1.42 1.42 0 0 1-1.038-.409c-.276-.272-.414-.616-.414-1.032 0-.32.094-.61.281-.868a1.47 1.47 0 0 1 .73-.542l1.595-.541-1.073-3.198-1.594.551c-.177.056-.34.083-.49.083a1.41 1.41 0 0 1-1.032-.415A1.384 1.384 0 0 1 .5 8.06c0-.32.094-.61.281-.869.187-.258.43-.439.73-.54l1.605-.542-.542-1.625a1.513 1.513 0 0 1-.082-.48c0-.408.143-.757.43-1.047a1.41 1.41 0 0 1 1.041-.434c.32 0 .61.092.869.276.259.183.439.429.541.736l.552 1.633 3.167-1.072L8.54 2.46a1.512 1.512 0 0 1-.081-.48c0-.401.144-.75.434-1.042C9.183.647 9.528.5 9.93.5c.32 0 .611.094.873.281.262.187.445.43.547.73l.541 1.645 1.655-.562c.143-.04.29-.06.44-.06.408 0 .757.134 1.047.403.29.269.434.604.434 1.006 0 .307-.102.584-.307.832a1.648 1.648 0 0 1-.755.526l-1.604.553 1.072 3.228 1.676-.572a1.48 1.48 0 0 1 .47-.082zm-8.112 2.677l3.167-1.073-1.073-3.218-3.167 1.093 1.073 3.198z" fill="#ffc819"/></svg>