<svg viewBox="0 0 14 18" style="background-color:#ffffff00" xmlns="http://www.w3.org/2000/svg" width="14" height="18"><path d="M.092 11.05c.416.27.808.607 1.113 1.328.235.556.73 1.554 2.284 1.554.617 0 1.048-.075 1.048-.075s.032 1.436.04 1.997c.01.651-.852.834-.849 1.148.002.124.289.136.519.136.454 0 1.394-.388 1.382-1.064-.01-.535-.033-2.322-.038-2.634-.012-.677.344-.89.344-.89s.113 3.642-.01 4.138c-.144.584-.426.501-.422.762.007.389 1.143.096 1.502-.756.276-.658.07-4.231.07-4.231l.306-.007s.055 1.626.062 2.374c.007.78-.022 1.77.447 2.238.31.31 1.302.853 1.288.356-.008-.288-.55-.524-.57-1.3l-.095-3.525c.422 0 .39 1.15.39 1.15l.092 2.16s-.072.795.878 1.127c.335.12 1.046.151 1.073-.047.027-.2-.87-.495-.898-1.11-.017-.373-.002-.59-.052-2.203-.05-1.595-.28-2.181-1.032-2.646 2.267-.234 3.653-.796 4.274-2.29.053 0 .249-.694.22-.694.128-.559.182-1.216.164-1.992-.095-2.085-1.136-2.815-1.343-3.157.223-1.549-.137-2.249-.3-2.488-.575-.196-1.956.503-2.71.997-1.265-.357-3.917-.322-4.905.092C2.516.225 1.549.418 1.549.418s-.623 1.09-.152 2.7C.79 3.877.337 4.415.34 5.852c.001.815.1 1.548.322 2.19-.027 0 .298.692.307.692.715 1.28 2.09 2.082 4.407 2.305-.326.251-.716.729-.764 1.283-.413.27-1.251.36-1.905.154-.916-.29-1.275-2.097-2.635-1.84-.294.054-.235.25.02.415z" fill="#ffc819"/></svg>