<svg viewBox="0 0 208 43" style="background-color:#ffffff00" xmlns="http://www.w3.org/2000/svg" width="208" height="43"><path d="M0 40.636c0 .866.21 1.08 1.07 1.084h5.776c.86-.005 1.074-.204 1.074-1.057V1.318c0-.765-.225-.993-.98-.993H1.166C.165.325 0 .491 0 1.505v39.13z" fill="#29333d"/><path d="M188.54 11.63c1.6-.076 3.098-.175 4.613-.217 2.13-.058 4.27-.058 6.396.302 3.904.668 6.224 2.85 7.119 6.722.464 1.989.66 4.006.71 6.038.096 3.128.096 6.267-.508 9.368-.41 2.13-1.139 4.107-2.864 5.571-1.28 1.088-2.815 1.62-4.434 1.95-2.128.43-4.289.545-6.432.454-2.548-.085-5.085-.263-7.63-.468-1.274-.099-2.53-.337-3.793-.525-.676-.104-.972-.454-1.06-1.151a4.748 4.748 0 0 1-.044-.636c-.007-12.458-.007-24.918-.007-37.383 0-.137 0-.28.007-.431.043-.875.2-1.027 1.104-1.027h5.669c.991 0 1.144.142 1.154 1.136V11.63zm.018 23.017c2.486.293 4.928.548 7.382.17 1.317-.202 2.386-.856 2.871-2.168.235-.647.43-1.34.452-2.021.09-2.334.111-4.659.095-6.992 0-.688-.118-1.382-.27-2.056-.477-2.117-1.557-3.081-3.732-3.19-2.19-.11-4.381-.09-6.575-.12-.067 0-.13.03-.223.048v16.329z" fill="#ef0742"/><path d="M89.494 23.991c0-.985.111-1.917-.014-2.826-.217-1.473-1.356-2.41-3.033-2.622a18.075 18.075 0 0 0-2.282-.152c-2.924-.015-5.852-.005-8.769-.005-1.231 0-1.275-.052-1.275-1.255 0-1.296.017-2.594-.007-3.896-.006-.553.24-.81.763-.904 4.441-.825 8.918-.975 13.406-.62 1.868.146 3.688.535 5.383 1.4 2.169 1.11 3.327 2.927 3.65 5.304.126.89.173 1.808.173 2.712.011 5.861.005 11.731.005 17.587 0 .118 0 .223-.002.326-.036 1.322-.445 1.709-1.746 1.97-3.787.743-7.615.975-11.479 1.003-2.177.01-4.38-.028-6.536-.468-3.019-.615-4.943-2.343-5.55-5.424-.474-2.41-.512-4.806.205-7.183.74-2.457 2.482-3.863 4.904-4.383 1.482-.323 3.03-.477 4.55-.54 2.366-.085 4.736-.019 7.113-.023h.54zm.045 5.245c-2.48 0-4.934-.08-7.385.014-1.484.061-2.22.856-2.41 2.305-.085.572-.03 1.179.04 1.757.15 1.116.816 1.802 1.908 2.016.78.147 1.58.227 2.378.242 1.833.037 3.662-.081 5.47-.517v-5.817zM56.422 18.443c-1.31.047-2.554.364-3.347 1.548-.585.843-.783 1.831-.871 2.825-.234 2.633-.251 5.265.006 7.892.112 1.16.337 2.311 1.173 3.2.825.91 1.947 1.173 3.094 1.193 3.063.062 6.125.044 9.193.07.18 0 .364-.002.532 0 .928.025 1.118.22 1.127 1.147.008 1.227.008 2.463-.005 3.688-.009.895-.26 1.15-1.129 1.312-3.648.676-7.328.795-11.017.634-2.207-.114-4.4-.36-6.416-1.368-1.656-.834-2.76-2.145-3.43-3.85-.81-2.087-1.097-4.278-1.12-6.475a153.31 153.31 0 0 1 .196-9.397c.09-1.704.518-3.371 1.313-4.909.854-1.672 2.21-2.751 3.938-3.404 1.74-.649 3.56-.866 5.39-.947 3.117-.147 6.228-.076 9.33.307.698.087 1.373.204 2.057.322.536.09.864.399.868.976.007 1.435.016 2.883.007 4.327 0 .536-.298.823-.834.823H61.29s-3.24.028-4.867.086z" fill="#29333d"/><path d="M157.302 29.346c.18 1.093.265 2.083.505 3.052.383 1.563 1.54 2.273 3.062 2.438 1.01.113 2.028.161 3.041.166 2.868.02 5.729.005 8.609.005 1.042 0 1.206.162 1.206 1.212 0 1.264.007 2.528 0 3.797-.01.837-.168.998-1.002 1.14-4.149.73-8.325.768-12.514.62-1.813-.06-3.617-.325-5.321-.993-2.623-1.027-4.06-3.068-4.748-5.702a22.324 22.324 0 0 1-.734-5.754c0-2.775.06-5.554.212-8.328.094-1.61.483-3.195 1.155-4.682 1.106-2.429 3.069-3.777 5.598-4.346 3.509-.772 7.07-.762 10.618-.336 1.206.138 2.416.426 3.562.848 2.461.908 3.797 2.873 4.494 5.32.598 2.122.741 4.303.841 6.49.04 1.255.023 2.5.015 3.746-.006.86-.33 1.198-1.178 1.263-.37.03-.744.044-1.117.044h-16.304zm10.731-5.207c-.16-1.142-.259-2.221-.494-3.277-.245-1.103-.948-1.927-2.062-2.258-1.831-.553-3.68-.512-5.518-.01a2.873 2.873 0 0 0-1.658 1.183c-.87 1.327-.904 2.828-.928 4.362h10.66z" fill="#ef0742"/><path d="M39.657 25.158c-.04-2.255-.166-4.627-.778-6.953-.67-2.547-2.046-4.525-4.556-5.557a13.23 13.23 0 0 0-4.398-.97c-2.083-.09-4.166-.138-6.25-.105-1.867.033-3.718.292-5.491.938-1.794.648-3.191 1.77-4.085 3.47-1.025 1.945-1.393 4.065-1.51 6.22-.121 2.472-.17 4.952-.085 7.422.054 1.729.319 3.462.635 5.176.288 1.624.966 3.124 2.136 4.336 1.486 1.53 3.4 2.15 5.438 2.475 2.627.437 5.283.427 7.936.3 1.792-.076 3.58-.304 5.274-.94 1.364-.492 2.53-1.273 3.422-2.442.965-1.262 1.446-2.722 1.758-4.236.441-2.113.534-4.235.56-6.501l-.006-2.633zm-7.876 2.688c-.097 1.238-.178 2.56-.396 3.86-.35 2.079-1.314 2.944-3.415 3.29a11.927 11.927 0 0 1-4.197-.05c-1.78-.347-2.723-1.398-3.06-3.315-.432-2.452-.39-4.924-.269-7.4.037-.728.126-1.453.242-2.172.391-2.326 1.319-3.333 3.676-3.594a15.536 15.536 0 0 1 4.033.1c1.857.29 2.823 1.481 3.096 3.631.162 1.303.22 2.618.316 4.045l-.026 1.605zm77.307-15.132c-.158-.633-.26-.906-.79-.938l-.065-.001-.09-.001c-1.07-.008-4.412-.005-5.917-.005-.222.002-.405.002-.532.002h-.009c-.097 0-.178.002-.253.006l-.046.003-.002.001-.067.006h-.002l-.01.001c-.037.005-.078.01-.117.02-.007.001-.016.002-.023.005h-.004l-.015.004-.007.003a.526.526 0 0 0-.165.085l-.002.002-.01.007a.443.443 0 0 0-.05.05.251.251 0 0 0-.028.037l-.001.001a.467.467 0 0 0-.044.078v.001l-.004.01a.457.457 0 0 0-.03.108v.003a1.452 1.452 0 0 0-.01.1v.008c-.001.021-.004.048-.002.07v.006a2.897 2.897 0 0 0 .116.689v.002c.362 1.339 2.24 8.156 3.982 14.425.01.034.02.067.028.1 1.549 5.572 2.983 10.755 3.14 11.23.532 1.612 1.67 2.94 3.397 2.952.007-.02 1.279-4.63 2.807-10.178-2.22-8.062-4.98-18.1-5.175-18.892zm18.769-.153a5.62 5.62 0 0 0-.06-.222 1.351 1.351 0 0 0-.12-.29l-.019-.03-.004-.005v-.001a.48.48 0 0 0-.04-.05c.011.012.02.025.028.038v.001c.018.024.033.05.044.078l.004.01v.002a.41.41 0 0 1 .029.1v.007c.002 0 .002.002.002.003l.01.1v.008c0 .021.003.047.002.07v.005a2.91 2.91 0 0 1-.116.69v.002c-.36 1.33-2.216 8.068-3.948 14.302.013.04.023.082.036.123l.027.1c1.548 5.572 2.982 10.754 3.14 11.23.531 1.611 1.67 2.94 3.397 2.951a8261.244 8261.244 0 0 0 2.8-10.156c-2.174-7.838-4.88-17.718-5.212-19.066z" fill="#29333d"/><path d="M146.543 12.31v-.01a1.502 1.502 0 0 0-.01-.098v-.003l-.003-.008a.442.442 0 0 0-.027-.1l-.004-.01h-.001a.456.456 0 0 0-.043-.08l-.028-.038a.427.427 0 0 0-.053-.05l-.008-.007-.002-.002a.469.469 0 0 0-.149-.08l-.016-.004a.017.017 0 0 0-.009-.003c-.004-.001-.01-.002-.014-.005h-.004l-.023-.005a1.446 1.446 0 0 0-.117-.019h-.01l-.001-.001-.067-.007h-.003c-.015 0-.03-.002-.045-.004a4.338 4.338 0 0 0-.255-.006h-.008l-.531-.001c-1.506 0-4.848-.004-5.917.004l-.092.001-.065.001c-.528.033-.63.305-.79.938-.195.792-2.958 10.848-5.18 18.913l-.238.865-1.118 4.057c-.856 3.105-1.444 5.234-1.445 5.234h5.592c1.74 0 2.886-1.333 3.42-2.95.158-.477 1.592-5.66 3.14-11.231.009-.034.017-.067.028-.1a4147.602 4147.602 0 0 0 3.982-14.425v-.002a3.23 3.23 0 0 0 .093-.423c.017-.096.023-.187.023-.267v-.005l-.002-.069zm-18.813 0v-.01c-.002-.016-.004-.054-.01-.098l-.001-.003-.001-.008a.47.47 0 0 0-.028-.1c0-.004-.002-.006-.004-.01a.43.43 0 0 0-.043-.08h-.001a.557.557 0 0 0-.027-.038h-.001a.453.453 0 0 0-.053-.05l-.007-.007c-.002 0-.002-.001-.003-.002a.497.497 0 0 0-.149-.08l-.016-.004a.018.018 0 0 0-.008-.003c-.005-.001-.01-.002-.015-.005h-.003l-.023-.005a1.482 1.482 0 0 0-.118-.019h-.01l-.002-.001-.065-.007h-.003a4.308 4.308 0 0 0-.3-.01h-.008l-.532-.001c-1.506 0-4.847-.004-5.917.004l-.092.001-.065.001c-.527.033-.63.305-.789.938-.194.792-2.955 10.83-5.175 18.89-1.528 5.548-2.8 10.16-2.808 10.18h5.616c1.726-.013 2.864-1.34 3.397-2.952.158-.475 1.591-5.657 3.139-11.23l.029-.099a4304.67 4304.67 0 0 0 3.982-14.425v-.002a3.27 3.27 0 0 0 .092-.423 1.46 1.46 0 0 0 .024-.267v-.006l-.001-.069z" fill="#ef0742"/></svg>