<svg viewBox="0 0 221 63" style="background-color:#ffffff" xmlns="http://www.w3.org/2000/svg" width="221" height="63"><path d="M0 0h221v63H0V0z"/><path d="M211.055 45.245c-.43.123-.798.184-1.166.184-1.29 0-1.904-.553-1.904-2.144v-11.94c0-6.305-5.034-9.366-10.99-9.366-4.542 0-6.997.55-11.847 2.51l-.983 6.367 6.323.674.92-3.122c1.29-.673 2.58-.796 4.237-.796 4.48 0 4.543 3.368 4.543 6.184v.918c-1.413-.183-3.01-.245-4.543-.245-6.324 0-12.892 1.59-12.892 8.387 0 5.755 4.543 7.898 8.533 7.898 4.48 0 7.305-2.694 8.9-5.51.37 3.367 2.395 5.51 6.08 5.51 1.718 0 3.498-.49 4.97-1.286l-.183-4.225zm-16.943-.184c-2.394 0-3.254-1.407-3.254-3.183 0-3 2.456-3.795 5.28-3.795 1.29 0 2.7.183 3.99.367-.184 4.59-3.192 6.61-6.016 6.61zm-10.62-37.04l-11.97 42.062h-7.798l11.97-42.062h7.797zm-16.084 0l-11.97 42.062h-7.798L159.61 8.02h7.798zm-33.15 14.51h8.287v9.92h-8.288v-9.92zm0 17.694h8.287v9.92h-8.288v-9.92zm-12.094-.367l6.262.612-1.72 9.673h-24.125l-.797-4.163 15.224-17.45h-8.656l-1.226 4.286-5.71-.612.983-9.673h24.248l.614 4.164-15.348 17.45h8.963l1.29-4.287zM82.568 21.98c-9.945 0-14.856 6.673-14.856 14.755 0 8.816 5.893 14.02 14.426 14.02 8.84 0 15.225-5.57 15.225-14.388 0-7.714-4.85-14.387-14.795-14.387zm-.184 22.653c-4.297 0-6.507-3.674-6.507-8.45 0-5.203 2.517-8.203 6.568-8.203 3.745 0 6.753 2.51 6.753 8.08 0 5.328-2.7 8.573-6.814 8.573zm-21.793-.55h3.684v6h-11.54v-15.49c0-4.777-1.597-6.613-4.728-6.613-3.806 0-5.34 2.694-5.34 6.55v9.613h3.683v6H34.745v-15.55c0-4.777-1.596-6.613-4.727-6.613-3.807 0-5.342 2.694-5.342 6.55v9.613h5.28v6h-16.82v-6h3.683V28.53h-3.683v-6H24.74v4.164c1.657-2.94 4.542-4.714 8.41-4.714 3.99 0 7.674 1.898 9.024 5.938 1.535-3.673 4.666-5.938 9.024-5.938 4.973 0 9.516 3 9.516 9.55v12.552h-.123z" fill="#fff"/></svg>