<?xml version="1.0" encoding="UTF-8" standalone="no"?>
<svg
   xmlns:dc="http://purl.org/dc/elements/1.1/"
   xmlns:cc="http://creativecommons.org/ns#"
   xmlns:rdf="http://www.w3.org/1999/02/22-rdf-syntax-ns#"
   xmlns:svg="http://www.w3.org/2000/svg"
   xmlns="http://www.w3.org/2000/svg"
   height="33"
   width="221"
   version="1.1"
   viewBox="0 0 221 32.999999"
   data-name="Layer 1"
   id="Layer_1">
  <metadata
     id="metadata120">
    <rdf:RDF>
      <cc:Work
         rdf:about="">
        <dc:format>image/svg+xml</dc:format>
        <dc:type
           rdf:resource="http://purl.org/dc/dcmitype/StillImage" />
        <dc:title>ADP_Brazil_Labs_logo_SVG</dc:title>
      </cc:Work>
    </rdf:RDF>
  </metadata>
  <defs
     id="defs87">
    <style
       id="style85">.cls-1{fill:#ed1b2e;}.cls-2{fill:#919191;}</style>
  </defs>
  <title
     id="title89">ADP_Brazil_Labs_logo_SVG</title>
  <text
     y="-102.74"
     x="-15.08"
     id="text91" />
  <path
     style="fill:#ed1b2e;stroke-width:1"
     id="path93"
     d="m 60.817062,7.0731203 h -4.200747 v 4.1207277 h 4.200747 a 1.8029991,1.7709114 0 0 1 0,3.53919 h -4.200747 v 4.12598 h 4.200747 a 6.0010668,5.8942668 0 0 0 0,-11.7885287 M 36.88245,28.879278 a 12.591524,12.367435 0 0 0 11.385952,-7.07575 h 5.358096 v 7.07575 h 2.997854 v -7.07575 h 4.200747 a 8.9989229,8.8387705 0 1 0 0,-17.6775407 H 53.618461 V 14.733038 H 49.331984 A 12.591524,12.367435 0 0 0 36.88245,4.1233563 H 22.107502 L 7.415604,28.879278 h 3.506873 l 4.195389,-7.07575 h 15.101792 v 7.07575 z m 37.139638,-15.91452 a 13.202347,12.967387 0 0 1 -13.205026,12.96212 v 7.07312 H 49.420393 v -5.52587 A 16.773518,16.475002 0 0 1 36.88245,32.999998 H 26.016232 v -7.07312 h -8.484544 l -4.200747,7.07312 H 0 L 19.591876,3.4528234e-7 H 36.879771 A 16.776197,16.477633 0 0 1 49.417714,5.5258753 V 3.4528234e-7 H 60.814383 A 13.207705,12.97265 0 0 1 74.022088,12.964758 Z M 26.016232,7.0731203 v 7.6599177 h -6.697619 l -2.443292,4.12598 H 30.222337 V 7.0731203 Z m 20.462567,9.4176677 a 9.5990279,9.4281955 0 0 1 -9.596349,9.4282 h -3.664938 v -4.11546 h 3.662259 a 5.4009602,5.3048401 0 0 0 0,-10.60968 H 33.217512 V 7.0731203 h 3.662259 a 9.601707,9.4308269 0 0 1 9.599028,9.4176677 z m 18.415773,14.73567 v -0.47102 h 0.348277 c 0.235756,0 0.300053,0.0684 0.300053,0.21051 0,0.1421 -0.0643,0.26314 -0.33756,0.26314 z m 0.249152,0.28682 c 0.09913,0 0.19557,0 0.267905,0.0763 a 0.72870097,0.7157324 0 0 1 0.104483,0.39207 c 0.01607,0.10789 0.04018,0.22367 0.06698,0.32892 H 65.9528 a 2.9040877,2.8524041 0 0 1 -0.109841,-0.52627 c -0.02679,-0.20262 -0.05894,-0.31576 -0.318806,-0.36313 v 0 a 0.43132668,0.42365043 0 0 0 0.383103,-0.42628 c 0,-0.41839 -0.356313,-0.51049 -0.699231,-0.51049 h -0.608144 v 1.84196 h 0.294695 v -0.78941 z m 0.09109,1.47357 a 1.6074286,1.5788215 0 1 0 -1.607428,-1.57883 1.6074286,1.5788215 0 0 0 1.607428,1.59198 z m 0,-0.28156 a 1.3180915,1.2946336 0 1 1 1.312734,-1.29727 1.3180915,1.2946336 0 0 1 -1.312734,1.31306 z"
     class="cls-1" />
  <rect
     style="fill:#919191;stroke-width:1"
     id="rect95"
     height="24.724344"
     width="1.5404525"
     y="4.1286182"
     x="81.919922"
     class="cls-2" />
  <path
     style="fill:#919191;stroke-width:1"
     id="path97"
     d="m 92.376244,7.1731123 h 8.305046 c 3.24165,0 5.22414,1.920896 5.22414,4.6654157 0,2.30508 -1.56456,3.8418 -3.26843,4.21019 1.98249,0.30261 3.63279,2.30508 3.63279,4.49964 0,2.93661 -1.9825,4.93908 -5.39293,4.93908 h -8.500616 z m 7.905866,7.9309457 c 2.09502,0 3.21486,-1.26306 3.21486,-2.93661 0,-1.67355 -1.11716,-2.9629197 -3.21486,-2.9629197 h -5.585811 v 5.8995297 z m 0.11252,8.34407 c 2.17807,0 3.46401,-1.2078 3.46401,-3.15764 0,-1.67355 -1.17342,-3.15764 -3.46401,-3.15764 h -5.698331 v 6.31528 z"
     class="cls-2" />
  <path
     style="fill:#919191;stroke-width:1"
     id="path99"
     d="m 109.86507,12.222708 h 2.09769 v 2.14194 c 1.09037,-1.39989 2.65494,-2.4156 4.49812,-2.4156 v 2.10509 a 3.6944068,3.628658 0 0 0 -0.83854,-0.0816 c -1.28594,0 -3.04608,1.05255 -3.65958,2.1051 v 9.38609 h -2.09501 z"
     class="cls-2" />
  <path
     style="fill:#919191;stroke-width:1"
     id="path101"
     d="m 127.52535,23.969138 c -1.11716,1.2078 -2.65494,1.84196 -4.47133,1.84196 -2.29059,0 -4.72316,-1.5104 -4.72316,-4.39175 0,-2.96292 2.42989,-4.36281 4.72316,-4.36281 1.84318,0 3.38096,0.57627 4.47133,1.81038 v -2.38928 c 0,-1.78407 -1.45204,-2.79978 -3.40775,-2.79978 -1.60743,0 -2.94695,0.57627 -4.13645,1.84196 l -0.97785,-1.4262 c 1.45204,-1.48147 3.18539,-2.19457 5.39292,-2.19457 2.85051,0 5.22414,1.26306 5.22414,4.47333 v 9.11243 h -2.09501 z m 0,-3.78654 c -0.80371,-1.09728 -2.23433,-1.64723 -3.71584,-1.64723 -1.9557,0 -3.3247,1.20779 -3.3247,2.91029 0,1.7025 1.369,2.89451 3.3247,2.89451 1.48151,0 2.90677,-0.54996 3.71584,-1.64724 z"
     class="cls-2" />
  <path
     style="fill:#919191;stroke-width:1"
     id="path103"
     d="m 133.16742,23.887568 7.43168,-9.85184 h -7.43168 v -1.81302 h 10.18039 v 1.56303 l -7.50134,9.90711 h 7.60046 v 1.78407 h -10.27951 z"
     class="cls-2" />
  <path
     style="fill:#919191;stroke-width:1"
     id="path105"
     d="m 146.635,8.7098283 a 1.4118581,1.3867315 0 1 1 2.82103,0 1.4118581,1.3867315 0 0 1 -2.82103,0 z m 0.36435,3.5128797 h 2.09501 v 13.25421 h -2.09501 z"
     class="cls-2" />
  <path
     style="fill:#919191;stroke-width:1"
     id="path107"
     d="m 153.28439,7.1731123 h 2.09502 V 25.476918 h -2.09502 z"
     class="cls-2" />
  <path
     style="fill:#919191;stroke-width:1"
     id="path109"
     d="m 166.86181,7.1731123 h 2.32005 V 23.448128 h 8.66136 v 2.03142 h -10.98409 z"
     class="cls-2" />
  <path
     style="fill:#919191;stroke-width:1"
     id="path111"
     d="m 189.07379,23.969138 c -1.11716,1.2078 -2.65493,1.84196 -4.47133,1.84196 -2.29058,0 -4.72316,-1.5104 -4.72316,-4.39175 0,-2.96292 2.4299,-4.36281 4.72316,-4.36281 1.84319,0 3.38096,0.57627 4.47133,1.81038 v -2.38928 c 0,-1.78407 -1.45204,-2.79978 -3.40775,-2.79978 -1.60743,0 -2.94695,0.57627 -4.13645,1.84196 l -0.98321,-1.43147 c 1.45205,-1.48146 3.18539,-2.19456 5.39293,-2.19456 2.8505,0 5.22414,1.26306 5.22414,4.47333 v 9.11243 h -2.09502 z m 0,-3.78654 c -0.80371,-1.09728 -2.23432,-1.64723 -3.71584,-1.64723 -1.9557,0 -3.3247,1.20779 -3.3247,2.91029 0,1.7025 1.369,2.89451 3.3247,2.89451 1.48152,0 2.90677,-0.54996 3.71584,-1.64724 z"
     class="cls-2" />
  <path
     style="fill:#919191;stroke-width:1"
     id="path113"
     d="m 195.36152,7.1731123 h 2.09501 v 7.0546957 a 5.6018887,5.5021928 0 0 1 4.55438,-2.33402 c 3.52027,0 6.00643,2.74452 6.00643,6.9705 0,4.30755 -2.48616,6.94418 -6.00643,6.94418 a 5.6822602,5.5811339 0 0 1 -4.55438,-2.30508 v 1.97616 h -2.09501 z m 6.11894,16.7960257 c 2.73799,0 4.35881,-2.16824 4.35881,-5.10485 0,-2.93661 -1.60743,-5.13117 -4.35881,-5.13117 a 5.0124982,4.9232916 0 0 0 -4.01857,2.1393 v 6.01005 c 0.72066,1.15254 2.37364,2.08667 4.01857,2.08667 z"
     class="cls-2" />
  <path
     style="fill:#919191;stroke-width:1"
     id="path115"
     d="m 211.35543,22.240328 a 6.1162659,6.0074157 0 0 0 4.44186,1.89459 c 2.06823,0 3.18539,-0.90519 3.18539,-2.19456 0,-1.45515 -1.64761,-1.9209 -3.46401,-2.36823 -2.29058,-0.52628 -4.88926,-1.12623 -4.88926,-3.87075 0,-2.05773 1.81639,-3.81548 5.02857,-3.81548 2.29059,0 3.91141,0.84993 5.00178,1.9209 l -0.99928,1.43409 c -0.80372,-0.96045 -2.29059,-1.67355 -4.01857,-1.67355 -1.84319,0 -2.98982,0.82362 -2.98982,2.00247 0,1.28937 1.53777,1.7025 3.29791,2.1051 2.34952,0.53154 5.05,1.18411 5.05,4.12599 0,2.2235 -1.81639,4.00757 -5.30987,4.00757 -2.20753,0 -4.08019,-0.65784 -5.44918,-2.08668 z"
     class="cls-2" />
</svg>
