<svg viewBox="0 0 45 16" style="background-color:#ffffff00" xmlns="http://www.w3.org/2000/svg" width="45" height="16"><path d="M24.855 11.073l-.527-1.423a.343.343 0 0 0-.204-.201.315.315 0 0 0-.28.036c-.154.099-.562.333-1.024.333-.45 0-.816-.082-.816-1.112V4.198h2.032a.334.334 0 0 0 .323-.34V2.297a.332.332 0 0 0-.323-.34h-2.032V.347a.338.338 0 0 0-.33-.347h-1.15a.33.33 0 0 0-.308.225c-.367 1.042-.907 1.845-1.928 1.937a.334.334 0 0 0-.298.297l.003 1.346a.357.357 0 0 0 .078.274.319.319 0 0 0 .248.119h.924v4.607c0 .667 0 1.498.386 2.178.465.812 1.342 1.205 2.68 1.205.888 0 1.843-.277 2.43-.706a.357.357 0 0 0 .116-.41zM8.514 9.94V2.707a.342.342 0 0 0-.2-.317c-1.104-.489-2.533-.71-3.397-.71C1.837 1.68 0 3.644 0 6.934c0 2.254.995 4.663 3.79 4.663.77 0 1.46-.211 2.017-.607v.244c0 1.683-.5 2.489-1.718 2.489-.494 0-.845-.05-1.134-.162-.163-.066-.195-.099-.195-.343v-.38a.34.34 0 0 0-.358-.346l-1.677.003a.342.342 0 0 0-.302.343v2.208c0 .128.07.251.183.308.81.424 2.355.646 3.464.646 2.78 0 4.247-1.475 4.406-4.406.032-.548.041-1.11.038-1.653zm-3.79-5.963c.382 0 .763.046 1.083.132v3.71c0 1.013-.738 1.465-1.47 1.465-1.055 0-1.508-.77-1.508-2.571 0-1.023.249-2.736 1.895-2.736zm12.559 6.667l-.672-1.493a.327.327 0 0 0-.213-.188.325.325 0 0 0-.277.053c-.433.32-1.115.746-2.032.746-1.03 0-1.636-.501-1.803-1.495 4.115-.141 4.994-2.062 4.994-3.676 0-1.796-1.232-2.911-3.21-2.911-3.238 0-4.69 2.75-4.69 5.475 0 3.234 1.6 5.017 4.499 5.017 1.66 0 2.898-.733 3.322-1.12a.361.361 0 0 0 .082-.408zm-5.076-4.62c.13-1.034.638-2.087 1.74-2.087.484 0 .73.235.73.69 0 1.083-1.517 1.34-2.47 1.396zm29.27-4.344c-1.037 0-1.888.39-2.46.887V2.3a.338.338 0 0 0-.33-.343h-2.821a.332.332 0 0 0-.323.34v1.561c0 .185.145.34.324.34h.691v9.142c0 .042-.003.079-.003.109v.063h-.688a.331.331 0 0 0-.324.336v1.564c0 .185.145.34.324.34h4.07a.329.329 0 0 0 .32-.3v-.01c.004-.01.004-.02.004-.03v-1.564a.33.33 0 0 0-.324-.336h-.691v-1.63a4.166 4.166 0 0 0 1.558.325c2.629 0 4.196-2.055 4.196-5.494 0-4.162-1.916-5.033-3.523-5.033zm-1.009 8.082c-.343 0-.83-.095-1.222-.313V5.402c0-.686.654-1.24 1.454-1.24.359 0 1.451 0 1.451 2.736 0 .861-.163 2.864-1.683 2.864zm-4.978.268a.331.331 0 0 0-.324-.34h-.684V2.3a.338.338 0 0 0-.33-.343h-2.108a.334.334 0 0 0-.323.34V8.3c0 .736-.48 1.482-1.557 1.482-.748 0-.977-.38-.977-1.63V2.3a.338.338 0 0 0-.33-.343H25.74a.332.332 0 0 0-.323.34v1.597c0 .01.003.02.006.03v.003c.003.02.01.037.015.053l.007.017a.676.676 0 0 0 .018.036l.013.023a.17.17 0 0 1 .022.026l.022.024a.09.09 0 0 1 .019.016c.01.007.019.017.029.023a.045.045 0 0 0 .015.007.09.09 0 0 0 .041.02c.003.003.01.003.016.006.012.003.025.01.04.014.013.002.026.002.038.002.007 0 .016.004.022.004h.685v4.436c0 2.924 1.667 3.538 3.068 3.538.964 0 1.86-.33 2.529-.911v.323c0 .191.147.346.33.346h2.811a.422.422 0 0 0 .065-.006.38.38 0 0 0 .028-.01c.01-.003.02-.003.029-.01.012-.003.021-.01.031-.013.007-.007.016-.01.022-.014a.106.106 0 0 0 .026-.02.089.089 0 0 0 .025-.022.036.036 0 0 0 .015-.017.13.13 0 0 0 .026-.032l.008-.018a.166.166 0 0 0 .022-.039l.007-.013a.276.276 0 0 0 .016-.056c.002-.013.006-.023.006-.033v-1.598z" fill="#fff"/></svg>