<svg viewBox="0 0 114 65" style="background-color:#ffffff00" xmlns="http://www.w3.org/2000/svg" width="114" height="65"><path d="M25.227 34.521c0 7.788-5.557 12.37-13.623 12.37-2.9 0-10.426-1.318-10.426-5.242 0-1.34 1.474-3.129 2.851-3.129 2.262 0 4.036 2.11 8.117 2.11 3.442 0 6.014-2.312 6-5.115v-1.69h-.1c-1.474 2.187-3.884 3.38-7.129 3.38C3.492 37.205 0 30.598 0 23.493c0-7.203 4.524-13.91 11.655-13.91 2.409 0 5.163 1.093 6.49 3.278.442-1.887 1.574-2.98 3.54-2.98 2.067 0 3.542 1.59 3.542 3.974v20.666zm-12.639-18.38c-3.688 0-5.507 3.875-5.507 7.203 0 3.825 1.82 7.303 5.507 7.303 3.787 0 5.557-3.577 5.557-7.054 0-3.478-1.671-7.452-5.557-7.452zM26.973 3.975C26.973 1.59 28.448 0 30.514 0c2.064 0 3.54 1.59 3.54 3.975v28.957c0 2.384-1.475 3.973-3.54 3.973-2.066 0-3.54-1.589-3.54-3.973V3.975zm33.855 19.469c0 7.452-5.064 13.76-12.687 13.76-7.621 0-12.687-6.308-12.687-13.76 0-7.254 5.212-13.861 12.687-13.861 7.474 0 12.687 6.607 12.687 13.86zm-18.292 0c0 3.428 1.77 7.203 5.606 7.203s5.606-3.775 5.606-7.203c0-3.428-1.72-7.303-5.606-7.303-3.885 0-5.606 3.875-5.606 7.303zm19.648-19.47C62.184 1.59 63.659 0 65.724 0c2.066 0 3.54 1.59 3.54 3.975v8.09c1.87-1.638 4.28-2.483 6.738-2.483 7.621 0 11.408 7.203 11.408 14.159 0 6.756-4.524 13.462-11.655 13.462-2.41 0-5.162-1.093-6.491-3.278-.442 1.886-1.573 2.98-3.54 2.98-2.065 0-3.54-1.59-3.54-3.975V3.974zM74.82 30.648c3.689 0 5.509-3.875 5.509-7.203 0-3.378-1.82-7.303-5.509-7.303-3.785 0-5.557 3.576-5.557 7.054 0 3.477 1.673 7.452 5.557 7.452zm39.117-7.203c0 7.452-5.064 13.76-12.687 13.76-7.622 0-12.688-6.308-12.688-13.76 0-7.254 5.213-13.861 12.688-13.861 7.475 0 12.687 6.607 12.687 13.86zm-18.293 0c0 3.428 1.77 7.203 5.607 7.203 3.835 0 5.605-3.775 5.605-7.203 0-3.428-1.72-7.303-5.605-7.303-3.885 0-5.606 3.875-5.606 7.303zM17.478 64.999c-2.019 0-3.662-1.66-3.662-3.7s1.643-3.7 3.662-3.7c2.018 0 3.662 1.66 3.662 3.7s-1.643 3.7-3.662 3.7zm14.534 0c-6.501 0-11.404-5.309-11.404-12.345 0-6.973 5.01-12.433 11.404-12.433 3.045 0 7.877 1.157 7.877 4.264 0 1.566-1.098 3.31-2.674 3.31-.783 0-1.498-.278-2.256-.573-.813-.315-1.654-.642-2.646-.642-3.383 0-4.896 3.05-4.896 6.074 0 2.904 1.716 5.99 4.896 5.99.861 0 2.028-.451 2.966-.811.715-.276 1.28-.493 1.635-.493 1.612 0 2.975 1.396 2.975 3.048 0 3.45-5.41 4.612-7.877 4.612v-.001zm18.776 0c-6.5 0-11.401-5.309-11.401-12.345 0-6.973 5.008-12.433 11.401-12.433 6.394 0 11.403 5.46 11.403 12.433 0 7.036-4.902 12.345-11.403 12.345zm0-18.42c-3.156 0-4.593 3.148-4.593 6.075 0 2.884 1.437 5.99 4.593 5.99 3.158 0 4.595-3.106 4.595-5.99 0-2.925-1.438-6.074-4.595-6.074zM93.39 64.74c-2.004 0-3.405-1.558-3.405-3.788V50.047c0-2.423-1.296-3.988-3.304-3.988-2.034 0-3.347 1.565-3.347 3.988v10.904c0 2.23-1.4 3.787-3.403 3.787-2.005 0-3.405-1.557-3.405-3.787V50.047c0-2.423-1.297-3.988-3.305-3.988-2.912 0-3.346 2.499-3.346 3.988v10.904c0 2.23-1.4 3.787-3.403 3.787-2.005 0-3.405-1.557-3.405-3.787V44.27c0-2.229 1.4-3.787 3.404-3.787 1.516 0 2.605.748 3.011 2.034 1.552-1.504 3.472-2.295 5.59-2.295 2.544 0 4.755 1.037 6.417 3.007 1.7-1.81 4.277-3.007 6.526-3.007 5.415 0 8.78 3.348 8.78 8.739v11.99c0 2.23-1.401 3.787-3.405 3.787z" fill="#003aff"/></svg>