<svg viewBox="0 0 38 20" style="background-color:#ffffff00" xmlns="http://www.w3.org/2000/svg" width="38" height="20"><g fill="#fff"><path opacity=".2" d="M22.86 18.068c4.192-.51 10.397-4.022 11.434-5.728l.856-1.067-.647-2.172-.378-1.77c-3.294-4.583-8.168.516-9.477 3.782h-.067l-.185.748c-.04.028-.167.133-.126.194l-1.008.507-.06.058c-.018-.029-.197-.532-.251-.438-.468-3.221 3.63-5.741 3.764-6.106.21-.578.385-1.063-.059-1.574-.169-.196-.478-.205-.689-.313v-.067l-.756-.312c-4.648.456-6.226 7.763-5.86 12.186l-1.198.01c.614-4.296-1.102-11.713-6.01-12.196l-.757.312v.067c-.211.108-.52.117-.689.313-.444.511-.27.996-.059 1.574.134.365 4.232 2.885 3.764 6.106-.054-.094-.233.41-.252.438l-.058-.058-1.009-.507c.04-.06-.086-.166-.126-.194l-.184-.748h-.068C11.396 7.847 6.522 2.748 3.228 7.33L2.85 9.1l.223.764.084 1.641c-.132 3.142 16.38 10.104 19.702 6.562z"/><path d="M19.896 14.685c-.668-2.399.249-5.201 1.186-7.401.962-2.258 2.786-5.46 5.526-5.632 5.914-.375 1.823 10.034-3.022 9.955l.774.784c-.223-3.618 2.942-6.24 6.168-7.014 3.49-.837 6.812 2.23 5.753 5.854-.869 2.975-5.037 4.391-7.596 5.242-2.724.909-5.55 1.45-8.36 2.003-.981.192-.565 1.7.41 1.507 5.546-1.088 18.384-2.908 17.187-11.107-1.372-9.39-15.605-4.513-15.11 3.515.026.429.332.773.774.78 5.595.092 11.228-10 4.729-12.768-6.628-2.822-11.238 9.943-9.912 14.697.27.968 1.765.558 1.494-.415z"/><path d="M18.104 14.685c.668-2.399-.249-5.201-1.186-7.401-.963-2.258-2.786-5.46-5.526-5.632-5.914-.375-1.823 10.034 3.022 9.955l-.774.784c.223-3.618-2.942-6.24-6.168-7.014C3.982 4.54.66 7.607 1.72 11.231c.869 2.975 5.037 4.391 7.596 5.242 2.724.909 5.55 1.45 8.361 2.003.98.192.564 1.7-.411 1.507C11.719 18.895-1.12 17.075.078 8.876c1.372-9.39 15.605-4.513 15.11 3.515-.026.429-.332.773-.774.78-5.595.092-11.228-10-4.729-12.768 6.628-2.822 11.238 9.943 9.912 14.697-.27.968-1.765.558-1.494-.415z"/></g></svg>