<?xml version="1.0" encoding="UTF-8" standalone="no"?>
<svg
   xmlns:dc="http://purl.org/dc/elements/1.1/"
   xmlns:cc="http://creativecommons.org/ns#"
   xmlns:rdf="http://www.w3.org/1999/02/22-rdf-syntax-ns#"
   xmlns:svg="http://www.w3.org/2000/svg"
   xmlns="http://www.w3.org/2000/svg"
   version="1.1"
   viewBox="0 0 150 41.176362"
   height="41.176361"
   width="150"
   id="logo-umbler">
  <metadata
     id="metadata246">
    <rdf:RDF>
      <cc:Work
         rdf:about="">
        <dc:format>image/svg+xml</dc:format>
        <dc:type
           rdf:resource="http://purl.org/dc/dcmitype/StillImage" />
        <dc:title>umbler-logo-primary-bg</dc:title>
      </cc:Work>
    </rdf:RDF>
  </metadata>
  <defs
     id="defs244" />
  <title
     id="title225">umbler-logo-primary-bg</title>
  <path
     style="fill:#557cf2;stroke-width:0.99999994"
     id="path227"
     d="m 148.46534,11.78562 c -3.66849,-0.0311 -14.07536,0.46613 -14.07536,7.64446 0,1.89067 0,20.31327 0,20.32635 a 1.5226773,1.5226773 0 0 0 1.51941,1.4131 h 3.05026 a 1.5243128,1.5243128 0 0 0 1.52431,-1.5145 V 21.23734 c 0,-1.23319 0.0769,-3.62106 5.99585,-3.62106 0.70491,0 1.0909,-0.20444 1.52104,-0.75234 a 21.86702,21.86702 0 0 0 1.7402,-2.54816 c 0.73926,-1.21192 -0.23551,-2.52035 -1.27571,-2.53016 z" />
  <path
     style="fill:#557cf2;stroke-width:0.99999994"
     id="path229"
     d="m 128.22567,32.98207 c -0.5201,-0.52009 -1.57011,-0.81776 -2.46474,0.1243 a 8.889099,8.889099 0 0 1 -12.89942,-1.068 c 3.59817,-0.88972 12.43002,-3.62596 15.81884,-6.40963 2.81638,-2.31101 4.20004,-5.39725 1.38202,-9.32252 -2.65446,-3.71265 -6.59936,-4.52223 -10.24495,-4.52223 -0.072,0 -0.14393,0 -0.21589,0 a 14.626534,14.626534 0 0 0 -9.08046,3.31685 14.783545,14.783545 0 0 0 -3.92527,4.972 14.691955,14.691955 0 0 0 13.22652,21.09833 c 2.32082,0 6.12015,-0.76543 9.5564,-3.54419 l 0.80795,-0.80959 a 1.4376298,1.4376298 0 0 0 -0.0703,-1.96264 z M 113.8183,19.89784 c 1.58319,-1.44417 3.8484,-2.50399 6.15613,-2.50399 1.53576,0 3.1762,0.14065 4.08882,1.25445 0.47921,0.58715 0.38926,1.57665 -0.054,2.25866 -1.55702,2.39605 -11.10524,4.78229 -13.08423,5.10613 a 8.885828,8.885828 0 0 1 2.89652,-6.11361 z" />
  <path
     style="fill:#557cf2;stroke-width:0.99999994"
     id="path231"
     d="M 100.70136,41.17444 H 97.876795 A 1.6355288,1.6355288 0 0 1 96.241267,39.53891 V 1.64861 a 1.6355288,1.6355288 0 0 1 1.635528,-1.63553 h 2.824565 a 1.6355288,1.6355288 0 0 1 1.63553,1.63553 v 37.8903 a 1.6355288,1.6355288 0 0 1 -1.63553,1.63553 z" />
  <path
     style="fill:#557cf2;stroke-width:0.99999994"
     id="path233"
     d="m 93.464139,18.80858 c 0,-9.07064 -9.101718,-7.48909 -15.591496,-5.44631 V 1.63553 A 1.6355288,1.6355288 0 0 0 76.237114,0 h -2.855633 a 1.6355288,1.6355288 0 0 0 -1.635529,1.63553 v 33.21105 c 0,1.05164 0.600239,2.73297 1.892307,3.43461 2.307731,1.25118 19.82588,7.74586 19.82588,-4.13298 z m -6.146317,12.50035 c 0,1.27898 -0.480846,2.44511 -1.540669,3.20073 -1.987167,1.418 -5.73907,-0.14393 -6.771089,-0.73435 C 78.430358,33.4482 77.871007,32.9788 77.871007,32.28043 V 20.67636 c 0,-0.70001 0.557716,-1.16614 1.135057,-1.49488 1.032019,-0.59042 4.783922,-2.15235 6.771089,-0.73435 1.059823,0.75561 1.540669,1.92175 1.540669,3.20073 z" />
  <path
     style="fill:#f5b9d4;stroke-width:0.99999994"
     id="path235"
     d="M 20.702734,25.28528 A 4.1231681,4.1231681 0 0 1 12.819485,24.51494 4.0675601,4.0675601 0 0 1 12.750795,23.9098 1.1563189,1.1563189 0 0 0 11.80546,22.80091 L 9.8428257,22.45417 a 1.308423,1.308423 0 0 0 -1.5406681,1.261 q 0,0.0196 0,0.0393 a 8.5701709,8.5701709 0 0 0 16.6382344,2.89162 1.308423,1.308423 0 0 0 -1.012393,-1.70913 l -1.962634,-0.34673 a 1.1448702,1.1448702 0 0 0 -1.262628,0.6951 z" />
  <path
     style="fill:#557cf2;stroke-width:0.99999994"
     id="path237"
     d="m 58.225035,12.37932 -5.127383,2.09838 c -2.332264,-4.28672 -8.004277,-2.04768 -8.169466,-1.95282 l -7.359879,2.67245 c -0.654212,0.19627 -1.336228,0.98132 -1.336228,2.0346 v 22.30044 a 1.6355288,1.6355288 0 0 0 1.635529,1.63553 h 2.857269 a 1.6355288,1.6355288 0 0 0 1.635529,-1.63553 V 19.80952 c 0,-0.70164 0.557715,-1.17103 1.135057,-1.50141 1.032019,-0.5937 3.194188,-1.82525 4.509153,-0.8472 1.045103,0.77687 1.540668,1.92992 1.540668,3.21381 v 18.85765 a 1.6355288,1.6355288 0 0 0 1.635529,1.63553 h 2.855633 a 1.6355288,1.6355288 0 0 0 1.635529,-1.63553 V 19.80952 c 0,-0.70164 0.557715,-1.17103 1.133421,-1.50141 1.032019,-0.5937 3.194188,-1.82525 4.509153,-0.8472 0.981317,0.73108 1.517771,1.60608 1.517771,2.70516 v 19.3663 a 1.6355288,1.6355288 0 0 0 1.635529,1.63553 h 2.855633 a 1.6355288,1.6355288 0 0 0 1.635529,-1.63553 V 19.80952 c 0.0049,-3.88928 -3.405171,-9.94565 -10.733976,-7.4302 z" />
  <path
     style="fill:#557cf2;stroke-width:0.99999994"
     id="path239"
     d="m 28.711918,18.45204 a 1.6355288,1.6355288 0 0 0 -1.050009,1.82852 13.676292,13.676292 0 0 1 0.204441,2.36007 c 0,6.81361 -4.985092,12.33679 -11.136316,12.33679 -6.151224,0 -11.1363151,-5.52318 -11.1363151,-12.33516 A 13.247783,13.247783 0 0 1 7.4140624,15.87935 1.6355288,1.6355288 0 0 0 7.1703686,13.87746 L 5.3582027,12.0653 A 1.6355288,1.6355288 0 0 0 2.8035067,12.37114 19.883124,19.883124 0 0 0 2.1039523e-4,22.64226 c 0,10.23187 7.49072190477,18.53218 16.72982360477,18.53218 9.239102,0 16.729824,-8.30031 16.729824,-18.53218 a 20.525886,20.525886 0 0 0 -0.343461,-3.7519 1.6355288,1.6355288 0 0 0 -2.170347,-1.25118 z" />
</svg>
