<svg viewBox="0 0 16 20" style="background-color:#ffffff00" xmlns="http://www.w3.org/2000/svg" width="16" height="20"><path d="M14.589 3.062c.334-1.875-.057-2.728-.237-3.021-.669-.239-2.328.615-3.234 1.216-1.477-.434-4.6-.392-5.771.112-2.16-1.552-3.304-1.315-3.304-1.315s-.739 1.329-.195 3.273c-.711.91-1.241 1.553-1.241 3.258 0 .962.113 1.821.367 2.572-.031 0 .341.804.351.804.812 1.479 2.378 2.4 5.019 2.655-.377.287-.83.832-.893 1.461-.474.308-1.427.409-2.168.175-1.038-.329-1.436-2.392-2.99-2.098-.336.063-.27.286.021.476.474.308.92.692 1.263 1.513.265.629.82 1.754 2.576 1.754.697 0 1.186-.085 1.186-.085s.013 1.607.013 2.231c0 .721-.969.924-.969 1.27 0 .137.321.15.578.15.509 0 1.569-.427 1.569-1.176l.01-2.945c0-.765.408-1.007.408-1.007s.051 4.082-.097 4.631c-.174.643-.488.552-.488.839 0 .428 1.276.106 1.699-.833.326-.728.183-4.735.183-4.735l.349-.007s.019 1.834.007 2.672c-.012.868-.07 1.966.444 2.483.338.341 1.431.938 1.431.392 0-.317-.599-.577-.599-1.436v-3.95c.478 0 .407 1.298.407 1.298l.036 2.414s-.107.879.947 1.246c.371.131 1.167.167 1.204-.053.037-.219-.958-.546-.966-1.226-.006-.416.018-.658.018-2.463 0-1.805-.241-2.472-1.082-3.004 2.596-.268 4.204-.913 4.987-2.639.061.001.32-.806.286-.806.176-.652.271-1.423.289-2.336-.005-2.476-1.185-3.353-1.411-3.763z" fill="#e68e2f"/></svg>