<svg viewBox="0 0 131 15" style="background-color:#ffffff00" xmlns="http://www.w3.org/2000/svg" width="131" height="15"><g fill="#fff"><path opacity=".4" d="M65.097 1.905c-.789 0-1.428.642-1.428 1.432 0 .791.639 1.435 1.428 1.435.789 0 1.428-.644 1.428-1.435 0-.79-.639-1.432-1.428-1.432zm.017 2.481c-.57 0-1.032-.463-1.032-1.035 0-.572.462-1.036 1.032-1.036.572 0 1.034.464 1.034 1.036 0 .572-.462 1.035-1.034 1.035z"/><path opacity=".2" d="M15.682 13.677c2.877-.349 7.133-2.754 7.845-3.922l.587-.731-.444-1.487-.26-1.212c-2.26-3.139-5.604.353-6.502 2.59h-.046l-.127.513c-.027.018-.114.091-.087.133l-.692.347-.04.04c-.013-.02-.136-.364-.173-.3-.321-2.206 2.491-3.932 2.582-4.182.145-.396.264-.728-.04-1.078-.116-.134-.328-.14-.473-.214v-.046l-.519-.214c-3.189.313-4.271 5.316-4.02 8.345l-.822.008c.421-2.942-.756-8.021-4.124-8.352l-.519.214v.046c-.145.074-.357.08-.473.214-.305.351-.185.683-.04 1.078.091.25 2.903 1.976 2.582 4.182-.037-.064-.16.28-.173.3l-.04-.04-.692-.347c.028-.042-.059-.114-.086-.133l-.127-.513h-.046c-.898-2.236-4.242-5.729-6.502-2.59l-.259 1.212.153.523.058 1.124c-.091 2.151 11.237 6.919 13.517 4.493z"/><path d="M13.65 11.36c-.458-1.643.17-3.562.814-5.068.66-1.546 1.911-3.738 3.791-3.856 4.058-.257 1.251 6.871-2.073 6.817l.531.536c-.153-2.478 2.018-4.272 4.231-4.803 2.395-.573 4.673 1.527 3.947 4.009-.596 2.037-3.456 3.007-5.211 3.59-1.869.622-3.808.993-5.736 1.371-.673.132-.387 1.164.282 1.032 3.804-.745 12.612-1.991 11.79-7.606-.941-6.431-10.706-3.091-10.366 2.406.018.294.228.529.531.535 3.838.063 7.703-6.849 3.244-8.744-4.547-1.933-7.709 6.809-6.8 10.064.185.663 1.211.382 1.025-.284zM12.42 11.36c.458-1.643-.171-3.562-.814-5.068-.66-1.546-1.911-3.738-3.791-3.856-4.058-.257-1.251 6.871 2.073 6.817l-.531.536c.153-2.478-2.018-4.272-4.231-4.803-2.395-.573-4.673 1.527-3.947 4.009.596 2.037 3.456 3.007 5.211 3.59 1.869.622 3.808.993 5.736 1.371.672.132.387 1.164-.282 1.032-3.804-.745-12.612-1.991-11.791-7.606.941-6.431 10.706-3.091 10.366 2.406-.018.294-.228.529-.531.535-3.838.063-7.703-6.849-3.244-8.744 4.547-1.933 7.709 6.809 6.8 10.064-.185.663-1.211.382-1.024-.284zM41.426 6.231c.892 0 1.602.329 2.131.989.529.66.793 1.444.793 2.354v4.07c0 .213-.106.318-.317.318-.212 0-.317-.105-.317-.316v-4.058c0-.74-.196-1.36-.589-1.859-.409-.559-.975-.838-1.7-.838-.876 0-1.556.4-2.039 1.2-.394.681-.59 1.489-.59 2.426v3.129c0 .211-.107.316-.318.316-.212 0-.318-.105-.318-.316v-4.058c0-.74-.196-1.36-.59-1.859-.423-.559-.99-.838-1.7-.838-.922 0-1.617.333-2.085.997-.408.619-.597 1.466-.566 2.538v3.219c0 .211-.106.316-.317.316-.212 0-.317-.105-.317-.316v-6.939c0-.212.105-.317.317-.317.211 0 .317.105.317.315v1.142c.604-1.077 1.487-1.615 2.651-1.615 1.345 0 2.244.676 2.697 2.023.589-1.348 1.541-2.023 2.856-2.023zM54.414 6.345c.211 0 .317.106.317.318v6.935c0 .213-.107.318-.317.318-.212 0-.318-.105-.318-.318v-1.455c-.711 1.317-1.767 1.978-3.173 1.978-1.043 0-1.912-.394-2.607-1.183-.696-.788-1.042-1.712-1.042-2.774 0-1.061.347-1.986 1.042-2.774.695-.788 1.564-1.183 2.607-1.183 1.406 0 2.462.659 3.173 1.979v-1.523c0-.213.105-.318.318-.318zm-3.491 7.116c.861 0 1.579-.33 2.153-.992.574-.662.861-1.431.861-2.304 0-.874-.287-1.641-.861-2.304-.574-.663-1.292-.994-2.153-.994s-1.579.331-2.154.994c-.574.663-.861 1.43-.861 2.304 0 .873.287 1.642.861 2.304.574.662 1.292.992 2.154.992zM61.123 6.39c.226 0 .34.099.34.295 0 .196-.099.311-.295.341-.892.12-1.572.528-2.041 1.224-.438.619-.657 1.399-.657 2.335v3.038c0 .212-.107.317-.318.317-.212 0-.317-.106-.317-.317v-6.915c0-.212.105-.317.317-.317.211 0 .318.106.318.315v1.392c.287-.479.657-.875 1.11-1.189.514-.344 1.028-.517 1.542-.517zM64.998 6.39c.212 0 .317.107.317.32v6.934c0 .212-.106.318-.317.318-.212 0-.317-.106-.317-.318v-6.934c0-.214.106-.32.317-.32zM77.488 6.231c.89 0 1.601.329 2.13.989.529.66.794 1.444.794 2.354v4.07c0 .213-.107.318-.318.318-.212 0-.317-.105-.317-.316v-4.058c0-.74-.197-1.36-.59-1.859-.407-.559-.974-.838-1.699-.838-.877 0-1.557.4-2.04 1.2-.393.681-.59 1.489-.59 2.426v3.129c0 .211-.106.316-.317.316-.211 0-.317-.105-.317-.316v-4.058c0-.74-.196-1.36-.589-1.859-.423-.559-.99-.838-1.7-.838-.922 0-1.617.333-2.086.997-.407.619-.597 1.466-.566 2.538v3.219c0 .211-.107.316-.318.316-.212 0-.317-.105-.317-.316v-6.939c0-.212.106-.317.317-.317.211 0 .318.105.318.315v1.142c.604-1.077 1.488-1.615 2.652-1.615 1.344 0 2.243.676 2.697 2.023.589-1.348 1.541-2.023 2.856-2.023zM87.233 6.253c1.028 0 1.904.41 2.629 1.228.68.773 1.02 1.684 1.02 2.73 0 1.061-.34 1.979-1.02 2.752-.725.804-1.601 1.205-2.629 1.205-1.406 0-2.463-.659-3.173-1.977v1.496c0 .215-.107.322-.317.322-.212 0-.318-.105-.318-.318v-13.348c0-.214.106-.318.318-.318.211 0 .317.105.317.318v7.912c.71-1.334 1.767-2.001 3.173-2.001zm0 7.255c.861 0 1.578-.332 2.153-.994.575-.662.861-1.43.861-2.304 0-.873-.286-1.641-.861-2.304-.574-.662-1.292-.993-2.153-.993s-1.583.331-2.165.993c-.582.663-.873 1.431-.873 2.304 0 .874.291 1.642.873 2.304.582.662 1.303.994 2.165.994zM97.433 6.186c1.042 0 1.915.397 2.618 1.194.703.795 1.055 1.716 1.055 2.762 0 1.063-.352 1.986-1.055 2.775-.703.787-1.576 1.182-2.618 1.182-1.043 0-1.912-.394-2.607-1.182-.695-.789-1.042-1.713-1.042-2.775 0-1.046.347-1.967 1.042-2.762.695-.797 1.564-1.194 2.607-1.194zm.012 7.253c.864 0 1.584-.331 2.161-.996.576-.664.865-1.436.865-2.311 0-.876-.288-1.643-.865-2.3-.577-.657-1.297-.986-2.161-.986-.866 0-1.586.329-2.162.986-.577.657-.865 1.424-.865 2.3 0 .876.288 1.647.865 2.311.576.665 1.296.996 2.162.996zM107.383 6.186c.892 0 1.609.348 2.153 1.045.514.638.771 1.411.771 2.319v4.049c0 .213-.106.318-.317.318-.212 0-.318-.105-.318-.318v-4.033c0-.741-.203-1.379-.612-1.916-.408-.536-.967-.805-1.677-.805-.892 0-1.572.362-2.04 1.085-.393.632-.59 1.468-.59 2.507v3.164c0 .211-.106.316-.317.316-.212 0-.317-.105-.317-.318v-6.936c0-.212.105-.317.317-.317.212 0 .317.106.317.318v1.114c.62-1.062 1.496-1.592 2.629-1.592zM120.37 0c.212 0 .318.106.318.318v13.303c0 .213-.106.318-.318.318-.212 0-.317-.106-.317-.318v-1.455c-.711 1.319-1.768 1.979-3.174 1.979-1.028 0-1.892-.395-2.595-1.183-.703-.788-1.055-1.713-1.055-2.774 0-1.047.348-1.968 1.043-2.763.695-.796 1.564-1.194 2.607-1.194 1.405 0 2.463.667 3.174 2.002v-7.914c0-.212.105-.318.317-.318zm-3.49 13.485c.861 0 1.579-.332 2.154-.994.574-.662.861-1.43.861-2.304 0-.873-.288-1.641-.861-2.304-.575-.663-1.293-.993-2.154-.993s-1.579.33-2.153.993c-.575.663-.862 1.431-.862 2.304 0 .874.287 1.642.862 2.304.573.662 1.292.994 2.153.994zM127.328 6.186c1.043 0 1.916.397 2.619 1.194.702.795 1.054 1.716 1.054 2.762 0 1.063-.352 1.986-1.054 2.775-.703.787-1.576 1.182-2.619 1.182-1.042 0-1.911-.394-2.607-1.182-.695-.789-1.042-1.713-1.042-2.775 0-1.046.347-1.967 1.042-2.762.695-.797 1.565-1.194 2.607-1.194zm.012 7.253c.865 0 1.585-.331 2.162-.996.577-.664.864-1.436.864-2.311 0-.876-.287-1.643-.864-2.3-.577-.657-1.297-.986-2.162-.986s-1.585.329-2.162.986c-.576.657-.864 1.424-.864 2.3 0 .876.288 1.647.864 2.311.577.665 1.297.996 2.162.996z"/></g></svg>