<svg viewBox="0 0 15 20" style="background-color:#ffffff00" xmlns="http://www.w3.org/2000/svg" width="15" height="20"><g fill="#fff"><path d="M9.862 12.482c.616.614 1.749.614 2.366 0l1.31-1.304c.617-.614.617-1.742 0-2.356l-8.399-8.362c-.616-.614-1.749-.614-2.366 0l-1.31 1.304c-.617.614-.617 1.742 0 2.356l8.399 8.362zM13.538 11.178c.617-.614.617-1.742 0-2.356l-1.31-1.304c-.617-.614-1.75-.614-2.366 0l-8.399 8.362c-.617.614-.617 1.742 0 2.356l1.31 1.304c.617.614 1.75.614 2.366 0l8.399-8.362z"/></g></svg>