<svg viewBox="0 0 20 20" style="background-color:#ffffff00" xmlns="http://www.w3.org/2000/svg" width="20" height="20"><g fill="#fff"><path d="M15.815 19.302c.812.817 2.305.817 3.118 0l.413-.443c.813-.818.813-2.32 0-3.137l-15.205-15.109c-.812-.817-2.305-.817-3.118 0l-.413.443c-.813.817-.813 2.319 0 3.137l15.205 15.109zM.614 15.844c-.806.789-.806 2.271-.002 3.095l.435.42c.801.822 2.276.859 3.083.077l15.216-14.934c.84-.814.877-2.351.075-3.211l-.436-.439c-.805-.862-2.318-.899-3.158-.078l-15.213 15.068z"/></g></svg>