<svg viewBox="0 0 394 393" style="background-color:#ffffff00" xmlns="http://www.w3.org/2000/svg" width="394" height="393"><g><path d="M44.607 308.199l-44.607-10.375 26.53-23.409-24.85-36.155s50.696 13.227 61.789 15.194c11.096 1.954 6.011 56.282 6.011 56.282l-24.873-1.536z" fill="#2c5062"/><path opacity=".8" d="M35.352 268.027l33.402 5.379-10.029-15.032-23.373 9.653z"/><path d="M349.392 308.199l44.608-10.375-26.527-23.409 24.848-36.155s-49.156 13.227-60.251 15.194c-11.094 1.954-6.01 56.282-6.01 56.282l23.333-1.536z" fill="#2c5062"/><path opacity=".8" d="M358.334 266.849l-34.498 6.557 12.66-16.208 21.838 9.651z"/><path d="M53.884 75.557s60.708-23.43 148.241-22.024c87.534 1.406 141.706 22.223 141.706 22.223l-6.188 186.355c-.944 29.237-20.844 57.501-51.749 76.824-34.88 21.809-32.893 20.763-88.451 54.066l-93.673-59.218s-40.474-22.964-45.18-67.015c-4.706-44.051-4.706-191.21-4.706-191.21z" fill="#374313"/><path d="M58.343 79.369s59.138-22.825 144.405-21.456c85.272 1.369 138.042 21.65 138.042 21.65l-6.026 181.538c-.918 28.476-20.306 56.014-50.414 74.833-39.423 24.652-87.104 52.389-87.104 52.389l-90.311-57.413s-39.427-22.371-44.012-65.279c-4.58-42.915-4.58-186.262-4.58-186.262z" fill="#fff"/><path d="M60.988 82.785s57.733-22.284 140.981-20.945c83.243 1.337 134.759 21.135 134.759 21.135l-5.881 177.221c-.902 27.799-19.826 54.686-49.219 73.05-38.486 24.071-85.029 51.153-85.029 51.153l-88.171-56.056s-38.49-21.834-42.965-63.719c-4.475-41.899-4.475-181.839-4.475-181.839z" fill="#374313"/><path d="M75.734 97.798s51.553-19.902 125.9-18.711c74.34 1.201 120.347 18.879 120.347 18.879l-5.252 158.258c-.801 24.829-17.701 48.824-43.949 65.252-34.379 21.495-75.943 45.668-75.943 45.668l-78.743-50.058s-34.369-19.503-38.366-56.9c-3.995-37.421-3.995-162.387-3.995-162.387z" fill="#fff"/><path d="M77.842 99.944s50.673-19.561 123.745-18.391c73.066 1.18 118.285 18.553 118.285 18.553l-5.162 155.554c-.789 24.404-17.398 47.99-43.196 64.133-33.787 21.125-74.64 44.889-74.64 44.889l-77.396-49.199s-33.78-19.173-37.705-55.926c-3.931-36.784-3.931-159.612-3.931-159.612z" fill="#31596d"/><path d="M80.062 102.203s49.743-19.201 121.473-18.052c71.729 1.158 116.118 18.211 116.118 18.211l-5.068 152.706c-.776 23.95-17.081 47.111-42.405 62.949-33.166 20.736-73.271 44.065-73.271 44.065l-75.976-48.292s-33.162-18.825-37.015-54.909c-3.856-36.097-3.856-156.677-3.856-156.677z" fill="#fff"/><path d="M82.748 104.931s48.622-18.765 118.727-17.641c70.104 1.131 113.492 17.8 113.492 17.8l-4.952 149.252c-.759 23.411-16.695 46.049-41.449 61.527-32.416 20.268-71.612 43.071-71.612 43.071l-74.255-47.204s-32.413-18.391-36.179-53.664c-3.773-35.281-3.773-153.14-3.773-153.14z" fill="#f6be3b"/><g fill="#222"><path d="M151.889 279.087c-6.335 0-11.356-.744-15.066-2.229v-21.168c3.887 1.189 7.563 1.787 11.032 1.787 4.961 0 8.592-1.578 10.894-4.731 2.302-3.159 3.451-7.863 3.451-14.115v-94.094h24.396v92.845c0 8.577-1.446 16.016-4.349 22.328-2.902 6.309-6.996 11.117-12.287 14.423-5.294 3.305-11.318 4.955-18.073 4.955zM260.892 241.309c0 12.205-3.091 21.553-9.28 28.041-6.189 6.491-15.111 9.737-26.774 9.737-11.419 0-21.137-2.235-29.148-6.697v-24.025c9.806 6.369 18.806 9.554 26.996 9.554 4.664 0 8.175-1.276 10.54-3.843 2.362-2.552 3.541-6.04 3.541-10.442 0-4.348-1.407-8.323-4.217-11.927-2.809-3.601-7.443-7.603-13.898-12.011-5.621-3.867-9.88-7.576-12.782-11.117-2.902-3.541-5.142-7.516-6.729-11.923-1.582-4.405-2.371-9.526-2.371-15.361 0-11.194 3.121-20.064 9.37-26.614 6.245-6.548 14.631-9.823 25.156-9.823 10.045 0 19.699 2.8 28.967 8.395l-8.073 19.467c-2.866-1.665-5.874-3.153-9.012-4.462-3.137-1.309-6.501-1.966-10.09-1.966-3.947 0-6.978 1.296-9.1 3.885-2.125 2.589-3.184 6.117-3.184 10.584 0 4.407 1.27 8.247 3.809 11.519 2.542 3.275 6.984 6.996 13.319 11.164 8.55 5.716 14.514 11.552 17.893 17.502 3.379 5.956 5.066 12.743 5.066 20.364z"/></g><path d="M356.963 327.673l1.062-60.839s-74.822 15.083-161.781 15.083c-95.335 0-158.457-14.26-158.457-14.26l-1.576 59.296s51.014 16.052 165.333 16.052c101.522 0 155.419-15.331 155.419-15.331z" fill="#31596d"/><g fill="#e89b43"><path d="M191.218 26.047l-9.376-3.331-8.103 6.149.091-10.379-8.498-6.149 9.867-2.784 2.939-9.553 5.795 8.433 9.697.234-5.663 7.82 3.251 9.56zM206.01 26.047l9.377-3.331 8.102 6.149-.091-10.379 8.498-6.149-9.867-2.784-2.939-9.553-5.795 8.433-9.697.234 5.663 7.82-3.251 9.56zM258.14 38.248l-6.254-7.863-10.066.648 5.6-8.314-3.755-9.283 9.718 2.711 7.755-6.39.402 9.988 8.517 5.373-9.454 3.452-2.464 9.677zM140.992 38.248l6.255-7.863 10.066.648-5.6-8.314 3.752-9.283-9.715 2.711-7.755-6.39-.402 9.988-8.517 5.373 9.454 3.452 2.464 9.677z"/></g><g fill="#fff"><path d="M108.96 296.108l-2.32 30.46 7.121.54c1.865.142 3.954-.423 5.365-1.593 1.46-1.251 2.367-3.097 2.525-5.17l.255-3.342c.145-1.904-.695-3.755-1.821-5.202 1.114-1.192 2.084-2.735 2.213-4.427l.219-2.877c.155-2.031-.463-3.992-1.717-5.449-1.214-1.411-3.194-2.285-5.059-2.426l-6.782-.515zm6.398 5.549c.763.058 1.24.519 1.175 1.366l-.4 5.246c-.058.762-.478 1.24-1.284 1.179l-.805-.061.593-7.784.721.055zm.154 19.244c-.068.888-.397 1.289-1.371 1.215l-1.06-.08.635-8.334 1.102.084c.636.048 1.194.559 1.129 1.405l-.435 5.711zM137.923 328.375c-.11-.304-.211-.777-.187-1.201l.01-.169.443-7.754c.107-1.864-.339-3.76-1.839-5.078 1.221-1.248 2.299-2.972 2.406-4.836l.223-3.898c.119-2.076-.539-3.984-1.82-5.417-1.241-1.388-2.983-2.21-4.851-2.317l-7.089-.404-1.136 19.871-.608 10.635 6.028.343.685-11.991 1.061.06c.764.044 1.037.484.989 1.332l-.526 9.194c-.048.847.125 1.537.422 1.554l4.797.273.891.051c.087-.038.132-.078.137-.162l-.038-.087zm-5.253-18.365c-.048.847-.327 1.257-1.134 1.211l-1.061-.06.487-8.516 1.061.06c.806.046 1.035.526.986 1.374l-.339 5.932zM148.32 329.073l6.328.267-3.804-30.737-6.201-.262-6.389 30.307 6.244.263.661-4.558 2.973.125.273 4.598-.085-.003zm-2.545-9.238l1.579-12.164.545 12.253-2.124-.09zM155.339 329.349l13.258.391.163-5.514-6.544-.193 7.085-20.974.114-3.86-12.918-.381-.173 5.853 5.907.174-6.774 20.516-.118 3.987zM170.311 329.768l6.037.129.654-30.553-6.037-.129-.654 30.553zM178.39 329.94l11.862.169.078-5.474-5.612-.08.358-25.079-6.25-.089-.436 30.553zM206.366 299.683l-6.037-.028-.114 24.782c-.004.891-.77.973-1.067.971-.298-.001-1.063-.09-1.058-.981l.029-6.28-6.037-.028-.027 5.941c-.01 2.079.749 3.61 2.145 5.017 1.27 1.279 3.054 1.669 4.924 1.678 1.871.009 3.658-.365 4.94-1.632 1.409-1.394 2.182-2.918 2.191-4.997l.112-24.442zM221.671 320.5c-.011-2.334-.271-3.478-1.638-4.83l-4.524-3.841c-1.025-1.014-1.834-1.265-1.841-2.707l-.016-3.564c-.003-.764.548-.936.931-.938.298-.001.894.166.897.972l.022 4.71 5.952-.027-.02-4.413c-.009-1.952-.696-3.561-2.191-4.997-1.196-1.14-2.601-1.643-4.769-1.633-2.211.01-3.612.526-4.797 1.677-1.482 1.45-2.154 3.065-2.145 5.017l.017 3.819c.009 1.867.566 2.968 1.72 4.108l4.44 3.969c1.452 1.394 1.835 1.519 1.841 2.835l.017 3.734c.004.849-.804.937-1.016.938-.255.001-1.063-.08-1.067-.929l-.024-5.177-5.867.027.022 4.88c.009 1.952.697 3.519 2.191 4.955 1.196 1.183 2.601 1.686 4.77 1.676 2.253-.01 3.824-.569 4.967-1.72 1.482-1.45 2.154-3.023 2.146-4.975l-.016-3.564zM238.331 324.121c.019.891-.744.992-1.042.999-.298.006-1.065-.062-1.084-.953l-.404-18.883c-.019-.891.744-.992 1.042-.999.298-.006 1.065.062 1.084.953l.14 6.535 6.037-.129-.133-6.195c-.044-2.079-.843-3.633-2.275-4.961-1.303-1.246-3.097-1.59-4.967-1.55-1.871.04-3.648.46-4.896 1.76-1.374 1.388-2.106 2.974-2.061 5.053l.39 18.204c.045 2.079.843 3.591 2.276 4.961 1.303 1.246 3.097 1.59 4.967 1.55 1.871-.04 3.648-.46 4.896-1.76 1.373-1.43 2.106-2.974 2.061-5.053l-.128-5.983-6.037.129.135 6.323zM256.825 300.008c-1.362-1.227-3.202-1.546-5.072-1.481-1.87.065-3.684.509-4.957 1.827-1.313 1.404-2.023 3-1.953 5.036l.634 18.28c.072 2.078.89 3.579 2.297 4.889 1.363 1.269 3.202 1.546 5.072 1.481 1.87-.065 3.685-.467 4.957-1.827 1.355-1.406 2.067-2.959 1.995-5.037l-.634-18.28c-.071-2.036-.89-3.579-2.339-4.887zm-3.049 23.715c.029.848-.774 1.003-1.114 1.015-.297.01-1.109-.089-1.139-.937l-.657-18.959c-.029-.848.775-.961 1.072-.971.34-.012 1.15.045 1.18.893l.657 18.959zM276.062 328.41l-1.541-30.522-5.309.267.867 17.168-4.435-16.989-5.649.284 1.541 30.522 5.309-.267-.835-16.533 4.573 16.345 5.479-.276zM278.422 328.257l6.234-.428-.882-12.783 4.156-.286-.304-4.402-4.156.286-.566-8.211 5.598-.385-.35-5.079-11.832.813 2.102 30.475z"/></g></g></svg>