<svg viewBox="0 0 236 110" style="background-color:#ffffff00" xmlns="http://www.w3.org/2000/svg" width="236" height="110"><g><path d="M236 45.782c0 18.63-52.828 33.723-117.999 33.723-65.165 0-118.001-15.093-118.001-33.723 0-18.633 52.836-33.735 118.001-33.735 65.171 0 117.999 15.102 117.999 33.735zM50.56 38.797c-1.68-4.981-4.269-10.387-8.563-13.764-4.203-3.27-9.303-4.599-14.404-4.593-5.071.004-10.185 1.284-14.743 3.355-.939.43-1.442 1.463-1.205 2.466l11.623 48.959c.147.661.608 1.213 1.223 1.485.279.119.577.18.876.18.36 0 .716-.083 1.039-.264 2.398-1.299 4.461-2.733 5.182-3.228.804-.55 1.341-.659 2.054-.681 1.546-.093 3.985 1.218 7.44 1.285.759 0 1.551-.077 2.384-.264 2.292-.493 3.904-1.933 4.664-3.412.779-1.47.885-2.881.898-3.782 0-.37-.022-.66-.045-.837-.02-1.222-.389-2.28-.817-3.358-.667-1.607-1.568-3.254-2.28-4.702-.587-1.155-.988-2.266-1.09-2.764.215-.108.528-.245.901-.373 1.033-.355 2.438-.676 3.63-1 .609-.159 1.157-.322 1.698-.543.275-.115.551-.239.907-.502.176-.139.385-.32.587-.621.205-.309.404-.779.401-1.315-.012-2.181-.699-6.693-2.357-11.725z" fill="#221e1f"/><path d="M40.475 27.512c-3.53-2.73-7.879-3.904-12.439-3.904-4.248-.007-8.652 1.023-12.639 2.723l11.107 46.791c1.721-1.003 3.145-1.99 3.688-2.375 1.297-.916 2.641-1.261 3.898-1.251l7.437 1.272c.545 0 1.094-.054 1.673-.181 1.456-.343 2.12-1.03 2.552-1.801.423-.78.519-1.697.519-2.273l-.022-.438-.013-.121-.007-.076v-.173c.038-.987-.927-3.108-1.987-5.145-1.042-2.099-2.177-4.104-2.225-5.962-.011-.688.224-1.466.837-1.997 1.045-.872 2.571-1.264 4.097-1.694 1.288-.34 2.616-.665 3.204-.886-.101-1.874-.76-5.991-2.185-10.252-1.55-4.683-4.042-9.587-7.495-12.257z" fill="#fff"/><path d="M45.672 66.416c-3.959-.536-6.683-1.698-8.835-3.463-2.145-1.763-3.69-4.018-5.555-6.705-.33-.47-.208-1.119.26-1.435.472-.328 1.117-.213 1.439.258 1.869 2.692 3.332 4.784 5.166 6.278 1.843 1.501 4.093 2.506 7.799 3.008.567.076.963.601.889 1.158-.07.532-.519.906-1.031.906l-.133-.006zM10.066 23.934c.067.437.222 1.157.932 1.897.676.7 1.66.932 2.175.932l.096-.003c.581-.018.824-.102.956-.135h.099c1.561.01 2.946-.682 3.843-1.553.759-.728 1.263-1.575 1.57-2.486.282.048.544.07.8.07.654-.003 1.263-.123 1.878-.337.51-.184 1.037-.476 1.556-.934.161.286.341.551.543.753.577.603 1.176.927 1.727 1.145l.032.019.048.016c.626.231 1.276.338 1.882.338h.01c1.2 0 2.239-.382 3.074-.902.695-.435 1.246-.995 1.715-1.617.26.746.716 1.409 1.261 1.813.84.65 1.747.9 2.667.902h.007c1.002 0 2.132-.35 3.034-1.249 1.788-1.826 2.841-3.816 2.834-5.901.004-1.274-.398-2.376-.836-3.214-.436-.829-.908-1.446-1.25-1.946-.677-.967-1.048-1.496-1.297-1.903-.253-.4-.429-.722-.781-1.444l-.076-.155c1.026-1.103 1.167-2.186 1.2-3.157-.029-1.225-.336-2.599-1.683-3.776l-.113-.096-.127-.087c-.75-.506-1.684-.92-2.802-.924-1.149-.01-2.244.53-2.877 1.131l-.292.321c-.416-.312-.815-.466-1.157-.573-.512-.154-.955-.201-1.405-.205-.725.004-1.443.123-2.206.45-.729.3-1.536.826-2.144 1.74-.285-.693-.773-1.25-1.186-1.515l-.115-.08-.12-.071c-1.096-.65-2.296-.906-3.426-.906-1.699.006-3.264.546-4.61 1.443-.994.686-1.904 1.615-2.496 2.807-.131-.087-.261-.164-.384-.21-.635-.299-1.155-.338-1.596-.352-1.141.035-1.961.352-2.831.893-.832.534-1.75 1.411-2.127 2.878l-.041.183-.02.182c-.105 1.045-.484 2.519-.501 4.288 0 .79.085 1.676.421 2.592.305.865.875 1.756 1.652 2.443 1.264 1.315 2.462 2.256 3.446 3.267l-.231.416c-.244.501-.536.865-.735 1.955-.026.22-.009.762.006.859z" fill="#221e1f"/><path d="M38.718 13.031c-1.352-1.929-1.552-2.225-2.282-3.692-.17-.345-.5-.871-.5-1.474.007-.458.174-.984.84-1.581.375-.343.518-.872.518-1.402 0-.642-.215-1.328-.738-1.771-.5-.393-.945-.501-1.371-.501-.898.006-1.471.7-1.882 1.52-.427.843-.74 1.898-1.062 2.893-.125.409-.189.804-.189 1.203.05 2.994 3.26 5.324 3.967 8.102.08.282.121.559.121.826 0 .653-.221 1.323-.505 2.085-.075.209-.12.421-.12.617.008.905.821 1.389 1.555 1.389h.01c.41 0 .847-.143 1.163-.476 1.519-1.558 2.096-2.887 2.096-4.065-.004-1.496-.894-2.627-1.619-3.673zM30.781 4.214c-.054 1.934-1.703 3.776-1.671 5.513l.027.351c.282 2.326 2.614 4.622 2.654 7.245 0 .673-.168 1.364-.578 2.061-.551.879-1.604 1.653-2.854 1.66-.327 0-.659-.053-1.006-.184-.595-.234-1.129-.64-1.152-1.383-.004-.158.01-.228.055-.344.415-.675 1.228-.646 1.35-.81.404-.454.63-.919.63-1.422 0-.258-.058-.534-.191-.842-.745-1.685-1.709-3.091-2.425-4.663-.349-.563-.49-1.154-.487-1.734.013-1.841 1.088-3.5 2.124-5.33.657-1.049 1.35-1.257 2.106-1.297.695-.035 1.387.281 1.419 1.18zM18.839 6.637c.177 2.006 1.977 3.463 3.21 5.509.747 1.218 1.438 2.717 1.44 4.28.003.98-.285 1.985-1.017 2.924-.441.468-1.145.691-1.792.7-.346 0-.677-.071-.956-.243-.282-.168-.493-.496-.484-.886 0-.141.02-.299.076-.443.207-.708.38-1.335.38-1.935-.005-.331-.051-.65-.173-.993l-.008-.015c-.885-2.799-4.385-4.992-4.441-8.104 0-.316.045-.641.126-.97.558-2.101 2.865-3.567 5.059-3.574.728 0 1.455.173 2.12.562.203.148.356.387.35.624-.035.537-.441.796-.833 1.048-.408.243-.879.437-1.225.531-.564.228-1.385.358-1.667.527-.065.04-.216.102-.166.457zM8.748 8.047c-.198 1.109-.41 2.537-.49 4.043-.061 1.193.284 2.318 1.283 3.157 1.202 1.278 2.591 2.313 3.857 3.697.406.45.551.875.554 1.313 0 .297-.074.605-.208.942-.243.393-.942 1.276-.955 1.93-.069.418.275.709.538.763.299.064.798.028 1.227-.052 1.483-.277 2.671-1.485 2.952-2.716.061-.286.081-.558.081-.819-.061-3.332-3.95-4.904-5.146-7.379-.267-.531-.349-1.159-.349-1.829 0-.898.065-1.873.152-2.806.105-1.115-.087-2.617-1.433-2.57-1.727.061-1.981 1.854-2.064 2.328z" fill="#f48225"/><path d="M13.71 27.666c-1.031.644-1.705 1.482-2.336 1.93-.685.56-.796 1.183-.829 1.785 0 .241.035.496.164.804.12.286.43.698.958.843.882.231 1.724.315 2.52.315l.402-.004-.88-5.673zM23.175 29.963c.862-.502 1.989-.894 2.994-1.321.222-.084.385-.514.32-.877-.048-.22-.184-.506-.302-.528-.833-.163-1.397-.251-2.448-.377-1.145-.14-1.799-.076-2.74-.496-.388-.18-.438-.827-.551-1.254-.439-1.634-.945-3.194-1.616-4.57-.115-.247-.504-.385-.773-.16-.235.224-.438.645-.331 1.11.331 1.611-.455 3.235-.838 4.712l-.508.833c-.772.65-1.544 1.116-2.382 1.606-.775.473-1.443 1.274-2.218 1.855-.401.292-.453 1.165-.116 1.262 1.34.346 2.617.309 3.893.148.051 1.579-.535 3.094-1.077 4.433-.117.282-.199.391-.301.614-.231.519.41 1.119.78 1.052 1.201-.215 1.979-1.671 3.102-2.987.57-.67 1.29-1.824 1.754-1.814.571.014 2.394 1.294 3.85 2.235.827.538 1.5 1.114 2.443.956.237 0 .413-.358.573-.73.193-.449-1.212-2.273-1.212-2.273-.64-.859-1.92-2.447-2.336-3.068-.095-.141-.182-.235.039-.364z" fill="#221e1f"/><path d="M13.722 30.626c.064.201 1.299.013 2.45-.134.837-.106 1.067-.244.973.24-.069.367-.109.861-.183 1.189-.25 1.094-.474 1.829-.754 2.753-.03.112.091.13.229-.026.639-.71 1.038-1.241 1.612-1.974.617-.792 1.341-1.824 2.096-1.248 1.225.942 1.637 1.181 2.705 2.062.201.199 1.442.942 1.571.837.318-.254-1.904-2.736-2.76-3.699-.603-.684-.518-1.193.09-1.443.607-.252 2.725-.852 2.7-1.049-.032-.267-1.683-.16-2.407-.192-.395-.019-1.559.019-1.798-.13-.209-.132-.363-.199-.573-.959l-.856-3.517c-.115-.338-.251-.511-.378.134-.12.594-.301 2.414-.378 2.788-.079.374-.641 1.525-.641 1.525s-1.427 1.083-1.814 1.357c-.482.337-1.956 1.264-1.885 1.486z" fill="#ffd200"/><path d="M39.099 39.894c.044-.003 1.171-.386 2.254-.399.343.009.705.029 1.096.221.395.175.797.722.765 1.236h-.137l-1.28.046-.131.26-.084-.02-.228-.016c-.327 0-.781.074-1.137.158-.356.074-.604.15-.604.15v.004l-.513-1.64z" fill="#221e1f"/><path d="M49.617 44.759c4.01 0 7.262-1.691 7.262-3.778 0-2.087-3.253-3.781-7.262-3.781-4.011 0-7.264 1.46-7.264 3.781 0 2.322 3.253 3.778 7.264 3.778z" fill="#7faf00"/><path d="M55.153 37.542c-1.476-.765-3.41-1.2-5.536-1.2-2.118 0-4.04.373-5.525 1.11-1.463.711-2.6 1.926-2.606 3.53.006 1.611 1.143 2.815 2.606 3.532 1.484.739 3.407 1.103 5.525 1.103 2.126 0 4.059-.438 5.536-1.196 1.445-.752 2.568-1.911 2.59-3.439-.022-1.538-1.145-2.684-2.59-3.44zm-.801 5.347c-1.154.599-2.853 1.017-4.735 1.017-1.903 0-3.609-.363-4.751-.931-1.168-.598-1.652-1.279-1.652-1.993 0-.71.484-1.391 1.652-1.986 1.142-.575 2.848-.935 4.751-.93 1.882-.005 3.581.406 4.735 1.003 1.179.617 1.68 1.363 1.66 1.913.021.553-.481 1.296-1.66 1.907z" fill="#221e1f"/><path d="M32.854 45.984c3.594 0 6.498-2.36 6.498-5.276 0-2.903-2.904-5.267-6.498-5.267-3.587 0-6.494 2.364-6.494 5.267 0 2.916 2.907 5.276 6.494 5.276z" fill="#7faf00"/><path d="M32.854 34.583c-3.939.009-7.328 2.596-7.36 6.126.032 3.537 3.421 6.127 7.36 6.133 3.94-.006 7.331-2.596 7.367-6.133-.037-3.53-3.427-6.117-7.367-6.126zm4.055 9.185c-1.013.816-2.446 1.345-4.055 1.345-1.606 0-3.044-.531-4.052-1.345-1.007-.823-1.58-1.898-1.58-3.059 0-1.152.573-2.227 1.58-3.058 1.009-.81 2.446-1.349 4.052-1.349 1.609 0 3.041.537 4.055 1.349 1.01.831 1.583 1.906 1.583 3.058 0 1.161-.573 2.236-1.583 3.059zM13.79 49.55c-.253-.553-.356-1.168-.356-1.805.013-1.109.298-2.281.995-3.209 1.26-1.687 3.865-4.107 11.196-4.38l.073 1.719c-7.047.342-8.789 2.338-9.898 3.711-.382.483-.641 1.389-.638 2.16 0 .446.089.846.195 1.084.119.238.189.25.202.252l-.345 1.691c-.713-.149-1.187-.685-1.424-1.222zM15.647 56.368c-1.311-.73-2.33-1.991-2.459-3.647-.028-.314-.039-.615-.039-.905-.007-1.354.331-2.69 1.332-3.792.985-1.119 2.505-1.982 4.776-2.77l.577 1.65c-2.125.738-3.366 1.512-4.043 2.282-.66.753-.882 1.524-.889 2.631 0 .231.016.483.036.749.093 1.023.624 1.723 1.577 2.271.949.552 2.308.842 3.748.839.26 0 .524-.006.793-.016l.112 1.743c-.304.022-.602.038-.905.038-1.672-.005-3.297-.331-4.615-1.071z" fill="#221e1f"/><path d="M16.971 47.376c-1.443 1.119-2.91 2.299-2.379 5.031.561 2.891 3.048 3.656 4.356 3.646l-1.977-8.677z" fill="#fff"/><path d="M190.899 68.16c-.327-.694-2.081-.986-3.506-.767-1.047.161-2.596 1.058-3.392 2.676-.836 1.694-.519 5.423.76 8.049 1.481 3.041 3.69 4.684 7.011 4.684h.013c2.995.051 5.862-1.54 7.55-4.306 1.725-2.968 2.901-6.313 3.806-10.034.891-3.705 1.472-5.391 1.719-8.355.621-8.411 4.55-15.431 7.717-23.418.333-.853.541-1.73.561-2.628.081-1.626-.677-3.365-1.867-4.328-1.173-.987-2.485-1.337-3.686-1.369-1.256-.02-2.508.267-3.709 1.148l-.025.019-.05.043c-.994.815-1.802 1.744-2.476 2.731l-.145-.501c-.356-1.167-1.032-2.28-2.019-3.076-.971-.8-2.215-1.238-3.398-1.253-2.49-.036-4.617 1.437-5.729 3.572-.892 1.437-.928 2.729-.979 3.784-.026 1.368.12 2.586.141 3.429.193 4.538.661 9.005.822 13.189.123 2.36.656 3.768 1.099 5.435.52 1.956.975 2.951.975 4.148 0 2.421-1.195 7.127-1.195 7.127z" fill="#221e1f"/><path d="M198.049 47.423c0-1.725.108-11.824-.394-14.084-.332-1.502-.946-2.636-2.752-2.636-1.703 0-3.044 1.289-3.044 4.554 0 1.094.112 2.267.142 3.262.182 4.379.176 7.65.397 11.969.312 6.145 2.501 8.026 2.501 10.979 0 1.462-1.08 6.151-1.494 7.487-.673 2.183-1.261 3.473-1.78 4.209-.48-2.242-2.376-3.942-4.27-2.901-2.192 1.203-1.679 5.107-.363 7.48 1.064 1.92 2.991 2.518 4.764 2.558l.041.002c1.894.043 4.097-1.126 5.27-3.044 2.346-3.833 4.097-11.474 4.885-17.02 1.187-8.362 4.875-16.508 7.904-24.228.236-.603.357-1.155.369-1.654.028-.9-.333-1.633-.866-2.097-.547-.455-1.233-.66-1.895-.682-.689-.007-1.381.177-1.913.572-3.468 2.845-5.308 10.441-6.85 15.449-.129.417-.651.376-.651-.173zM187.986 23.643c-.367-.205-.721-.284-1.072-.284-1.584.051-2.872 1.46-3.606 3.01l-.011.02-.008.025c-.468 1.36-.538 2.968-.673 4.401-.126 1.431-.372 2.662-.893 3.18-2.12 2.169-5.463 3.653-8.344 5.759-2.87 2.082-5.28 4.95-5.271 9.723-.005 5.642 3.86 8.313 6.662 10.699 1.259 1.072 2.619 1.335 3.878 1.334 1.08 0 2.11-.166 3.091-.181.084.054.254.243.421.573.309.607.599 1.57 1.035 2.408.416.817 1.107 1.664 2.245 1.667l.319-.022c.641-.033 1.238-.358 1.758-.758.507-.43.972-.868 1.016-1.554v-.045l-.007-.038c-.746-5.482-1.22-11.025-1.22-16.498 0-6.838.738-13.577 2.603-19.956l.008-.032.008-.037c.025-.132.03-.267.03-.395-.038-1.611-1.378-2.607-1.969-2.999zm-12.95 24.062c0-1.803.969-3.106 2.332-4.026 1.176-.791 2.661-1.231 3.911-1.337-.074 3.101-.714 6.12-.717 9.343 0 .669.025 1.361.096 2.048-.283.088-.559.13-.843.13-2.138.06-4.441-2.701-4.734-5.483v-.003c-.029-.232-.047-.454-.047-.673zM166.551 23.643c-.367-.205-.72-.284-1.071-.284-1.584.051-2.872 1.46-3.607 3.01l-.012.02-.009.025c-.466 1.36-.537 2.968-.672 4.401-.127 1.431-.372 2.662-.893 3.18-2.122 2.169-5.463 3.653-8.342 5.759-2.87 2.082-5.282 4.95-5.273 9.723-.004 5.642 3.86 8.313 6.664 10.699 1.257 1.072 2.619 1.335 3.876 1.334 1.079 0 2.11-.166 3.091-.181.084.054.254.243.421.573.31.607.597 1.57 1.035 2.408.417.817 1.108 1.664 2.245 1.667l.317-.022c.644-.033 1.239-.358 1.76-.758.507-.43.972-.868 1.017-1.554v-.045l-.009-.038c-.746-5.482-1.218-11.025-1.218-16.498 0-6.838.739-13.577 2.603-19.956l.008-.032.007-.037c.025-.132.03-.267.03-.395-.037-1.611-1.378-2.607-1.97-2.999zm-12.949 24.062c0-1.803.969-3.106 2.333-4.026 1.176-.791 2.663-1.231 3.911-1.337-.073 3.101-.714 6.12-.718 9.343 0 .669.026 1.361.097 2.048-.283.088-.558.13-.842.13-2.139.06-4.441-2.701-4.734-5.483v-.003c-.03-.232-.048-.454-.048-.673zM144.046 36.249c-1.212-3.316-3.944-4.644-6.762-4.627-3.045.009-6.25 1.421-8.357 3.254l-.037.03-.028.036c-.264.399-.25.788-.273 1.37 0 .844.141 1.947.459 2.884.164.472.365.908.656 1.253.286.344.712.62 1.229.617.231 0 .461-.045.688-.149 2.407-1.062 4.113-2.425 6.176-2.402.466 0 .961.061 1.498.215.084.022.196.095.306.373.097.278.151.692.151 1.132.004.669-.123 1.42-.273 1.878-.417-.055-1.269-.167-2.26-.167-2.724-.021-7.045.872-9.901 5.83-.85 1.458-1.382 3.773-1.388 5.998.005 1.525.253 3.006.908 4.145 1.096 2.392 2.875 3.595 4.783 4.238 1.907.65 3.949.803 5.812 1.247l.059.007h.053c.057.046.257.409.426.859.212.479.455 1.072.978 1.508.398.344.821.555 1.273.561.891-.023 1.375-.737 1.714-1.547 1.02-2.471 1.343-7.455 1.504-10.252.26-4.498 1.475-8.734 1.482-13.046 0-1.75-.234-3.502-.876-5.245zm-6.223 20.651c-.082.063-.436.155-.913.148-1.047.007-2.65-.334-3.931-.949-1.299-.598-2.167-1.444-2.144-2.252v-.025c.089-2.826 1.24-3.727 2.882-4.363 1.478-.541 3.359-.667 4.965-1.267.207.783.286 1.495.286 2.185.009 2.084-.775 3.968-1.145 6.522zM122.005 35.651c-2.272-4.058-4.629-6.988-7.69-9.65-2.343-2.017-5.162-2.753-7.511-2.763-.279-.069-.585-.097-.911-.097-1.423-.044-3.307.787-3.706 3.177l-.013.045v.055c.013.078-.105.643-.109 1.126.013.236.009.479.181.758.562 1.1 1.459 2.126 1.409 2.669.683 8.275 1.326 16.293 1.326 24.181 0 .924-.012 1.84-.031 2.77-.02.414-.264.745-.679 1.16-.401.401-.953.804-1.282 1.464l-.013.048-.016.048c-.084.306-.127.638-.127.959.036 1.988 1.419 3.818 2.904 4.538h-.003c.962.47 1.952.684 2.918.684h.012c1.987-.003 3.882-.859 5.602-2.03 5.583-3.609 10.152-11.445 10.166-19.584 0-3.227-.729-6.506-2.428-9.558zm-11.808-2.847c3.859.998 6.939 5.922 8.128 10.429.231.843.34 1.673.34 2.515 0 3.171-1.496 6.367-2.904 9.229-.776 1.656-2.751 3.875-4.333 3.798l-.238-.013c-.034-.234-.087-.628-.119-1.108-.423-4.997-.817-20.924-.874-24.85zM88.755 56.441c.766.553 1.769.839 2.786.839 1.321 0 2.712-.482 3.539-1.623 2.405-3.389 4.255-7.338 4.255-11.882 0-1.098-.109-2.225-.337-3.384-.512-2.532-1.299-5.114-2.792-7.421-1.25-1.822-3.033-3.063-4.809-3.073-1.464-.018-2.814.961-3.433 2.904-.59 1.897-2.65 4.155-3.568 8.39-.286 1.264-.416 2.564-.416 3.852 0 4.532 1.658 8.934 4.763 11.389l.012.008zm.094-11.304c-.004-1.386.567-3.036 1.279-4.3.35-.632.74-1.168 1.08-1.524.178-.173.332-.312.458-.382l.156-.082c1.222 1.773 1.855 4.078 1.853 5.962 0 1.065-.208 1.99-.557 2.586-.365.608-.788.893-1.437.9-.202 0-.438-.023-.692-.1-1.623-.519-2.109-1.592-2.139-3.059zM74.861 54.133c.294-1.803-.602-2.261-.984-2.403-.392-.146-2.179-.536-1.681-3.366.52-2.959 3.338-3.773 5.716-3.773 2.175 0 5.023 1.276 5.024 4.364.003 2.483-1.948 3.283-1.948 3.283-.027 2.561-.446 4.692-1.055 7.036-.748 2.865-1.243 3.678-2.354 4.325-1.754 1.022-4.921 2.348-7.284 2.348-2.605 0-8.155-3.752-9.229-10.201-.439-2.638-.607-5.338-.607-7.992 0-7.698 1.881-15.131 7.169-20.039 2.054-1.94 4.369-2.869 6.671-2.869 2.422 0 4.787 1.025 6.786 2.859.589.503.867 1.177.865 1.814-.019 1.045-.632 1.972-1.414 2.526-.77.524-1.577.701-2.336.701-1.741-.02-3.306-.837-4.687-.821-.367 0-.728.058-1.092.177-1.981.595-3.205 4.22-3.945 7.034-.833 2.991-1.511 6.616-1.511 9.986 0 4.191 1.055 7.891 3.959 9.645.347.229.725.322 1.087.322.713-.003 1.33-.377 1.593-1.099.466-1.19.904-2.445 1.257-3.857zM212.563 32.498v-.343h2.449v.343h-1.021v2.715h-.406v-2.715h-1.021zM216.09 32.155l.965 2.57.971-2.57h.556v3.058h-.386v-2.542h-.009l-.956 2.542h-.347l-.956-2.542h-.009v2.542h-.386v-3.058h.557z" fill="#fff"/><path d="M163.129 93v-.34h2.454v.34h-1.023v2.722h-.407v-2.722h-1.024zM166.664 92.66l.966 2.573.971-2.573h.559v3.062h-.389v-2.548h-.009l-.958 2.548h-.347l-.958-2.548h-.009v2.548h-.387v-3.062h.56zM90.883 88.332l-.646 3.146h-9.262l-.763 3.648h8.569l-.621 2.908h-8.569l-.884 4.171h9.405l-.669 3.146h-13.128l3.556-17.02h13.011zm-7.783-1.524l2.102-3.384h3.627l-3.341 3.384h-2.388zM108.069 88.332l2.841 17.02h-3.725l-.548-3.791h-6.375l-2.148 3.791h-3.939l10.05-17.02h3.843zm-1.766 10.44l-.836-6.769h-.048l-3.677 6.769h4.561zM122.818 107.095c-.35.665-.799 1.213-1.349 1.643-.549.429-1.202.746-1.958.955-.756.206-1.644.308-2.661.308-.62 0-1.246-.07-1.875-.212-.628-.145-1.193-.374-1.695-.694-.502-.316-.907-.732-1.216-1.239-.311-.508-.466-1.135-.466-1.881h3.366c-.016.316.039.586.167.809.128.221.299.404.513.549.215.142.458.244.728.308.27.064.541.096.813.096.541 0 .99-.11 1.349-.334.358-.221.665-.522.919-.906.254-.38.47-.833.645-1.358.174-.526.349-1.08.525-1.669l-.048-.047c-.875 1.161-2.006 1.739-3.389 1.739-.733 0-1.394-.119-1.981-.357-.59-.238-1.087-.58-1.493-1.024-.405-.444-.721-.973-.943-1.585-.222-.612-.334-1.3-.334-2.063 0-.906.139-1.8.419-2.679.278-.882.683-1.678 1.216-2.386.533-.706 1.186-1.277 1.958-1.715.772-.438 1.651-.656 2.638-.656.859 0 1.615.168 2.269.502.651.334 1.152.906 1.503 1.716h.048l.382-1.884h3.247l-2.459 11.68c-.206.923-.485 1.718-.836 2.386zm-5.037-11.395c-.429.302-.788.679-1.074 1.132-.286.453-.504.955-.656 1.501-.153.549-.227 1.071-.227 1.562 0 .366.043.711.131 1.039.087.325.227.615.417.868.192.256.43.453.717.598.286.142.629.215 1.026.215.604 0 1.135-.148 1.589-.441.453-.296.827-.668 1.122-1.12.294-.453.516-.958.667-1.515.151-.554.228-1.097.228-1.62 0-.778-.201-1.419-.597-1.918-.398-.502-1.011-.752-1.839-.752-.573 0-1.074.151-1.504.453zM127.2 97.403c.325-.929.795-1.745 1.408-2.444.611-.697 1.356-1.251 2.232-1.655.875-.406 1.861-.61 2.959-.61.845 0 1.621.108 2.328.323.708.215 1.317.537 1.825.967.51.427.904.969 1.182 1.619.279.653.419 1.422.419 2.314 0 1.079-.165 2.093-.49 3.039-.325.946-.799 1.768-1.42 2.467-.621.699-1.374 1.248-2.256 1.642-.883.398-1.891.598-3.02.598-1.719 0-3.091-.441-4.118-1.324-1.027-.882-1.54-2.206-1.54-3.968 0-1.051.163-2.041.49-2.969zm3.055 4.017c.103.334.258.627.466.882.207.252.461.456.763.606.302.151.653.227 1.051.227.636 0 1.181-.171 1.635-.511.454-.342.827-.772 1.122-1.289.295-.516.513-1.077.657-1.68.143-.604.216-1.167.216-1.692 0-.824-.188-1.486-.561-1.98-.375-.491-1.016-.737-1.923-.737-.621 0-1.157.171-1.61.511-.454.342-.824.769-1.111 1.277-.286.508-.501 1.059-.645 1.657-.143.595-.214 1.155-.214 1.68 0 .366.051.714.154 1.048zM145.498 93.029l-.501 2.217.048.046c.382-.856.959-1.504 1.731-1.942.772-.438 1.612-.656 2.519-.656.349 0 .699.023 1.049.073l-.692 3.288-.716-.142c-.239-.049-.477-.072-.715-.072-.654 0-1.206.113-1.66.334-.453.223-.836.525-1.145.905-.311.383-.558.816-.74 1.301-.185.484-.331.99-.442 1.512l-1.147 5.46h-3.366l2.555-12.324h3.222zM151.417 94.829c.366-.517.813-.932 1.337-1.251.525-.316 1.114-.543 1.766-.68.653-.133 1.33-.203 2.03-.203.557 0 1.136.041 1.743.119.605.081 1.161.235 1.67.464.51.232.927.557 1.254.978.326.421.481.981.465 1.68 0 .589-.087 1.28-.263 2.075l-1.097 4.957c-.064.221-.108.496-.133.821-.023.325-.035.61-.035.848 0 .206.039.444.119.714h-3.389v-1.216c-.462.526-1.028.912-1.696 1.155-.668.247-1.36.372-2.077.372-.667 0-1.253-.087-1.754-.264-.501-.174-.918-.406-1.253-.703-.334-.293-.581-.636-.74-1.025-.16-.389-.24-.798-.24-1.228 0-1.193.41-2.145 1.23-2.859.82-.717 1.978-1.161 3.474-1.335.796-.096 1.488-.168 2.077-.215.589-.049 1.079-.125 1.468-.227.389-.104.68-.256.872-.453.19-.2.286-.496.286-.894 0-.319-.071-.572-.215-.763-.142-.192-.323-.343-.538-.453-.214-.111-.445-.186-.692-.227-.247-.041-.481-.061-.703-.061-.606 0-1.147.148-1.623.441-.478.296-.773.752-.884 1.373h-3.175c.112-.781.35-1.428.716-1.945zm5.061 5.076c-.493.058-.987.102-1.48.133-.318.032-.629.081-.931.154-.302.072-.568.18-.799.322-.231.142-.417.337-.561.584-.142.247-.215.56-.215.941 0 .461.188.807.561 1.039.375.23.808.346 1.303.346.525 0 .966-.085 1.324-.25.357-.168.66-.383.907-.644.247-.265.442-.56.586-.894.142-.334.262-.668.357-1.001l.335-1.193c-.43.256-.891.409-1.385.465z" fill="#221e1f"/></g></svg>