<svg viewBox="0 0 201 47" style="background-color:#ffffff00" xmlns="http://www.w3.org/2000/svg" width="201" height="47"><g fill="#44443f"><path opacity=".2" d="M24.062 20.971c4.414-.536 10.945-4.223 12.037-6.014l.901-1.121-.681-2.282-.398-1.857c-3.467-4.812-8.598.542-9.976 3.971h-.071l-.195.787c-.042.028-.175.138-.133.204l-1.061.53-.062.062c-.02-.03-.208-.559-.265-.46-.493-3.383 3.822-6.029 3.962-6.412.222-.607.406-1.114-.062-1.654-.178-.205-.503-.214-.725-.327v-.071l-.796-.327c-4.892.479-6.554 8.152-6.168 12.796l-1.261.011c.646-4.511-1.16-12.3-6.327-12.807l-.796.327v.071c-.222.114-.548.122-.725.327-.468.54-.284 1.047-.062 1.654.14.383 4.455 3.029 3.962 6.412-.057-.099-.246.429-.265.46l-.062-.062-1.061-.53c.043-.066-.091-.176-.133-.204l-.195-.787h-.071c-1.378-3.429-6.508-8.783-9.976-3.971l-.398 1.857.234.803.089 1.724c-.139 3.299 17.242 10.61 20.739 6.89z"/><path d="M20.944 17.419c-.703-2.518.262-5.46 1.248-7.772 1.013-2.371 2.933-5.731 5.816-5.913 6.226-.393 1.919 10.537-3.181 10.454l.815.821c-.235-3.799 3.096-6.55 6.492-7.363 3.674-.879 7.171 2.343 6.056 6.147-.914 3.121-5.302 4.609-7.996 5.504-2.867.953-5.843 1.523-8.801 2.102-1.032.202-.594 1.784.433 1.583 5.837-1.143 19.351-3.055 18.091-11.661-1.444-9.861-16.426-4.74-15.905 3.688.028.452.35.813.815.821 5.889.096 11.819-10.5 4.977-13.406-6.976-2.964-11.828 10.439-10.433 15.432.284 1.018 1.858.585 1.572-.436zM19.056 17.419c.703-2.518-.262-5.46-1.248-7.772-1.013-2.371-2.932-5.731-5.816-5.913-6.226-.393-1.919 10.537 3.181 10.454l-.815.821c.235-3.799-3.096-6.55-6.492-7.363-3.674-.879-7.171 2.343-6.056 6.147.914 3.121 5.302 4.609 7.996 5.504 2.867.953 5.843 1.523 8.801 2.102 1.032.202.594 1.784-.433 1.583-5.837-1.143-19.351-3.055-18.091-11.661 1.444-9.861 16.426-4.74 15.905 3.688-.028.452-.35.813-.815.821-5.889.096-11.819-10.5-4.978-13.406 6.976-2.964 11.828 10.439 10.433 15.432-.284 1.018-1.858.585-1.572-.436z"/><path opacity=".4" d="M99.881 2.921c-1.21 0-2.191.983-2.191 2.196 0 1.214.981 2.198 2.191 2.198 1.211 0 2.191-.985 2.191-2.198 0-1.212-.981-2.196-2.191-2.196zm.026 3.806c-.875 0-1.583-.71-1.583-1.588 0-.877.709-1.589 1.583-1.589.877 0 1.585.712 1.585 1.589 0 .878-.709 1.588-1.585 1.588z"/><path d="M63.562 9.554c1.368 0 2.458.505 3.27 1.517.812 1.011 1.217 2.214 1.217 3.608v6.242c0 .326-.162.488-.487.488-.325 0-.487-.163-.487-.487v-6.221c0-1.135-.301-2.086-.904-2.85-.627-.857-1.496-1.285-2.609-1.285-1.344 0-2.387.614-3.129 1.841-.605 1.043-.905 2.283-.905 3.719v4.796c0 .324-.164.487-.487.487-.326 0-.487-.163-.487-.487v-6.221c0-1.135-.301-2.086-.905-2.85-.648-.857-1.518-1.285-2.608-1.285-1.414 0-2.48.51-3.199 1.529-.626.95-.916 2.248-.869 3.892v4.936c0 .324-.164.487-.487.487-.326 0-.487-.163-.487-.487v-10.637c0-.324.161-.487.487-.487.324 0 .487.16.487.481v1.75c.926-1.65 2.282-2.475 4.068-2.475 2.064 0 3.443 1.035 4.139 3.103.904-2.068 2.365-3.103 4.382-3.103zM83.49 9.729c.324 0 .487.162.487.487v10.635c0 .326-.163.488-.487.488-.326 0-.487-.163-.487-.488v-2.232c-1.091 2.022-2.712 3.033-4.869 3.033-1.6 0-2.934-.604-4-1.813-1.067-1.208-1.599-2.627-1.599-4.254 0-1.627.532-3.045 1.599-4.254 1.066-1.208 2.4-1.813 4-1.813 2.157 0 3.778 1.011 4.869 3.033v-2.336c0-.326.161-.487.487-.487zm-5.356 10.912c1.321 0 2.422-.507 3.303-1.522.881-1.016 1.321-2.194 1.321-3.533s-.44-2.516-1.321-3.532-1.982-1.523-3.303-1.523-2.423.508-3.304 1.523c-.881 1.016-1.321 2.193-1.321 3.532s.44 2.517 1.321 3.533c.881 1.015 1.983 1.522 3.304 1.522zM93.784 9.797c.347 0 .522.152.522.452 0 .301-.152.476-.452.522-1.368.184-2.412.811-3.131 1.877-.672.95-1.008 2.143-1.008 3.58v4.658c0 .325-.163.487-.487.487-.326 0-.487-.163-.487-.487v-10.602c0-.324.161-.487.487-.487.324 0 .487.162.487.481v2.134c.44-.734 1.008-1.342 1.703-1.823.789-.527 1.578-.792 2.366-.792zM99.73 9.797c.325 0 .487.164.487.49v10.632c0 .326-.162.489-.487.489-.325 0-.487-.164-.487-.489v-10.632c0-.327.162-.49.487-.49zM118.894 9.554c1.366 0 2.457.505 3.267 1.517.812 1.011 1.218 2.214 1.218 3.608v6.242c0 .326-.163.488-.487.488-.326 0-.487-.163-.487-.487v-6.221c0-1.135-.302-2.086-.905-2.85-.625-.857-1.495-1.285-2.607-1.285-1.346 0-2.389.614-3.131 1.841-.602 1.043-.905 2.283-.905 3.719v4.796c0 .324-.162.487-.487.487-.324 0-.487-.163-.487-.487v-6.221c0-1.135-.301-2.086-.904-2.85-.649-.857-1.519-1.285-2.608-1.285-1.415 0-2.481.51-3.2 1.529-.625.95-.916 2.248-.869 3.892v4.936c0 .324-.163.487-.487.487-.325 0-.487-.163-.487-.487v-10.637c0-.324.162-.487.487-.487.324 0 .487.16.487.481v1.75c.927-1.65 2.283-2.475 4.069-2.475 2.063 0 3.442 1.035 4.139 3.103.904-2.068 2.365-3.103 4.383-3.103zM133.847 9.588c1.577 0 2.921.628 4.033 1.883 1.044 1.186 1.565 2.58 1.565 4.184 0 1.628-.522 3.034-1.565 4.219-1.112 1.232-2.457 1.848-4.033 1.848-2.157 0-3.779-1.01-4.869-3.032v2.295c0 .329-.163.494-.487.494-.325 0-.487-.163-.487-.489v-20.466c0-.327.162-.489.487-.489.324 0 .487.163.487.488v12.134c1.089-2.045 2.712-3.068 4.869-3.068zm0 11.123c1.321 0 2.422-.509 3.303-1.524.882-1.016 1.321-2.194 1.321-3.533s-.439-2.516-1.321-3.532c-.881-1.016-1.982-1.523-3.303-1.523s-2.429.507-3.321 1.523c-.892 1.016-1.339 2.192-1.339 3.532 0 1.339.447 2.517 1.339 3.533.892 1.015 2 1.524 3.321 1.524zM149.496 9.484c1.599 0 2.938.61 4.017 1.831 1.078 1.22 1.618 2.633 1.618 4.236 0 1.628-.54 3.046-1.618 4.255-1.078 1.208-2.417 1.812-4.017 1.812-1.6 0-2.934-.604-4-1.812-1.066-1.209-1.599-2.627-1.599-4.255 0-1.603.533-3.015 1.599-4.236 1.066-1.221 2.4-1.831 4-1.831zm.018 11.122c1.326 0 2.431-.509 3.316-1.528.885-1.019 1.327-2.201 1.327-3.544 0-1.344-.442-2.519-1.327-3.527-.885-1.007-1.99-1.512-3.316-1.512-1.328 0-2.433.505-3.317 1.512-.885 1.008-1.327 2.184-1.327 3.527s.442 2.525 1.327 3.544c.884 1.02 1.989 1.528 3.317 1.528zM164.763 9.484c1.368 0 2.469.534 3.303 1.603.788.977 1.183 2.162 1.183 3.557v6.207c0 .326-.162.488-.486.488-.325 0-.488-.162-.488-.487v-6.186c0-1.136-.311-2.114-.938-2.937-.626-.823-1.484-1.235-2.573-1.235-1.368 0-2.412.556-3.13 1.664-.604.97-.905 2.252-.905 3.845v4.851c0 .323-.162.485-.487.485-.325 0-.486-.162-.486-.487v-10.637c0-.324.161-.486.486-.486.325 0 .487.162.487.487v1.709c.951-1.627 2.296-2.441 4.035-2.441zM184.69 0c.325 0 .487.163.487.488v20.397c0 .326-.162.488-.487.488-.325 0-.486-.163-.486-.488v-2.232c-1.091 2.023-2.713 3.034-4.87 3.034-1.577 0-2.904-.604-3.982-1.813-1.078-1.208-1.618-2.626-1.618-4.254 0-1.604.534-3.016 1.6-4.237 1.067-1.219 2.4-1.83 4-1.83 2.157 0 3.779 1.023 4.87 3.068v-12.133c0-.326.161-.488.486-.488zm-5.356 20.677c1.321 0 2.422-.509 3.304-1.523.88-1.016 1.321-2.194 1.321-3.533 0-1.338-.441-2.516-1.321-3.532-.882-1.016-1.983-1.523-3.304-1.523-1.321 0-2.423.507-3.303 1.523-.881 1.016-1.322 2.194-1.322 3.532 0 1.339.441 2.517 1.322 3.533.88 1.015 1.982 1.523 3.303 1.523zM195.365 9.484c1.6 0 2.939.61 4.018 1.831 1.077 1.22 1.617 2.633 1.617 4.236 0 1.628-.54 3.046-1.617 4.255-1.078 1.208-2.418 1.812-4.018 1.812-1.599 0-2.933-.604-4-1.812-1.066-1.209-1.599-2.627-1.599-4.255 0-1.603.533-3.015 1.599-4.236 1.067-1.221 2.401-1.831 4-1.831zm.018 11.122c1.327 0 2.432-.509 3.317-1.528.885-1.019 1.326-2.201 1.326-3.544 0-1.344-.441-2.519-1.326-3.527-.885-1.007-1.99-1.512-3.317-1.512-1.327 0-2.432.505-3.317 1.512-.885 1.008-1.326 2.184-1.326 3.527s.441 2.525 1.326 3.544c.885 1.02 1.99 1.528 3.317 1.528z"/><g opacity=".4"><path d="M97.14 46.822l-2.609-16.806 1.375-.047 1.714 13.5 1.376-7.806.91-.007 1.606 7.401 1.144-13.026 1.188-.016-1.715 16.745h-.87l-1.755-8.565-1.502 8.517-.862.108zM109.699 46.777v-.942h-2.906l.002-7.115 1.883.001v-.942l-1.883.001-.002-6.842 2.733.005.002-.942-3.607-.001-.067 16.777h3.844zM112.688 46.891h-1.359l.031-16.781.427.014c.076-.016 1.671-.37 2.9.631.829.674 1.25 1.774 1.25 3.27 0 1.586-.683 2.597-1.456 3.232.395.135.746.354 1.037.652.761.779 1.129 2.088 1.093 3.89-.095 4.694-2.78 5.092-3.923 5.092zm-.704-.906c.099.011.588.074.716.074 1.316 0 3.253-.678 3.325-4.214.031-1.539-.447-2.588-1.027-3.18-.428-.438-1.299-.705-2.054-.596-.28.103-.796.112-.96.148v7.769zm.033-15.137v6.252c.129-.035.863.003 1.027-.025 1.013-.395 2.12-1.108 2.12-2.981 0-2.505-1.497-3.246-2.617-3.246h-.53zM137.75 46.75l-1.004.005.035-16.835 1.056.067 2.537 8.884 2.276-8.87 1.101-.064-.018 16.812-1.122-.015.027-12.882-1.927 7.555-.779.007-2.1-7.825-.081 13.16zM131.812 46.764c-1.823 0-3.095-3.449-3.095-8.385 0-4.937 1.272-8.385 3.095-8.385 1.821 0 3.094 3.448 3.094 8.385 0 4.936-1.273 8.385-3.094 8.385zm0-15.829c-.905 0-2.157 2.588-2.157 7.444 0 4.857 1.252 7.443 2.157 7.443.902 0 2.154-2.587 2.154-7.443s-1.252-7.444-2.154-7.444zM160.764 46.764c-1.823 0-3.095-3.449-3.095-8.385 0-4.937 1.272-8.385 3.095-8.385 1.822 0 3.095 3.448 3.095 8.385 0 4.936-1.273 8.385-3.095 8.385zm0-15.829c-.905 0-2.157 2.588-2.157 7.444 0 4.857 1.252 7.443 2.157 7.443.904 0 2.156-2.587 2.156-7.443s-1.252-7.444-2.156-7.444zM197.905 46.764c-1.822 0-3.094-3.449-3.094-8.385 0-4.937 1.272-8.385 3.094-8.385 1.822 0 3.095 3.448 3.095 8.385 0 4.936-1.273 8.385-3.095 8.385zm0-15.829c-.904 0-2.155 2.588-2.155 7.444 0 4.857 1.252 7.443 2.155 7.443.904 0 2.155-2.587 2.155-7.443s-1.252-7.444-2.155-7.444zM177.974 30.027h-2.844l-.028.909h.957l.087 15.069-1.103.002v.942h2.957v-.942l-1.004-.002-.115-15.069h1.119l-.025-.909zM185.938 46.938h-.886l-3.971-12.736v12.938l-.8-.139v-17.008l.751.034 3.993 13.231.031-13.25.938.001-.057 16.93zM192.898 46.764v-16.764h-.828l-.058 8.003h-3.062l.001-7.977-.873-.013v16.752h.905l-.001-7.834 3.05-.02-.002 7.834.868.02zM124.393 46.999c-.699 0-1.364-.41-1.978-1.219-2.201-2.906-1.631-10.923-.508-13.828.427-1.1 1.044-1.764 1.836-1.97 1.18-.307 2.251.565 2.296.602l-.599.724.001.001c-.007-.006-.755-.603-1.466-.414-.482.127-.768.647-1.078 1.447-1.196 3.092-1.57 10.445.267 12.869.457.604.899.89 1.328.842.81-.09 1.536-1.311 1.749-1.774l.853.391c-.1.22-1.019 2.152-2.497 2.318l-.204.011zM152.603 46.999l.204-.011c.655-.073 1.2-.493 1.613-.957l.001.734.618.098-.104-6.882-2.49.035v.726l1.604-.007-.001 3.543c-.246.502-.571 1.69-1.347 1.776-.428.048-1.029-.526-1.486-1.13-1.836-2.424-1.385-9.262-.189-12.354.31-.801.678-1.547 1.16-1.674.711-.188 1.459.409 1.464.413l.6-.724c-.045-.037-1.115-.908-2.296-.602-.793.207-1.41.87-1.836 1.97-1.123 2.904-1.693 10.922.508 13.828.614.809 1.279 1.219 1.977 1.219zM167.106 46.703l-1.361.053.035-16.835 1.056.067 2.537 8.884 2.276-8.87 1.101-.064-.018 16.812-.939.011-.156-12.908-1.927 7.555-.779.007-1.951-7.734.127 13.021z"/></g></g></svg>