<svg viewBox="0 0 300 62" style="background-color:#ffffff00" xmlns="http://www.w3.org/2000/svg" width="300" height="62"><g fill="#fff"><path d="M129.003 41.86h-1.991v-7.16c0-2.58-.963-3.871-2.89-3.871-.963 0-1.773.36-2.429 1.08-.679.753-1.02 1.723-1.02 2.913v7.038h-1.992v-18.397h1.992v8.033h.049c.963-1.578 2.323-2.366 4.08-2.366 2.801 0 4.202 1.691 4.202 5.073v7.657zM138.598 41.739c-.469.267-1.093.4-1.87.4-2.169 0-3.254-1.221-3.254-3.664v-7.354h-2.137v-1.687h2.137v-3.034l1.991-.643v3.677h3.133v1.687h-3.133v7.014c0 .833.142 1.426.425 1.778.284.352.757.528 1.421.528.494 0 .923-.133 1.287-.4v1.699zM147.1 41.739c-.469.267-1.093.4-1.87.4-2.169 0-3.254-1.221-3.254-3.664v-7.354h-2.136v-1.687h2.136v-3.034l1.991-.643v3.677h3.133v1.687h-3.133v7.014c0 .833.142 1.426.425 1.778.284.352.757.528 1.421.528.494 0 .923-.133 1.287-.4v1.699zM161.273 35.271c0 2.03-.482 3.669-1.446 4.914-1.02 1.319-2.428 1.979-4.226 1.979-1.635 0-2.878-.695-3.728-2.087h-.049v7.5h-1.991v-18.143h1.991v2.185h.049c.979-1.659 2.412-2.488 4.298-2.488 1.652 0 2.931.599 3.838 1.797.841 1.1 1.263 2.548 1.263 4.344zm-2.04-.024c0-1.376-.32-2.456-.959-3.24-.64-.785-1.505-1.177-2.598-1.177-1.198 0-2.158.429-2.878 1.286-.647.793-.972 1.772-.972 2.938v1.734c0 1.003.32 1.857.959 2.561.68.744 1.546 1.117 2.599 1.117 1.182 0 2.113-.445 2.793-1.335.704-.922 1.056-2.217 1.056-3.883zM166.497 30.501c0 .372-.134.694-.401.965s-.591.407-.971.407c-.373 0-.688-.134-.947-.401s-.389-.59-.389-.971c0-.372.129-.689.389-.953.259-.263.574-.394.947-.394.381 0 .704.13.971.394.267.263.401.581.401.953zm0 10.267c0 .372-.134.694-.401.965s-.591.407-.971.407c-.373 0-.688-.135-.947-.407-.259-.271-.389-.593-.389-.965 0-.38.129-.704.389-.971.259-.267.574-.401.947-.401.381 0 .704.137.971.407.267.272.401.593.401.965zM179.107 24.458l-8.354 20.291h-1.871l8.331-20.291h1.894zM188.884 24.458l-8.355 20.291h-1.87l8.331-20.291h1.894zM209.724 41.86h-1.992v-7.136c0-1.432-.231-2.451-.692-3.059-.429-.557-1.126-.837-2.089-.837-.858 0-1.583.386-2.174 1.159s-.886 1.701-.886 2.785v7.087h-1.991v-7.379c0-2.435-.943-3.652-2.829-3.652-.866 0-1.579.356-2.137 1.068-.583.737-.875 1.695-.875 2.876v7.087h-1.991v-12.426h1.991v1.966h.049c.882-1.513 2.166-2.27 3.849-2.27.858 0 1.611.242 2.259.729.615.468 1.041 1.088 1.275 1.857.923-1.724 2.299-2.585 4.129-2.585 2.736 0 4.104 1.691 4.104 5.073v7.657zM224.845 35.598c0 1.982-.559 3.572-1.676 4.769s-2.623 1.795-4.517 1.795c-1.87 0-3.352-.599-4.445-1.795-1.069-1.156-1.603-2.682-1.603-4.575 0-2.16.607-3.83 1.822-5.011 1.125-1.101 2.63-1.651 4.517-1.651 1.854 0 3.301.574 4.341 1.723 1.04 1.148 1.56 2.73 1.56 4.745zm-2.04.073c0-1.594-.36-2.808-1.081-3.641-.696-.801-1.672-1.2-2.926-1.2-1.239 0-2.231.404-2.976 1.213-.785.865-1.178 2.092-1.178 3.676 0 1.489.377 2.652 1.129 3.489.753.837 1.761 1.256 3.024 1.256 1.312 0 2.311-.425 2.999-1.275.672-.825 1.008-1.997 1.008-3.519zM238.519 41.86h-1.991v-2.111h-.048c-.923 1.609-2.348 2.414-4.275 2.414-1.53 0-2.76-.542-3.691-1.626-.972-1.116-1.457-2.645-1.457-4.587 0-2.071.518-3.725 1.554-4.963s2.416-1.857 4.141-1.857c1.701 0 2.943.672 3.728 2.015h.048v-7.682h1.991v18.397zm-1.991-5.619v-1.832c0-.995-.324-1.833-.972-2.512-.672-.712-1.522-1.068-2.549-1.068-1.215 0-2.17.443-2.866 1.328-.697.886-1.045 2.113-1.045 3.684 0 1.496.36 2.657 1.081 3.482.664.761 1.53 1.141 2.598 1.141 1.134 0 2.053-.413 2.757-1.238.664-.792.996-1.787.996-2.985zM252.523 36.144h-8.78c.033 1.392.405 2.459 1.117 3.203.712.744 1.692 1.117 2.939 1.117 1.401 0 2.684-.453 3.849-1.359v1.857c-1.085.8-2.525 1.201-4.323 1.201-1.7 0-3.048-.534-4.044-1.602-1.069-1.133-1.603-2.754-1.603-4.866 0-1.998.579-3.612 1.736-4.842 1.085-1.15 2.412-1.724 3.983-1.724 1.684 0 2.972.563 3.862 1.687.841 1.052 1.263 2.48 1.263 4.284v1.043zm-2.04-1.687c-.016-1.132-.284-2.015-.802-2.645-.542-.656-1.311-.983-2.307-.983-.939 0-1.736.334-2.392 1.001-.656.667-1.06 1.543-1.215 2.627h6.716zM261.996 31.448c-.348-.267-.854-.4-1.517-.4-.81 0-1.49.364-2.04 1.092-.623.817-.935 1.947-.935 3.386v6.334h-1.991v-12.426h1.991v2.561h.049c.291-.906.741-1.606 1.348-2.1.567-.453 1.202-.679 1.907-.679.526 0 .923.056 1.19.169v2.063zM274.518 41.86h-1.991v-7.087c0-2.629-.964-3.944-2.891-3.944-.996 0-1.82.372-2.471 1.116-.652.745-.977 1.686-.977 2.828v7.087h-1.992v-12.426h1.992v2.063h.049c.931-1.578 2.291-2.366 4.08-2.366 1.368 0 2.41.445 3.127 1.335.716.89 1.075 2.152 1.075 3.786v7.609zM280.409 40.768c0 .372-.134.694-.4.965-.268.271-.591.407-.972.407-.373 0-.688-.135-.947-.407-.259-.271-.389-.593-.389-.965 0-.38.129-.704.389-.971.259-.267.574-.401.947-.401.381 0 .704.137.972.407.267.272.4.593.4.965zM286.118 41.86h-2.04v-17.402h2.04v17.402zM300 41.86h-9.229v-17.402h8.828v1.845h-6.788v5.789h6.29v1.844h-6.29v6.08h7.189v1.844z"/><path d="M96.244 15.841v33.706" stroke="#1bbbed"/><path d="M59.758 18.95c3.095-7.07 3.312-13.026-.24-16.575-3.901-3.938-13.455-2.761-23.385 1.924-.413-.019-.834-.028-1.248-.028-7.075 0-13.884 2.531-19.066 7.132-4.354 3.865-7.394 9.022-8.806 14.8.992-1.2 6.544-7.73 12.81-11.234.122-.076 1.709-.9 1.842-.933-.118.098-3.212 2.963-3.767 3.525-13.896 14.026-22.006 35.481-15.762 41.871 4.106 4.104 11.625 3.081 20.329-1.597 3.728 1.727 7.925 2.62 12.421 2.62 5.886 0 11.457-1.632 16.098-4.729 4.866-3.237 8.54-8.009 10.65-13.816h-15.338c-1.972 3.757-6.575 6.37-11.272 6.37-6.669 0-12.299-5.446-12.307-11.898l-.023-.253-.035-.303h40.087l.057-.633c.093-.984.2-2.105.2-2.966 0-4.773-1.127-9.297-3.244-13.279zm-53.257 39.311c-3.091-3.085-2.24-9.215 1.637-16.583 1.803 5.001 4.704 9.269 8.499 12.467 1.22 1.029 2.527 1.933 3.906 2.712-6.33 3.277-11.436 4.01-14.042 1.405zm14.83-.984l.173.095-.173-.095zm25.602-28.924h-24.252l.016-.296c.315-6.153 6.138-11.342 12.716-11.342 6.306 0 11.488 4.981 11.794 11.342l.017.296h-.291zm7.425-16.431c-2.72-2.54-5.953-4.512-9.449-5.817 6.342-2.879 11.536-3.266 14.296-.513 2.29 2.291 2 6.521-.343 11.819l.007.003c-1.24-2.005-2.752-3.845-4.511-5.492zm4.988 6.296l-.043-.079.043.079z"/></g></svg>