<svg viewBox="0 0 119 33" style="background-color:#ffffff00" xmlns="http://www.w3.org/2000/svg" width="119" height="33"><g fill="#44443f"><path d="M2.349 16.324c.104.869.104 1.737.104 2.606h.069c1.002-1.772 3.283-3.023 5.425-3.023 4.112 0 6.081 2.328 6.081 6.357v10.317h-2.281v-8.998c0-3.612-1.002-5.592-4.388-5.592-.484 0-4.906.313-4.906 6.253v8.337h-2.281v-12.68c0-.868-.104-2.397-.172-3.578h2.349zM27.159 32.999c-5.01 0-8.569-3.648-8.569-8.546 0-4.897 3.559-8.546 8.569-8.546 5.045 0 8.604 3.649 8.604 8.546 0 4.898-3.559 8.546-8.604 8.546zm0-15.006c-3.732 0-6.081 2.813-6.081 6.46s2.349 6.46 6.081 6.46c3.766 0 6.116-2.813 6.116-6.46 0-3.648-2.35-6.46-6.116-6.46zM47.062 32.581h-2.557l-6.565-16.258h2.729l5.148 13.688h.069l5.148-13.688h2.591l-6.565 16.258zM67 22.612v-.417c0-2.813-1.349-4.203-4.147-4.203-1.902 0-3.561.658-4.943 1.909l-1.382-1.632c1.486-1.528 3.803-2.362 6.843-2.362 3.178 0 5.907 1.806 5.907 5.765v7.261c0 1.251.14 2.779.279 3.648h-2.212c-.139-.799-.209-1.771-.209-2.641h-.067c-1.315 2.153-3.111 3.058-5.702 3.058-2.869 0-5.565-1.599-5.565-4.759 0-5.281 6.186-5.627 10.055-5.627h1.142zm-1.175 1.876c-2.317 0-7.534.173-7.534 3.437 0 2.155 1.969 2.988 3.803 2.988 3.317 0 4.907-2.362 4.907-5.245v-1.181h-1.175zM82.962 18.408h-4.665v9.588c0 2.432.934 2.918 2.35 2.918.795 0 1.658-.243 2.35-.626l.104 2.12c-.827.383-1.933.592-3.075.592-1.727 0-4.008-.765-4.008-4.342v-10.248h-3.421v-2.085h3.421v-4.585h2.281v4.585h4.665v2.085zM87.695 25.079c.276 3.264 2.731 5.835 5.944 5.835 2.417 0 4.283-1.354 5.182-2.813l1.762 1.459c-1.9 2.432-4.283 3.44-6.944 3.44-4.803 0-8.363-3.648-8.363-8.546 0-4.899 3.561-8.546 8.156-8.546 4.905.035 7.738 3.682 7.738 8.128v1.043h-13.475zm10.988-1.876c0-3.092-1.968-5.211-5.251-5.211-2.972 0-5.667 2.537-5.667 5.211h10.918zM117.134 20.145c-.76-1.181-2.246-2.153-4.04-2.153-3.768-.069-6.082 2.745-6.082 6.462 0 3.716 2.314 6.53 6.082 6.46 1.795 0 3.281-.973 4.04-2.154l1.866 1.425c-1.587 1.875-3.732 2.779-5.906 2.814-5.288.068-8.571-3.648-8.571-8.546 0-4.899 3.283-8.615 8.571-8.546 2.175.035 4.319.938 5.906 2.814l-1.866 1.423zM80.007 6.947c.101 1.209 1.011 2.162 2.202 2.162.895 0 1.586-.502 1.92-1.042l.652.54c-.704.9-1.587 1.274-2.572 1.274-1.781 0-3.098-1.351-3.098-3.166 0-1.813 1.317-3.164 3.019-3.164 1.817.013 2.868 1.364 2.868 3.011v.385h-4.992zm4.071-.695c0-1.145-.729-1.93-1.947-1.93-1.1 0-2.096.939-2.096 1.93h4.043zM92.513 9.727h-.845v-1.003h-.028c-.55.811-1.536 1.158-2.327 1.158-1.871 0-3.187-1.351-3.187-3.165s1.316-3.165 3.187-3.165c.791 0 1.777.347 2.327 1.158h.028v-4.709h.845v9.727zm-3.199-.618c1.381 0 2.391-1.042 2.391-2.393 0-1.352-1.01-2.394-2.391-2.394-1.397 0-2.267 1.042-2.267 2.394 0 1.351.87 2.393 2.267 2.393zM94.968 2.007c-.308 0-.615-.257-.615-.617 0-.361.308-.618.615-.618s.615.257.615.618c0 .36-.307.617-.615.617zm.422 7.72h-.844v-6.021h.844v6.021zM100.522 4.477h-1.728v3.551c0 .9.347 1.081.871 1.081.295 0 .615-.09.871-.232l.036.784c-.306.142-.716.219-1.139.219-.64 0-1.485-.283-1.485-1.608v-3.795h-1.266v-.772h1.266v-1.698h.845v1.698h1.728v.772zM104.539 9.881c-1.854 0-3.172-1.351-3.172-3.166 0-1.813 1.318-3.164 3.172-3.164 1.871 0 3.187 1.351 3.187 3.164 0 1.814-1.316 3.166-3.187 3.166zm0-5.558c-1.381 0-2.252 1.042-2.252 2.393 0 1.352.871 2.394 2.252 2.394 1.396 0 2.267-1.042 2.267-2.394 0-1.351-.871-2.393-2.267-2.393zM109.352 5.583c0-.54-.026-1.004-.05-1.878h.83v1.119h.028c.241-.643.87-1.273 1.919-1.273.241 0 .446.025.626.077l-.168.836c-.102-.038-.254-.064-.486-.064-1.28 0-1.856 1.119-1.856 1.93v3.396h-.844v-4.142zM117.35 6.034v-.154c0-1.042-.5-1.557-1.535-1.557-.705 0-1.32.244-1.831.708l-.511-.605c.549-.566 1.406-.875 2.532-.875 1.178 0 2.188.669 2.188 2.136v2.689c0 .464.051 1.03.103 1.352h-.82c-.05-.296-.075-.656-.075-.978h-.026c-.486.797-1.151 1.132-2.111 1.132-1.062 0-2.061-.592-2.061-1.763 0-1.956 2.292-2.085 3.724-2.085h.422zm-.436.695c-.857 0-2.79.064-2.79 1.274 0 .798.731 1.107 1.409 1.107 1.228 0 1.817-.875 1.817-1.943v-.438h-.436z"/></g></svg>