<?xml version="1.0" standalone="no"?>
<!DOCTYPE svg PUBLIC "-//W3C//DTD SVG 1.1//EN" "http://www.w3.org/Graphics/SVG/1.1/DTD/svg11.dtd" >
<svg xmlns="http://www.w3.org/2000/svg" xmlns:xlink="http://www.w3.org/1999/xlink" version="1.1">
<metadata></metadata>
<defs>
<font id="phosphatesolid" horiz-adv-x="1515" >
<font-face units-per-em="2048" ascent="1638" descent="-410" />
<missing-glyph horiz-adv-x="409" />
<glyph horiz-adv-x="0" />
<glyph horiz-adv-x="0" />
<glyph unicode="&#xd;" horiz-adv-x="409" />
<glyph horiz-adv-x="409" />
<glyph unicode=" "  horiz-adv-x="409" />
<glyph unicode="&#x09;" horiz-adv-x="409" />
<glyph unicode="&#xa0;" horiz-adv-x="409" />
<glyph unicode="!" horiz-adv-x="589" d="M61 1366h467l-69 -963h-328zM76 0v342h438v-342h-438z" />
<glyph unicode="&#x22;" horiz-adv-x="774" d="M20 1366h336l-28 -594h-279zM418 1366h336l-29 -594h-279z" />
<glyph unicode="#" horiz-adv-x="956" d="M0 475l39 285h108l17 121h-107l39 284h107l28 201h289l-28 -201h69l29 201h289l-29 -201h106l-38 -284h-107l-18 -121h106l-39 -285h-106l-29 -201h-289l29 201h-70l-28 -201h-289l28 201h-106zM434 760h70l18 121h-69z" />
<glyph unicode="$" horiz-adv-x="921" d="M31 1006q0 135 69.5 228t192.5 136v164h299v-139q35 -4 64.5 -7.5t52.5 -7.5q27 -4 49 -8v-383q-16 2 -37 4q-16 2 -36.5 4t-43.5 2q-12 0 -30.5 -1t-35 -5t-28.5 -14t-12 -29q0 -16 27.5 -40.5t67.5 -57.5t88 -76t88 -98t67.5 -125t27.5 -156q0 -139 -72.5 -251.5 t-236.5 -159.5v-156h-299v141q-47 2 -93 9.5t-83 15.5q-43 8 -82 18v410q45 -14 94 -25q41 -10 92 -16t101 -6q35 0 67.5 12t32.5 60q0 27 -28.5 54t-73 61t-94.5 75t-94 94t-72.5 120t-28.5 153z" />
<glyph unicode="%" horiz-adv-x="1472" d="M31 991q0 193 81 293t222 100t222 -100t81 -293t-81 -294t-222 -101t-222 101t-81 294zM262 991q0 -176 72 -176t72 176t-72 176t-72 -176zM344 0l543 1366h241l-542 -1366h-242zM836 375q0 193 80.5 294t222.5 101q141 0 222 -101t81 -294t-81 -293t-222 -100t-222 100 t-81 293zM1067 375q0 -176 72 -176q71 0 71 176t-71 176q-72 0 -72 -176z" />
<glyph unicode="&#x26;" horiz-adv-x="1353" d="M31 379q0 125 56 210t149 144q-47 51 -78 119t-31 147q0 86 33 160t90 127t135 83t168 30q100 0 182 -31t140.5 -85t89 -129t30.5 -163q0 -104 -55 -182t-133 -135l186 -156q25 25 44.5 47.5t33.5 38.5q16 20 29 37l274 -233q-88 -123 -207 -222q-51 -41 -113.5 -80.5 t-137 -70.5t-160.5 -50.5t-183 -19.5q-141 0 -243.5 32t-169 87t-98 131t-31.5 164zM457 408q0 -49 39 -73t88 -24q31 0 62.5 5.5t60.5 15.5l-199 168q-51 -39 -51 -92zM483 1006q0 -29 13.5 -54.5t52.5 -60.5q47 29 67.5 54.5t20.5 60.5t-20.5 55t-55.5 20t-56.5 -21 t-21.5 -54z" />
<glyph unicode="'" horiz-adv-x="376" d="M20 1366h336l-28 -594h-279z" />
<glyph unicode="(" horiz-adv-x="569" d="M51 682q0 211 32 375t71 278q45 133 104 236h373q-57 -115 -101 -254q-37 -121 -67.5 -282t-30.5 -353q0 -193 31 -354.5t67 -280.5q43 -141 101 -254h-373q-59 102 -104 236q-39 115 -71 278.5t-32 374.5z" />
<glyph unicode=")" horiz-adv-x="569" d="M-61 -207q55 113 98 254q37 119 68.5 280.5t31.5 354.5t-31.5 353.5t-68.5 281.5q-43 139 -98 254h372q57 -102 103 -236q39 -115 71.5 -278.5t32.5 -374.5t-32.5 -375t-71.5 -278q-45 -133 -103 -236h-372z" />
<glyph unicode="*" horiz-adv-x="786" d="M20 944l330 139l287 217l129 -225l-332 -139l-284 -217zM20 1075l130 225l286 -217l330 -139l-129 -225l-285 217zM264 653l45 357l-45 356h258l-45 -356l45 -357h-258z" />
<glyph unicode="+" horiz-adv-x="942" d="M41 383v340h260v260h340v-260h260v-340h-260v-260h-340v260h-260z" />
<glyph unicode="," horiz-adv-x="561" d="M0 -211l137 553h389l-178 -553h-348z" />
<glyph unicode="-" horiz-adv-x="643" d="M51 512v342h541v-342h-541z" />
<glyph unicode="." horiz-adv-x="561" d="M61 0v342h439v-342h-439z" />
<glyph unicode="/" horiz-adv-x="892" d="M-20 -33l587 1432h346l-587 -1432h-346z" />
<glyph unicode="0" horiz-adv-x="1183" d="M41 682q0 348 145.5 532.5t405.5 184.5t405.5 -184.5t145.5 -532.5t-145.5 -532.5t-405.5 -184.5t-405.5 184.5t-145.5 532.5zM461 682q0 -322 131 -322t131 322t-131 322t-131 -322z" />
<glyph unicode="1" horiz-adv-x="647" d="M-51 1049l299 317h327v-1366h-442v834z" />
<glyph unicode="2" horiz-adv-x="880" d="M-51 0l344 655q43 82 55 123t12 78q0 66 -43 101.5t-124 35.5q-16 0 -31 -1t-27 -3q-14 -2 -26 -2v379q29 6 51 10t43.5 6t45 3t54.5 1q98 0 193.5 -21.5t171 -70.5t123 -131t47.5 -200q0 -55 -12.5 -109.5t-38 -118t-65.5 -142.5t-93 -183l-27 -52h258l-117 -358h-794z " />
<glyph unicode="3" horiz-adv-x="821" d="M41 -14v381q23 -4 42 -4.5t38 -0.5q66 0 109.5 13.5t69.5 36t37 50t11 58.5q0 43 -28.5 82t-71.5 71t-92.5 58.5t-87.5 44.5q35 23 69.5 47.5t62 50t44 50t16.5 47.5q0 37 -27.5 50t-60.5 13q-27 0 -50.5 -3t-41.5 -7q-23 -6 -39 -10v344q29 6 68 12q35 4 87 8t123 4 q201 0 296.5 -91t95.5 -238q0 -51 -16.5 -93t-37.5 -73q-23 -37 -51 -68q51 -41 92 -94q35 -47 64 -112.5t29 -147.5q0 -127 -52.5 -218t-140.5 -149.5t-203.5 -86t-240.5 -27.5h-48t-65 2z" />
<glyph unicode="4" horiz-adv-x="974" d="M-10 190v232l557 944h346v-901h82v-275h-82v-190h-404v190h-499zM309 465h180v303z" />
<glyph unicode="5" horiz-adv-x="831" d="M0 764l246 602h555v-383h-256q66 -45 119 -109q45 -55 81.5 -136t36.5 -191q0 -150 -61.5 -259.5t-160.5 -180t-226 -104.5t-256 -34q-29 0 -37 2q-8 0 -14 2v389q154 0 233.5 55.5t79.5 147.5q0 63 -32 102.5t-82 61t-110.5 28.5t-115.5 7z" />
<glyph unicode="6" horiz-adv-x="1114" d="M31 504q0 86 18.5 169t49 159.5t69.5 145.5t80 128q96 139 219 260h496q-47 -49 -99 -109q-43 -51 -93 -119.5t-97 -152.5q92 -18 168 -64.5t130 -112t82.5 -149.5t28.5 -178q0 -109 -38.5 -202t-107.5 -163.5t-163 -110.5t-205 -40q-115 0 -214 40t-170.5 112.5 t-112.5 171t-41 215.5zM434 494q0 -53 36 -89t87 -36t87 35.5t36 87.5q0 51 -36 86.5t-87 35.5q-49 0 -86 -35.5t-37 -84.5z" />
<glyph unicode="7" horiz-adv-x="927" d="M-31 0l389 985h-374l151 381h834l-539 -1366h-461z" />
<glyph unicode="8" horiz-adv-x="1052" d="M20 440q0 84 24 147.5t52 106.5q35 51 78 86q-23 25 -39 58q-14 29 -25.5 69.5t-11.5 93.5q0 84 34 157t92.5 126t136 84t165.5 31t166 -31t136.5 -84t92 -126t33.5 -157q0 -53 -12 -94t-27 -69q-16 -33 -36 -58q41 -35 75 -86q29 -43 53.5 -106.5t24.5 -147.5 q0 -104 -40 -191t-108.5 -150.5t-161 -98.5t-196.5 -35t-196 35t-161 98.5t-109 150.5t-40 191zM416 473q0 -47 31.5 -79t78.5 -32t79 32t32 79t-32 79t-79 32t-78.5 -32t-31.5 -79zM457 973q0 -29 20.5 -49.5t48.5 -20.5q29 0 49.5 20.5t20.5 49.5t-20.5 49t-49.5 20 t-49 -20t-20 -49z" />
<glyph unicode="9" horiz-adv-x="1114" d="M31 885q0 106 39 200.5t107.5 165t162.5 110.5t205 40q115 0 213 -40t170.5 -112.5t113.5 -171t41 -215.5q0 -86 -19.5 -169t-50 -159.5t-69.5 -146.5t-80 -129q-96 -139 -217 -258h-495q47 47 98 106q43 51 93 121t97 154q-92 18 -167.5 64.5t-130 112t-83 149.5 t-28.5 178zM434 874q0 -51 36 -86.5t87 -35.5q49 0 86 35.5t37 84.5q0 53 -36 89t-87 36t-87 -35.5t-36 -87.5z" />
<glyph unicode=":" horiz-adv-x="561" d="M61 0v342h439v-342h-439zM61 553v342h439v-342h-439z" />
<glyph unicode=";" horiz-adv-x="561" d="M0 -211l137 553h389l-178 -553h-348zM88 553v342h438v-342h-438z" />
<glyph unicode="&#x3c;" horiz-adv-x="962" d="M51 348v254l860 348v-340l-336 -135l336 -135v-340z" />
<glyph unicode="=" horiz-adv-x="942" d="M41 244v297h860v-297h-860zM41 602v297h860v-297h-860z" />
<glyph unicode="&#x3e;" horiz-adv-x="962" d="M51 0v340l336 135l-336 135v340l860 -348v-254z" />
<glyph unicode="?" horiz-adv-x="782" d="M31 997v381q37 6 64.5 10.5t50 6.5t44 3t50.5 1q117 0 211 -30t160.5 -85t103.5 -133t37 -172q0 -90 -36 -163t-79 -140.5t-79 -133t-36 -139.5h-436q0 96 28.5 167t63.5 124.5t63.5 96.5t28.5 86q0 39 -16 62.5t-43 36.5t-62.5 17t-74.5 4h-43zM86 0v342h438v-342h-438z " />
<glyph unicode="@" horiz-adv-x="1789" d="M113 682q0 160 60 298t164.5 238.5t248 158t309.5 57.5t309.5 -57.5t247.5 -158t164.5 -238.5t60.5 -298q0 -90 -24.5 -166t-72.5 -130t-118.5 -85t-165.5 -31q-51 0 -89 10.5t-64 24.5q-31 14 -53 35q-35 -25 -74 -45q-35 -16 -81 -30.5t-101 -14.5q-92 0 -167 33.5 t-128.5 91t-83 130.5t-29.5 152q0 80 29.5 153t83 130t128 91t167.5 34q47 0 89 -11.5t76 -25.5v31h308v-477q0 -63 30.5 -85t63.5 -22q55 0 91 54.5t36 152.5q0 154 -52.5 269.5t-139.5 194.5t-201.5 119t-239.5 40t-239.5 -40t-201.5 -119t-139.5 -194.5t-52.5 -269.5 q0 -139 49 -254t134 -196.5t201 -127t249 -45.5q92 0 162.5 11.5t120.5 25.5q57 16 100 37l49 -94q-55 -27 -125 -49q-59 -18 -143 -32.5t-189 -14.5q-176 0 -316 60t-238.5 162.5t-150.5 236t-52 280.5zM727 657q0 -59 44 -103t103 -44t103.5 44t44.5 103t-44 103.5 t-104 44.5q-59 0 -103 -44.5t-44 -103.5z" />
<glyph unicode="A" horiz-adv-x="1282" d="M-41 0l518 1366h328l518 -1366h-430l-45 123h-414l-45 -123h-430zM549 424h184l-92 240z" />
<glyph unicode="B" horiz-adv-x="1148" d="M72 0v1366h534q102 0 187.5 -23.5t145.5 -69.5t94 -114.5t34 -161.5q0 -66 -16.5 -111.5t-34.5 -76.5q-23 -37 -51 -61q45 -29 82 -74q31 -39 56 -98.5t25 -145.5q0 -98 -34.5 -178t-99 -136.5t-158 -86t-207.5 -29.5h-557zM494 322h49q155 0 155 117q0 120 -155 120h-49 v-237zM494 856h49q102 0 102 94t-102 94h-49v-188z" />
<glyph unicode="C" horiz-adv-x="1257" d="M41 682q0 164 57.5 296t155.5 226t229 144.5t279 50.5q117 0 208 -22.5t156 -51.5q76 -33 131 -72l-215 -379q-33 25 -71 48q-35 16 -83 31.5t-110 15.5q-63 0 -116.5 -22.5t-93.5 -61.5t-62.5 -91.5t-22.5 -111.5t23.5 -111.5t64.5 -91.5t96.5 -61.5t120.5 -22.5 q66 0 117 16.5t86 37.5q41 23 72 53l215 -379q-55 -45 -131 -80q-66 -29 -158 -53.5t-211 -24.5q-160 0 -295 52.5t-233 146.5t-153.5 226t-55.5 292z" />
<glyph unicode="D" horiz-adv-x="1300" d="M72 0v1366h379q193 0 343 -43t253.5 -129t158 -214t54.5 -296t-54.5 -296t-158 -214t-254 -130t-342.5 -44h-379zM508 389q154 0 237.5 73t83.5 222q0 150 -83.5 221.5t-237.5 71.5v-588z" />
<glyph unicode="E" horiz-adv-x="942" d="M72 0v1366h805v-358h-369v-152h362v-340h-362v-158h383v-358h-819z" />
<glyph unicode="F" horiz-adv-x="917" d="M72 0v1366h805v-358h-369v-152h362v-340h-362v-516h-436z" />
<glyph unicode="G" horiz-adv-x="1427" d="M41 682q0 147 53 278.5t146.5 228.5t221.5 153.5t275 56.5q115 0 199 -22.5t141 -51.5q68 -33 113 -72l-248 -352q-37 33 -92 50.5t-109 17.5q-59 0 -108 -21.5t-85 -59.5t-56.5 -91.5t-20.5 -114.5t22.5 -114.5t61.5 -91.5t91 -59.5t112 -21.5q70 0 127 30t98 81h-123 v287h526v-455q-47 -84 -112.5 -152.5t-146 -118t-175 -76t-194.5 -26.5q-147 0 -278.5 55.5t-228.5 151.5t-153.5 227t-56.5 283z" />
<glyph unicode="H" horiz-adv-x="1261" d="M72 0v1366h436v-465h244v465h438v-1366h-438v506h-244v-506h-436z" />
<glyph unicode="I" horiz-adv-x="606" d="M72 0v1366h463v-1366h-463z" />
<glyph unicode="J" horiz-adv-x="776" d="M0 0v328h150q66 0 88 24.5t22 69.5v944h451v-1020q0 -190 -87 -268t-278 -78h-346z" />
<glyph unicode="K" horiz-adv-x="1300" d="M72 0v1366h442v-315l258 315h535l-482 -625l506 -741h-526l-291 422v-422h-442z" />
<glyph unicode="L" horiz-adv-x="903" d="M72 0v1366h454v-1008h377v-358h-831z" />
<glyph unicode="M" horiz-adv-x="1574" d="M72 0v1366h360l356 -524l355 524h360v-1366h-436v492l-279 -410l-280 410v-492h-436z" />
<glyph unicode="N" horiz-adv-x="1306" d="M72 0v1366h358l377 -526v526h428v-1366h-361l-374 524v-524h-428z" />
<glyph unicode="O" d="M41 682q0 147 56.5 278.5t153.5 228.5t228 153.5t279 56.5q147 0 278 -56.5t228.5 -153.5t154 -228.5t56.5 -278.5t-56.5 -278.5t-154 -228.5t-228.5 -153.5t-278 -56.5t-278.5 56.5t-228.5 153.5t-153.5 228.5t-56.5 278.5zM471 682q0 -59 22.5 -111.5t61.5 -91.5 t91 -61.5t112 -22.5q59 0 111.5 22.5t91 61.5t61 91.5t22.5 111.5t-22.5 111.5t-61 91.5t-91 61.5t-111.5 22.5t-111.5 -22.5t-91.5 -61.5t-61.5 -91.5t-22.5 -111.5z" />
<glyph unicode="P" horiz-adv-x="1165" d="M72 0v1366h436q131 0 244.5 -28.5t198.5 -90t134.5 -161t49.5 -240.5t-49.5 -240.5t-134.5 -161t-198.5 -90t-244.5 -28.5v-326h-436zM508 694h18q86 0 124 40t38 112t-38 111.5t-124 39.5h-18v-303z" />
<glyph unicode="Q" d="M41 682q0 147 56.5 278.5t153.5 228.5t228 153.5t279 56.5q147 0 278 -56.5t228.5 -153.5t154 -228.5t56.5 -278.5q0 -88 -20.5 -170t-57.5 -154h127l-185 -358h-362q-109 -35 -219 -35q-147 0 -278.5 56.5t-228.5 153.5t-153.5 228.5t-56.5 278.5zM471 682 q0 -59 22.5 -111.5t61.5 -91.5t91 -61.5t112 -22.5q59 0 111.5 22.5t91 61.5t61 91.5t22.5 111.5t-22.5 111.5t-61 91.5t-91 61.5t-111.5 22.5t-111.5 -22.5t-91.5 -61.5t-61.5 -91.5t-22.5 -111.5z" />
<glyph unicode="R" horiz-adv-x="1193" d="M72 0v1366h471q131 0 242.5 -35t193.5 -102.5t128 -166.5t46 -228q0 -102 -28.5 -174t-63.5 -119q-41 -53 -92 -90l256 -451h-512l-205 346v-346h-436zM508 694h22q78 0 132.5 35t54.5 117t-54.5 116.5t-132.5 34.5h-22v-303z" />
<glyph unicode="S" horiz-adv-x="921" d="M31 1006q0 96 34.5 169.5t96 123t144.5 75t177 25.5q49 0 98.5 -5t88.5 -10q45 -6 88 -12v-383q-16 2 -37 4q-16 2 -36.5 4t-43.5 2q-12 0 -30.5 -1t-35 -5t-28.5 -14t-12 -29q0 -16 27.5 -40.5t67.5 -57.5t88 -76t88 -98t67.5 -125t27.5 -156q0 -90 -28.5 -168.5 t-89 -137t-154.5 -92.5t-223 -34q-78 0 -144.5 7.5t-118.5 17.5q-59 10 -108 24v410q45 -14 94 -23q41 -10 93 -16t106 -6q94 0 94 70q0 27 -28.5 54t-73 61t-94.5 75t-94 94t-72.5 120t-28.5 153z" />
<glyph unicode="T" horiz-adv-x="954" d="M0 1008v358h954v-358h-252v-1008h-450v1008h-252z" />
<glyph unicode="U" horiz-adv-x="1263" d="M66 498v868h436v-850q0 -72 29.5 -109.5t99.5 -37.5t99.5 37.5t29.5 109.5v850h438v-868q0 -135 -40 -235.5t-114.5 -166t-179 -98.5t-233.5 -33t-233.5 33t-178.5 98.5t-113.5 165.5t-39.5 236z" />
<glyph unicode="V" horiz-adv-x="1337" d="M-41 1366h477l232 -594l233 594h477l-532 -1366h-354z" />
<glyph unicode="W" horiz-adv-x="1773" d="M-41 1366h463l158 -477l157 477h299l158 -477l158 477h463l-451 -1366h-340l-137 414l-137 -414h-340z" />
<glyph unicode="X" horiz-adv-x="1173" d="M-41 0l389 707l-362 659h477l123 -223l123 223h479l-363 -659l389 -707h-477l-151 272l-150 -272h-477z" />
<glyph unicode="Y" horiz-adv-x="1202" d="M-41 1366h485l158 -289l156 289h485l-424 -778v-588h-436v588z" />
<glyph unicode="Z" horiz-adv-x="1060" d="M-41 0l475 1008h-377l140 358h874l-475 -1008h448l-137 -358h-948z" />
<glyph unicode="[" horiz-adv-x="604" d="M51 -207v1778h543v-346h-182v-1086h182v-346h-543z" />
<glyph unicode="\" horiz-adv-x="892" d="M-20 1399h346l587 -1432h-346z" />
<glyph unicode="]" horiz-adv-x="604" d="M10 139h183v1086h-183v346h543v-1778h-543v346z" />
<glyph unicode="^" horiz-adv-x="1044" d="M51 891l268 475h406l268 -475h-272l-201 268l-196 -268h-273z" />
<glyph unicode="_" horiz-adv-x="899" d="M0 -164h899v-149h-899v149z" />
<glyph unicode="`" horiz-adv-x="542" d="M51 1374h301l170 -317h-225z" />
<glyph unicode="a" horiz-adv-x="1282" d="M-41 0l518 1366h328l518 -1366h-430l-45 123h-414l-45 -123h-430zM549 424h184l-92 240z" />
<glyph unicode="b" horiz-adv-x="1148" d="M72 0v1366h534q102 0 187.5 -23.5t145.5 -69.5t94 -114.5t34 -161.5q0 -66 -16.5 -111.5t-34.5 -76.5q-23 -37 -51 -61q45 -29 82 -74q31 -39 56 -98.5t25 -145.5q0 -98 -34.5 -178t-99 -136.5t-158 -86t-207.5 -29.5h-557zM494 322h49q155 0 155 117q0 120 -155 120h-49 v-237zM494 856h49q102 0 102 94t-102 94h-49v-188z" />
<glyph unicode="c" horiz-adv-x="1257" d="M41 682q0 164 57.5 296t155.5 226t229 144.5t279 50.5q117 0 208 -22.5t156 -51.5q76 -33 131 -72l-215 -379q-33 25 -71 48q-35 16 -83 31.5t-110 15.5q-63 0 -116.5 -22.5t-93.5 -61.5t-62.5 -91.5t-22.5 -111.5t23.5 -111.5t64.5 -91.5t96.5 -61.5t120.5 -22.5 q66 0 117 16.5t86 37.5q41 23 72 53l215 -379q-55 -45 -131 -80q-66 -29 -158 -53.5t-211 -24.5q-160 0 -295 52.5t-233 146.5t-153.5 226t-55.5 292z" />
<glyph unicode="d" horiz-adv-x="1300" d="M72 0v1366h379q193 0 343 -43t253.5 -129t158 -214t54.5 -296t-54.5 -296t-158 -214t-254 -130t-342.5 -44h-379zM508 389q154 0 237.5 73t83.5 222q0 150 -83.5 221.5t-237.5 71.5v-588z" />
<glyph unicode="e" horiz-adv-x="942" d="M72 0v1366h805v-358h-369v-152h362v-340h-362v-158h383v-358h-819z" />
<glyph unicode="f" horiz-adv-x="917" d="M72 0v1366h805v-358h-369v-152h362v-340h-362v-516h-436z" />
<glyph unicode="g" horiz-adv-x="1427" d="M41 682q0 147 53 278.5t146.5 228.5t221.5 153.5t275 56.5q115 0 199 -22.5t141 -51.5q68 -33 113 -72l-248 -352q-37 33 -92 50.5t-109 17.5q-59 0 -108 -21.5t-85 -59.5t-56.5 -91.5t-20.5 -114.5t22.5 -114.5t61.5 -91.5t91 -59.5t112 -21.5q70 0 127 30t98 81h-123 v287h526v-455q-47 -84 -112.5 -152.5t-146 -118t-175 -76t-194.5 -26.5q-147 0 -278.5 55.5t-228.5 151.5t-153.5 227t-56.5 283z" />
<glyph unicode="h" horiz-adv-x="1261" d="M72 0v1366h436v-465h244v465h438v-1366h-438v506h-244v-506h-436z" />
<glyph unicode="i" horiz-adv-x="606" d="M72 0v1366h463v-1366h-463z" />
<glyph unicode="j" horiz-adv-x="776" d="M0 0v328h150q66 0 88 24.5t22 69.5v944h449v-1020q0 -190 -87 -268t-278 -78h-344z" />
<glyph unicode="k" horiz-adv-x="1300" d="M72 0v1366h442v-315l258 315h535l-482 -625l506 -741h-526l-291 422v-422h-442z" />
<glyph unicode="l" horiz-adv-x="903" d="M72 0v1366h454v-1008h377v-358h-831z" />
<glyph unicode="m" horiz-adv-x="1574" d="M72 0v1366h360l356 -524l355 524h360v-1366h-436v492l-279 -410l-280 410v-492h-436z" />
<glyph unicode="n" horiz-adv-x="1306" d="M72 0v1366h358l377 -526v526h428v-1366h-361l-374 524v-524h-428z" />
<glyph unicode="o" d="M41 682q0 147 56.5 278.5t153.5 228.5t228 153.5t279 56.5q147 0 278 -56.5t228.5 -153.5t154 -228.5t56.5 -278.5t-56.5 -278.5t-154 -228.5t-228.5 -153.5t-278 -56.5t-278.5 56.5t-228.5 153.5t-153.5 228.5t-56.5 278.5zM471 682q0 -59 22.5 -111.5t61.5 -91.5 t91 -61.5t112 -22.5q59 0 111.5 22.5t91 61.5t61 91.5t22.5 111.5t-22.5 111.5t-61 91.5t-91 61.5t-111.5 22.5t-111.5 -22.5t-91.5 -61.5t-61.5 -91.5t-22.5 -111.5z" />
<glyph unicode="p" horiz-adv-x="1165" d="M72 0v1366h436q131 0 244.5 -28.5t198.5 -90t134.5 -161t49.5 -240.5t-49.5 -240.5t-134.5 -161t-198.5 -90t-244.5 -28.5v-326h-436zM508 694h18q86 0 124 40t38 112t-38 111.5t-124 39.5h-18v-303z" />
<glyph unicode="q" d="M41 682q0 147 56.5 278.5t153.5 228.5t228 153.5t279 56.5q147 0 278 -56.5t228.5 -153.5t154 -228.5t56.5 -278.5q0 -88 -20.5 -170t-57.5 -154h127l-185 -358h-362q-109 -35 -219 -35q-147 0 -278.5 56.5t-228.5 153.5t-153.5 228.5t-56.5 278.5zM471 682 q0 -59 22.5 -111.5t61.5 -91.5t91 -61.5t112 -22.5q59 0 111.5 22.5t91 61.5t61 91.5t22.5 111.5t-22.5 111.5t-61 91.5t-91 61.5t-111.5 22.5t-111.5 -22.5t-91.5 -61.5t-61.5 -91.5t-22.5 -111.5z" />
<glyph unicode="r" horiz-adv-x="1193" d="M72 0v1366h471q131 0 242.5 -35t193.5 -102.5t128 -166.5t46 -228q0 -102 -28.5 -174t-63.5 -119q-41 -53 -92 -90l256 -451h-512l-205 346v-346h-436zM508 694h22q78 0 132.5 35t54.5 117t-54.5 116.5t-132.5 34.5h-22v-303z" />
<glyph unicode="s" horiz-adv-x="921" d="M31 1006q0 96 34.5 169.5t96 123t144.5 75t177 25.5q49 0 98.5 -5t88.5 -10q45 -6 88 -12v-383q-16 2 -37 4q-16 2 -36.5 4t-43.5 2q-12 0 -30.5 -1t-35 -5t-28.5 -14t-12 -29q0 -16 27.5 -40.5t67.5 -57.5t88 -76t88 -98t67.5 -125t27.5 -156q0 -90 -28.5 -168.5 t-89 -137t-154.5 -92.5t-223 -34q-78 0 -144.5 7.5t-118.5 17.5q-59 10 -108 24v410q45 -14 94 -23q41 -10 93 -16t106 -6q94 0 94 70q0 27 -28.5 54t-73 61t-94.5 75t-94 94t-72.5 120t-28.5 153z" />
<glyph unicode="t" horiz-adv-x="954" d="M0 1008v358h954v-358h-252v-1008h-450v1008h-252z" />
<glyph unicode="u" horiz-adv-x="1263" d="M66 498v868h436v-850q0 -72 29.5 -109.5t99.5 -37.5t99.5 37.5t29.5 109.5v850h438v-868q0 -135 -40 -235.5t-114.5 -166t-179 -98.5t-233.5 -33t-233.5 33t-178.5 98.5t-113.5 165.5t-39.5 236z" />
<glyph unicode="v" horiz-adv-x="1337" d="M-41 1366h477l232 -594l233 594h477l-532 -1366h-354z" />
<glyph unicode="w" horiz-adv-x="1773" d="M-41 1366h463l158 -477l157 477h299l158 -477l158 477h463l-451 -1366h-340l-137 414l-137 -414h-340z" />
<glyph unicode="x" horiz-adv-x="1173" d="M-41 0l389 707l-362 659h477l123 -223l123 223h479l-363 -659l389 -707h-477l-151 272l-150 -272h-477z" />
<glyph unicode="y" horiz-adv-x="1202" d="M-41 1366h485l158 -289l156 289h485l-424 -778v-588h-436v588z" />
<glyph unicode="z" horiz-adv-x="1060" d="M-41 0l475 1008h-377l140 358h874l-475 -1008h448l-137 -358h-948z" />
<glyph unicode="{" horiz-adv-x="714" d="M20 518v328h46q14 0 31.5 3t31.5 12t23.5 28.5t9.5 50.5v295q0 336 305 336h238v-346h-154q-18 0 -23.5 -11.5t-5.5 -23.5v-291q0 -66 -20.5 -107.5t-44.5 -66.5q-29 -29 -64 -43q35 -14 64 -43q25 -25 45 -67t20 -107v-291q0 -12 5 -23.5t24 -11.5h154v-346h-238 q-305 0 -305 336v295q0 31 -9.5 50.5t-23.5 28.5t-31.5 12t-31.5 3h-46z" />
<glyph unicode="|" horiz-adv-x="438" d="M102 -53v1472h234v-1472h-234z" />
<glyph unicode="}" horiz-adv-x="714" d="M10 139h154q18 0 23.5 11.5t5.5 23.5v291q0 66 19 107.5t44 66.5q29 29 66 43q-37 14 -66 43q-25 25 -44 67t-19 107v291q0 12 -5.5 23.5t-23.5 11.5h-154v346h238q305 0 305 -336v-295q0 -31 9 -50.5t23.5 -28.5t32 -12t31.5 -3h45v-328h-45q-14 0 -31.5 -3t-32 -12 t-23.5 -28.5t-9 -50.5v-295q0 -336 -305 -336h-238v346z" />
<glyph unicode="~" horiz-adv-x="1046" d="M51 602q0 201 78 292t215 91q66 0 117 -21.5t92 -48t75 -48t64 -21.5q37 0 63.5 28.5t26.5 102.5h213q0 -201 -77.5 -292t-215.5 -91q-66 0 -116.5 21.5t-91.5 48t-75 48t-65 21.5q-37 0 -63.5 -28.5t-26.5 -102.5h-213z" />
<glyph unicode="&#xa1;" horiz-adv-x="589" d="M61 0h467l-69 963h-328zM76 1024h438v342h-438v-342z" />
<glyph unicode="&#xa2;" horiz-adv-x="782" d="M20 944q0 74 20.5 141.5t59.5 123t94.5 96.5t122.5 61v168h299v-158q35 -8 65 -20.5t52 -24.5q27 -14 49 -28l-147 -261q-18 14 -41 27q-20 10 -50 18.5t-65 8.5q-63 0 -107 -40t-44 -112t44 -111.5t107 -39.5q35 0 64.5 8t50.5 18q23 10 41 27l147 -260q-23 -14 -49 -29 q-23 -12 -52.5 -24.5t-64.5 -22.5v-156h-299v166q-61 23 -115.5 60.5t-94 90t-63.5 121t-24 152.5z" />
<glyph unicode="&#xa3;" horiz-adv-x="1028" d="M-20 506l65 328h129l33 153q41 199 158.5 305.5t306.5 106.5q94 0 163.5 -22.5t114.5 -49.5q53 -31 88 -70l-209 -290q-14 10 -30 18q-14 8 -34 14.5t-44 6.5q-49 0 -84 -28t-47 -99l-8 -45h192l-67 -328h-191l-31 -148h553l-129 -358h-907l104 506h-126z" />
<glyph unicode="&#xa4;" horiz-adv-x="1007" d="M61 401l113 113q-41 78 -41 172q0 92 41 170l-113 115l158 157l113 -114q39 20 82 31.5t90 11.5t89 -11.5t81 -31.5l114 114l158 -157l-115 -115q20 -39 31.5 -81t11.5 -89t-11 -90t-32 -82l115 -113l-158 -157l-114 112q-78 -41 -170 -41q-94 0 -172 41l-113 -112z M403 686q0 -41 30 -70.5t71 -29.5t70.5 29.5t29.5 70.5t-29.5 70.5t-70.5 29.5t-71 -29.5t-30 -70.5z" />
<glyph unicode="&#xa5;" horiz-adv-x="1140" d="M-41 1366h475l139 -289l138 289h471l-271 -532h113v-328h-236v-506h-434v506h-237v328h110z" />
<glyph unicode="&#xa6;" horiz-adv-x="438" d="M102 -53v659h234v-659h-234zM102 760v659h234v-659h-234z" />
<glyph unicode="&#xa7;" horiz-adv-x="923" d="M31 539q0 66 17.5 121t49.5 100q-31 47 -49 103.5t-18 123.5q0 188 119.5 300t338.5 112q49 0 97.5 -5t87.5 -10q45 -6 84 -12v-383q-25 2 -47 4q-20 2 -44 4t-46 2q-12 0 -31 -1t-35 -6t-27.5 -16t-11.5 -32q0 -18 28.5 -38.5t71.5 -47.5t93.5 -61.5t93.5 -81.5 t71.5 -108.5t28.5 -139.5q0 -129 -72 -225q31 -47 50.5 -98.5t19.5 -110.5q0 -90 -30.5 -169t-93 -137.5t-159 -92t-225.5 -33.5q-78 0 -143.5 7t-112.5 17q-55 10 -102 25v409q47 -14 98 -22q43 -10 96.5 -16.5t106.5 -6.5q92 0 92 62q0 23 -29.5 41t-73.5 41.5t-95.5 53.5 t-95.5 75t-73.5 105.5t-29.5 146.5zM373 553q0 -27 15 -49.5t32 -32.5l117 -65q4 8 10 18q4 10 7 20.5t3 26.5q0 27 -15.5 49.5t-31.5 32.5l-117 65q-6 -8 -10 -18q-10 -20 -10 -47z" />
<glyph unicode="&#xa8;" horiz-adv-x="716" d="M51 1057v207h262v-207h-262zM403 1057v207h263v-207h-263z" />
<glyph unicode="&#xa9;" d="M41 682q0 147 56.5 278.5t153.5 228.5t228 153.5t279 56.5q147 0 278 -56.5t228.5 -153.5t154 -228.5t56.5 -278.5t-56.5 -278.5t-154 -228.5t-228.5 -153.5t-278 -56.5t-278.5 56.5t-228.5 153.5t-153.5 228.5t-56.5 278.5zM117 682q0 -133 50 -250t137 -204t204 -137 t250 -50t249.5 50t203.5 137t137.5 204t50.5 250t-50.5 250t-137.5 204t-203.5 137t-249.5 50t-250 -50t-204 -137t-137 -204t-50 -250zM346 670q0 98 35 178t94.5 135t138 86t166.5 31q70 0 124 -14.5t93 -30.5q45 -23 80 -43l-125 -219q-10 8 -21 15t-24 13 q-23 10 -52.5 19.5t-66.5 9.5q-76 0 -130 -50t-54 -130t56.5 -130.5t134.5 -50.5q39 0 70.5 9.5t54.5 21.5q25 16 45 33l125 -219q-16 -14 -37 -25.5t-43 -21.5q-39 -18 -94.5 -32.5t-127.5 -14.5q-96 0 -177 30.5t-139 88t-92 136.5t-34 175z" />
<glyph unicode="&#xaa;" horiz-adv-x="849" d="M-31 477l336 889h238l338 -889h-283l-23 60h-305l-22 -60h-279zM360 774h125l-61 166z" />
<glyph unicode="&#xab;" horiz-adv-x="1085" d="M0 465l270 463h344l-249 -463l249 -465h-344zM451 465l270 463h344l-250 -463l250 -465h-344z" />
<glyph unicode="&#xac;" horiz-adv-x="1091" d="M61 504v338h969v-666h-340v328h-629z" />
<glyph unicode="&#xad;" horiz-adv-x="643" d="M51 512v342h541v-342h-541z" />
<glyph unicode="&#xae;" horiz-adv-x="1220" d="M31 819q0 119 46 225.5t124 184.5t183 124t226 46q119 0 225.5 -46t184.5 -124t124 -184.5t46 -225.5q0 -121 -46 -226.5t-124 -183t-184.5 -123.5t-225.5 -46q-121 0 -226 46t-183 123.5t-124 183t-46 226.5zM106 819q0 -104 40 -196.5t108 -160t160 -107.5t196 -40 t196.5 40t160 107.5t107.5 160t40 196.5t-40 196.5t-107.5 160t-159.5 107.5t-197 40q-104 0 -196 -40t-160 -107.5t-108 -160t-40 -196.5zM395 514v614h211q119 0 197 -57t78 -174q0 -47 -13.5 -78t-29.5 -53q-20 -25 -43 -41l118 -211h-204l-95 176h-32v-176h-187z M582 819h26q35 0 59.5 19.5t24.5 56.5t-24.5 56.5t-59.5 19.5h-26v-152z" />
<glyph unicode="&#xaf;" horiz-adv-x="675" d="M51 1057v203h574v-203h-574z" />
<glyph unicode="&#xb0;" horiz-adv-x="704" d="M31 1077q0 68 25.5 126.5t68.5 101.5t101.5 68.5t125.5 25.5q68 0 126.5 -25.5t101.5 -68.5t68.5 -101.5t25.5 -126.5t-25.5 -126t-68.5 -101t-101.5 -68.5t-126.5 -25.5t-126 25.5t-101 68.5t-68.5 101.5t-25.5 125.5zM281 1077q0 -29 21.5 -50t49.5 -21q29 0 50.5 21.5 t21.5 49.5q0 29 -21.5 50.5t-50.5 21.5t-50 -21.5t-21 -50.5z" />
<glyph unicode="&#xb1;" horiz-adv-x="942" d="M41 0v340h860v-340h-860zM41 649v340h260v260h340v-260h260v-340h-260v-260h-340v260h-260z" />
<glyph unicode="&#xb2;" horiz-adv-x="471" d="M-41 614l188 361q23 45 31 67.5t8 42.5q0 76 -92 76q-10 0 -18 -1t-15 -1q-8 -2 -14 -2v209q14 2 33 4q16 2 34.5 4t39.5 2q53 0 106 -11t95 -39t68 -73t26 -110q0 -59 -28 -124t-85 -177l-17 -31h142l-64 -197h-438z" />
<glyph unicode="&#xb3;" horiz-adv-x="442" d="M10 606v209q12 -2 22.5 -2h20.5q72 0 99.5 26.5t27.5 61.5q0 25 -16.5 45.5t-40 37.5t-51 31.5t-47.5 24.5q39 25 77.5 54.5t38.5 54.5q0 20 -14 27.5t-37 7.5q-16 0 -30.5 -2t-24.5 -4q-12 -4 -25 -7v195q20 2 45 4q20 2 48 3t61 1q111 0 168 -50t57 -130 q0 -29 -11 -52.5t-24 -39.5q-14 -20 -32 -37q27 -23 49 -51q18 -25 34.5 -62t16.5 -82q0 -70 -28.5 -120t-77 -81.5t-112 -47t-132.5 -15.5h-62z" />
<glyph unicode="&#xb4;" horiz-adv-x="542" d="M51 1057l170 317h301l-246 -317h-225z" />
<glyph unicode="&#xb5;" horiz-adv-x="1003" d="M61 -326v1223h394v-487q0 -61 47 -62q47 0 47 62v487h393v-897h-305v29l-33 -17q-16 -6 -39.5 -11t-54.5 -5q-49 0 -80 10q-10 2 -22 10v-342h-347z" />
<glyph unicode="&#xb6;" horiz-adv-x="1300" d="M31 846q0 123 40 219t112.5 162.5t172 102.5t219.5 36h664v-1761h-295v1392h-76v-1392h-293v721q-121 0 -220 35.5t-171.5 102t-112.5 163t-40 219.5zM416 846q0 -72 38 -112t121 -40v303q-84 0 -121.5 -39.5t-37.5 -111.5z" />
<glyph unicode="&#xb7;" horiz-adv-x="561" d="M61 512v342h439v-342h-439z" />
<glyph unicode="&#xb8;" horiz-adv-x="636" d="M51 -508l41 158l45 -12q23 -4 47.5 -7.5t53.5 -3.5q53 0 87.5 20.5t34.5 61.5t-33.5 57.5t-76.5 16.5q-16 0 -31.5 -2t-28.5 -4l-26 -4l115 227h153l-49 -98q53 -2 100 -25q39 -18 71 -58t32 -112q0 -39 -14.5 -81t-51.5 -77.5t-98.5 -58t-153.5 -22.5q-47 0 -86 4t-67 8 z" />
<glyph unicode="&#xb9;" horiz-adv-x="356" d="M-31 1192l166 174h180v-752h-243v459z" />
<glyph unicode="&#xba;" horiz-adv-x="1034" d="M51 928q0 96 37 181t99.5 148.5t147.5 100.5t181 37t181 -37t148.5 -100.5t100.5 -148.5t37 -181t-37 -181t-100.5 -147.5t-148.5 -99.5t-181 -37t-181 37t-147.5 99.5t-99.5 147.5t-37 181zM352 928q0 -68 48.5 -116t115.5 -48q68 0 116 48t48 116t-48 116t-116 48 t-116 -48t-48 -116z" />
<glyph unicode="&#xbb;" horiz-adv-x="1085" d="M20 0l250 465l-250 463h345l270 -463l-270 -465h-345zM471 0l250 465l-250 463h344l270 -463l-270 -465h-344z" />
<glyph unicode="&#xbc;" horiz-adv-x="1062" d="M-20 1192l165 174h181v-752h-244v459zM119 0l543 1366h233l-543 -1366h-233zM489 104v119l328 529h191v-504h45v-144h-45v-104h-213v104h-306zM666 248h129v209z" />
<glyph unicode="&#xbd;" horiz-adv-x="1122" d="M-20 1192l165 174h181v-752h-244v459zM119 0l543 1366h233l-543 -1366h-233zM600 0l188 360q23 45 31 68t8 43q0 76 -92 76q-10 0 -18 -1t-15 -1q-8 -2 -14 -2v209q14 2 33 4q16 2 34.5 4t39.5 2q53 0 106 -11.5t95 -39t68 -72.5t26 -111q0 -59 -28 -123.5t-85 -177.5 l-16 -30h141l-64 -197h-438z" />
<glyph unicode="&#xbe;" horiz-adv-x="1103" d="M20 606v209q12 -2 22.5 -2h20.5q72 0 99.5 26.5t27.5 61.5q0 25 -16 45.5t-39.5 37.5t-51.5 31.5t-48 24.5q39 25 78 54.5t39 54.5q0 20 -14.5 27.5t-37.5 7.5q-16 0 -30.5 -2t-24.5 -4q-12 -4 -25 -7v195q20 2 46 4q20 2 47.5 3t60.5 1q111 0 168 -50t57 -130 q0 -29 -11 -52.5t-23 -39.5q-14 -20 -33 -37q27 -23 49 -51q18 -25 34.5 -62t16.5 -82q0 -70 -28.5 -120t-76.5 -81.5t-111.5 -47t-133.5 -15.5h-62zM160 0l542 1366h234l-543 -1366h-233zM530 104v119l328 529h191v-504h45v-144h-45v-104h-213v104h-306zM707 248h129v209z " />
<glyph unicode="&#xbf;" horiz-adv-x="782" d="M30 387q0 90 36 163t79 140.5t79 133t36 139.5h436q0 -96 -28.5 -167t-63.5 -124.5t-63.5 -96.5t-28.5 -86q0 -39 16 -62.5t43 -36.5t62.5 -17t74.5 -4h43v-381q-37 -6 -64.5 -10.5t-50 -6.5t-44 -3t-50.5 -1q-117 0 -211 30t-160.5 85t-103.5 133t-37 172zM258 1024v342 h438v-342h-438z" />
<glyph unicode="&#xc0;" horiz-adv-x="1282" d="M-41 0l518 1366h328l518 -1366h-430l-45 123h-414l-45 -123h-430zM299 1763h301l170 -317h-225zM549 424h184l-92 240z" />
<glyph unicode="&#xc1;" horiz-adv-x="1282" d="M-41 0l518 1366h328l518 -1366h-430l-45 123h-414l-45 -123h-430zM545 1446l170 317h301l-246 -317h-225zM549 424h184l-92 240z" />
<glyph unicode="&#xc2;" horiz-adv-x="1282" d="M-41 0l518 1366h328l518 -1366h-430l-45 123h-414l-45 -123h-430zM319 1446l170 317h299l170 -317h-233l-86 145l-86 -145h-234zM549 424h184l-92 240z" />
<glyph unicode="&#xc3;" horiz-adv-x="1282" d="M-41 0l518 1366h328l518 -1366h-430l-45 123h-414l-45 -123h-430zM313 1446q0 147 59.5 210.5t153.5 63.5q37 0 71 -10t61.5 -22.5t49 -22.5t37.5 -10q47 0 47 65h175q0 -147 -59.5 -210.5t-153.5 -63.5q-37 0 -71 10t-61.5 21.5t-50 21.5t-37.5 10q-47 0 -47 -63h-174z M549 424h184l-92 240z" />
<glyph unicode="&#xc4;" horiz-adv-x="1282" d="M-41 0l518 1366h328l518 -1366h-430l-45 123h-414l-45 -123h-430zM334 1446v207h262v-207h-262zM549 424h184l-92 240zM686 1446v207h263v-207h-263z" />
<glyph unicode="&#xc5;" horiz-adv-x="1282" d="M-41 0l518 1366h328l518 -1366h-430l-45 123h-414l-45 -123h-430zM381 1671q0 53 20.5 100.5t55.5 83t82 56t100 20.5t100.5 -20.5t83 -56t56 -83t20.5 -100.5t-20.5 -100t-56 -82t-83 -55.5t-100.5 -20.5t-100 20.5t-82 55.5t-55.5 82t-20.5 100zM549 424h184l-92 240z M549 1671q0 -39 25.5 -64.5t64.5 -25.5t65.5 25.5t26.5 64.5t-26.5 65.5t-65.5 26.5t-64.5 -26.5t-25.5 -65.5z" />
<glyph unicode="&#xc6;" horiz-adv-x="1800" d="M-41 0l518 1366h328l125 -332v332h805v-358h-369v-152h363v-340h-363v-158h383v-358h-856l-45 123h-414l-45 -123h-430zM549 424h184l-92 240z" />
<glyph unicode="&#xc7;" horiz-adv-x="1257" d="M41 682q0 164 57.5 296t155.5 226t229 144.5t279 50.5q117 0 208 -22.5t156 -51.5q76 -33 131 -72l-215 -379q-33 25 -71 48q-35 16 -83 31.5t-110 15.5q-63 0 -116.5 -22.5t-93.5 -61.5t-62.5 -91.5t-22.5 -111.5t23.5 -111.5t64.5 -91.5t96.5 -61.5t120.5 -22.5 q66 0 117 16.5t86 37.5q41 23 72 53l215 -379q-55 -43 -129 -78q-63 -29 -152.5 -53.5t-205.5 -26.5l-31 -63q55 -2 100 -25q39 -18 71 -58t32 -112q0 -39 -14.5 -81t-51.5 -77.5t-98.5 -58t-153.5 -22.5q-47 0 -86 4t-67 8q-35 6 -64 12l41 158q23 -6 45 -12 q45 -10 100 -11q53 0 88 20.5t35 61.5t-33.5 57.5t-76.5 16.5q-16 0 -31.5 -2t-28.5 -4q-14 -2 -26 -4l102 202q-133 20 -243.5 80t-190.5 152t-124 213t-44 262z" />
<glyph unicode="&#xc8;" horiz-adv-x="942" d="M72 0v1366h805v-358h-369v-152h362v-340h-362v-158h383v-358h-819zM149 1763h301l170 -317h-225z" />
<glyph unicode="&#xc9;" horiz-adv-x="942" d="M72 0v1366h805v-358h-369v-152h362v-340h-362v-158h383v-358h-819zM354 1446l170 317h301l-246 -317h-225z" />
<glyph unicode="&#xca;" horiz-adv-x="942" d="M72 0v1366h805v-358h-369v-152h362v-340h-362v-158h383v-358h-819zM149 1446l170 317h299l170 -317h-233l-86 145l-86 -145h-234z" />
<glyph unicode="&#xcb;" horiz-adv-x="942" d="M72 0v1366h805v-358h-369v-152h362v-340h-362v-158h383v-358h-819zM164 1446v207h262v-207h-262zM516 1446v207h263v-207h-263z" />
<glyph unicode="&#xcc;" horiz-adv-x="606" d="M8 1763h301l170 -317h-225zM72 0v1366h463v-1366h-463z" />
<glyph unicode="&#xcd;" horiz-adv-x="606" d="M72 0v1366h463v-1366h-463zM166 1446l170 317h301l-246 -317h-225z" />
<glyph unicode="&#xce;" horiz-adv-x="606" d="M-10 1446l170 317h299l170 -317h-233l-86 145l-86 -145h-234zM72 0v1366h463v-1366h-463z" />
<glyph unicode="&#xcf;" horiz-adv-x="606" d="M2 1446v207h262v-207h-262zM72 0v1366h463v-1366h-463zM354 1446v207h263v-207h-263z" />
<glyph unicode="&#xd0;" horiz-adv-x="1300" d="M0 545v317h72v504h379q193 0 343 -43t253.5 -129t158 -214t54.5 -296t-54.5 -296t-158 -214t-254 -130t-342.5 -44h-379v545h-72zM508 389q154 0 237.5 73t83.5 222q0 150 -83.5 221.5t-237.5 71.5v-115h188v-317h-188v-156z" />
<glyph unicode="&#xd1;" horiz-adv-x="1306" d="M72 0v1366h358l377 -526v526h428v-1366h-361l-374 524v-524h-428zM325 1446q0 147 59.5 210.5t153.5 63.5q37 0 71 -10t61.5 -22.5t49 -22.5t37.5 -10q47 0 47 65h175q0 -147 -59.5 -210.5t-153.5 -63.5q-37 0 -71 10t-61.5 21.5t-50 21.5t-37.5 10q-47 0 -47 -63h-174z " />
<glyph unicode="&#xd2;" d="M41 682q0 147 56.5 278.5t153.5 228.5t228 153.5t279 56.5q147 0 278 -56.5t228.5 -153.5t154 -228.5t56.5 -278.5t-56.5 -278.5t-154 -228.5t-228.5 -153.5t-278 -56.5t-278.5 56.5t-228.5 153.5t-153.5 228.5t-56.5 278.5zM457 1763h301l170 -317h-225zM471 682 q0 -59 22.5 -111.5t61.5 -91.5t91 -61.5t112 -22.5q59 0 111.5 22.5t91 61.5t61 91.5t22.5 111.5t-22.5 111.5t-61 91.5t-91 61.5t-111.5 22.5t-111.5 -22.5t-91.5 -61.5t-61.5 -91.5t-22.5 -111.5z" />
<glyph unicode="&#xd3;" d="M41 682q0 147 56.5 278.5t153.5 228.5t228 153.5t279 56.5q147 0 278 -56.5t228.5 -153.5t154 -228.5t56.5 -278.5t-56.5 -278.5t-154 -228.5t-228.5 -153.5t-278 -56.5t-278.5 56.5t-228.5 153.5t-153.5 228.5t-56.5 278.5zM471 682q0 -59 22.5 -111.5t61.5 -91.5 t91 -61.5t112 -22.5q59 0 111.5 22.5t91 61.5t61 91.5t22.5 111.5t-22.5 111.5t-61 91.5t-91 61.5t-111.5 22.5t-111.5 -22.5t-91.5 -61.5t-61.5 -91.5t-22.5 -111.5zM620 1446l170 317h301l-246 -317h-225z" />
<glyph unicode="&#xd4;" d="M41 682q0 147 56.5 278.5t153.5 228.5t228 153.5t279 56.5q147 0 278 -56.5t228.5 -153.5t154 -228.5t56.5 -278.5t-56.5 -278.5t-154 -228.5t-228.5 -153.5t-278 -56.5t-278.5 56.5t-228.5 153.5t-153.5 228.5t-56.5 278.5zM436 1446l170 317h299l170 -317h-233l-86 145 l-86 -145h-234zM471 682q0 -59 22.5 -111.5t61.5 -91.5t91 -61.5t112 -22.5q59 0 111.5 22.5t91 61.5t61 91.5t22.5 111.5t-22.5 111.5t-61 91.5t-91 61.5t-111.5 22.5t-111.5 -22.5t-91.5 -61.5t-61.5 -91.5t-22.5 -111.5z" />
<glyph unicode="&#xd5;" d="M41 682q0 147 56.5 278.5t153.5 228.5t228 153.5t279 56.5q147 0 278 -56.5t228.5 -153.5t154 -228.5t56.5 -278.5t-56.5 -278.5t-154 -228.5t-228.5 -153.5t-278 -56.5t-278.5 56.5t-228.5 153.5t-153.5 228.5t-56.5 278.5zM430 1446q0 147 59.5 210.5t153.5 63.5 q37 0 71 -10t61.5 -22.5t49 -22.5t37.5 -10q47 0 47 65h175q0 -147 -59.5 -210.5t-153.5 -63.5q-37 0 -71 10t-61.5 21.5t-50 21.5t-37.5 10q-47 0 -47 -63h-174zM471 682q0 -59 22.5 -111.5t61.5 -91.5t91 -61.5t112 -22.5q59 0 111.5 22.5t91 61.5t61 91.5t22.5 111.5 t-22.5 111.5t-61 91.5t-91 61.5t-111.5 22.5t-111.5 -22.5t-91.5 -61.5t-61.5 -91.5t-22.5 -111.5z" />
<glyph unicode="&#xd6;" d="M41 682q0 147 56.5 278.5t153.5 228.5t228 153.5t279 56.5q147 0 278 -56.5t228.5 -153.5t154 -228.5t56.5 -278.5t-56.5 -278.5t-154 -228.5t-228.5 -153.5t-278 -56.5t-278.5 56.5t-228.5 153.5t-153.5 228.5t-56.5 278.5zM450 1446v207h262v-207h-262zM471 682 q0 -59 22.5 -111.5t61.5 -91.5t91 -61.5t112 -22.5q59 0 111.5 22.5t91 61.5t61 91.5t22.5 111.5t-22.5 111.5t-61 91.5t-91 61.5t-111.5 22.5t-111.5 -22.5t-91.5 -61.5t-61.5 -91.5t-22.5 -111.5zM802 1446v207h263v-207h-263z" />
<glyph unicode="&#xd7;" horiz-adv-x="933" d="M20 348l207 205l-207 205l242 241l205 -206l205 206l241 -241l-206 -205l206 -205l-241 -242l-205 207l-205 -207z" />
<glyph unicode="&#xd8;" d="M31 215l102 115q-45 78 -68.5 166t-23.5 186q0 147 56.5 278.5t153.5 228.5t228 153.5t279 56.5q76 0 147.5 -15.5t136.5 -44.5l105 115l338 -303l-105 -115q45 -78 70 -167t25 -187q0 -147 -56.5 -278.5t-154 -228.5t-228.5 -153.5t-278 -56.5q-78 0 -149.5 15.5 t-137.5 44.5l-102 -113zM471 682q0 -59 22.5 -111.5t61.5 -91.5t91 -61.5t112 -22.5q59 0 111.5 22.5t91 61.5t61 91.5t22.5 111.5t-22.5 111.5t-61 91.5t-91 61.5t-111.5 22.5t-111.5 -22.5t-91.5 -61.5t-61.5 -91.5t-22.5 -111.5z" />
<glyph unicode="&#xd9;" horiz-adv-x="1263" d="M66 498v868h436v-850q0 -72 29.5 -109.5t99.5 -37.5t99.5 37.5t29.5 109.5v850h438v-868q0 -135 -40 -235.5t-114.5 -166t-179 -98.5t-233.5 -33t-233.5 33t-178.5 98.5t-113.5 165.5t-39.5 236zM330 1763h301l170 -317h-225z" />
<glyph unicode="&#xda;" horiz-adv-x="1263" d="M66 498v868h436v-850q0 -72 29.5 -109.5t99.5 -37.5t99.5 37.5t29.5 109.5v850h438v-868q0 -135 -40 -235.5t-114.5 -166t-179 -98.5t-233.5 -33t-233.5 33t-178.5 98.5t-113.5 165.5t-39.5 236zM493 1446l170 317h301l-246 -317h-225z" />
<glyph unicode="&#xdb;" horiz-adv-x="1263" d="M66 498v868h436v-850q0 -72 29.5 -109.5t99.5 -37.5t99.5 37.5t29.5 109.5v850h438v-868q0 -135 -40 -235.5t-114.5 -166t-179 -98.5t-233.5 -33t-233.5 33t-178.5 98.5t-113.5 165.5t-39.5 236zM311 1446l170 317h299l170 -317h-233l-86 145l-86 -145h-234z" />
<glyph unicode="&#xdc;" horiz-adv-x="1263" d="M66 498v868h436v-850q0 -72 29.5 -109.5t99.5 -37.5t99.5 37.5t29.5 109.5v850h438v-868q0 -135 -40 -235.5t-114.5 -166t-179 -98.5t-233.5 -33t-233.5 33t-178.5 98.5t-113.5 165.5t-39.5 236zM323 1446v207h262v-207h-262zM675 1446v207h263v-207h-263z" />
<glyph unicode="&#xdd;" horiz-adv-x="1202" d="M-41 1366h485l158 -289l156 289h485l-424 -778v-588h-436v588zM463 1446l170 317h301l-246 -317h-225z" />
<glyph unicode="&#xde;" horiz-adv-x="1165" d="M72 0v1366h436v-164q131 0 244.5 -28.5t198.5 -90t134.5 -161t49.5 -240.5t-49.5 -240.5t-134.5 -161t-198.5 -90t-244.5 -28.5v-162h-436zM508 530h18q86 0 124 40t38 112t-38 112t-124 40h-18v-304z" />
<glyph unicode="&#xdf;" horiz-adv-x="1832" d="M31 1006q0 96 34.5 169.5t96 123t144.5 75t177 25.5q49 0 98.5 -5t88.5 -10q45 -6 88 -12v-383q-16 2 -37 4q-16 2 -36.5 4t-43.5 2q-12 0 -30.5 -1t-35 -5t-28.5 -14t-12 -29q0 -16 27.5 -40.5t67.5 -57.5t88 -76t88 -98t67.5 -125t27.5 -156q0 -90 -28.5 -168.5 t-89 -137t-154.5 -92.5t-223 -34q-78 0 -144.5 7.5t-118.5 17.5q-59 10 -108 24v410q45 -14 94 -23q41 -10 93 -16t106 -6q94 0 94 70q0 27 -28.5 54t-73 61t-94.5 75t-94 94t-72.5 120t-28.5 153zM942 1006q0 96 34.5 169.5t96 123t144.5 75t177 25.5q49 0 98.5 -5 t88.5 -10q45 -6 88 -12v-383q-16 2 -37 4q-16 2 -36.5 4t-43.5 2q-12 0 -30.5 -1t-35 -5t-28.5 -14t-12 -29q0 -16 27.5 -40.5t67.5 -57.5t88 -76t88 -98t67.5 -125t27.5 -156q0 -90 -28.5 -168.5t-89 -137t-154.5 -92.5t-223 -34q-78 0 -144.5 7.5t-118.5 17.5 q-59 10 -108 24v410q45 -14 94 -23q41 -10 93 -16t106 -6q94 0 94 70q0 27 -28.5 54t-73 61t-94.5 75t-94 94t-72.5 120t-28.5 153z" />
<glyph unicode="&#xe0;" horiz-adv-x="1282" d="M-41 0l518 1366h328l518 -1366h-430l-45 123h-414l-45 -123h-430zM299 1763h301l170 -317h-225zM549 424h184l-92 240z" />
<glyph unicode="&#xe1;" horiz-adv-x="1282" d="M-41 0l518 1366h328l518 -1366h-430l-45 123h-414l-45 -123h-430zM545 1446l170 317h301l-246 -317h-225zM549 424h184l-92 240z" />
<glyph unicode="&#xe2;" horiz-adv-x="1282" d="M-41 0l518 1366h328l518 -1366h-430l-45 123h-414l-45 -123h-430zM319 1446l170 317h299l170 -317h-233l-86 145l-86 -145h-234zM549 424h184l-92 240z" />
<glyph unicode="&#xe3;" horiz-adv-x="1282" d="M-41 0l518 1366h328l518 -1366h-430l-45 123h-414l-45 -123h-430zM313 1446q0 147 59.5 210.5t153.5 63.5q37 0 71 -10t61.5 -22.5t49 -22.5t37.5 -10q47 0 47 65h175q0 -147 -59.5 -210.5t-153.5 -63.5q-37 0 -71 10t-61.5 21.5t-50 21.5t-37.5 10q-47 0 -47 -63h-174z M549 424h184l-92 240z" />
<glyph unicode="&#xe4;" horiz-adv-x="1282" d="M-41 0l518 1366h328l518 -1366h-430l-45 123h-414l-45 -123h-430zM334 1446v207h262v-207h-262zM549 424h184l-92 240zM686 1446v207h263v-207h-263z" />
<glyph unicode="&#xe5;" horiz-adv-x="1282" d="M-41 0l518 1366h328l518 -1366h-430l-45 123h-414l-45 -123h-430zM381 1671q0 53 20.5 100.5t55.5 83t82 56t100 20.5t100.5 -20.5t83 -56t56 -83t20.5 -100.5t-20.5 -100t-56 -82t-83 -55.5t-100.5 -20.5t-100 20.5t-82 55.5t-55.5 82t-20.5 100zM549 424h184l-92 240z M549 1671q0 -39 25.5 -64.5t64.5 -25.5t65.5 25.5t26.5 64.5t-26.5 65.5t-65.5 26.5t-64.5 -26.5t-25.5 -65.5z" />
<glyph unicode="&#xe6;" horiz-adv-x="1800" d="M-41 0l518 1366h328l125 -332v332h805v-358h-369v-152h363v-340h-363v-158h383v-358h-856l-45 123h-414l-45 -123h-430zM549 424h184l-92 240z" />
<glyph unicode="&#xe7;" horiz-adv-x="1257" d="M41 682q0 164 57.5 296t155.5 226t229 144.5t279 50.5q117 0 208 -22.5t156 -51.5q76 -33 131 -72l-215 -379q-33 25 -71 48q-35 16 -83 31.5t-110 15.5q-63 0 -116.5 -22.5t-93.5 -61.5t-62.5 -91.5t-22.5 -111.5t23.5 -111.5t64.5 -91.5t96.5 -61.5t120.5 -22.5 q66 0 117 16.5t86 37.5q41 23 72 53l215 -379q-55 -43 -129 -78q-63 -29 -152.5 -53.5t-205.5 -26.5l-31 -63q55 -2 100 -25q39 -18 71 -58t32 -112q0 -39 -14.5 -81t-51.5 -77.5t-98.5 -58t-153.5 -22.5q-47 0 -86 4t-67 8q-35 6 -64 12l41 158q23 -6 45 -12 q45 -10 100 -11q53 0 88 20.5t35 61.5t-33.5 57.5t-76.5 16.5q-16 0 -31.5 -2t-28.5 -4q-14 -2 -26 -4l102 202q-133 20 -243.5 80t-190.5 152t-124 213t-44 262z" />
<glyph unicode="&#xe8;" horiz-adv-x="942" d="M72 0v1366h805v-358h-369v-152h362v-340h-362v-158h383v-358h-819zM149 1763h301l170 -317h-225z" />
<glyph unicode="&#xe9;" horiz-adv-x="942" d="M72 0v1366h805v-358h-369v-152h362v-340h-362v-158h383v-358h-819zM354 1446l170 317h301l-246 -317h-225z" />
<glyph unicode="&#xea;" horiz-adv-x="942" d="M72 0v1366h805v-358h-369v-152h362v-340h-362v-158h383v-358h-819zM149 1446l170 317h299l170 -317h-233l-86 145l-86 -145h-234z" />
<glyph unicode="&#xeb;" horiz-adv-x="942" d="M72 0v1366h805v-358h-369v-152h362v-340h-362v-158h383v-358h-819zM164 1446v207h262v-207h-262zM516 1446v207h263v-207h-263z" />
<glyph unicode="&#xec;" horiz-adv-x="606" d="M8 1763h301l170 -317h-225zM72 0v1366h463v-1366h-463z" />
<glyph unicode="&#xed;" horiz-adv-x="606" d="M72 0v1366h463v-1366h-463zM166 1446l170 317h301l-246 -317h-225z" />
<glyph unicode="&#xee;" horiz-adv-x="606" d="M-10 1446l170 317h299l170 -317h-233l-86 145l-86 -145h-234zM72 0v1366h463v-1366h-463z" />
<glyph unicode="&#xef;" horiz-adv-x="606" d="M2 1446v207h262v-207h-262zM72 0v1366h463v-1366h-463zM354 1446v207h263v-207h-263z" />
<glyph unicode="&#xf0;" horiz-adv-x="1300" d="M0 545v317h72v504h379q193 0 343 -43t253.5 -129t158 -214t54.5 -296t-54.5 -296t-158 -214t-254 -130t-342.5 -44h-379v545h-72zM508 389q154 0 237.5 73t83.5 222q0 150 -83.5 221.5t-237.5 71.5v-115h188v-317h-188v-156z" />
<glyph unicode="&#xf1;" horiz-adv-x="1306" d="M72 0v1366h358l377 -526v526h428v-1366h-361l-374 524v-524h-428zM325 1446q0 147 59.5 210.5t153.5 63.5q37 0 71 -10t61.5 -22.5t49 -22.5t37.5 -10q47 0 47 65h175q0 -147 -59.5 -210.5t-153.5 -63.5q-37 0 -71 10t-61.5 21.5t-50 21.5t-37.5 10q-47 0 -47 -63h-174z " />
<glyph unicode="&#xf2;" d="M41 682q0 147 56.5 278.5t153.5 228.5t228 153.5t279 56.5q147 0 278 -56.5t228.5 -153.5t154 -228.5t56.5 -278.5t-56.5 -278.5t-154 -228.5t-228.5 -153.5t-278 -56.5t-278.5 56.5t-228.5 153.5t-153.5 228.5t-56.5 278.5zM457 1763h301l170 -317h-225zM471 682 q0 -59 22.5 -111.5t61.5 -91.5t91 -61.5t112 -22.5q59 0 111.5 22.5t91 61.5t61 91.5t22.5 111.5t-22.5 111.5t-61 91.5t-91 61.5t-111.5 22.5t-111.5 -22.5t-91.5 -61.5t-61.5 -91.5t-22.5 -111.5z" />
<glyph unicode="&#xf3;" d="M41 682q0 147 56.5 278.5t153.5 228.5t228 153.5t279 56.5q147 0 278 -56.5t228.5 -153.5t154 -228.5t56.5 -278.5t-56.5 -278.5t-154 -228.5t-228.5 -153.5t-278 -56.5t-278.5 56.5t-228.5 153.5t-153.5 228.5t-56.5 278.5zM471 682q0 -59 22.5 -111.5t61.5 -91.5 t91 -61.5t112 -22.5q59 0 111.5 22.5t91 61.5t61 91.5t22.5 111.5t-22.5 111.5t-61 91.5t-91 61.5t-111.5 22.5t-111.5 -22.5t-91.5 -61.5t-61.5 -91.5t-22.5 -111.5zM620 1446l170 317h301l-246 -317h-225z" />
<glyph unicode="&#xf4;" d="M41 682q0 147 56.5 278.5t153.5 228.5t228 153.5t279 56.5q147 0 278 -56.5t228.5 -153.5t154 -228.5t56.5 -278.5t-56.5 -278.5t-154 -228.5t-228.5 -153.5t-278 -56.5t-278.5 56.5t-228.5 153.5t-153.5 228.5t-56.5 278.5zM436 1446l170 317h299l170 -317h-233l-86 145 l-86 -145h-234zM471 682q0 -59 22.5 -111.5t61.5 -91.5t91 -61.5t112 -22.5q59 0 111.5 22.5t91 61.5t61 91.5t22.5 111.5t-22.5 111.5t-61 91.5t-91 61.5t-111.5 22.5t-111.5 -22.5t-91.5 -61.5t-61.5 -91.5t-22.5 -111.5z" />
<glyph unicode="&#xf5;" d="M41 682q0 147 56.5 278.5t153.5 228.5t228 153.5t279 56.5q147 0 278 -56.5t228.5 -153.5t154 -228.5t56.5 -278.5t-56.5 -278.5t-154 -228.5t-228.5 -153.5t-278 -56.5t-278.5 56.5t-228.5 153.5t-153.5 228.5t-56.5 278.5zM430 1446q0 147 59.5 210.5t153.5 63.5 q37 0 71 -10t61.5 -22.5t49 -22.5t37.5 -10q47 0 47 65h175q0 -147 -59.5 -210.5t-153.5 -63.5q-37 0 -71 10t-61.5 21.5t-50 21.5t-37.5 10q-47 0 -47 -63h-174zM471 682q0 -59 22.5 -111.5t61.5 -91.5t91 -61.5t112 -22.5q59 0 111.5 22.5t91 61.5t61 91.5t22.5 111.5 t-22.5 111.5t-61 91.5t-91 61.5t-111.5 22.5t-111.5 -22.5t-91.5 -61.5t-61.5 -91.5t-22.5 -111.5z" />
<glyph unicode="&#xf6;" d="M41 682q0 147 56.5 278.5t153.5 228.5t228 153.5t279 56.5q147 0 278 -56.5t228.5 -153.5t154 -228.5t56.5 -278.5t-56.5 -278.5t-154 -228.5t-228.5 -153.5t-278 -56.5t-278.5 56.5t-228.5 153.5t-153.5 228.5t-56.5 278.5zM450 1446v207h262v-207h-262zM471 682 q0 -59 22.5 -111.5t61.5 -91.5t91 -61.5t112 -22.5q59 0 111.5 22.5t91 61.5t61 91.5t22.5 111.5t-22.5 111.5t-61 91.5t-91 61.5t-111.5 22.5t-111.5 -22.5t-91.5 -61.5t-61.5 -91.5t-22.5 -111.5zM802 1446v207h263v-207h-263z" />
<glyph unicode="&#xf7;" horiz-adv-x="942" d="M41 383v340h860v-340h-860zM315 63v254h312v-254h-312zM315 788v254h312v-254h-312z" />
<glyph unicode="&#xf8;" d="M31 215l102 115q-45 78 -68.5 166t-23.5 186q0 147 56.5 278.5t153.5 228.5t228 153.5t279 56.5q76 0 147.5 -15.5t136.5 -44.5l105 115l338 -303l-105 -115q45 -78 70 -167t25 -187q0 -147 -56.5 -278.5t-154 -228.5t-228.5 -153.5t-278 -56.5q-78 0 -149.5 15.5 t-137.5 44.5l-102 -113zM471 682q0 -59 22.5 -111.5t61.5 -91.5t91 -61.5t112 -22.5q59 0 111.5 22.5t91 61.5t61 91.5t22.5 111.5t-22.5 111.5t-61 91.5t-91 61.5t-111.5 22.5t-111.5 -22.5t-91.5 -61.5t-61.5 -91.5t-22.5 -111.5z" />
<glyph unicode="&#xf9;" horiz-adv-x="1263" d="M66 498v868h436v-850q0 -72 29.5 -109.5t99.5 -37.5t99.5 37.5t29.5 109.5v850h438v-868q0 -135 -40 -235.5t-114.5 -166t-179 -98.5t-233.5 -33t-233.5 33t-178.5 98.5t-113.5 165.5t-39.5 236zM330 1763h301l170 -317h-225z" />
<glyph unicode="&#xfa;" horiz-adv-x="1263" d="M66 498v868h436v-850q0 -72 29.5 -109.5t99.5 -37.5t99.5 37.5t29.5 109.5v850h438v-868q0 -135 -40 -235.5t-114.5 -166t-179 -98.5t-233.5 -33t-233.5 33t-178.5 98.5t-113.5 165.5t-39.5 236zM493 1446l170 317h301l-246 -317h-225z" />
<glyph unicode="&#xfb;" horiz-adv-x="1263" d="M66 498v868h436v-850q0 -72 29.5 -109.5t99.5 -37.5t99.5 37.5t29.5 109.5v850h438v-868q0 -135 -40 -235.5t-114.5 -166t-179 -98.5t-233.5 -33t-233.5 33t-178.5 98.5t-113.5 165.5t-39.5 236zM311 1446l170 317h299l170 -317h-233l-86 145l-86 -145h-234z" />
<glyph unicode="&#xfc;" horiz-adv-x="1263" d="M66 498v868h436v-850q0 -72 29.5 -109.5t99.5 -37.5t99.5 37.5t29.5 109.5v850h438v-868q0 -135 -40 -235.5t-114.5 -166t-179 -98.5t-233.5 -33t-233.5 33t-178.5 98.5t-113.5 165.5t-39.5 236zM323 1446v207h262v-207h-262zM675 1446v207h263v-207h-263z" />
<glyph unicode="&#xfd;" horiz-adv-x="1202" d="M-41 1366h485l158 -289l156 289h485l-424 -778v-588h-436v588zM463 1446l170 317h301l-246 -317h-225z" />
<glyph unicode="&#xfe;" horiz-adv-x="1165" d="M72 0v1366h436v-164q131 0 244.5 -28.5t198.5 -90t134.5 -161t49.5 -240.5t-49.5 -240.5t-134.5 -161t-198.5 -90t-244.5 -28.5v-162h-436zM508 530h18q86 0 124 40t38 112t-38 112t-124 40h-18v-304z" />
<glyph unicode="&#xff;" horiz-adv-x="1202" d="M-41 1366h485l158 -289l156 289h485l-424 -778v-588h-436v588zM293 1446v207h262v-207h-262zM645 1446v207h263v-207h-263z" />
<glyph unicode="&#x152;" horiz-adv-x="2072" d="M41 682q0 147 56.5 278.5t153.5 228.5t228 153.5t279 56.5q129 0 240.5 -42t203.5 -114v123h805v-358h-369v-152h363v-340h-363v-158h383v-358h-819v119q-92 -72 -203.5 -113t-240.5 -41q-147 0 -278.5 56.5t-228.5 153.5t-153.5 228.5t-56.5 278.5zM471 682 q0 -59 22.5 -111.5t61.5 -91.5t91 -61.5t112 -22.5q59 0 111.5 22.5t91 61.5t61 91.5t22.5 111.5t-22.5 111.5t-61 91.5t-91 61.5t-111.5 22.5t-111.5 -22.5t-91.5 -61.5t-61.5 -91.5t-22.5 -111.5z" />
<glyph unicode="&#x153;" horiz-adv-x="2072" d="M41 682q0 147 56.5 278.5t153.5 228.5t228 153.5t279 56.5q129 0 240.5 -42t203.5 -114v123h805v-358h-369v-152h363v-340h-363v-158h383v-358h-819v119q-92 -72 -203.5 -113t-240.5 -41q-147 0 -278.5 56.5t-228.5 153.5t-153.5 228.5t-56.5 278.5zM471 682 q0 -59 22.5 -111.5t61.5 -91.5t91 -61.5t112 -22.5q59 0 111.5 22.5t91 61.5t61 91.5t22.5 111.5t-22.5 111.5t-61 91.5t-91 61.5t-111.5 22.5t-111.5 -22.5t-91.5 -61.5t-61.5 -91.5t-22.5 -111.5z" />
<glyph unicode="&#x178;" horiz-adv-x="1202" d="M-41 1366h485l158 -289l156 289h485l-424 -778v-588h-436v588zM293 1446v207h262v-207h-262zM645 1446v207h263v-207h-263z" />
<glyph unicode="&#x2c6;" horiz-adv-x="741" d="M51 1057l170 317h299l170 -317h-233l-86 145l-86 -145h-234z" />
<glyph unicode="&#x2dc;" horiz-adv-x="755" d="M51 1057q0 147 59.5 210.5t153.5 63.5q37 0 71 -10t61.5 -22.5t49 -22.5t37.5 -10q47 0 47 65h175q0 -147 -59.5 -210.5t-153.5 -63.5q-37 0 -71 10t-61.5 21.5t-50 21.5t-37.5 10q-47 0 -47 -63h-174z" />
<glyph unicode="&#x2000;" horiz-adv-x="965" />
<glyph unicode="&#x2001;" horiz-adv-x="1931" />
<glyph unicode="&#x2002;" horiz-adv-x="965" />
<glyph unicode="&#x2003;" horiz-adv-x="1931" />
<glyph unicode="&#x2004;" horiz-adv-x="643" />
<glyph unicode="&#x2005;" horiz-adv-x="482" />
<glyph unicode="&#x2006;" horiz-adv-x="321" />
<glyph unicode="&#x2007;" horiz-adv-x="321" />
<glyph unicode="&#x2008;" horiz-adv-x="241" />
<glyph unicode="&#x2009;" horiz-adv-x="386" />
<glyph unicode="&#x200a;" horiz-adv-x="107" />
<glyph unicode="&#x2010;" horiz-adv-x="643" d="M51 512v342h541v-342h-541z" />
<glyph unicode="&#x2011;" horiz-adv-x="643" d="M51 512v342h541v-342h-541z" />
<glyph unicode="&#x2012;" horiz-adv-x="643" d="M51 512v342h541v-342h-541z" />
<glyph unicode="&#x2013;" horiz-adv-x="1003" d="M61 524v318h881v-318h-881z" />
<glyph unicode="&#x2014;" d="M61 524v318h1393v-318h-1393z" />
<glyph unicode="&#x2018;" horiz-adv-x="567" d="M0 813l219 553h348l-178 -553h-389z" />
<glyph unicode="&#x2019;" horiz-adv-x="567" d="M0 813l178 553h389l-219 -553h-348z" />
<glyph unicode="&#x201a;" horiz-adv-x="567" d="M0 -211l178 553h389l-219 -553h-348z" />
<glyph unicode="&#x201c;" horiz-adv-x="1044" d="M0 813l219 553h348l-178 -553h-389zM477 813l219 553h348l-178 -553h-389z" />
<glyph unicode="&#x201d;" horiz-adv-x="1044" d="M0 813l178 553h389l-219 -553h-348zM477 813l178 553h389l-219 -553h-348z" />
<glyph unicode="&#x201e;" horiz-adv-x="1044" d="M0 -211l178 553h389l-219 -553h-348zM477 -211l178 553h389l-219 -553h-348z" />
<glyph unicode="&#x2022;" horiz-adv-x="770" d="M133 684q0 51 19.5 97t54.5 81t80 54.5t98 19.5q51 0 97 -19.5t81 -54.5t54.5 -81t19.5 -97q0 -53 -19.5 -98t-54.5 -80t-81 -54.5t-97 -19.5q-53 0 -98 19.5t-80 54.5t-54.5 80t-19.5 98z" />
<glyph unicode="&#x2026;" horiz-adv-x="1683" d="M61 0v342h439v-342h-439zM623 0v342h438v-342h-438zM1184 0v342h438v-342h-438z" />
<glyph unicode="&#x202f;" horiz-adv-x="386" />
<glyph unicode="&#x2039;" horiz-adv-x="634" d="M0 465l270 463h344l-249 -463l249 -465h-344z" />
<glyph unicode="&#x203a;" horiz-adv-x="634" d="M20 0l250 465l-250 463h345l270 -463l-270 -465h-345z" />
<glyph unicode="&#x205f;" horiz-adv-x="482" />
<glyph unicode="&#x20ac;" horiz-adv-x="1042" d="M-41 444l39 177h100q-2 16 -3 33.5t-1 33.5q0 14 1 27.5t3 27.5h-75l38 172h64q27 102 77 190.5t122.5 154t169 102.5t217.5 37q186 0 352 -80l-174 -348q-27 16 -65 25.5t-70 9.5q-61 0 -105.5 -25t-73.5 -66h265l-39 -172h-287q-2 -16 -3 -29.5t-1 -27.5q0 -16 1 -32.5 t3 -32.5h260l-37 -177h-157q29 -41 71.5 -63.5t102.5 -22.5q31 0 59.5 7.5t75.5 27.5l174 -348q-82 -39 -168 -59.5t-184 -20.5q-119 0 -215.5 37t-170 101.5t-123.5 151.5t-77 189h-166z" />
<glyph unicode="&#x2122;" horiz-adv-x="1206" d="M20 1212v154h431v-154h-119v-460h-195v460h-117zM522 752v614h156l166 -244l166 244h155v-614h-188v231l-133 -195l-133 195v-231h-189z" />
<glyph unicode="&#x25fc;" horiz-adv-x="1361" d="M0 0v1362h1362v-1362h-1362z" />
<glyph unicode="&#xfb01;" horiz-adv-x="1523" d="M72 0v1366h805v-358h-369v-152h362v-340h-362v-516h-436zM990 0v1366h463v-1366h-463z" />
<glyph unicode="&#xfb02;" horiz-adv-x="1820" d="M72 0v1366h805v-358h-369v-152h362v-340h-362v-516h-436zM990 0v1366h454v-1008h377v-358h-831z" />
</font>
</defs>
</svg>
