<svg style="background-color:#ffffff00" xmlns="http://www.w3.org/2000/svg" width="161" height="62"><path d="M25.54 13.91a18.097 18.097 0 0 1 5.715-.918c8.717 0 15.996 6.156 17.663 14.338l12.357-2.505C58.44 10.92 46.078.454 31.255.454c-3.397 0-6.66.55-9.713 1.564l3.997 11.89z" fill="#ffca03"/><path d="M10.956 53.724l8.356-9.393c-3.73-3.286-6.084-8.08-6.084-13.422 0-5.338 2.35-10.13 6.08-13.412l-8.36-9.394C4.614 13.683.616 21.833.616 30.909c0 9.082 4 17.234 10.34 22.815z" fill="#00a3df"/><path d="M48.914 34.504c-1.674 8.178-8.945 14.322-17.66 14.322-2 0-3.925-.32-5.72-.92L21.53 59.8a30.822 30.822 0 0 0 9.724 1.561c14.809 0 27.168-10.447 30.015-24.34l-12.356-2.518z" fill="#ee3f22"/><path d="M72.081 44.727a21.786 21.786 0 0 1-1.287-2.462c-1.956-4.517-2.05-9.19-.397-13.678 1.817-4.92 5.288-8.688 9.772-10.605 5.639-2.413 11.874-1.937 17.279 1.25 3.433 1.958 5.866 4.981 7.715 9.256.235.547.442 1.131.644 1.628L72.08 44.727zm11.262-19.495c-4.004 1.71-6.068 5.444-5.644 9.823l16.962-7.258c-2.917-3.407-6.713-4.537-11.318-2.565zm13.433 15.79l-.01.01-.351-.236c-1.012 1.633-2.591 2.955-4.585 3.814-3.791 1.64-7.305 1.218-9.828-.982l-.232.35c-.003-.003-.003-.006-.007-.006l-4.303 6.4a18.45 18.45 0 0 0 3.42 1.862c4.753 1.963 9.617 1.873 14.408-.2 3.466-1.492 6.184-3.77 8.043-6.654l-6.555-4.358zM117.595 8.556v35.58l5.565 2.243-3.162 7.334-6.142-2.543c-1.378-.593-2.317-1.501-3.027-2.527-.68-1.045-1.187-2.479-1.187-4.41V8.557h7.953z" fill="#221e1f"/><g fill="#221e1f"><path d="M132.01 35.072a10.037 10.037 0 0 1 3.479-7.593l-5.709-6.328c-3.872 3.403-6.31 8.374-6.315 13.913-.006 5.541 2.43 10.518 6.297 13.93l5.702-6.335c-2.119-1.855-3.456-4.564-3.454-7.587zM142.154 45.17a10.32 10.32 0 0 1-3.216-.521l-2.727 8.059c1.863.622 3.86.96 5.934.963 9.04.009 16.587-6.367 18.336-14.843l-8.38-1.702c-.953 4.596-5.045 8.049-9.947 8.045zM142.178 16.491a18.778 18.778 0 0 0-5.928.949l2.702 8.066a10.296 10.296 0 0 1 3.218-.517c4.913.005 9.008 3.478 9.939 8.086l8.38-1.69c-1.724-8.488-9.264-14.888-18.31-14.894z"/></g><g><path d="M25.54 13.91a18.097 18.097 0 0 1 5.715-.918c8.717 0 15.996 6.156 17.663 14.338l12.357-2.505C58.44 10.92 46.078.454 31.255.454c-3.397 0-6.66.55-9.713 1.564l3.997 11.89z" fill="#ffca03"/><path d="M10.956 53.724l8.356-9.393c-3.73-3.286-6.084-8.08-6.084-13.422 0-5.338 2.35-10.13 6.08-13.412l-8.36-9.394C4.614 13.683.616 21.833.616 30.909c0 9.082 4 17.234 10.34 22.815z" fill="#00a3df"/><path d="M48.914 34.504c-1.674 8.178-8.945 14.322-17.66 14.322-2 0-3.925-.32-5.72-.92L21.53 59.8a30.822 30.822 0 0 0 9.724 1.561c14.809 0 27.168-10.447 30.015-24.34l-12.356-2.518z" fill="#ee3f22"/><path d="M72.081 44.727a21.786 21.786 0 0 1-1.287-2.462c-1.956-4.517-2.05-9.19-.397-13.678 1.817-4.92 5.288-8.688 9.772-10.605 5.639-2.413 11.874-1.937 17.279 1.25 3.433 1.958 5.866 4.981 7.715 9.256.235.547.442 1.131.644 1.628L72.08 44.727zm11.262-19.495c-4.004 1.71-6.068 5.444-5.644 9.823l16.962-7.258c-2.917-3.407-6.713-4.537-11.318-2.565zm13.433 15.79l-.01.01-.351-.236c-1.012 1.633-2.591 2.955-4.585 3.814-3.791 1.64-7.305 1.218-9.828-.982l-.232.35c-.003-.003-.003-.006-.007-.006l-4.303 6.4a18.45 18.45 0 0 0 3.42 1.862c4.753 1.963 9.617 1.873 14.408-.2 3.466-1.492 6.184-3.77 8.043-6.654l-6.555-4.358zM117.595 8.556v35.58l5.565 2.243-3.162 7.334-6.142-2.543c-1.378-.593-2.317-1.501-3.027-2.527-.68-1.045-1.187-2.479-1.187-4.41V8.557h7.953z" fill="#221e1f"/><g fill="#221e1f"><path d="M132.01 35.072a10.037 10.037 0 0 1 3.479-7.593l-5.709-6.328c-3.872 3.403-6.31 8.374-6.315 13.913-.006 5.541 2.43 10.518 6.297 13.93l5.702-6.335c-2.119-1.855-3.456-4.564-3.454-7.587zM142.154 45.17a10.32 10.32 0 0 1-3.216-.521l-2.727 8.059c1.863.622 3.86.96 5.934.963 9.04.009 16.587-6.367 18.336-14.843l-8.38-1.702c-.953 4.596-5.045 8.049-9.947 8.045zM142.178 16.491a18.778 18.778 0 0 0-5.928.949l2.702 8.066a10.296 10.296 0 0 1 3.218-.517c4.913.005 9.008 3.478 9.939 8.086l8.38-1.69c-1.724-8.488-9.264-14.888-18.31-14.894z"/></g></g></svg>