<svg xmlns="http://www.w3.org/2000/svg" width="32" height="32" viewBox="0 0 32 32"><g fill="none" fill-rule="evenodd"><path fill="#000" d="M0 0h32v32H0z"/><path fill="#FFF" d="M11.64 20.36a2.126 2.126 0 0 1 .002 3.013l-.002.002c-.388.388-.92.625-1.509.625a2.12 2.12 0 0 1-1.506-.627 2.13 2.13 0 0 1 0-3.013 2.127 2.127 0 0 1 3.015 0zm-3.638-7.026c2.91 0 5.545 1.197 7.458 3.13A10.691 10.691 0 0 1 18.557 24H15.49v-.007a7.576 7.576 0 0 0-2.195-5.353 7.408 7.408 0 0 0-5.293-2.22v-3.086zM8.006 8a15.939 15.939 0 0 1 11.301 4.695A15.956 15.956 0 0 1 24 24h-3.063c-.006-7.136-5.801-12.94-12.93-12.947V8z"/></g></svg>