<svg xmlns="http://www.w3.org/2000/svg" width="32" height="32" viewBox="0 0 32 32"><g fill="none" fill-rule="evenodd"><path fill="#000" d="M0 0h32v32H0z"/><path fill="#FFF" d="M16 8c-4.418 0-8 3.672-8 8.203 0 3.624 2.292 6.698 5.471 7.782.4.076.546-.177.546-.395 0-.194-.007-.71-.01-1.395-2.226.496-2.695-1.1-2.695-1.1-.364-.947-.889-1.2-.889-1.2-.726-.508.055-.498.055-.498.803.058 1.225.846 1.225.846.714 1.253 1.873.89 2.329.68.073-.529.28-.89.508-1.095-1.777-.207-3.644-.911-3.644-4.054 0-.896.311-1.628.823-2.201-.082-.208-.357-1.042.079-2.171 0 0 .671-.22 2.2.84A7.485 7.485 0 0 1 16 11.967c.68.004 1.364.095 2.003.277 1.527-1.062 2.198-.841 2.198-.841.436 1.129.162 1.963.08 2.17.513.574.822 1.306.822 2.202 0 3.15-1.87 3.844-3.652 4.047.286.253.542.754.542 1.52 0 1.096-.01 1.98-.01 2.25 0 .219.145.474.55.394C21.71 22.898 24 19.825 24 16.203 24 11.673 20.418 8 16 8"/></g></svg>