<svg xmlns="http://www.w3.org/2000/svg" xmlns:xlink="http://www.w3.org/1999/xlink" width="32" height="32" viewBox="0 0 32 32"><defs><path id="a" d="M27.384 19.095c-.01-.035-.012-.071-.028-.105l-5.19-10.38V1.75c0-.965-.785-1.75-1.75-1.75H7.584c-.965 0-1.75.785-1.75 1.75v6.86L.644 18.989c-.018.035-.019.07-.03.107A1.74 1.74 0 0 0 0 20.416v7.002c0 .322.261.583.583.583h2.334a.584.584 0 0 0 .583-.583v-1.75h21v1.75c0 .322.261.583.583.583h2.334a.584.584 0 0 0 .583-.583v-7c0-.53-.241-1-.616-1.322zM1.167 24.5v-4.083c0-.322.262-.584.583-.584h24.5c.32 0 .583.262.583.584V24.5H1.167zm5.61-15.167H8.75a2.9 2.9 0 0 0 .591 1.265 2.904 2.904 0 0 0 2.257 1.069h4.807c.878 0 1.7-.389 2.255-1.069a2.9 2.9 0 0 0 .591-1.265h1.973l4.667 9.334H2.11l4.667-9.334zm3.103-.926l.234-1.167a1.755 1.755 0 0 1 1.716-1.407h4.34c.832 0 1.553.592 1.716 1.407l.233 1.167a1.746 1.746 0 0 1-.362 1.453c-.334.407-.828.64-1.354.64h-4.807a1.743 1.743 0 0 1-1.353-.64 1.738 1.738 0 0 1-.363-1.453zM7 1.75c0-.322.263-.583.583-.583h12.834c.32 0 .583.261.583.583v6.417h-1.74l-.23-1.156a2.922 2.922 0 0 0-2.86-2.346h-4.341a2.922 2.922 0 0 0-2.86 2.346l-.23 1.156H7V1.75zM2.333 26.833H1.167v-1.166h1.166v1.166zm23.334 0v-1.166h1.166v1.166h-1.166z"/></defs><g transform="translate(2 2)" fill="#ffee1f" fill-rule="evenodd"><mask id="b"><use xlink:href="#a"/></mask><use fill-rule="nonzero" xlink:href="#a"/><g mask="url(#b)"><path d="M-27-23h79v79h-79z"/></g></g></svg>