<svg xmlns="http://www.w3.org/2000/svg" width="32" height="32" viewBox="0 0 32 32"><g fill="none" fill-rule="evenodd"><path fill="#000" d="M0 0h32v32H0z"/><path fill="#FFF" d="M22.568 19.586c0 1.64-1.314 2.982-2.92 2.982h-7.296c-1.606 0-2.92-1.342-2.92-2.982v-7.172c0-1.64 1.314-2.982 2.92-2.982h7.296c1.606 0 2.92 1.342 2.92 2.982v7.172zM19.783 8C22.103 8 24 9.938 24 12.307v7.386C24 22.062 22.102 24 19.783 24h-7.566C9.897 24 8 22.062 8 19.693v-7.386C8 9.938 9.898 8 12.217 8h7.566zm-3.784 3.893c-2.222 0-4.022 1.839-4.022 4.108 0 2.27 1.8 4.109 4.022 4.109 2.222 0 4.023-1.84 4.023-4.11 0-2.268-1.801-4.107-4.023-4.107zm5.147-.221a.918.918 0 0 0-.908-.928.918.918 0 0 0-.909.928c0 .512.407.927.909.927a.918.918 0 0 0 .908-.927zM16 18.652c-1.433 0-2.595-1.187-2.595-2.651 0-1.464 1.162-2.65 2.595-2.65 1.434 0 2.595 1.186 2.595 2.65S17.433 18.65 16 18.65z"/></g></svg>