<svg class="ico" xmlns="http://www.w3.org/2000/svg" viewBox="0 0 74 121"><path class="st0" d="M17.1 56.3V42.2h4c2 0 3.3.6 3.9 1.8.7 1.2 1 2.9 1 5.1 0 1.6-.2 3-.7 4.1-.8 2.1-2.2 3.1-4.3 3.1h-3.9zm11.6-.3c1.1-2 1.7-4.4 1.7-7.3 0-1.1-.1-2.3-.4-3.6-.3-1.2-.8-2.4-1.5-3.5-.9-1.3-2.1-2.2-3.5-2.7-.8-.3-1.9-.4-3.2-.5h-8.9V60h8.9c3.1 0 5.4-1.3 6.9-4zm-.2 24H17.1v-5.5h10v-3.8h-10v-4.5H28v-3.9H12.9v21.6h15.6zm6-4.2l-5.2 8.1h4.9l2.6-4.8 2.6 4.8h5l-5.2-8.1 5-7.8h-4.7L37 72.6 34.4 68h-4.9zm-12.3 27.1c-.4 1.3-1.1 1.9-2.3 1.9-1.2 0-2-.6-2.3-1.9-.4-1.3-.6-3.2-.6-5.6 0-2.6.2-4.4.6-5.7.4-1.2 1.2-1.8 2.3-1.8 1.2 0 2 .6 2.3 1.8.4 1.2.6 3.1.6 5.7 0 2.4-.2 4.3-.6 5.6m-2.3-16.6c-2.6 0-4.4 1-5.4 2.9s-1.6 4.6-1.6 8.1.5 6.2 1.6 8.1c1 1.9 2.8 2.8 5.4 2.8 2.6 0 4.4-.9 5.4-2.8s1.6-4.6 1.6-8.1-.5-6.2-1.6-8.1c-1-1.9-2.8-2.9-5.4-2.9m14.7 1c-.2.6-.4 1.1-.8 1.5-.5.6-1.2.9-2 1.1-.5.1-1.4.2-2.6.3V93H34v14.6h4.1V86.5h-3.3c-.1.1-.1.4-.2.8"/><path class="st0" d="M69 5v111H5V5h64m5-5H0v121h74V0z"/></svg>