<svg viewBox="0 0 65 31" style="background-color:#ffffff00" xmlns="http://www.w3.org/2000/svg" width="65" height="31"><path d="M10.559 18.696a.851.851 0 0 1-.417.609 2.775 2.775 0 0 1-.616.29c-.42.147-.862.294-1.33.464-.492.17-.934.34-1.33.462-.491.17-.959.317-1.403.487a4.132 4.132 0 0 0-.934.56 4.01 4.01 0 0 0-.69.827 2.559 2.559 0 0 0-.321 1.29c0 1.022.246 1.801.74 2.287.491.512 1.403.755 2.755.755 1.378 0 2.314-.268 2.808-.803.491-.535.737-1.29.737-2.261v-4.967h.001zM7.014 7.914c2.414 0 4.186.463 5.317 1.412 1.132.926 1.699 2.117 1.699 3.527v12.025c0 .485-.098 1.021-.27 1.604-.174.586-.517 1.122-1.06 1.607-.515.488-1.229.902-2.14 1.219-.91.316-2.092.485-3.545.485-1.45 0-2.634-.17-3.543-.485-.91-.317-1.625-.731-2.141-1.22a3.899 3.899 0 0 1-1.058-1.606C.099 25.9 0 25.365 0 24.878v-1.921c0-1.024.27-1.973.812-2.801.542-.851 1.304-1.434 2.29-1.8.492-.17 1.058-.34 1.697-.559.64-.22 1.23-.44 1.822-.633a31.056 31.056 0 0 0 1.55-.563c.267-.108.538-.204.812-.29l.444-.22a2.05 2.05 0 0 0 .517-.438c.172-.193.32-.412.443-.656.131-.264.2-.555.197-.85v-.78a1.992 1.992 0 0 0-.173-.828c-.098-.293-.295-.56-.566-.803-.27-.244-.64-.438-1.082-.586-.444-.144-1.033-.218-1.699-.218-1.378 0-2.29.27-2.781.828a3.02 3.02 0 0 0-.713 1.776c0 .147-.123.243-.271.243l-3.002.05a.272.272 0 0 1-.272-.27v-.703c0-.683.125-1.316.395-1.924.272-.61.69-1.119 1.256-1.559.566-.436 1.305-.801 2.19-1.045.862-.293 1.92-.414 3.15-.414h-.002zm54.42 10.782a.845.845 0 0 1-.419.609c-.22.145-.417.218-.614.29-.418.147-.863.294-1.33.464-.493.17-.936.34-1.33.462-.492.17-.96.317-1.404.487a4.138 4.138 0 0 0-.934.56 4.008 4.008 0 0 0-.69.827c-.196.34-.319.779-.319 1.29 0 1.022.244 1.801.736 2.287.493.512 1.405.755 2.758.755 1.38 0 2.314-.268 2.808-.803.49-.535.737-1.29.737-2.261v-4.967zM57.89 7.914c2.413 0 4.185.463 5.318 1.412 1.13.926 1.698 2.117 1.698 3.527v12.025c0 .485-.098 1.021-.271 1.604-.172.586-.516 1.122-1.058 1.607-.517.488-1.23.902-2.141 1.219-.91.316-2.092.485-3.544.485-1.45 0-2.633-.17-3.544-.485-.91-.317-1.624-.731-2.14-1.22a3.902 3.902 0 0 1-1.056-1.606c-.174-.583-.273-1.119-.273-1.604v-1.923c0-1.023.271-1.972.813-2.8.541-.851 1.304-1.435 2.29-1.8.49-.17 1.057-.34 1.698-.56.638-.22 1.23-.439 1.82-.632a31.986 31.986 0 0 0 1.55-.563 11.4 11.4 0 0 1 .813-.29l.443-.22c.173-.096.346-.242.517-.438.174-.193.321-.412.444-.656a1.9 1.9 0 0 0 .197-.85v-.78a1.997 1.997 0 0 0-.174-.828c-.098-.293-.293-.56-.566-.803-.27-.244-.638-.439-1.082-.586-.443-.145-1.033-.218-1.699-.218-1.378 0-2.288.27-2.78.827a3.035 3.035 0 0 0-.715 1.777c0 .146-.122.244-.269.244h-2.985a.271.271 0 0 1-.269-.268v-.706c0-.68.122-1.313.395-1.922.27-.607.687-1.12 1.252-1.557.568-.437 1.306-.803 2.193-1.046.836-.246 1.894-.366 3.125-.366zm-10.559.098h1.97c.172 0 .295.171.247.34l-.665 2.53c-.024.124-.147.197-.247.197h-1.378c-.738 0-1.328.097-1.797.293-.443.193-.812.412-1.059.68a1.955 1.955 0 0 0-.467.803 3.29 3.29 0 0 0-.1.803v15.65a.27.27 0 0 1-.272.266h-2.951a.272.272 0 0 1-.271-.266V12.95c0-.29.049-.729.172-1.289.099-.559.395-1.095.862-1.655.468-.535 1.157-1.022 2.092-1.41.937-.392 2.216-.587 3.864-.587v.002zm-9.944 16.33v.73c0 .317-.046.754-.17 1.315-.1.535-.395 1.094-.863 1.629-.467.536-1.157 1.023-2.091 1.412-.936.39-2.217.585-3.865.585-1.647 0-2.928-.195-3.863-.585-.936-.389-1.625-.851-2.093-1.41-.467-.536-.763-1.096-.862-1.654-.097-.562-.17-.974-.17-1.292V8.693c0-.146.123-.27.27-.27h2.929c.148 0 .271.124.271.27v15.332c0 .511.073.876.147 1.169.076.292.223.583.445.827.22.268.566.487 1.033.656.443.171 1.059.27 1.821.27.79 0 1.427-.099 1.896-.27.468-.17.812-.388 1.06-.632.243-.243.416-.51.49-.803.074-.293.173-.535.173-1.243V8.669a.27.27 0 0 1 .27-.266h2.928c.147 0 .27.122.27.27v15.672h-.023l-.003-.003zM17.231.202h2.93c.147 0 .27.12.27.265v28.986a.271.271 0 0 1-.27.269h-2.93a.272.272 0 0 1-.27-.27V.468c.023-.145.123-.267.27-.267v.001z" fill="#181818"/></svg>