<svg xmlns="http://www.w3.org/2000/svg" width="32" height="32" viewBox="0 0 32 32"><g fill="none" fill-rule="evenodd"><path fill="#000" d="M0 0h32v32H0z"/><path fill="#FFF" d="M13.102 12.392l2.98-1.005-.515-1.539-.019-.063A1.4 1.4 0 0 1 16.878 8a1.394 1.394 0 0 1 1.33.955l.515 1.542 1.554-.523c.135-.04.274-.06.414-.061a1.358 1.358 0 0 1 1.324.931l.016.055c.212.745-.314 1.41-.945 1.623l-1.511.52 1.014 3.03 1.571-.533c.147-.05.298-.075.45-.076a1.37 1.37 0 0 1 1.32.923l.018.058c.11.385.045.817-.173 1.158-.162.254-.674.478-.674.478l-1.65.567.536 1.602.011.037c.213.747-.18 1.5-.886 1.739a1.391 1.391 0 0 1-1.764-.88l-.533-1.591-2.975 1.023.528 1.576a1.41 1.41 0 0 1-.072 1.07 1.393 1.393 0 0 1-1.237.777 1.392 1.392 0 0 1-1.331-.954l-.523-1.562-1.474.506a1.543 1.543 0 0 1-.481.083c-.602.004-1.11-.348-1.294-.899a1.406 1.406 0 0 1 .877-1.783l1.501-.51-1.006-3.007-1.506.517c-.148.05-.304.077-.46.079a1.323 1.323 0 0 1-1.309-.976 1.396 1.396 0 0 1 .897-1.703l1.51-.51-.512-1.53a1.406 1.406 0 0 1 .072-1.07 1.393 1.393 0 0 1 1.236-.777 1.391 1.391 0 0 1 1.332.953l.514 1.535zm.862 2.576l1.008 3.015 2.979-1.013-1.012-3.023-2.975 1.021z"/></g></svg>