<svg xmlns="http://www.w3.org/2000/svg" width="32" height="32" viewBox="0 0 32 32"><g fill="none" fill-rule="evenodd"><path fill="#000" d="M0 0h32v32H0z"/><path fill="#FFF" d="M25.309 8.292a7.594 7.594 0 0 1-2.455.964A3.801 3.801 0 0 0 20.035 8c-2.131 0-3.861 1.783-3.861 3.981 0 .312.033.615.1.907-3.211-.166-6.057-1.75-7.963-4.161a4.069 4.069 0 0 0-.523 2.003c0 1.381.682 2.6 1.719 3.314-.633-.02-1.23-.2-1.751-.497v.049c0 1.93 1.332 3.54 3.1 3.904a3.68 3.68 0 0 1-1.018.14c-.249 0-.492-.024-.727-.07.492 1.58 1.917 2.732 3.608 2.762A7.603 7.603 0 0 1 7 21.983a10.715 10.715 0 0 0 5.921 1.787c7.106 0 10.991-6.065 10.991-11.327 0-.173-.003-.346-.01-.516a7.96 7.96 0 0 0 1.927-2.06 7.502 7.502 0 0 1-2.219.627 3.97 3.97 0 0 0 1.699-2.202"/></g></svg>