<svg xmlns="http://www.w3.org/2000/svg" width="32" height="32" viewBox="0 0 32 32"><g fill="none" fill-rule="evenodd"><path fill="#000" d="M0 0h32v32H0z"/><path fill="#FFF" d="M22.266 15.167c.387.402.513 1.313.513 1.313s.128 1.07.128 2.14v1.004c0 1.07-.128 2.14-.128 2.14s-.126.912-.513 1.312c-.491.528-1.042.53-1.294.56-1.806.135-4.518.138-4.518.138s-3.356-.03-4.39-.132c-.287-.055-.93-.038-1.423-.566-.386-.4-.512-1.312-.512-1.312s-.13-1.07-.13-2.14V18.62c0-1.07.13-2.14.13-2.14s.126-.911.512-1.313c.492-.527 1.04-.53 1.293-.561 1.808-.132 4.517-.132 4.517-.132h.006s2.709 0 4.515.132c.252.032.803.033 1.294.56zm-.451 4.751v-.92c0-.476-.079-.822-.242-1.047-.22-.305-.531-.457-.924-.457-.399 0-.71.152-.937.457-.166.225-.242.571-.242 1.047v1.557c0 .472.085.823.25 1.045.227.304.539.457.948.457.409 0 .73-.16.947-.482a1.18 1.18 0 0 0 .183-.483 6.55 6.55 0 0 0 .017-.519v-.118h-.798c0 .323-.011.503-.018.546-.044.216-.156.324-.35.324-.269 0-.399-.206-.399-.618v-.789h1.565zm-2.91.744v-1.771c0-.422-.028-.714-.08-.895-.106-.332-.314-.502-.625-.502-.288 0-.557.163-.81.483V16.03h-.783v5.967h.783v-.431c.261.333.531.492.81.492.31 0 .52-.168.624-.5.053-.188.08-.484.08-.895zm1.737-2.442c.259 0 .39.205.39.618v.411h-.782v-.411c0-.413.13-.618.392-.618zm-2.86 0c.224 0 .34.205.34.608v1.897c0 .402-.116.6-.34.6-.13 0-.261-.065-.392-.198v-2.712c.13-.131.261-.195.391-.195zm-1.852 3.776V17.55h-.783v3.397c-.174.253-.337.378-.495.378-.103 0-.164-.065-.184-.19-.006-.025-.006-.124-.006-.313V17.55h-.783v3.514c0 .314.027.527.069.662.08.225.253.33.505.33.287 0 .584-.18.894-.547v.487h.783zm-3.086 0v-5.129h.938v-.838h-2.73v.838h.921v5.129h.871zm1.543-7.968h-.876v-2.441c-.08-.433-.256-1.067-.537-1.907-.185-.56-.378-1.122-.563-1.68h.923l.622 2.367.6-2.367h.887l-1.056 3.587v2.441zm2.059.063c-.396 0-.704-.154-.92-.46-.17-.224-.248-.577-.248-1.056V11c0-.478.078-.83.247-1.056.217-.308.525-.461.92-.461.397 0 .703.153.923.461.166.226.246.578.246 1.056v1.575c0 .479-.08.832-.246 1.056-.22.306-.526.46-.922.46zm-.378-3.253v1.89c0 .416.122.623.378.623.253 0 .376-.207.376-.623v-1.89c0-.415-.123-.624-.376-.624-.256 0-.378.207-.378.624zm4.427 3.19h-.79v-.49c-.316.373-.617.553-.904.553-.255 0-.43-.107-.51-.333-.044-.136-.07-.352-.07-.668V9.536h.79v3.308c0 .192 0 .29.008.317.017.125.08.19.186.19.159 0 .324-.127.5-.38V9.536h.79v4.492z"/></g></svg>