<?xml version="1.0" encoding="utf-8"?>
<!-- Generator: Adobe Illustrator 16.0.0, SVG Export Plug-In . SVG Version: 6.00 Build 0)  -->
<!DOCTYPE svg PUBLIC "-//W3C//DTD SVG 1.1//EN" "http://www.w3.org/Graphics/SVG/1.1/DTD/svg11.dtd">
<svg version="1.1" id="Capa_1" xmlns="http://www.w3.org/2000/svg" xmlns:xlink="http://www.w3.org/1999/xlink" x="0px" y="0px"
	 width="595.279px" height="841.891px" viewBox="0 0 595.279 841.891" enable-background="new 0 0 595.279 841.891"
	 xml:space="preserve">
<g>
	<g>
		<path d="M595.28,236.387c-21.909,9.708-45.418,16.292-70.118,19.232c25.221-15.103,44.526-39.058,53.677-67.515
			c-23.658,13.986-49.771,24.142-77.596,29.647c-22.281-23.769-53.975-38.574-89.127-38.574
			c-67.439,0-122.121,54.681-122.121,122.084c0,9.56,1.079,18.896,3.163,27.824c-101.477-5.097-191.458-53.714-251.682-127.59
			c-10.527,18.004-16.516,38.983-16.516,61.377c0,42.369,21.575,79.753,54.31,101.625c-20.013-0.669-38.836-6.175-55.313-15.326
			v1.525c0,59.145,42.108,108.506,97.942,119.74c-10.23,2.753-21.018,4.278-32.177,4.278c-7.886,0-15.512-0.781-22.988-2.27
			c15.548,48.544,60.633,83.845,114.05,84.812c-41.773,32.734-94.446,52.188-151.656,52.188c-9.857,0-19.566-0.595-29.126-1.674
			c54.049,34.706,118.216,54.942,187.181,54.942c224.638,0,347.429-186.065,347.429-347.43l-0.409-15.809
			C558.194,282.363,578.949,260.863,595.28,236.387z"/>
	</g>
</g>
</svg>
