<svg xmlns="http://www.w3.org/2000/svg" width="75" height="35" viewBox="0 0 56 26"><path fill="#191919" fill-rule="evenodd" d="M9.1 15.9a.73.73 0 0 1-.36.5c-.2.13-.36.2-.53.26-.35.12-.73.25-1.14.4-.42.14-.8.28-1.14.4-.43.13-.83.25-1.2.4a3.57 3.57 0 0 0-.82.48 3.42 3.42 0 0 0-.6.7c-.16.3-.27.67-.27 1.1 0 .88.2 1.54.64 1.96.42.43 1.2.64 2.37.64 1.2 0 2-.23 2.42-.68.43-.46.64-1.1.64-1.93V15.9zM6.04 6.7c2.08 0 3.6.38 4.6 1.2.96.78 1.45 1.8 1.45 3v10.26c0 .42-.1.87-.24 1.37-.15.5-.45.96-.9 1.37-.46.42-1.07.77-1.86 1.04-.78.27-1.8.42-3.05.42-1.25 0-2.27-.15-3.06-.42-.8-.27-1.4-.62-1.85-1.04a3.33 3.33 0 0 1-.92-1.37c-.14-.5-.23-.95-.23-1.37v-1.64c0-.87.23-1.68.7-2.4.47-.7 1.12-1.2 1.97-1.52.43-.15.92-.3 1.47-.48.55-.2 1.06-.38 1.57-.54.52-.17.96-.33 1.34-.48a9.26 9.26 0 0 1 .7-.25l.38-.2c.15-.07.3-.2.45-.36.15-.17.28-.36.38-.57a1.6 1.6 0 0 0 .17-.73v-.66a1.7 1.7 0 0 0-.15-.7c-.08-.26-.25-.5-.5-.7-.22-.2-.54-.37-.92-.5-.38-.12-.9-.18-1.46-.18-1.2 0-2 .23-2.4.7-.37.42-.58.94-.62 1.52 0 .13-.1.2-.24.2l-2.58.05a.23.23 0 0 1-.24-.23v-.6c0-.58.1-1.12.34-1.64.24-.52.6-.95 1.08-1.33.5-.37 1.13-.68 1.9-.9.73-.24 1.65-.34 2.7-.34zm46.9 9.2a.73.73 0 0 1-.35.5c-.2.13-.38.2-.55.26-.35.12-.74.25-1.14.4-.42.14-.8.28-1.14.4-.42.13-.82.25-1.2.4a3.57 3.57 0 0 0-.8.48 3.42 3.42 0 0 0-.6.7c-.18.3-.28.67-.28 1.1 0 .88.2 1.54.63 1.96.44.43 1.22.64 2.4.64s1.98-.23 2.4-.68c.43-.46.64-1.1.64-1.93V15.9zM49.9 6.7c2.07 0 3.6.38 4.57 1.2.98.78 1.47 1.8 1.47 3v10.26c0 .42-.1.87-.24 1.37-.14.5-.44.96-.9 1.37-.45.42-1.07.77-1.85 1.04-.8.27-1.8.42-3.06.42s-2.28-.15-3.06-.42c-.8-.27-1.4-.62-1.85-1.04a3.33 3.33 0 0 1-.92-1.37c-.15-.5-.23-.95-.23-1.37v-1.64c0-.87.23-1.68.7-2.4.47-.7 1.12-1.2 1.97-1.52.43-.15.9-.3 1.47-.48.54-.2 1.05-.38 1.56-.54.5-.17.95-.34 1.33-.48a9.26 9.26 0 0 1 .7-.25l.37-.2c.15-.07.3-.2.45-.36.15-.18.28-.36.38-.57a1.6 1.6 0 0 0 .17-.73v-.66a1.7 1.7 0 0 0-.15-.7c-.08-.26-.25-.5-.5-.7-.22-.2-.54-.37-.92-.5-.38-.12-.9-.18-1.46-.18-1.2 0-1.97.23-2.4.7-.36.42-.57.94-.6 1.52 0 .13-.12.2-.25.2H44.1a.23.23 0 0 1-.23-.22v-.6c0-.58.1-1.12.33-1.64.23-.52.6-.96 1.08-1.33.5-.38 1.13-.7 1.9-.9.72-.2 1.63-.3 2.7-.3zm-9.1.07h1.7c.14 0 .24.15.2.3l-.57 2.15c-.02.1-.13.17-.2.17h-1.2c-.64 0-1.15.07-1.55.24-.38.16-.7.35-.9.58-.23.23-.35.45-.42.68a2.74 2.74 0 0 0-.08.7v13.34a.23.23 0 0 1-.24.23H35a.23.23 0 0 1-.23-.23V10.98c0-.24.04-.62.14-1.1.1-.47.36-.93.76-1.4.4-.46 1-.88 1.8-1.2.8-.35 1.9-.5 3.33-.5zM32.2 20.7v.63c0 .27-.04.64-.15 1.12-.08.46-.34.93-.74 1.4-.4.45-1 .86-1.8 1.2-.8.33-1.9.5-3.33.5-1.42 0-2.53-.17-3.33-.5-.8-.34-1.4-.73-1.8-1.2-.4-.47-.66-.94-.75-1.42-.08-.48-.14-.83-.14-1.1V7.35c0-.12.1-.23.23-.23h2.53c.13 0 .24.1.24.23v13.1c0 .42.06.73.12.98s.2.5.38.7c.2.24.48.42.9.57.37.14.9.23 1.56.23.68 0 1.23-.1 1.63-.23.4-.15.7-.33.9-.54.22-.2.37-.44.44-.7.07-.24.16-.44.16-1.05V7.34c0-.12.1-.23.23-.23H32c.14 0 .24.1.24.23V20.7h-.02zM14.85.1h2.53c.12 0 .23.1.23.23v24.74a.23.23 0 0 1-.23.23h-2.52a.23.23 0 0 1-.23-.23V.33c.02-.12.1-.23.23-.23z"/></svg>