<?xml version="1.0" encoding="utf-8"?>
<!-- Generator: Adobe Illustrator 19.2.1, SVG Export Plug-In . SVG Version: 6.00 Build 0)  -->
<svg version="1.1" xmlns="http://www.w3.org/2000/svg" xmlns:xlink="http://www.w3.org/1999/xlink" x="0px" y="0px" width="1220px"
	 height="480px" viewBox="0 0 1220 480" style="enable-background:new 0 0 1220 480;" xml:space="preserve">
<style type="text/css">
	.st0{fill:#2D3C49;}
	.st1{fill:#FFFFFF;}
	.st2{opacity:0;fill:#E5E5E5;}
	.st3{fill:#02B3E4;}
	.st4{opacity:0;fill:#FFFFFF;}
	.st5{fill:#00B2E3;}
	.st6{fill:#2E3D49;}
</style>
<g id="_x31_20-slate">
</g>
<g id="_x34_80-wordmark-white">
</g>
<g id="_x34_80-wordmark-blue">
</g>
<g id="_x34_80-wordmark-slate">
</g>
<g id="_x35_2-slate">
</g>
<g id="_x31_20-blue">
</g>
<g id="_x31_20-white">
</g>
<g id="_x32_40-white">
</g>
<g id="_x32_40-blue">
</g>
<g id="_x32_40-slate">
</g>
<g id="_x34_80-slate">
	<rect id="bg_1_" class="st0" width="1220" height="480"/>
	<g id="wordmark_15_">
		<path id="mark_7_" class="st3" d="M212.426,160l-53.417,30.624l0.03,70.538l0,0c-0.098,32.397,26.085,58.739,58.482,58.838
			c10.712,0.033,20.762-2.808,29.421-7.797v0l43.249-24.849c17.061-8.852,28.741-26.653,28.803-47.204L319,166.482l0,0l0,0
			l-10.584-6.19L265,184.795l0.038,76.691c-0.01,3.263-0.348,6.521-1.005,9.681c-0.639,3.075-1.587,6.098-2.819,8.986
			c-0.319,0.747-0.658,1.488-1.016,2.22c-1.29-0.147-1.615-0.214-3.583-0.583c-2.805-0.578-8.366-2.163-15.06-6.49
			c-2.257-1.535-4.378-3.296-6.306-5.235c-1.927-1.939-3.676-4.071-5.197-6.337c-1.534-2.285-2.849-4.726-3.91-7.255
			c-1.079-2.573-1.906-5.265-2.457-8.001c-0.567-2.813-0.693-5.711-0.685-8.612h0.002l0.037-73.666L212.426,160z M235.994,305.624
			c-2.896,1.214-5.924,2.144-9.003,2.765c-3.164,0.638-6.08,0.956-9.343,0.946c-3.263-0.01-6.521-0.348-9.681-1.005
			c-3.075-0.639-6.098-1.587-8.986-2.819c-2.838-1.211-5.575-2.707-8.135-4.448c-2.539-1.726-4.925-3.707-7.093-5.889
			c-2.168-2.181-4.135-4.579-5.845-7.128c-1.725-2.571-3.205-5.317-4.398-8.162c-1.214-2.895-2.145-5.924-2.765-9.003
			c-0.637-3.164-0.754-6.424-0.744-9.687l-0.005-64.382L212,172.313l0.026,67.512h-0.002c-0.078,25.653,17.813,47.13,41.931,52.304
			c-0.945,1.129-1.628,2.215-2.671,3.251c-2.181,2.168-4.579,4.134-7.128,5.845C241.585,302.951,238.839,304.43,235.994,305.624z
			 M307.155,248.724c-0.568,2.733-1.411,5.42-2.506,7.986c-1.076,2.522-2.406,4.955-3.954,7.231
			c-1.535,2.257-3.296,4.378-5.235,6.306c-1.939,1.927-4.071,3.676-6.337,5.197c-2.285,1.533-4.726,2.849-7.255,3.909
			c-2.837,1.225-5.265,1.906-8.001,2.457c-0.552,0.111-1.388,0.211-1.946,0.3c2.423-6.399,4.055-13.332,4.079-20.577l0,0
			l0.013-70.55h0.001L308,172.607v67.51C307.991,243.019,307.738,245.915,307.155,248.724z"/>
		<g id="wordmark_16_">
			<g>
				<path class="st1" d="M455.971,248.813c0,13.317-11.111,24.206-26.132,24.206c-15.021,0-25.85-10.889-25.85-24.206v-47.785H396
					v47.896c0,17.166,13.23,31.106,33.839,31.106c20.61,0,34.152-13.94,34.152-31.106L464,201h-8L455.971,248.813z M541.16,201.039
					L516,201v78h25c23.232,0,39.024-14.375,39.024-39.025C580.024,215.547,564.392,201.039,541.16,201.039z M540.389,272.046
					L524,272v-64l16.389,0.018c18.936,0,31.708,11.381,31.708,31.957C572.096,260.665,559.436,272.046,540.389,272.046z
					 M763.807,272.989c-18.385,0-31.53-15.074-31.53-33.564c0-18.264,13.146-32.352,31.311-32.352c14.533,0,23.56,8.583,23.56,8.583
					l4.074-5.61c0,0-9.358-10.047-27.854-10.047c-22.13,0-39.018,17.089-39.018,39.536c0,22.559,16.449,40.526,39.35,40.526
					c19.047,0,29.615-12.024,29.615-12.024l-4.405-5.393C788.909,262.646,779.442,272.989,763.807,272.989z M843.997,278.993H852
					v-77.986h-8.003V278.993z M898,208h28v71l7.991-0.002L934,208h28v-7h-64V208z M1063.499,201h-8.587l-24.816,35.922h-0.22
					L1004.817,201h-8.699l29.883,44.454L1026,279h8l-0.025-33.546L1063.499,201z M647.699,201.007l-31.545,77.986h8.343
					l8.351-20.793l35.11-7.197l11.286,27.99h8.343l-31.545-77.986H647.699z M636.356,249.629l15.406-37.782h0.216l13.013,31.912
					L636.356,249.629z"/>
			</g>
		</g>
	</g>
</g>
<g id="_x34_80-blue">
</g>
<g id="_x34_80-white">
</g>
<g id="_x32_50-vert-white">
</g>
<g id="_x32_50-vert-slate">
</g>
<g id="_x32_50-vert-blue">
</g>
<g id="_x35_00-vert-slate">
</g>
<g id="_x35_00-vert-blue">
</g>
<g id="_x35_00-vert-white">
</g>
<g id="_x31_000-vert-slate">
</g>
<g id="_x31_000-vert-blue">
</g>
<g id="_x31_000-vert-white_1_">
</g>
<g id="_x38_0-mark-white">
</g>
<g id="_x38_0-mark-blue">
</g>
<g id="_x38_0-mark-slate">
</g>
<g id="_x31_60-mark-blue">
</g>
<g id="_x31_60-mark-white">
</g>
<g id="_x31_60-mark-slate">
</g>
<g id="_x33_20-mark-blue">
</g>
<g id="_x33_20-mark-white">
</g>
<g id="_x31_280-mark-slate_1_">
</g>
<g id="_x31_280-mark-white_1_">
</g>
<g id="_x31_280-mark-blue">
</g>
<g id="_x33_20-mark-slate">
</g>
</svg>
