<?xml version="1.0" encoding="utf-8"?>
<!-- Generator: Adobe Illustrator 20.0.0, SVG Export Plug-In . SVG Version: 6.00 Build 0)  -->
<svg version="1.1" id="Layer_1" xmlns="http://www.w3.org/2000/svg" xmlns:xlink="http://www.w3.org/1999/xlink" x="0px" y="0px"
	 viewBox="0 0 752.4 816.1" style="enable-background:new 0 0 752.4 816.1;" xml:space="preserve">
<style type="text/css">
	.st0{fill:#FFFFFF;}
	.st1{fill:#00B2E3;}
	.st2{fill:#2E3D49;}
</style>
<g id="_x31_20-slate">
</g>
<g id="_x34_80-wordmark-white">
</g>
<g id="_x34_80-wordmark-blue">
</g>
<g id="_x34_80-wordmark-slate">
</g>
<g id="_x35_2-slate">
</g>
<g id="_x31_20-blue">
</g>
<g id="_x31_20-white">
</g>
<g id="_x32_40-white">
</g>
<g id="_x32_40-blue">
</g>
<g id="_x32_40-slate">
</g>
<g id="_x34_80-slate">
</g>
<g id="_x34_80-blue">
</g>
<g id="_x34_80-white">
</g>
<g id="_x32_50-vert-white">
</g>
<g id="_x32_50-vert-slate">
</g>
<g id="_x32_50-vert-blue">
</g>
<g id="_x35_00-vert-slate">
</g>
<g id="_x35_00-vert-blue">
</g>
<g id="_x35_00-vert-white">
</g>
<g id="_x31_000-vert-slate">
</g>
<g id="_x31_000-vert-blue">
</g>
<rect id="bg_22_" class="st0" width="752.4" height="816.1"/>
<g id="vert">
	<g>
		<path class="st1" d="M310.9,124l-130.7,75.6v173.2l0,0c0,79.6,64.3,144.1,143.8,144.1c26.3,0,51-7.1,72.2-19.4l0,0l106.3-61.3
			c41.8-21.9,69.7-65.7,69.7-116.2V138.8L546.7,124l-104.5,60.5v188.3c0,8-1.1,16-2.7,23.8c-1.5,7.6-3.9,15-6.9,22.1
			c-0.8,1.8-1.6,3.7-2.5,5.5c-3.2-0.4-6.3-0.8-9.4-1.5c-6.7-1.4-13.3-3.4-19.6-6.1c-6.2-2.6-12.2-5.9-17.8-9.7s-10.8-8.1-15.5-12.8
			s-9.1-10-12.8-15.5c-3.8-5.6-7-11.6-9.7-17.8c-2.7-6.3-4.7-12.9-6.1-19.6c-1.4-6.9-2.1-14-2.1-21.1l0,0v-181L310.9,124z
			 M369.9,481.4c-7.1,3-14.5,5.3-22.1,6.9c-7.8,1.6-15.8,2.4-23.8,2.4s-16-0.8-23.8-2.4c-7.6-1.5-15-3.9-22.1-6.9
			c-7-3-13.7-6.6-20-10.9c-6.2-4.2-12.1-9.1-17.5-14.4s-10.2-11.2-14.4-17.5c-4.3-6.3-7.9-13-10.9-20c-3-7.1-5.3-14.5-6.9-22.1
			c-1.6-7.8-2.4-15.8-2.4-23.8v-158l105-60.5V320c0,63,44.2,115.6,103.5,128.1c-2.3,2.8-4.8,5.5-7.3,8c-5.3,5.3-11.2,10.2-17.5,14.4
			C383.6,474.8,376.9,478.5,369.9,481.4z M544.5,341.2c-1.4,6.7-3.4,13.3-6.1,19.6c-2.6,6.2-5.9,12.2-9.7,17.8s-8.1,10.8-12.8,15.5
			s-10,9.1-15.5,12.8c-5.6,3.8-11.6,7-17.8,9.7c-6.3,2.7-12.9,4.7-19.6,6.1c-1.4,0.3-2.7,0.5-4.1,0.8c5.9-15.7,9.1-32.8,9.1-50.6
			l0,0V199.6l0,0l79.1-45.4V320C547.2,327.2,546,334.3,544.5,341.2z"/>
	</g>
	<g>
		<path class="st2" d="M134.2,664.2c0,11.8-9.1,21.4-22.3,21.4s-22.7-9.6-22.7-21.4V621h-6v43.3c0,15.2,10.5,27.5,28.7,27.5
			s28.3-12.3,28.3-27.5V621h-6V664.2z"/>
		<path class="st2" d="M210.1,622h-21.9v69h21.9c20.5,0,34.3-12.8,34.3-34.6C244.5,634.9,230.7,622,210.1,622z M209.5,684h-14.3v-56
			h14.3c16.7,0,28,10.3,28,28.4C237.5,674.7,226.3,684,209.5,684z"/>
		<path class="st2" d="M406.7,685.6c-16.2,0-27.7-13.3-27.7-29.6c0-16.1,11.5-28.6,27.5-28.6c12.8,0,20.8,7.6,20.8,7.6l3.6-5
			c0,0-8.3-8.8-24.6-8.8c-19.5,0-34.3,15.1-34.3,34.9c0,19.9,14.4,35.8,34.6,35.8c16.8,0,26.1-10.6,26.1-10.6l-3.9-4.8
			C428.9,676.5,420.5,685.6,406.7,685.6z"/>
		<rect x="477.2" y="622" class="st2" width="7" height="69"/>
		<polygon class="st2" points="525.2,628 550.2,628 550.2,691 557.2,691 557.2,628 582.2,628 582.2,622 525.2,622 		"/>
		<polygon class="st2" points="663.3,622 641.3,655.3 641.1,655.3 619.1,622 611.4,622 637.2,661.3 637.2,691 644.2,691 
			644.2,661.3 670.9,622 		"/>
		<path class="st2" d="M304.2,622l-27.9,69h7.4l7.4-18.4l31-6.4l10,24.8h7.4l-27.9-69L304.2,622L304.2,622z M307.8,631.6h0.2
			l11.5,28.2l-25.3,5.2L307.8,631.6z"/>
	</g>
</g>
<g id="_x38_0-mark-white">
</g>
<g id="_x38_0-mark-blue">
</g>
<g id="_x38_0-mark-slate">
</g>
<g id="_x31_60-mark-blue">
</g>
<g id="_x31_60-mark-white">
</g>
<g id="_x31_60-mark-slate">
</g>
<g id="_x33_20-mark-blue">
</g>
<g id="_x33_20-mark-white">
</g>
<g id="_x31_280-mark-slate_1_">
</g>
<g id="_x31_280-mark-white_1_">
</g>
<g id="_x31_280-mark-blue">
</g>
<g id="_x33_20-mark-slate">
</g>
</svg>
