<svg viewBox="0 0 174 40" style="background-color:#ffffff00" xmlns="http://www.w3.org/2000/svg" width="174" height="40"><g fill="#44443f"><path opacity=".8" d="M7.683 20.799c0 2.115-1.725 3.84-3.842 3.84-2.116 0-3.842-1.725-3.842-3.84 0-2.114 1.726-3.839 3.842-3.839l.77.034c6.114 0 6.114-9.348 0-9.348l-.77.034c-2.116 0-3.842-1.725-3.842-3.839 0-2.115 1.726-3.839 3.842-3.839s3.842 1.724 3.842 3.839l-.031.768c0 6.107 9.283 6.107 9.283 0l-.031-.768c0-2.115 1.725-3.839 3.842-3.839 2.116 0 3.842 1.724 3.842 3.839 0 2.114-1.726 3.839-3.842 3.839l-.77-.034c-6.114 0-6.114 9.348 0 9.348l.77-.034c2.116 0 3.842 1.725 3.842 3.839 0 2.115-1.726 3.84-3.842 3.84s-3.842-1.725-3.842-3.84l.031-.768c0-6.106-9.283-6.106-9.283 0l.031.768z"/><path d="M55.528 13.517c1.681 0 2.197.644 2.197 2.181v2.543c0 1.637-.549 2.048-2.163 2.048h-1.446v-6.771h1.412zm-.203-9.032c1.681 0 2.197.643 2.197 2.18v1.054c0 1.636-.55 2.047-2.163 2.047h-1.243v-5.281h1.209zm-7.113 7.126v-11.33h8.456999999999999c2.055 0 3.316.329 4.115.795 2.356 1.287 2.356 3.664 2.356 5.017-.008 1.33-.095 2.814-1.131 3.964-.609.69-1.392 1.076-2.248 1.29.571.161 1.063.356 1.449.58 2.436 1.332 2.436 3.789 2.436 5.188v1.212c0 1.466 0 3.173-1.169 4.471-1.299 1.471-3.358 1.609-5.277 1.609h-8.985999999999999v-12.795zm-19.638 12.795h5.724l.569-3.617h5.033l.573 3.617h5.724l-4.904-24.126h-7.816l-4.903 24.126zm10.752-8.017h-3.881l2.01-12.281 1.871 12.281zm71.722-11.904c1.68 0 2.196.643 2.196 2.18v11.523c0 1.636-.548 2.047-2.162 2.047h-1.814v-15.75h1.78zm-7.439 19.921h9.053c1.919 0 3.977-.138 5.276-1.609 1.169-1.298 1.169-3.005 1.169-4.471v-12.039c0-1.398 0-3.855-2.436-5.186-.825-.481-2.128-.821-4.253-.821h-8.81v24.126zm-20.283 0h5.725l.563-3.617h5.038l.568 3.617h5.73l-4.904-24.126h-7.816l-4.904 24.126zm6.866-8.017l1.867-12.154 2.02 12.154h-3.887zm-9.299 8.017h-5.692v-8.254c0-1.537-.516-2.635-2.196-2.635h-1.275v10.889h-5.654v-24.125h8.457c2.055 0 3.315.329 4.115.795 2.356 1.287 2.356 4.143 2.356 5.496-.008 1.33-.095 2.815-1.132 3.964-.609.69-1.391 1.077-2.248 1.291l-.133.027c1.178.208 1.95.621 2.396 1.08.472.488.733.992.843 1.424.11.433.165 1.623.165 3.571v6.477zm-7.954-19.921c1.681 0 2.197.643 2.197 2.18v1.054c0 1.636-.55 2.047-2.164 2.047h-1.243v-5.281h1.21z"/><path opacity=".8" d="M127.402 3.01v.062c-.053 3.565-5.977 3.526 0 9.032v12.301h-6.044v-12.301c5.978-5.507.052-5.467 0-9.032v-.062c.037-1.652 1.371-2.978 3.023-3.01 1.652.033 2.989 1.359 3.022 3.01z"/><path d="M129.841 13.626h9.093v3.356h-9.093v-3.356zM156.192 24.406h-5.693v-8.254c0-1.537-.515-2.635-2.196-2.635h-1.275v10.889h-5.654v-24.125h8.457c2.055 0 3.316.329 4.115.795 2.356 1.287 2.356 4.143 2.356 5.496-.008 1.33-.095 2.815-1.132 3.964-.61.69-1.392 1.077-2.249 1.291l-.134.027c1.178.208 1.951.621 2.397 1.08.471.488.732.992.842 1.424.11.433.166 1.623.166 3.571v6.477zm-7.955-19.921c1.682 0 2.197.643 2.197 2.18v1.054c0 1.636-.55 2.047-2.164 2.047h-1.243v-5.281h1.209zm14.064 8.26c-2.473-1.748-3.367-2.421-3.367-5.818 0-4.877 1.546-6.862 7.592-6.862 6.356 0 6.94 2.489 6.803 7.703h-5.565v-1.648c0-1.211-.104-1.985-1.615-1.985-1.477 0-1.477 1.111-1.477 2.085 0 1.279.069 1.749 1.099 2.422l5.017 3.397c2.233 1.514 3.126 2.221 3.126 5.853 0 2.59-.515 3.834-1.546 4.878-.996 1.008-2.543 1.816-6.082 1.816-2.714 0-4.706-.471-5.977-1.48-1.752-1.446-1.718-3.599-1.649-6.458h5.806v1.85c0 .572 0 1.916 1.717 1.916 1.821 0 1.855-1.109 1.855-1.682 0-1.816-.034-1.984-2.198-3.498l-3.539-2.489zM84.381 33.987v.652h-1.326c0-.746 0-.915.064-1.114.053-.168.179-.441.61-.441.632 0 .642.62.653.904zm.789 1.336c0-1.325 0-1.472-.042-1.735-.168-1.146-1.136-1.146-1.472-1.146-1.357 0-1.452 1.03-1.452 2.155 0 2.113.042 2.218.137 2.47.305.768 1.031.81 1.346.81.263 0 1.083 0 1.388-.83.095-.273.095-.536.095-.894h-.778c0 .536-.052 1.051-.663 1.051-.599 0-.642-.546-.662-.746-.021-.188-.011-.725-.011-1.135h2.115zm44.884-1.336v.652h-1.326c0-.746 0-.915.063-1.114.053-.168.179-.441.61-.441.631 0 .642.62.653.904zm.789 1.336c0-1.325 0-1.472-.042-1.735-.169-1.146-1.136-1.146-1.473-1.146-1.356 0-1.451 1.03-1.451 2.155 0 2.113.041 2.218.137 2.47.305.768 1.031.81 1.346.81.263 0 1.083 0 1.388-.83.095-.273.095-.536.095-.894h-.778c0 .536-.053 1.051-.663 1.051-.6 0-.642-.546-.662-.746-.021-.188-.011-.725-.011-1.135h2.115zm-11.193-.684h-1.325c0-.746 0-.915.063-1.114.052-.168.179-.441.61-.441.631 0 .642.62.652.904v.652zm.79.684c0-1.325 0-1.472-.043-1.735-.168-1.146-1.136-1.146-1.472-1.146-1.358 0-1.452 1.03-1.452 2.155 0 2.113.042 2.218.137 2.47.305.768 1.03.81 1.346.81.262 0 1.083 0 1.388-.83.095-.273.095-.536.095-.894h-.779c0 .536-.053 1.051-.663 1.051-.6 0-.642-.546-.663-.746-.02-.188-.01-.725-.01-1.135h2.115zm-91.453 1.156c0-.609.284-.83.662-1.125.411-.305.453-.336.695-.567v1.303c0 .421-.032.778-.337 1.009-.137.105-.295.158-.452.158-.568 0-.568-.546-.568-.778zm2.188.19v-2.512c0-.715 0-.999-.326-1.335-.305-.326-.684-.389-1.063-.389-.231 0-1.125 0-1.388.767-.084.263-.084.83-.074 1.052h.768l-.021-.389c0-.315 0-.757.631-.757.642 0 .642.494.642.925-.442.41-.526.463-1.325.999-.547.378-.884.651-.884 1.502 0 .389.053.894.547 1.189.179.105.389.157.631.157.715 0 .968-.494 1.084-.725v.631h1.031c-.221-.179-.253-.294-.253-1.114zm120.628-.19c0-.609.284-.83.662-1.125.411-.305.453-.336.695-.567v1.303c0 .421-.032.778-.337 1.009-.137.105-.295.158-.452.158-.568 0-.568-.546-.568-.778zm2.188.19v-2.512c0-.715 0-.999-.326-1.335-.305-.326-.683-.389-1.062-.389-.232 0-1.126 0-1.389.767-.084.263-.084.83-.074 1.052h.768l-.021-.389c0-.315 0-.757.631-.757.642 0 .642.494.642.925-.442.41-.526.463-1.325.999-.548.378-.884.651-.884 1.502 0 .389.053.894.547 1.189.179.105.389.157.631.157.716 0 .968-.494 1.084-.725v.631h1.03c-.22-.179-.252-.294-.252-1.114zm-9.57.505c-.452 0-.62-.316-.641-.726-.032-.368-.032-1.314-.032-1.829 0-.831 0-1.588.694-1.588.484 0 .694.358.715.862.011.147.032 1.314.032 1.335 0 .294 0 1.061-.042 1.303-.073.389-.327.642-.726.642zm.811-4.174c-.117-.199-.348-.567-1.031-.567-.978 0-1.168.778-1.21.978-.085.347-.095.715-.095 1.639 0 1.304 0 1.682.148 2.071.199.536.683.694 1.062.694.4 0 .778-.168 1.063-.579v.61c0 .473 0 1.04-.737 1.04-.684 0-.705-.461-.715-.683h-.768c0 1.072.81 1.346 1.43 1.346.453 0 1.305-.115 1.546-.862.095-.294.095-.504.095-1.177v-4.984h-.788v.473zm-7.162 1.157c.02-.421.042-1.062.673-1.062.757 0 .757.821.735 2.081-.02 1.336-.02 2.04-.735 2.04-.621 0-.653-.589-.673-.81-.021-.326-.021-.599-.021-.831 0-.851 0-.851.021-1.419zm1.388-1.209c-.148-.2-.4-.515-.999-.515-.578 0-.978.378-1.125.872-.126.41-.126 1.387-.126 1.881 0 1.535.032 2.429.883 2.649.105.031.221.042.326.042.715 0 .989-.452 1.105-.652v.557h.789v-7.422h-.852v2.586zm-24.414 4.226c-.453 0-.621-.316-.642-.726-.031-.368-.031-1.314-.031-1.829 0-.831 0-1.588.694-1.588.484 0 .695.358.715.862.011.147.032 1.314.032 1.335 0 .294 0 1.061-.042 1.303-.073.389-.326.642-.725.642zm.81-4.174l-.051-.084c-.132-.204-.383-.484-.98-.484-.978 0-1.168.778-1.21.978-.083.347-.095.715-.095 1.639 0 1.304 0 1.682.148 2.071.2.536.684.694 1.062.694.4 0 .778-.168 1.063-.579v.61c0 .473 0 1.04-.736 1.04-.683 0-.705-.461-.715-.683h-.768c0 1.072.81 1.346 1.43 1.346.453 0 1.305-.115 1.546-.862.095-.294.095-.504.095-1.177v-4.984h-.789v.47400000000000003zm-5.363 3.48c0-.609.284-.83.662-1.125.411-.305.453-.336.694-.567v1.303c0 .421-.031.778-.337 1.009-.137.105-.295.158-.452.158-.568 0-.568-.546-.568-.778zm2.188.19v-2.512c0-.715 0-.999-.326-1.335-.305-.326-.683-.389-1.063-.389-.23 0-1.125 0-1.388.767-.084.263-.084.83-.073 1.052h.768l-.021-.389c0-.315 0-.757.631-.757.642 0 .642.494.642.925-.442.41-.526.463-1.325.999-.547.378-.884.651-.884 1.502 0 .389.053.894.548 1.189.178.105.389.157.631.157.716 0 .968-.494 1.084-.725v.631h1.03c-.22-.179-.252-.294-.252-1.114zm-10.789-3.543c.494 0 .557.442.567.746.011.274.011.894.011 1.335 0 1.462 0 2.018-.631 2.018-.547 0-.558-.505-.568-.968-.01-.357-.01-1.377-.01-1.534 0-1.083 0-1.599.631-1.599zm-.011-.693c-1.073 0-1.304.62-1.388.935-.095.368-.115 1.199-.115 1.925 0 1.314.01 1.619.21 1.976.242.441.747.61 1.262.61 1.095 0 1.304-.598 1.389-.935.094-.358.115-1.325.115-1.725 0-1.576 0-1.734-.178-2.102-.221-.453-.653-.683-1.294-.683zm-4.575 1.724c.021-.421.042-1.062.673-1.062.758 0 .758.821.736 2.081-.021 1.336-.021 2.04-.736 2.04-.62 0-.652-.589-.673-.81-.02-.326-.02-.599-.02-.831 0-.851 0-.851.02-1.419zm1.389-1.209c-.148-.2-.4-.515-.999-.515-.578 0-.978.378-1.125.872-.127.41-.127 1.387-.127 1.881 0 1.535.032 2.429.883 2.649.105.031.221.042.326.042.715 0 .989-.452 1.105-.652v.557h.789v-7.422h-.852v2.586zm-7.698 3.532c0-.609.285-.83.663-1.125.41-.305.452-.336.693-.567v1.303c0 .421-.031.778-.337 1.009-.136.105-.294.158-.452.158-.568 0-.568-.546-.568-.778zm2.188.19v-2.512c0-.715 0-.999-.326-1.335-.305-.326-.683-.389-1.062-.389-.232 0-1.126 0-1.388.767-.085.263-.085.83-.074 1.052h.768l-.02-.389c0-.315 0-.757.63-.757.642 0 .642.494.642.925-.442.41-.525.463-1.325.999-.547.378-.883.651-.883 1.502 0 .389.052.894.547 1.189.178.105.39.157.631.157.715 0 .968-.494 1.084-.725v.631h1.031c-.221-.179-.253-.294-.253-1.114zm-20.821-.19c0-.609.285-.83.663-1.125.41-.305.453-.336.694-.567v1.303c0 .421-.031.778-.336 1.009-.137.105-.295.158-.453.158-.568 0-.568-.546-.568-.778zm2.188.19v-2.512c0-.715 0-.999-.325-1.335-.305-.326-.684-.389-1.063-.389-.231 0-1.126 0-1.388.767-.085.263-.085.83-.074 1.052h.768l-.021-.389c0-.315 0-.757.631-.757.641 0 .641.494.641.925-.442.41-.525.463-1.325.999-.547.378-.883.651-.883 1.502 0 .389.052.894.546 1.189.179.105.39.157.632.157.715 0 .968-.494 1.083-.725v.631h1.031c-.221-.179-.253-.294-.253-1.114zm-8.486-3.027c.116-.463.484-.589.715-.589.663 0 .663.662.663 2.081 0 .568 0 1.114-.031 1.44-.021.178-.074.651-.599.651-.2 0-.673-.063-.768-.694-.021-.178-.021-.305-.021-.798v-1.199c0-.663 0-.736.042-.893zm.989-1.209c-.493 0-.772.229-.938.415l-.093.111v-2.597h-.831v7.422h.779v-.473l.093.105c.193.211.486.462.979.462.4 0 1.01-.189 1.157-.967.095-.473.095-1.766.095-2.334 0-.452 0-1.198-.221-1.587-.116-.209-.421-.556-1.021-.556zm-6.614 4.793c-.547 0-.557-.505-.568-.968-.01-.357-.01-1.377-.01-1.534 0-1.083 0-1.599.631-1.599.494 0 .557.442.568.746.01.274.01.894.01 1.335 0 1.462 0 2.018-.631 2.018zm.042-4.793c-1.073 0-1.304.62-1.389.935-.095.368-.115 1.199-.115 1.925 0 1.314.01 1.619.21 1.976.242.441.747.61 1.263.61 1.094 0 1.304-.598 1.389-.935.094-.358.115-1.325.115-1.725 0-1.576 0-1.734-.178-2.102-.221-.453-.652-.683-1.294-.683zm-4.543 4.047c0-.609.284-.83.663-1.125.41-.305.452-.336.694-.567v1.303c0 .421-.032.778-.337 1.009-.137.105-.294.158-.452.158-.568 0-.568-.546-.568-.778zm2.188.19v-2.512c0-.715 0-.999-.326-1.335-.305-.326-.684-.389-1.063-.389-.231 0-1.126 0-1.389.767-.084.263-.084.83-.074 1.052h.768l-.021-.389c0-.315 0-.757.631-.757.642 0 .642.494.642.925-.442.41-.526.463-1.325.999-.547.378-.884.651-.884 1.502 0 .389.053.894.547 1.189.179.105.389.157.631.157.715 0 .967-.494 1.084-.725v.631h1.03c-.22-.179-.252-.294-.252-1.114zm-9.633-.19c0-.609.285-.83.663-1.125.41-.305.452-.336.694-.567v1.303c0 .421-.031.778-.336 1.009-.137.105-.294.158-.452.158-.568 0-.568-.546-.568-.778zm2.188.19v-2.512c0-.715 0-.999-.326-1.335-.305-.326-.684-.389-1.062-.389-.231 0-1.126 0-1.388.767-.085.263-.085.83-.074 1.052h.768l-.021-.389c0-.315 0-.757.631-.757.642 0 .642.494.642.925-.442.41-.526.463-1.325.999-.547.378-.883.651-.883 1.502 0 .389.053.894.547 1.189.179.105.39.157.631.157.715 0 .968-.494 1.083-.725v.631h1.031c-.221-.179-.253-.294-.253-1.114zm-10.557-3.543c.494 0 .557.442.568.746.011.274.011.894.011 1.335 0 1.462 0 2.018-.632 2.018-.547 0-.557-.505-.568-.968-.01-.357-.01-1.377-.01-1.534 0-1.083 0-1.599.631-1.599zm-.011-.693c-1.073 0-1.304.62-1.389.935-.094.368-.115 1.199-.115 1.925 0 1.314.01 1.619.21 1.976.242.441.747.61 1.262.61 1.094 0 1.304-.598 1.389-.935.094-.358.115-1.325.115-1.725 0-1.576 0-1.734-.179-2.102-.221-.453-.652-.683-1.294-.683zm-6.109 2.659l-.589-.504c-.421-.347-.652-.547-.652-.904 0-.389.242-.578.558-.578.095 0 .336.011.463.262.084.158.094.305.094.704h.747c0-.441 0-.966-.306-1.292-.199-.21-.568-.347-.999-.347-.621 0-1.346.262-1.346 1.346 0 .651.337.956.726 1.303l.642.568c.389.336.547.504.547.914 0 .421-.273.641-.6.641-.295 0-.505-.157-.589-.367-.063-.168-.063-.526-.063-.873h-.81c.011.598.021.946.148 1.23.273.652.968.683 1.252.683.379 0 .684-.052.957-.242.389-.263.568-.725.568-1.188 0-.736-.41-1.083-.747-1.356zm3.291 0l-.589-.504c-.421-.347-.653-.547-.653-.904 0-.389.242-.578.558-.578.095 0 .337.011.463.262.084.158.094.305.094.704h.747c0-.441 0-.966-.305-1.292-.2-.21-.568-.347-.999-.347-.621 0-1.346.262-1.346 1.346 0 .651.337.956.725 1.303l.642.568c.389.336.547.504.547.914 0 .421-.273.641-.599.641-.295 0-.505-.157-.589-.367-.063-.168-.063-.526-.063-.873h-.81c.011.598.021.946.148 1.23.273.652.967.683 1.251.683.379 0 .684-.052.957-.242.39-.263.568-.725.568-1.188 0-.736-.41-1.083-.747-1.356zm6.561-2.018c.663 0 .663.451.663 1.355h.8c0-1.041 0-1.997-1.441-1.997-1.494 0-1.546.978-1.546 2.848 0 .862.021 1.419.127 1.766.178.599.694.83 1.336.83 1.525 0 1.525-1.093 1.525-2.049h-.8c0 .871-.052 1.387-.673 1.387s-.642-.537-.652-.81c-.011-.453-.011-1.199-.011-1.409 0-1.472.011-1.923.673-1.923zm2.282 4.709h.831v-5.267h-.831v5.267zm0-6.181h.831v-1.082h-.831v1.082zm6.919 1.472c.662 0 .662.451.662 1.355h.8c0-1.041 0-1.997-1.441-1.997-1.493 0-1.546.978-1.546 2.848 0 1.618 0 2.481 1.305 2.586l-.316.958.211.073c.063-.053.168-.136.305-.136.242 0 .41.2.41.431 0 .211-.221.494-.6.494-.263 0-.463-.095-.568-.147l-.137.263c.21.094.452.2.81.2.726 0 1.146-.473 1.146-.935 0-.421-.347-.673-.715-.673-.2 0-.337.052-.473.105l.211-.621c.2 0 .642-.011 1.01-.389.347-.358.389-.778.389-1.66h-.8c0 .871-.052 1.387-.673 1.387-.62 0-.642-.537-.652-.81-.011-.453-.011-1.199-.011-1.409 0-1.472.011-1.923.673-1.923zm3.049-1.599c.115 0 .221.032.558.158.431.146.473.168.631.168.263 0 .747-.158.789-.946h-.379c-.01.126-.02.325-.273.325-.094 0-.189-.031-.273-.062-.663-.231-.737-.263-.926-.263-.326 0-.768.22-.799.946h.379c.011-.126.042-.326.295-.326zm13.838 2.04v-.989h-.809v5.257h.863v-2.512c0-.978.063-1.272.232-1.524.294-.431.757-.431 1.136-.431v-.873c-.905-.053-1.231.663-1.421 1.072zm7.436 1.577l-.589-.504c-.421-.347-.652-.547-.652-.904 0-.389.242-.578.558-.578.095 0 .337.011.463.262.084.158.095.305.095.704h.747c0-.441 0-.966-.305-1.292-.199-.21-.568-.347-.999-.347-.621 0-1.346.262-1.346 1.346 0 .651.336.956.725 1.303l.642.568c.389.336.547.504.547.914 0 .421-.274.641-.599.641-.295 0-.505-.157-.59-.367-.063-.168-.063-.526-.063-.873h-.811c.011.598.022.946.148 1.23.273.652.967.683 1.251.683.378 0 .683-.052.957-.242.389-.263.568-.725.568-1.188 0-.736-.41-1.083-.746-1.356zm1.398 2.691h.831v-5.267h-.831v5.267zm0-6.181h.831v-1.082h-.831v1.082zm1.746 6.181h.852v-7.422h-.852v7.422zm5.489 0h.831v-5.267h-.831v5.267zm0-6.181h.831v-1.082h-.831v1.082zm2.566 1.913v-.989h-.81v5.257h.863v-2.512c0-.978.063-1.272.231-1.524.294-.431.757-.431 1.135-.431v-.873c-.905-.053-1.23.663-1.42 1.072zm17.509 1.577l-.589-.504c-.42-.347-.652-.547-.652-.904 0-.389.242-.578.558-.578.094 0 .337.011.462.262.085.158.095.305.095.704h.746c0-.441 0-.966-.305-1.292-.2-.21-.568-.347-.999-.347-.621 0-1.346.262-1.346 1.346 0 .651.337.956.725 1.303l.642.568c.39.336.547.504.547.914 0 .421-.273.641-.599.641-.295 0-.505-.157-.59-.367-.063-.168-.063-.526-.063-.873h-.81c.01.598.021.946.148 1.23.274.652.967.683 1.252.683.378 0 .683-.052.957-.242.39-.263.568-.725.568-1.188 0-.736-.41-1.083-.747-1.356zm17.119-2.659c-.642 0-.968.389-1.126.578v-.484h-.8v5.257h.842v-3.395c0-.578 0-1.293.705-1.293.621 0 .621.505.621 1.262v3.427h.851v-3.7c0-.726 0-1.65-1.093-1.65zm10.45 2.659l-.59-.504c-.42-.347-.651-.547-.651-.904 0-.389.242-.578.557-.578.095 0 .337.011.463.262.085.158.095.305.095.704h.746c0-.441 0-.966-.305-1.292-.2-.21-.568-.347-1-.347-.62 0-1.346.262-1.346 1.346 0 .651.337.956.726 1.303l.642.568c.39.336.547.504.547.914 0 .421-.273.641-.6.641-.294 0-.505-.157-.589-.367-.063-.168-.063-.526-.063-.873h-.81c.01.598.021.946.147 1.23.275.652.968.683 1.253.683.378 0 .684-.052.957-.242.39-.263.568-.725.568-1.188 0-.736-.41-1.083-.747-1.356zm7.58 2.691h.831v-5.267h-.831v5.267zm0-6.181h.831v-1.082h-.831v1.082zm5.7 6.181h.831v-5.267h-.831v5.267zm0-6.181h.831v-1.082h-.831v1.082zm2.85 4.899v-3.343h.768v-.641h-.768v-1.409h-.841v1.409h-.652v.641h.631v2.912c0 .966 0 1.072.105 1.313.106.242.336.494 1.073.494.221 0 .348-.031.463-.063v-.684c-.084.021-.158.043-.294.043-.452 0-.484-.336-.484-.673zm-23.283 0v-3.343h.768v-.641h-.768v-1.409h-.841v1.409h-.652v.641h.63v2.912c0 .966 0 1.072.105 1.313.106.242.336.494 1.073.494.221 0 .348-.031.463-.063v-.684c-.083.021-.158.043-.295.043-.452 0-.484-.336-.484-.673zm28.424-4.899h.831v-1.082h-.831v1.082zm0 6.181h.831v-5.267h-.831v5.267zm3.65-2.691l-.589-.504c-.421-.347-.652-.547-.652-.904 0-.389.243-.578.558-.578.095 0 .337.011.463.262.084.158.094.305.094.704h.748c0-.441 0-.966-.305-1.292-.2-.21-.568-.347-1-.347-.621 0-1.346.262-1.346 1.346 0 .651.337.956.725 1.303l.642.568c.389.336.547.504.547.914 0 .421-.273.641-.6.641-.295 0-.505-.157-.59-.367-.062-.168-.062-.526-.062-.873h-.81c.011.598.021.946.147 1.23.274.652.968.683 1.252.683.378 0 .683-.052.958-.242.389-.263.567-.725.567-1.188 0-.736-.41-1.083-.747-1.356zm3.564.262h3.502v-.82h-3.502v.82zm7.403-1.839v-.989h-.81v5.257h.863v-2.512c0-.978.062-1.272.231-1.524.295-.431.758-.431 1.136-.431v-.873c-.905-.053-1.23.663-1.42 1.072zm3.712 1.577l-.588-.504c-.422-.347-.653-.547-.653-.904 0-.389.243-.578.558-.578.095 0 .337.011.463.262.084.158.094.305.094.704h.748c0-.441 0-.966-.305-1.292-.2-.21-.568-.347-1-.347-.621 0-1.346.262-1.346 1.346 0 .651.337.956.725 1.303l.642.568c.389.336.547.504.547.914 0 .421-.274.641-.6.641-.295 0-.505-.157-.59-.367-.062-.168-.062-.526-.062-.873h-.81c.01.598.02.946.147 1.23.274.652.968.683 1.252.683.378 0 .684-.052.958-.242.389-.263.567-.725.567-1.188 0-.736-.41-1.083-.747-1.356z"/></g></svg>