<svg viewBox="0 0 88 63" style="background-color:#ffffff00" xmlns="http://www.w3.org/2000/svg" width="88" height="63"><g opacity=".702"><path d="M38.885 21.666c-.015 2.143-1.764 3.89-3.894 3.89-2.129 0-3.855-1.747-3.843-3.89.012-2.144 1.762-3.895 3.893-3.895l.777.034c6.161 0 6.234-9.506.063-9.506l-.779.034c-2.135 0-3.867-1.757-3.855-3.913.012-2.159 1.767-3.92 3.905-3.92 2.139 0 3.872 1.761 3.856 3.92l-.038.783c-.044 6.221 9.322 6.221 9.377 0l-.026-.783c.019-2.159 1.78-3.92 3.919-3.92 2.139 0 3.866 1.761 3.843 3.92-.022 2.156-1.782 3.913-3.918 3.913l-.777-.034c-6.172 0-6.251 9.506-.09 9.506l.776-.034c2.133 0 3.853 1.751 3.831 3.895-.022 2.143-1.776 3.89-3.906 3.89-2.129 0-3.851-1.747-3.832-3.89l.04-.779c.055-6.199-9.306-6.199-9.351 0l.026.779zM46.033 56.281l-.014 1.673c-.096-.131-.255-.335-.643-.335-.379 0-.637.242-.736.562-.074.249-.085.811-.087 1.142l.002.004h-.002l-.001.07c-.008.988.007 1.565.558 1.709l.208.025c.465 0 .642-.291.717-.42l-.003.363h.513l.015-1.75.026-3.042h-.553zm-.011 3.043l-.002.064c-.021.861-.025 1.317-.486 1.317-.402 0-.418-.378-.431-.523l-.011-.533.003-.326.02-.59c.016-.272.03-.688.442-.688.477 0 .486.5.465 1.277l.001.001h-.001zm3.091 1.749c-.145-.116-.163-.194-.158-.722l.015-1.618c.004-.465.006-.645-.2-.862-.198-.213-.444-.252-.686-.252-.151 0-.728 0-.907.494-.054.17-.057.538-.05.679h.495l-.012-.253c.002-.203.004-.483.416-.483.413 0 .41.314.407.596-.289.262-.341.295-.864.643l-.042.028c-.331.23-.534.415-.538.941-.002.252.029.577.347.765.115.068.251.103.41.103.461 0 .629-.319.702-.464l-.004.406h.669zm-.693-1.094c-.002.27-.024.503-.224.654-.089.067-.19.102-.292.102-.367 0-.364-.355-.363-.504.003-.392.189-.538.437-.727l.242-.181h-.004.004l.208-.182-.008.838zm2.844.231c-.003.297-.123.596-.376.766-.176.121-.375.155-.622.155-.179 0-.63-.019-.806-.441-.08-.184-.083-.407-.085-.794h.524c-.002.228-.004.455.033.567.053.136.193.237.381.237.209 0 .389-.145.392-.416.002-.261-.099-.372-.349-.591l-.414-.363-.005-.006h-.002c-.247-.22-.459-.419-.455-.836.006-.697.478-.868.882-.868.281 0 .518.088.643.223.197.214.194.553.191.834h-.485c.002-.257-.002-.349-.054-.451-.081-.165-.236-.169-.298-.169-.204 0-.36.12-.363.372-.002.228.148.359.416.582l.363.313.012.011c.216.18.482.402.477.876zM74.244 56.281l-.023 1.673c-.095-.131-.253-.335-.641-.335-.378 0-.638.242-.739.562-.076.249-.088.811-.093 1.142l.002.004h-.002l-.001.07c-.013.988-.002 1.565.548 1.709l.208.025c.465 0 .644-.291.718-.42l-.005.363h.513l.024-1.75.042-3.042h-.552zm-.026 3.043l-.003.064c-.026.861-.032 1.317-.492 1.317-.403 0-.417-.378-.429-.523-.013-.209-.01-.388-.008-.533l.006-.326.022-.59c.018-.272.033-.688.446-.688.477 0 .483.5.459 1.277v.001zm3.746-1.643l-.004.306c-.076-.131-.223-.369-.665-.369-.635 0-.763.505-.789.63-.061.223-.069.46-.077 1.061v.013c-.012.827-.015 1.073.078 1.318.121.349.434.451.677.451.263 0 .506-.111.694-.373l-.006.392c-.004.304-.01.673-.485.673-.441 0-.452-.3-.459-.441h-.494c-.01.687.511.866.913.866.291 0 .845-.077 1.006-.556.066-.188.068-.325.074-.76l.047-3.212h-.509zm-.054 1.74c-.003.193-.01.687-.043.842-.047.252-.215.412-.476.412-.291 0-.394-.204-.405-.466-.012-.177-.011-.563-.007-.887h-.002l.002-.001.004-.293c.008-.533.015-1.023.461-1.023.315 0 .447.228.458.557l.006.759.002.099zm3.457 1.229l-.007.441c-.074.02-.156.039-.302.039-.474 0-.623-.159-.687-.319-.067-.155-.066-.224-.056-.843l.01-.646.018-1.229h-.407l.006-.413h.422l.014-.912h.543l-.014.912h.499l-.006.413h-.499l-.019 1.229-.014.922c-.003.218.013.431.309.431l.19-.025zm2.373.422c-.144-.116-.161-.194-.153-.722l.025-1.618c.007-.465.01-.645-.196-.862-.195-.213-.442-.252-.684-.252-.151 0-.728 0-.91.494-.055.17-.061.538-.054.679h.494l-.011-.253c.003-.203.007-.483.42-.483.412 0 .407.314.403.596-.291.262-.344.295-.868.643l-.043.028c-.332.23-.536.415-.544.941-.004.252.026.577.343.765.115.068.25.103.41.103.461 0 .63-.319.705-.464l-.006.406h.669zm-.686-1.094c-.004.27-.027.503-.228.654-.089.067-.191.102-.293.102-.368 0-.362-.355-.36-.504.006-.392.192-.538.442-.727l.243-.181h-.006.006l.209-.182-.013.838zm3.982.231c-.005.297-.126.596-.381.766-.176.121-.376.155-.622.155-.18 0-.63-.019-.803-.441-.08-.184-.081-.407-.079-.794h.524c-.004.228-.007.455.029.567.052.136.192.237.38.237.208 0 .39-.145.395-.416.004-.261-.096-.372-.345-.591l-.412-.363-.006-.006h-.001c-.246-.22-.456-.419-.45-.836.011-.697.483-.868.887-.868.281 0 .518.088.642.223.196.214.19.553.186.834h-.485c.004-.257 0-.349-.05-.451-.081-.165-.236-.169-.299-.169-.204 0-.361.12-.365.372-.004.228.146.359.413.582l.362.313.012.011c.215.18.478.402.47.876zm-2.248-3.827l-.011.698h-.538l.011-.698h.538zm-.02 1.299l-.026 1.642-.028 1.75h-.538l.027-1.75.026-1.642h.538zm.02-1.299l-.011.698h-.538l.011-.698h.538zm-5.186 1.299l-.024 1.642-.026 1.75h-.539l.026-1.75.024-1.642h.539zm.019-1.299l-.01.698h-.539l.01-.698h.539zm-3.711 1.299l-.023 1.642-.025 1.75h-.538l.024-1.75.023-1.642h.538zm.018-1.299l-.01.698h-.538l.01-.698h.538zM62.577 58.685l-.008.638-.02 1.75h-.553l.02-1.75.005-.464c.006-.489.009-.813-.394-.813-.456 0-.461.46-.465.833l-.005.444-.02 1.75h-.543l.02-1.75.018-1.642h.514l-.003.311c.103-.121.32-.373.737-.373.708 0 .701.596.696 1.066zm1.498 2.02c-.402 0-.413-.344-.415-.523l.006-.859.001-.046c.011-.949.019-1.245.445-1.245.432 0 .429.296.422.877h.52c.008-.674.016-1.29-.921-1.29-.929 0-1.002.584-1.019 1.704l-.002.132c-.006.557.004.915.07 1.143.112.383.439.532.856.532.99 0 .998-.702 1.006-1.322h-.519c-.007.562-.045.897-.447.897zm-6.443-3.023l-.034 3.212c-.005.435-.006.572-.071.76-.16.479-.714.556-1.005.556-.402 0-.924-.179-.917-.866h.494c.009.141.02.441.461.441.475 0 .479-.369.482-.673l.004-.392c-.187.262-.43.373-.693.373-.242 0-.556-.102-.678-.451-.094-.245-.092-.491-.083-1.318v-.013c.006-.601.013-.838.074-1.061.026-.125.152-.63.788-.63.442 0 .589.237.665.369l.003-.306h.51zm-.558 1.642l-.009-.759c-.011-.33-.145-.557-.46-.557-.446 0-.451.489-.456 1.023l-.003.293-.002.001h.002c-.003.323-.002.71.01.887.012.262.117.466.407.466.262 0 .429-.16.475-.412.031-.155.036-.649.038-.842l-.001-.099zm10.913 1.75l.005-.406c-.074.145-.242.464-.704.464-.16 0-.295-.034-.41-.103-.318-.188-.348-.512-.345-.765.006-.525.21-.711.542-.941l.042-.028c.523-.348.577-.382.867-.643.003-.281.008-.596-.405-.596-.413 0-.416.28-.419.483l.011.253h-.495c-.007-.141-.002-.508.052-.679.181-.494.758-.494.909-.494.242 0 .489.039.685.252.206.218.204.398.198.862l-.021 1.618c-.007.528.012.606.155.722h-.669zm-.008-1.932l-.21.182h-.005.005l-.242.181c-.249.188-.435.335-.44.727-.002.15-.006.504.361.504.102 0 .204-.035.293-.102.201-.151.224-.384.227-.654l.011-.838zm-13.448 1.932l.004-.406c-.073.145-.241.464-.702.464-.16 0-.295-.034-.411-.103-.317-.188-.349-.512-.346-.765.005-.525.208-.711.539-.941l.042-.028c.522-.348.576-.382.866-.643.003-.281.006-.596-.407-.596-.412 0-.415.28-.417.483l.012.253h-.495c-.008-.141-.005-.508.05-.679.179-.494.756-.494.908-.494.242 0 .489.039.685.252.207.218.205.398.2.862l-.017 1.618c-.005.528.014.606.157.722h-.669zm-.013-1.932l-.209.182h-.004.004l-.242.181c-.249.188-.434.335-.438.727-.002.15-.005.504.363.504.103 0 .205-.035.292-.102.201-.151.223-.384.226-.654l.008-.838zm15.819.193l-.011-.011-.363-.313c-.268-.223-.416-.355-.413-.582.003-.252.159-.372.364-.372.062 0 .218.004.297.169.051.102.056.193.052.451h.485c.004-.281.008-.62-.188-.834-.124-.134-.36-.223-.641-.223-.404 0-.876.17-.885.868-.005.417.206.617.451.836h.001l.006.006.413.363c.25.219.35.33.347.591-.003.271-.185.416-.393.416-.188 0-.328-.102-.381-.237-.036-.112-.033-.339-.03-.567h-.524c.001.388.002.611.082.794.174.421.625.441.803.441.248 0 .447-.034.623-.155.254-.169.375-.469.379-.766.006-.474-.258-.696-.474-.876zm-12.065-2.083h.456l.392-.427.364.427h.592l-.661-.747h-.447l-.696.747zm.432 2.234c-.003.267-.016.61-.003.731.013.13.038.483.426.483.393 0 .431-.334.435-.678h.504c-.002.227-.004.396-.07.576-.2.532-.733.532-.902.532-.204 0-.674-.025-.868-.523-.052-.145-.08-.215-.072-1.281v-.004l.002-.309c.008-.722.078-1.391.956-1.391.218 0 .844 0 .943.742.024.158.026.254.018.958l-.002.162h-1.367zm.005-.441h.859l.005-.422c-.009-.185-.009-.581-.416-.581-.281 0-.366.174-.401.286-.039.125-.041.237-.046.717zm6.883-1.363l-.02 1.642-.021 1.75h.537l.021-1.75.02-1.642h-.538zm.554-1.299h-.538l-.008.698h.538l.009-.698zM26.025 59.323c.002-.333-.001-.894-.072-1.142-.095-.32-.352-.562-.73-.562-.388 0-.549.204-.646.335l.008-1.673h-.553l-.013 3.042-.008 1.75h.514l.002-.363c.072.13.245.42.71.42l.209-.025c.553-.144.575-.721.58-1.709v-.074zm-.544.326l-.017.533c-.015.145-.037.523-.439.523-.46 0-.458-.456-.469-1.317v-.065c-.01-.777.005-1.277.482-1.277.412 0 .42.416.434.688l.012.59-.002.326zm2.587-2.029l-.003.568c-.598 0-.883.143-.906 1.138l-.002.103-.008 1.644h-.536l.009-1.75.008-1.645h.509l.002.631c.166-.357.376-.66.927-.689zm6.562-1.237l-.019 2.94-.011 1.75h-.538l.011-1.75.019-2.94h.538zm5.668 1.237l-.004.568c-.597 0-.883.143-.908 1.138l-.002.103-.012 1.644h-.536l.013-1.75.012-1.645h.509v.631c.168-.357.378-.66.929-.689zm2.289 3.453c-.144-.116-.163-.194-.159-.722l.013-1.618c.004-.465.005-.645-.202-.862-.197-.213-.444-.252-.686-.252-.15 0-.728 0-.907.494-.055.17-.058.538-.048.679h.495l-.013-.253c.002-.203.004-.483.415-.483.413 0 .41.314.408.596-.289.262-.342.295-.863.643l-.042.028c-.331.23-.533.415-.537.941-.002.252.03.577.348.765.116.068.251.103.41.103.462 0 .629-.319.702-.464l-.003.406h.669zm-.694-1.094c-.002.27-.024.503-.223.654-.088.067-.19.102-.291.102-.369 0-.367-.355-.365-.504.003-.392.188-.538.437-.727l.241-.181h-.005.005l.208-.182-.007.838zm-11.529 1.094c-.145-.116-.165-.194-.162-.722l.009-1.618c.003-.465.004-.645-.203-.862-.198-.213-.444-.252-.687-.252-.15 0-.728 0-.905.494-.053.17-.055.538-.047.679h.495l-.013-.253c.001-.203.003-.483.415-.483s.41.314.409.596c-.288.262-.341.295-.861.643l-.042.028c-.331.23-.532.415-.535.941-.001.252.031.577.35.765.116.068.251.103.411.103.461 0 .628-.319.7-.464l-.002.406h.67zm-.697-1.094c-.001.27-.021.503-.221.654-.088.067-.19.102-.291.102-.368 0-.366-.355-.366-.504.002-.392.186-.538.435-.727l.241-.181h-.005.005l.207-.182-.005.838zm2.846.231c-.002.297-.121.596-.374.766-.175.121-.374.155-.621.155-.179 0-.63-.019-.807-.441-.081-.184-.084-.407-.088-.794h.524c-.001.228-.003.455.035.567.053.136.193.237.382.237.208 0 .389-.145.391-.416.002-.261-.1-.372-.351-.591l-.415-.363-.006-.006h-.001c-.248-.22-.461-.419-.459-.836.004-.697.475-.868.878-.868.281 0 .519.088.644.223.197.214.196.553.194.834h-.485c.002-.257-.004-.349-.056-.451-.081-.165-.236-.169-.3-.169-.204 0-.359.12-.36.372-.001.228.148.359.418.582l.364.313.012.011c.217.18.483.402.48.876zm4.609-.725l.001-.162c.005-.704.003-.8-.022-.958-.103-.742-.727-.742-.946-.742-.878 0-.946.669-.95 1.391l-.001.309.024.004h-.024c-.003 1.066.026 1.135.078 1.281.195.498.665.523.869.523.169 0 .703 0 .9-.532.065-.18.066-.35.067-.576h-.503c-.002.344-.04.678-.432.678-.387 0-.415-.353-.427-.483-.014-.122-.003-.465-.001-.731h1.367zm-1.321-1.158c.035-.112.119-.286.4-.286.408 0 .409.397.418.581l-.003.422h-.858c.003-.48.004-.592.043-.717zm2.464-.645l-.012 1.642-.012 1.75h-.538l.012-1.75.011-1.642h.538zm.009-1.299l-.005.698h-.539l.005-.698h.538zm-4.786 1.299l-.01 1.642-.011 1.75h-.538l.011-1.75.01-1.642h.539zm.008-1.299l-.004.698h-.539l.004-.698h.539zM16.66 59.809h.518c-.002.572-.031.842-.255 1.071-.239.247-.524.252-.655.252l-.137.402c.092-.035.18-.067.305-.067.243 0 .465.16.464.43-.001.3-.273.605-.743.605-.233 0-.388-.067-.523-.13l.087-.17c.068.034.199.098.369.098.242 0 .388-.185.388-.319 0-.15-.11-.275-.265-.275-.087 0-.155.052-.2.086l-.135-.048.205-.615c-.843-.068-.842-.625-.839-1.671v-.132c.007-1.12.075-1.704 1.009-1.704.931 0 .929.615.927 1.29h-.518c.002-.582.003-.877-.424-.877-.431 0-.437.296-.44 1.245v.046l.003.859c.009.179.023.523.425.523.397 0 .432-.335.434-.897zm5.326-.485v.093c-.001.257-.014.881-.078 1.114-.054.214-.191.601-.899.601-.334 0-.663-.106-.817-.393-.13-.232-.135-.427-.132-1.273l.002-.14h.001l-.001-.003c.004-.43.023-.884.076-1.098.058-.205.211-.606.904-.606.412 0 .693.15.832.441.112.23.116.333.112 1.263zm-.573.001h.001l-.001-.001-.002-.773c-.004-.199-.047-.484-.367-.484-.407 0-.408.334-.411 1.031l-.001.227h-.001.001l.002.768c.008.294.012.62.366.62.407 0 .409-.359.412-1.299v-.087zm-12.597-.001v.093c-.001.257-.011.881-.075 1.114-.053.214-.189.601-.897.601-.335 0-.664-.106-.818-.393-.131-.232-.136-.427-.135-1.273l.001-.14h.001l-.001-.003c.002-.43.02-.884.073-1.098.058-.205.209-.606.902-.606.413 0 .694.15.834.441.112.23.116.333.114 1.263zm-.572.001v-.001l-.003-.773c-.004-.199-.048-.484-.368-.484-.407 0-.407.334-.408 1.031v.227h-.001.001l.004.768c.009.294.014.62.367.62.407 0 .408-.359.409-1.299v-.087zm2.034 1.381c-.402 0-.416-.344-.42-.523l-.003-.859v-.046c.002-.949.007-1.245.433-1.245.432 0 .431.296.43.877h.52c.002-.674.003-1.29-.933-1.29-.93 0-.997.584-1.002 1.704l-.001.132c-.001.557.013.915.081 1.143.115.383.444.532.861.532.99 0 .991-.702.992-1.322h-.519c-.001.562-.036.897-.438.897zm8.728.368l.001-.406c-.072.145-.238.464-.699.464-.161 0-.295-.034-.411-.103-.319-.188-.353-.512-.352-.765.002-.525.204-.711.534-.941l.042-.028c.52-.348.573-.382.861-.643.001-.281.002-.596-.41-.596-.413 0-.414.28-.415.483l.014.253h-.495c-.009-.141-.008-.508.046-.679.176-.494.754-.494.905-.494.242 0 .489.039.687.252.208.218.207.398.206.862l-.006 1.618c-.002.528.018.606.163.722h-.669zm-.026-1.932l-.208.182h-.005.005l-.24.181c-.248.188-.433.335-.434.727 0 .15-.002.504.367.504.102 0 .203-.035.291-.102.2-.151.22-.384.221-.654l.003-.838zm-4.786 1.932l.001-.406c-.073.145-.238.464-.699.464-.16 0-.295-.034-.411-.103-.319-.188-.352-.512-.352-.765.001-.525.203-.711.532-.941l.042-.028c.519-.348.573-.382.859-.643.001-.281.001-.596-.411-.596-.413 0-.413.28-.414.483l.014.253h-.494c-.009-.141-.008-.508.045-.679.176-.494.753-.494.903-.494.243 0 .49.039.688.252.209.218.208.398.207.862l-.004 1.618c-.001.528.018.606.162.722h-.669zm-.029-1.932l-.207.182h-.005.005l-.24.181c-.247.188-.432.335-.433.727 0 .15-.001.504.367.504.102 0 .204-.035.292-.102.199-.151.219-.384.219-.654l.002-.838zm-12.583 1.932v-.406c-.072.145-.237.464-.698.464-.16 0-.295-.034-.411-.103-.32-.188-.354-.512-.354-.765 0-.525.201-.711.53-.941l.041-.028c.519-.348.572-.382.859-.643 0-.281 0-.596-.413-.596-.412 0-.412.28-.412.483l.015.253h-.495c-.009-.141-.009-.508.043-.679.175-.494.752-.494.903-.494.242 0 .489.039.688.252.208.218.208.398.208.862l-.001 1.618c0 .528.019.606.165.722h-.669zm-.033-1.932l-.207.182h-.004.004l-.24.181c-.247.188-.431.335-.431.727 0 .15 0 .504.368.504.102 0 .204-.035.291-.102.199-.151.219-.384.219-.654v-.838zm4.49.193l-.011-.011-.366-.313c-.271-.223-.421-.355-.421-.582 0-.252.155-.372.359-.372.063 0 .218.004.301.169.053.102.058.193.058.451h.484c0-.281.001-.62-.198-.834-.126-.134-.362-.223-.644-.223-.403 0-.873.17-.874.868 0 .417.213.617.462.836h.001l.007.006.417.363c.252.219.354.33.354.591 0 .271-.18.416-.388.416-.189 0-.33-.102-.383-.237-.038-.112-.037-.339-.037-.567h-.525c.005.388.009.611.092.794.179.421.63.441.809.441.247 0 .445-.034.62-.155.251-.169.369-.469.369-.766 0-.474-.266-.696-.484-.876zm-2.129 0l-.011-.011-.367-.313c-.271-.223-.421-.355-.421-.582 0-.252.154-.372.359-.372.063 0 .218.004.301.169.053.102.058.193.058.451h.484c0-.281 0-.62-.198-.834-.126-.134-.363-.223-.645-.223-.403 0-.873.17-.873.868 0 .417.213.617.462.836l.007.006.417.363c.252.219.355.33.354.591 0 .271-.181.416-.389.416-.189 0-.33-.102-.383-.237-.038-.112-.038-.339-.038-.567h-.524c.005.388.01.611.093.794.179.421.63.441.81.441.246 0 .445-.034.62-.155.252-.169.369-.469.37-.766 0-.474-.266-.696-.485-.876zm15.341-2.733c-.009.083-.015.209-.18.209l-.174-.04c-.431-.149-.474-.169-.601-.169-.209 0-.495.142-.516.611h.242c.005-.083.03-.209.19-.209.077 0 .145.019.363.102.276.092.305.106.407.106.17 0 .486-.102.512-.611h-.243zm-7.487 1.081l-.004 1.642-.004 1.75h.538l.004-1.75.004-1.642h-.538zm.541-1.299h-.538l-.002.698h.538l.002-.698zM23.645 44.218c1.475 0 1.925.567 1.918 1.918l-.011 2.233c-.007 1.438-.49 1.798-1.904 1.798h-1.268l.024-5.948h1.239zm-.144-7.955c1.477 0 1.927.567 1.921 1.922l-.004.929c-.007 1.441-.491 1.803-1.907 1.803h-1.092l.019-4.654h1.063zm-6.269 6.278l.002-.444.03-9.545h7.434c1.807 0 2.914.289 3.614.701 2.064 1.137 2.053 3.233 2.046 4.427-.013 1.172-.097 2.48-1.012 3.492-.538.608-1.227.948-1.979 1.137.501.142.931.313 1.269.511 2.13 1.172 2.118 3.331 2.111 4.56l-.006 1.064c-.007 1.287-.016 2.785-1.047 3.923-1.144 1.289-2.948 1.41-4.628 1.41h-7.869l.036-11.235zm-17.232 11.235h5.012l.501-3.171h4.41l.496 3.171h5.013l-4.251-21.225h-6.871l-4.31 21.225zm9.428-7.034h-3.403l1.778-10.813 1.625 10.813zm63.029-10.48c1.476 0 1.921.567 1.902 1.922l-.139 10.138c-.02 1.437-.505 1.796-1.92 1.796h-1.589l.181-13.856h1.564zm-6.749 17.513h7.927c1.681 0 3.484-.121 4.64-1.41 1.041-1.138 1.063-2.636 1.082-3.923l.155-10.591c.018-1.232.05-3.4-2.073-4.576-.719-.425-1.861-.725-3.728-.725h-7.745l-.258 21.225zm-17.762 0h5.014l.524-3.171h4.414l.464 3.171h5.017l-4.062-21.225h-6.871l-4.499 21.225zm6.083-7.034l1.747-10.7 1.661 10.7h-3.408zm-8.213 7.034h-4.984l.055-7.243c.01-1.351-.435-2.316-1.91-2.316h-1.118l-.067 9.559h-4.951l.068-11.235.003-.444.058-9.545h7.4350000000000005c1.807 0 2.912.289 3.612.701 2.061 1.137 2.04 3.657 2.03 4.849-.017 1.172-.105 2.479-1.024 3.492-.539.607-1.229.948-1.982 1.137l-.117.024c1.032.183 1.706.546 2.094.95.411.43.636.872.73 1.253.093.38.132 1.426.117 3.138l-.048 5.681zm-6.839-17.513c1.477 0 1.926.567 1.916 1.922l-.007.929c-.011 1.441-.496 1.803-1.913 1.803h-1.091l.033-4.654h1.063zM86.843 34.962l-.001.055c-.096 3.144-5.3 3.109-.127 7.959l-.173 10.801h-5.292l.162-10.801c5.322-4.85.118-4.815.12-7.959l.001-.055c.054-1.459 1.244-2.629 2.697-2.658 1.452.029 2.608 1.199 2.614 2.658z"/></g></svg>