<svg viewBox="0 0 427 82" style="background-color:#ffffff00" xmlns="http://www.w3.org/2000/svg" width="427" height="82"><defs><linearGradient id="a" x1="49.999%" y1="119.11%" x2="49.999%" y2="19.11%"><stop stop-color="#1f74bb" offset="1%"/><stop stop-color="#28a9e0" offset="99%"/></linearGradient><linearGradient id="b" x1="50.004%" y1="119.11%" x2="50.004%" y2="19.11%"><stop stop-color="#0969a7" offset="1%"/><stop stop-color="#1598c7" offset="99%"/></linearGradient><linearGradient id="c" x1="50.002%" y1="119.11%" x2="50.002%" y2="19.11%"><stop stop-color="#1f74bb" offset="1%"/><stop stop-color="#28a9e0" offset="99%"/></linearGradient><linearGradient id="d" x1="50.004%" y1="119.11%" x2="50.004%" y2="19.11%"><stop stop-color="#0969a7" offset="1%"/><stop stop-color="#1598c7" offset="99%"/></linearGradient><linearGradient id="e" x1="49.998%" y1="119.11%" x2="49.998%" y2="19.11%"><stop stop-color="#1f74bb" offset="1%"/><stop stop-color="#28a9e0" offset="99%"/></linearGradient><clipPath id="f"><path d="M78.11 42.525c-.834-2.312-.625-6.514-1.042-7.144-2.707-3.573-12.29-4.413-16.663-9.246.834-2.311-.834-4.413-2.29-5.884-2.292-1.681-5.624-1.051-8.332-.211-2.917-.63-5.624-1.68-8.332-2.521-6.249-.631-12.498 3.782-12.498 3.782-4.583 2.942-11.456 8.826-14.997 12.397.832 0 1.666-.629 2.707-.629l6.456-1.681c-2.707 2.31-8.332 6.094-9.998 9.246 2.083-.631 6.249-3.152 8.332-3.152-1.873 1.681-5.832 4.622-6.873 6.724.207 0 0 .21 0 .421 1.666-.84 5.415-3.152 7.083-3.363-1.875 1.891-5.207 5.464-5.834 7.985 1.668-1.05 5.417-3.151 7.29-3.783-.415 1.051-1.249 1.682-1.873 2.732-.834 1.26-2.707 2.731-2.707 4.412 1.456-1.26 3.124-2.31 4.79-3.362-.834 1.681-2.083 2.942-2.5 4.833 1.041-1.051 3.332-1.681 4.583-2.102h-.209c-.207 0-1.666 1.261-2.915 2.522 1.041 0 .207-.21 1.459.21h.624l-1.041.631-1.875 1.051c2.707 3.362 6.041 6.304 9.79 8.195 5 2.522 10.415 3.152 15.829 2.731l-.207-1.051c0-.419-.208-.84-.417-1.051 1.875-3.571.834-9.456 5.624-11.766 3.124-1.681 3.541-2.522 7.29-1.892 2.083.421 6.249 1.892 8.332 1.471 1.876-1.05 2.917-1.471 4.583-2.73 2.083.419 2.707.209 3.541-.842-.627 1.051 1.249-3.782 2.083-5.462l.208-1.471z" fill="none"/></clipPath><clipPath id="g"><path d="M78.11 42.525c-.834-2.312-.625-6.514-1.042-7.144-2.707-3.573-12.29-4.413-16.663-9.246.834-2.311-.834-4.413-2.29-5.884-2.292-1.681-5.624-1.051-8.332-.211-2.917-.63-5.624-1.68-8.332-2.521-6.249-.631-12.498 3.782-12.498 3.782-4.583 2.942-11.456 8.826-14.997 12.397.832 0 1.666-.629 2.707-.629l6.456-1.681c-2.707 2.31-8.332 6.094-9.998 9.246 2.083-.631 6.249-3.152 8.332-3.152-1.873 1.681-5.832 4.622-6.873 6.724.207 0 0 .21 0 .421 1.666-.84 5.415-3.152 7.083-3.363-1.875 1.891-5.207 5.464-5.834 7.985 1.668-1.05 5.417-3.151 7.29-3.783-.415 1.051-1.249 1.682-1.873 2.732-.834 1.26-2.707 2.731-2.707 4.412 1.456-1.26 3.124-2.31 4.79-3.362-.834 1.681-2.083 2.942-2.5 4.833 1.041-1.051 3.332-1.681 4.583-2.102h-.209c-.207 0-1.666 1.261-2.915 2.522 1.041 0 .207-.21 1.459.21h.624l-1.041.631-1.875 1.051c2.707 3.362 6.041 6.304 9.79 8.195 5 2.522 10.415 3.152 15.829 2.731l-.207-1.051c0-.419-.208-.84-.417-1.051 1.875-3.571.834-9.456 5.624-11.766 3.124-1.681 3.541-2.522 7.29-1.892 2.083.421 6.249 1.892 8.332 1.471 1.876-1.05 2.917-1.471 4.583-2.73 2.083.419 2.707.209 3.541-.842-.627 1.051 1.249-3.782 2.083-5.462l.208-1.471z" fill="none"/></clipPath><clipPath id="h"><path d="M78.11 42.525c-.834-2.312-.625-6.514-1.042-7.144-2.707-3.573-12.29-4.413-16.663-9.246.834-2.311-.834-4.413-2.29-5.884-2.292-1.681-5.624-1.051-8.332-.211-2.917-.63-5.624-1.68-8.332-2.521-6.249-.631-12.498 3.782-12.498 3.782-4.583 2.942-11.456 8.826-14.997 12.397.832 0 1.666-.629 2.707-.629l6.456-1.681c-2.707 2.31-8.332 6.094-9.998 9.246 2.083-.631 6.249-3.152 8.332-3.152-1.873 1.681-5.832 4.622-6.873 6.724.207 0 0 .21 0 .421 1.666-.84 5.415-3.152 7.083-3.363-1.875 1.891-5.207 5.464-5.834 7.985 1.668-1.05 5.417-3.151 7.29-3.783-.415 1.051-1.249 1.682-1.873 2.732-.834 1.26-2.707 2.731-2.707 4.412 1.456-1.26 3.124-2.31 4.79-3.362-.834 1.681-2.083 2.942-2.5 4.833 1.041-1.051 3.332-1.681 4.583-2.102h-.209c-.207 0-1.666 1.261-2.915 2.522 1.041 0 .207-.21 1.459.21h.624l-1.041.631-1.875 1.051c2.707 3.362 6.041 6.304 9.79 8.195 5 2.522 10.415 3.152 15.829 2.731l-.207-1.051c0-.419-.208-.84-.417-1.051 1.875-3.571.834-9.456 5.624-11.766 3.124-1.681 3.541-2.522 7.29-1.892 2.083.421 6.249 1.892 8.332 1.471 1.876-1.05 2.917-1.471 4.583-2.73 2.083.419 2.707.209 3.541-.842-.627 1.051 1.249-3.782 2.083-5.462l.208-1.471z" fill="none"/></clipPath><clipPath id="i"><path d="M78.11 42.525c-.834-2.312-.625-6.514-1.042-7.144-2.707-3.573-12.29-4.413-16.663-9.246.834-2.311-.834-4.413-2.29-5.884-2.292-1.681-5.624-1.051-8.332-.211-2.917-.63-5.624-1.68-8.332-2.521-6.249-.631-12.498 3.782-12.498 3.782-4.583 2.942-11.456 8.826-14.997 12.397.832 0 1.666-.629 2.707-.629l6.456-1.681c-2.707 2.31-8.332 6.094-9.998 9.246 2.083-.631 6.249-3.152 8.332-3.152-1.873 1.681-5.832 4.622-6.873 6.724.207 0 0 .21 0 .421 1.666-.84 5.415-3.152 7.083-3.363-1.875 1.891-5.207 5.464-5.834 7.985 1.668-1.05 5.417-3.151 7.29-3.783-.415 1.051-1.249 1.682-1.873 2.732-.834 1.26-2.707 2.731-2.707 4.412 1.456-1.26 3.124-2.31 4.79-3.362-.834 1.681-2.083 2.942-2.5 4.833 1.041-1.051 3.332-1.681 4.583-2.102h-.209c-.207 0-1.666 1.261-2.915 2.522 1.041 0 .207-.21 1.459.21h.624l-1.041.631-1.875 1.051c2.707 3.362 6.041 6.304 9.79 8.195 5 2.522 10.415 3.152 15.829 2.731l-.207-1.051c0-.419-.208-.84-.417-1.051 1.875-3.571.834-9.456 5.624-11.766 3.124-1.681 3.541-2.522 7.29-1.892 2.083.421 6.249 1.892 8.332 1.471 1.876-1.05 2.917-1.471 4.583-2.73 2.083.419 2.707.209 3.541-.842-.627 1.051 1.249-3.782 2.083-5.462l.208-1.471z" fill="none"/></clipPath><clipPath id="j"><path d="M78.11 42.525c-.834-2.312-.625-6.514-1.042-7.144-2.707-3.573-12.29-4.413-16.663-9.246.834-2.311-.834-4.413-2.29-5.884-2.292-1.681-5.624-1.051-8.332-.211-2.917-.63-5.624-1.68-8.332-2.521-6.249-.631-12.498 3.782-12.498 3.782-4.583 2.942-11.456 8.826-14.997 12.397.832 0 1.666-.629 2.707-.629l6.456-1.681c-2.707 2.31-8.332 6.094-9.998 9.246 2.083-.631 6.249-3.152 8.332-3.152-1.873 1.681-5.832 4.622-6.873 6.724.207 0 0 .21 0 .421 1.666-.84 5.415-3.152 7.083-3.363-1.875 1.891-5.207 5.464-5.834 7.985 1.668-1.05 5.417-3.151 7.29-3.783-.415 1.051-1.249 1.682-1.873 2.732-.834 1.26-2.707 2.731-2.707 4.412 1.456-1.26 3.124-2.31 4.79-3.362-.834 1.681-2.083 2.942-2.5 4.833 1.041-1.051 3.332-1.681 4.583-2.102h-.209c-.207 0-1.666 1.261-2.915 2.522 1.041 0 .207-.21 1.459.21h.624l-1.041.631-1.875 1.051c2.707 3.362 6.041 6.304 9.79 8.195 5 2.522 10.415 3.152 15.829 2.731l-.207-1.051c0-.419-.208-.84-.417-1.051 1.875-3.571.834-9.456 5.624-11.766 3.124-1.681 3.541-2.522 7.29-1.892 2.083.421 6.249 1.892 8.332 1.471 1.876-1.05 2.917-1.471 4.583-2.73 2.083.419 2.707.209 3.541-.842-.627 1.051 1.249-3.782 2.083-5.462l.208-1.471z" fill="none"/></clipPath></defs><g><g fill="#4d4e53"><path d="M310.981 21.723l-4.166 8.405h-2.083l-4.166-8.405v9.875h-3.332v-15.759h4.583l3.956 8.615 3.958-8.615h4.583v15.55h-3.334v-9.666zM330.561 29.288c-1.459 1.47-3.541 2.31-5.832 2.31-2.293 0-4.166-.84-5.834-2.31-1.456-1.471-2.29-3.362-2.29-5.674 0-2.312.834-4.203 2.29-5.674 1.459-1.47 3.541-2.311 5.834-2.311 2.29 0 4.166.84 5.832 2.311 1.459 1.471 2.29 3.362 2.29 5.674 0 2.101-.624 4.203-2.29 5.674zm-1.251-5.674c0-1.471-.415-2.521-1.249-3.573-.834-1.05-1.875-1.47-3.332-1.47-1.251 0-2.293.42-3.334 1.47-.832 1.051-1.249 2.102-1.249 3.573s.417 2.522 1.249 3.573c.834 1.051 1.875 1.47 3.334 1.47 1.456 0 2.29-.419 3.332-1.47.834-1.051 1.249-2.311 1.249-3.573zM333.893 31.389v-2.311l8.124-10.087h-7.915v-3.152h12.498v2.312l-8.124 10.087h8.124v2.941l-12.707.21zM349.098 15.839h3.334v15.55h-3.334v-15.55zM355.764 31.389v-15.55h3.334v12.398h6.456v3.151h-9.79zM367.22 31.389v-15.55h3.334v12.398h6.456v3.151h-9.79zM391.173 31.389l-1.458-3.362h-6.456l-1.459 3.362h-3.749l6.666-15.55h3.332l6.666 15.55h-3.541zm-4.583-10.927l-1.874 4.413h3.749l-1.875-4.413zM308.898 37.062c1.459 1.261 2.292 3.151 2.292 5.674 0 2.311-.626 4.413-2.083 5.673-1.458 1.471-3.541 2.101-6.458 2.101h-5.207v-15.549h5.417c2.498 0 4.581.631 6.039 2.102zm-2.5 9.456c.834-.84 1.251-1.891 1.251-3.572 0-1.471-.417-2.732-1.251-3.573-.832-.84-2.083-1.26-3.956-1.26h-1.875v9.456h2.083c1.666 0 2.917-.211 3.749-1.051zM324.729 34.96v3.152h-7.707v3.151h6.873v2.942h-6.873v3.151h7.915v3.152h-11.249v-15.549h11.041zM333.476 45.047l3.958-9.876h3.749l-6.249 15.549h-2.915l-6.249-15.549h3.749l3.956 9.876zM353.473 34.96v3.152h-7.707v3.151h6.873v2.942h-6.873v3.151h7.915v3.152h-11.247v-15.549h11.039zM356.18 50.72v-15.549h3.332v12.397h6.458v3.152h-9.79zM380.759 48.619c-1.458 1.471-3.541 2.312-5.832 2.312-2.29 0-4.166-.84-5.832-2.312-1.458-1.47-2.292-3.362-2.292-5.673s.834-4.202 2.292-5.674c1.458-1.471 3.541-2.312 5.832-2.312 2.29 0 4.166.84 5.832 2.312 1.458 1.472 2.292 3.362 2.292 5.674 0 2.101-.834 4.203-2.292 5.673zm-1.458-5.883c0-1.472-.415-2.522-1.249-3.573-.834-1.05-1.875-1.47-3.332-1.47-1.251 0-2.293.42-3.334 1.47-.832 1.05-1.249 2.101-1.249 3.573 0 1.47.417 2.521 1.249 3.571.834 1.05 1.875 1.471 3.334 1.471 1.249 0 2.29-.421 3.332-1.471.834-.84 1.249-2.101 1.249-3.571zM395.964 36.432c1.041.84 1.668 2.312 1.668 4.203 0 1.891-.627 3.362-1.668 4.203-1.041.84-2.707 1.261-4.998 1.261h-2.083v4.412h-3.334v-15.549h5.417c2.083 0 3.956.421 4.998 1.471zm-2.498 6.094c.415-.421.624-1.051.624-2.101 0-1.051-.21-1.471-.834-1.891-.624-.42-1.458-.631-2.5-.631h-1.873v5.253h2.29c1.041 0 1.875-.209 2.293-.63zM410.544 34.96v3.152h-7.498v3.151h6.873v2.942h-6.873v3.151h7.915v3.152h-11.247v-15.549h10.829zM425.959 40.213c0 2.522-1.041 3.993-2.917 4.834l3.958 5.463h-4.166l-3.332-5.043h-2.293v5.043h-3.749v-15.549h5.832c2.292 0 4.166.421 5.207 1.261 1.041.84 1.458 2.101 1.458 3.992zm-4.166 1.682c.417-.421.624-1.051.624-1.892 0-.84-.207-1.47-.624-1.681-.417-.21-1.249-.421-2.29-.421h-2.5v4.623h2.5c1.041 0 1.873-.21 2.29-.63zM308.066 54.292h3.332v15.549h-3.332l-7.29-9.666v9.666h-3.334v-15.549h3.124l7.5 10.085v-10.085zM325.771 54.292v3.152h-7.707v3.151h6.873v2.942h-6.873v3.152h7.915v3.152h-11.249v-15.549h11.041zM334.934 57.234v12.608h-3.332v-12.608h-4.375v-2.941h12.083v2.941h-4.375zM346.807 63.328l2.707-8.825h3.541l2.707 8.825 3.124-8.825h3.749l-5.415 15.549h-2.5l-3.332-10.716-3.334 10.716h-2.498l-5.417-15.549h3.749l2.917 8.825zM376.176 67.741c-1.456 1.471-3.539 2.311-5.832 2.311-2.29 0-4.166-.84-5.832-2.311-1.458-1.472-2.29-3.363-2.29-5.674 0-2.311.832-4.203 2.29-5.673 1.458-1.472 3.541-2.311 5.832-2.311 2.292 0 4.166.84 5.832 2.311 1.458 1.47 2.292 3.362 2.292 5.673 0 2.101-.624 4.202-2.292 5.674zm-1.041-5.674c0-1.471-.415-2.521-1.249-3.572-.834-1.05-1.875-1.471-3.332-1.471-1.251 0-2.292.421-3.334 1.471-.832 1.051-1.249 2.101-1.249 3.572s.417 2.522 1.249 3.572c.834 1.051 1.875 1.471 3.334 1.471 1.456 0 2.29-.421 3.332-1.471.834-1.05 1.249-2.312 1.249-3.572zM393.466 59.546c0 2.521-1.042 3.992-2.917 4.832l3.958 5.464h-4.166l-3.334-5.043h-2.29v5.043h-3.334v-15.549h5.834c2.29 0 4.166.42 5.207 1.261.625.84 1.042 2.101 1.042 3.992zm-4.166 1.681c.415-.42.625-1.051.625-1.891 0-.84-.209-1.471-.625-1.681-.417-.21-1.251-.421-2.292-.421h-2.5v4.623h2.5c1.251 0 1.875-.21 2.292-.631zM396.381 54.292h3.334v6.304l5.832-6.304h4.166l-6.041 6.934c.624.84 1.458 2.101 2.917 4.203 1.458 2.101 2.5 3.572 3.124 4.623h-3.958l-4.583-6.093-1.456 1.68v4.413h-3.334v-15.759z"/></g><path d="M68.32.71v-.21.21l-.207-.21v.21l-22.495 9.036-22.912-9.036v-.42.21.21l-22.705 9.036v71.863l22.705-8.826 22.912 8.826 22.703-8.826 22.705 8.826v-71.863l-22.705-9.036z" fill="url(#a)"/><path d="M0 9.746v71.863l22.705-8.826v-72.283l-22.705 9.246z" fill="url(#b)"/><path d="M45.617 9.746v71.863l-22.912-8.826v-72.283l22.912 9.246z" fill="url(#c)"/><path d="M45.617 9.746v71.863l22.703-8.826v-72.283l-22.703 9.246z" fill="url(#d)"/><path d="M91.024 9.746v71.863l-22.912-8.826v-72.283l22.912 9.246z" fill="url(#e)"/><path d="M78.11 42.525c-.834-2.312-.625-6.514-1.042-7.144-2.707-3.573-12.29-4.413-16.663-9.246.834-2.311-.834-4.413-2.29-5.884-2.292-1.681-5.624-1.051-8.332-.211-2.917-.63-5.624-1.68-8.332-2.521-6.249-.631-12.498 3.782-12.498 3.782-4.583 2.942-11.456 8.826-14.997 12.397.832 0 1.666-.629 2.707-.629l6.456-1.681c-2.707 2.31-8.332 6.094-9.998 9.246 2.083-.631 6.249-3.152 8.332-3.152-1.873 1.681-5.832 4.622-6.873 6.724.207 0 0 .21 0 .421 1.666-.84 5.415-3.152 7.083-3.363-1.875 1.891-5.207 5.464-5.834 7.985 1.668-1.05 5.417-3.151 7.29-3.783-.415 1.051-1.249 1.682-1.873 2.732-.834 1.26-2.707 2.731-2.707 4.412 1.456-1.26 3.124-2.31 4.79-3.362-.834 1.681-2.083 2.942-2.5 4.833 1.041-1.051 3.332-1.681 4.583-2.102h-.209c-.207 0-1.666 1.261-2.915 2.522 1.041 0 .207-.21 1.459.21h.624l-1.041.631-1.875 1.051c2.707 3.362 6.041 6.304 9.79 8.195 5 2.522 10.415 3.152 15.829 2.731l-.207-1.051c0-.419-.208-.84-.417-1.051 1.875-3.571.834-9.456 5.624-11.766 3.124-1.681 3.541-2.522 7.29-1.892 2.083.421 6.249 1.892 8.332 1.471 1.876-1.05 2.917-1.471 4.583-2.73 2.083.419 2.707.209 3.541-.842-.627 1.051 1.249-3.782 2.083-5.462l.208-1.471z" fill="none"/><path d="M45.617 13.948c23.238 0 42.073 12.888 42.073 28.788 0 15.899-18.836 28.787-42.073 28.787-23.238 0-42.075-12.888-42.075-28.787s18.838-28.788 42.075-28.788z" fill="#fff" clip-path="url(#f)"/><path d="M78.11 42.525c-.834-2.312-.625-6.514-1.042-7.144-2.707-3.573-12.29-4.413-16.663-9.246.834-2.311-.834-4.413-2.29-5.884-2.292-1.681-5.624-1.051-8.332-.211-2.917-.63-5.624-1.68-8.332-2.521-6.249-.631-12.498 3.782-12.498 3.782-4.583 2.942-11.456 8.826-14.997 12.397.832 0 1.666-.629 2.707-.629l6.456-1.681c-2.707 2.31-8.332 6.094-9.998 9.246 2.083-.631 6.249-3.152 8.332-3.152-1.873 1.681-5.832 4.622-6.873 6.724.207 0 0 .21 0 .421 1.666-.84 5.415-3.152 7.083-3.363-1.875 1.891-5.207 5.464-5.834 7.985 1.668-1.05 5.417-3.151 7.29-3.783-.415 1.051-1.249 1.682-1.873 2.732-.834 1.26-2.707 2.731-2.707 4.412 1.456-1.26 3.124-2.31 4.79-3.362-.834 1.681-2.083 2.942-2.5 4.833 1.041-1.051 3.332-1.681 4.583-2.102h-.209c-.207 0-1.666 1.261-2.915 2.522 1.041 0 .207-.21 1.459.21h.624l-1.041.631-1.875 1.051c2.707 3.362 6.041 6.304 9.79 8.195 5 2.522 10.415 3.152 15.829 2.731l-.207-1.051c0-.419-.208-.84-.417-1.051 1.875-3.571.834-9.456 5.624-11.766 3.124-1.681 3.541-2.522 7.29-1.892 2.083.421 6.249 1.892 8.332 1.471 1.876-1.05 2.917-1.471 4.583-2.73 2.083.419 2.707.209 3.541-.842-.627 1.051 1.249-3.782 2.083-5.462l.208-1.471z" fill="none"/><path d="M.625 11.217v72.283l22.495-8.826v-72.703l-22.495 9.246z" fill="#f1f1f1" clip-path="url(#g)"/><path d="M78.11 42.525c-.834-2.312-.625-6.514-1.042-7.144-2.707-3.573-12.29-4.413-16.663-9.246.834-2.311-.834-4.413-2.29-5.884-2.292-1.681-5.624-1.051-8.332-.211-2.917-.63-5.624-1.68-8.332-2.521-6.249-.631-12.498 3.782-12.498 3.782-4.583 2.942-11.456 8.826-14.997 12.397.832 0 1.666-.629 2.707-.629l6.456-1.681c-2.707 2.31-8.332 6.094-9.998 9.246 2.083-.631 6.249-3.152 8.332-3.152-1.873 1.681-5.832 4.622-6.873 6.724.207 0 0 .21 0 .421 1.666-.84 5.415-3.152 7.083-3.363-1.875 1.891-5.207 5.464-5.834 7.985 1.668-1.05 5.417-3.151 7.29-3.783-.415 1.051-1.249 1.682-1.873 2.732-.834 1.26-2.707 2.731-2.707 4.412 1.456-1.26 3.124-2.31 4.79-3.362-.834 1.681-2.083 2.942-2.5 4.833 1.041-1.051 3.332-1.681 4.583-2.102h-.209c-.207 0-1.666 1.261-2.915 2.522 1.041 0 .207-.21 1.459.21h.624l-1.041.631-1.875 1.051c2.707 3.362 6.041 6.304 9.79 8.195 5 2.522 10.415 3.152 15.829 2.731l-.207-1.051c0-.419-.208-.84-.417-1.051 1.875-3.571.834-9.456 5.624-11.766 3.124-1.681 3.541-2.522 7.29-1.892 2.083.421 6.249 1.892 8.332 1.471 1.876-1.05 2.917-1.471 4.583-2.73 2.083.419 2.707.209 3.541-.842-.627 1.051 1.249-3.782 2.083-5.462l.208-1.471z" fill="none"/><path d="M45.824 11.217v72.283l-22.705-8.826v-72.703l22.705 9.246z" fill="#fff" clip-path="url(#h)"/><path d="M78.11 42.525c-.834-2.312-.625-6.514-1.042-7.144-2.707-3.573-12.29-4.413-16.663-9.246.834-2.311-.834-4.413-2.29-5.884-2.292-1.681-5.624-1.051-8.332-.211-2.917-.63-5.624-1.68-8.332-2.521-6.249-.631-12.498 3.782-12.498 3.782-4.583 2.942-11.456 8.826-14.997 12.397.832 0 1.666-.629 2.707-.629l6.456-1.681c-2.707 2.31-8.332 6.094-9.998 9.246 2.083-.631 6.249-3.152 8.332-3.152-1.873 1.681-5.832 4.622-6.873 6.724.207 0 0 .21 0 .421 1.666-.84 5.415-3.152 7.083-3.363-1.875 1.891-5.207 5.464-5.834 7.985 1.668-1.05 5.417-3.151 7.29-3.783-.415 1.051-1.249 1.682-1.873 2.732-.834 1.26-2.707 2.731-2.707 4.412 1.456-1.26 3.124-2.31 4.79-3.362-.834 1.681-2.083 2.942-2.5 4.833 1.041-1.051 3.332-1.681 4.583-2.102h-.209c-.207 0-1.666 1.261-2.915 2.522 1.041 0 .207-.21 1.459.21h.624l-1.041.631-1.875 1.051c2.707 3.362 6.041 6.304 9.79 8.195 5 2.522 10.415 3.152 15.829 2.731l-.207-1.051c0-.419-.208-.84-.417-1.051 1.875-3.571.834-9.456 5.624-11.766 3.124-1.681 3.541-2.522 7.29-1.892 2.083.421 6.249 1.892 8.332 1.471 1.876-1.05 2.917-1.471 4.583-2.73 2.083.419 2.707.209 3.541-.842-.627 1.051 1.249-3.782 2.083-5.462l.208-1.471z" fill="none"/><path d="M45.617 11.217v72.283l22.703-8.826v-72.703l-22.703 9.246z" fill="#f1f1f1" clip-path="url(#i)"/><path d="M78.11 42.525c-.834-2.312-.625-6.514-1.042-7.144-2.707-3.573-12.29-4.413-16.663-9.246.834-2.311-.834-4.413-2.29-5.884-2.292-1.681-5.624-1.051-8.332-.211-2.917-.63-5.624-1.68-8.332-2.521-6.249-.631-12.498 3.782-12.498 3.782-4.583 2.942-11.456 8.826-14.997 12.397.832 0 1.666-.629 2.707-.629l6.456-1.681c-2.707 2.31-8.332 6.094-9.998 9.246 2.083-.631 6.249-3.152 8.332-3.152-1.873 1.681-5.832 4.622-6.873 6.724.207 0 0 .21 0 .421 1.666-.84 5.415-3.152 7.083-3.363-1.875 1.891-5.207 5.464-5.834 7.985 1.668-1.05 5.417-3.151 7.29-3.783-.415 1.051-1.249 1.682-1.873 2.732-.834 1.26-2.707 2.731-2.707 4.412 1.456-1.26 3.124-2.31 4.79-3.362-.834 1.681-2.083 2.942-2.5 4.833 1.041-1.051 3.332-1.681 4.583-2.102h-.209c-.207 0-1.666 1.261-2.915 2.522 1.041 0 .207-.21 1.459.21h.624l-1.041.631-1.875 1.051c2.707 3.362 6.041 6.304 9.79 8.195 5 2.522 10.415 3.152 15.829 2.731l-.207-1.051c0-.419-.208-.84-.417-1.051 1.875-3.571.834-9.456 5.624-11.766 3.124-1.681 3.541-2.522 7.29-1.892 2.083.421 6.249 1.892 8.332 1.471 1.876-1.05 2.917-1.471 4.583-2.73 2.083.419 2.707.209 3.541-.842-.627 1.051 1.249-3.782 2.083-5.462l.208-1.471z" fill="none"/><path d="M90.607 11.217v72.283l-22.495-8.826v-72.703l22.495 9.246z" fill="#fff" clip-path="url(#j)"/><g fill="#4d4e53"><path d="M156.012 35.801l-14.373 29.417h-7.083l-14.163-29.207v33.621h-12.081v-53.582h16.039l13.746 29.418 13.749-29.418h15.829v53.582h-11.873v-33.831h.21zM216.207 22.984c5 4.622 7.5 11.136 7.5 19.541 0 8.405-2.5 14.919-7.29 19.752-5 4.834-12.498 7.355-22.497 7.355h-18.12v-53.582h18.746c9.164 0 16.663 2.312 21.661 6.935zm-8.956 32.149c2.917-2.731 4.373-6.724 4.373-11.978 0-5.253-1.456-9.245-4.373-12.186-2.917-2.732-7.29-4.203-13.332-4.203h-6.664v32.359h7.498c5.415 0 9.581-1.261 12.498-3.992zM267.656 16.049h11.873v53.582h-11.873l-25.203-33.41v33.41h-11.873v-53.582h11.039l26.037 34.46v-34.46z"/></g></g></svg>