<svg viewBox="0 0 182 82" style="background-color:#ffffff00" xmlns="http://www.w3.org/2000/svg" width="182" height="82"><g><path d="M82.657 42.216v15.196h15.239v-15.196h-15.238000000000001zM103.701 0v13.225l-7.812 7.791v.002h-13.233v13.223l-7.993 7.971h-13.052v15.197h15.238v-12.794l8.248-8.224h12.799v-12.791l8.32-8.298h12.722v-.104h.003v-12.586h-.003v-2.61h-15.237zM103.701 42.216v15.196h15.24v-15.196h-15.239zM103.701 21.07v15.198h15.24v-15.198h-15.239z" fill="#f3792f"/><g fill="#fff"><path d="M4.403 70.328c-.31.254-.464.59-.464 1.009 0 .418.19.75.567.997.378.246 1.251.539 2.619.874 1.367.336 2.43.84 3.186 1.512.756.672 1.133 1.653 1.133 2.94 0 1.289-.484 2.336-1.454 3.137-.969.802-2.244 1.203-3.825 1.203-2.282 0-4.338-.844-6.166-2.529l1.917-2.345c1.553 1.357 2.991 2.037 4.309 2.037.591 0 1.056-.128 1.393-.382.337-.254.506-.595.506-1.028 0-.43-.179-.773-.537-1.028-.356-.254-1.065-.511-2.123-.773-1.678-.396-2.905-.914-3.681-1.552-.777-.637-1.165-1.638-1.165-3.002 0-1.366.492-2.417 1.475-3.158.982-.74 2.21-1.11 3.68-1.11.963 0 1.925.163 2.887.494.963.329 1.801.795 2.515 1.399l-1.63 2.344c-1.251-.948-2.543-1.421-3.876-1.421-.536-.001-.958.128-1.268.381zM21.838 78.998c1.581 0 2.873-.624 3.877-1.871l2.062 2.117c-1.636 1.837-3.564 2.756-5.784 2.756-2.221 0-4.049-.699-5.486-2.098-1.437-1.398-2.155-3.164-2.155-5.295 0-2.132.732-3.911 2.196-5.337 1.465-1.426 3.255-2.14 5.372-2.14 2.364 0 4.344.899 5.939 2.695l-2 2.263c-1.018-1.262-2.282-1.891-3.794-1.891-1.21 0-2.244.394-3.104 1.181-.86.79-1.289 1.852-1.289 3.189 0 1.336.406 2.41 1.217 3.218.811.809 1.794 1.213 2.95 1.213zM41.51 81.835l-1.34-3.106h-6.042l-1.34 3.106h-3.423l6.228-14.377h3.114l6.227 14.377h-3.424zm-4.351-10.099l-1.815 4.176h3.609l-1.794-4.176zM47.634 81.835v-14.376h3.217v11.517h6.145v2.859l-9.362.001zM70.647 81.835l-1.34-3.106h-6.042l-1.34 3.106h-3.423l6.228-14.377h3.114l6.226 14.377h-3.423zm-4.35-10.099l-1.815 4.176h3.609l-1.794-4.176zM83.083 81.835h-6.311v-14.377h5.609c.976 0 1.818.117 2.526.351.708.234 1.24.548 1.598.945.646.742.97 1.578.97 2.509 0 1.125-.365 1.961-1.094 2.511-.247.191-.418.31-.514.359l-.516.236c.893.192 1.605.593 2.134 1.203.53.61.794 1.368.794 2.273 0 1-.344 1.884-1.03 2.653-.799.892-2.187 1.337-4.166 1.337zm-3.093-8.556h1.526c.894 0 1.557-.095 1.99-.289.434-.192.648-.606.648-1.243 0-.637-.198-1.059-.597-1.266-.399-.205-1.072-.309-2.022-.309h-1.545l-.001 3.106zm0 5.84h2.206c.921 0 1.612-.112 2.073-.339.46-.226.691-.672.691-1.336s-.245-1.103-.733-1.316c-.487-.212-1.267-.319-2.34-.319h-1.897v3.31h.001zM92.011 81.835v-14.376h3.217v11.517h6.145v2.859l-9.362.001zM115.148 67.458v2.86h-7.177v2.961h6.454v2.735h-6.454v2.983h7.402v2.837h-10.62v-14.377h10.394zM136.706 68.744c1.011.858 1.516 2.175 1.516 3.949 0 1.777-.518 3.075-1.556 3.898-1.038.822-2.623 1.234-4.755 1.234h-1.917v4.01h-3.216v-14.376h5.093c2.214 0 3.825.429 4.835 1.285zm-2.36 5.657c.384-.431.576-1.062.576-1.892 0-.83-.251-1.419-.752-1.77-.501-.349-1.282-.523-2.342-.523h-1.834v4.832h2.166c1.072 0 1.8-.215 2.186-.647zM151.193 81.835l-1.341-3.106h-6.041l-1.341 3.106h-3.423l6.226-14.377h3.115l6.228 14.377h-3.423zm-4.352-10.099l-1.815 4.176h3.609l-1.795-4.176zM162.371 70.236v11.6h-3.217v-11.6h-4.085v-2.778h11.383v2.778h-4.082zM178.783 67.458h3.217v14.377h-3.217v-5.656h-5.732v5.656h-3.216v-14.377h3.216v6.007h5.732v-6.007z"/></g></g></svg>