<svg viewBox="0 0 277 88" style="background-color:#ffffff00" xmlns="http://www.w3.org/2000/svg" width="277" height="88"><g><g fill="#fff"><path d="M25.68 57.185c0-.633-.455-.949-1.366-.949h-.9v1.893h.9c.911 0 1.366-.315 1.366-.944zm-.36-3.076c0-.356-.116-.592-.349-.71-.233-.117-.597-.176-1.09-.176h-.466v1.77h.477c.505 0 .868-.058 1.091-.176.226-.117.339-.353.339-.708zm2.584 3.167c0 .636-.217 1.145-.651 1.525-.43.38-1.034.571-1.81.571h-4.241v-7.39h3.547c.459 0 .858.044 1.197.134.342.089.618.211.826.367.208.153.364.335.466.544.102.21.153.439.153.688 0 .27-.053.52-.159.751-.106.228-.238.416-.397.565-.155.146-.313.249-.471.309.501.199.882.451 1.143.757.265.302.397.696.397 1.179zM33.748 54.236l-.704 1.924c-.289-.277-.582-.415-.879-.415-.268 0-.501.092-.698.277-.195.181-.381.519-.561 1.013v2.336h-1.906v-5.428h1.906v1.311c.12-.324.332-.638.635-.943.303-.309.66-.464 1.069-.464.215 0 .402.032.561.096.162.064.355.162.577.293zM37.144 58.059v-1.285c-.452.185-.782.352-.99.501-.208.145-.312.345-.312.597 0 .181.051.32.153.416.106.095.228.143.365.143.131 0 .26-.035.386-.106.131-.075.263-.164.397-.267zm2.652 1.04c-.279.11-.537.199-.773.266-.237.068-.521.101-.852.101-.314 0-.533-.055-.657-.165-.123-.113-.212-.25-.265-.411-.205.167-.432.305-.683.416-.251.107-.579.16-.985.16-.392 0-.709-.068-.953-.203-.24-.138-.41-.31-.508-.517-.095-.21-.143-.425-.143-.645 0-.335.083-.609.249-.827.169-.22.395-.4.678-.539.282-.138.656-.282 1.122-.432l.598-.192.307-.107.212-.096c0-.263-.053-.47-.159-.619-.106-.149-.335-.224-.688-.224-.416 0-.803.093-1.159.277-.357.185-.683.423-.98.715v-1.471c.236-.171.492-.31.767-.416.276-.111.563-.192.863-.246.3-.053.603-.079.911-.079.78 0 1.366.153 1.757.458.395.302.593.72.593 1.253v2.094c0 .2.018.349.053.448.039.096.108.144.206.144.12 0 .282-.051.487-.154v1.008zM44.609 57.787c0 .498-.182.903-.545 1.216-.36.309-.896.463-1.609.463-.399 0-.754-.035-1.064-.106-.311-.074-.65-.18-1.016-.315v-1.365c.321.185.6.325.836.421.236.095.496.143.778.143.477 0 .715-.131.715-.394 0-.089-.035-.167-.106-.235-.067-.071-.187-.149-.36-.235-.169-.089-.397-.193-.683-.315-.353-.156-.653-.366-.9-.629s-.371-.584-.371-.965c0-.27.081-.529.244-.779.166-.248.415-.451.747-.608.332-.16.732-.239 1.202-.239l.429.026c.176.014.397.055.661.123.268.067.523.163.763.288v1.328l-.286-.171-.302-.154c-.127-.057-.277-.107-.45-.149-.169-.046-.344-.069-.524-.069-.219 0-.369.043-.45.128-.081.086-.121.171-.121.256 0 .089.042.172.127.25.085.075.274.169.567.283.423.163.762.332 1.017.506.254.17.434.359.54.565.11.206.164.45.164.73zM47.648 59.371h-1.911v-5.428h1.911v5.428zm-.153-6.681c0 .224-.08.414-.239.57-.159.157-.348.235-.566.235-.148 0-.284-.035-.408-.106-.12-.071-.215-.167-.286-.288-.071-.124-.106-.261-.106-.41 0-.22.078-.41.233-.571.155-.16.344-.239.567-.239.218 0 .408.079.566.239.159.16.239.351.239.571zM50.967 59.371h-1.912v-7.39h1.912v7.39zM64.822 8.171l.733 4.485-2.593 4.997s-.996-2.12-2.65-3.293c-1.393-.989-2.301-1.204-3.721-.909-1.823.379-3.89 2.574-4.792 5.28-1.08 3.238-1.09 4.806-1.127 6.245-.06 2.308.301 3.672.301 3.672s-1.574-2.933-1.56-7.23c.01-3.066.488-5.847 1.898-8.591 1.24-2.413 3.082-3.861 4.717-4.031 1.69-.176 3.027.645 4.059 1.533 1.084.932 2.18 2.971 2.18 2.971l2.555-5.128zM65.142 33.549s-1.147 2.063-1.861 2.857c-.714.795-1.992 2.195-3.571 2.896-1.578.699-2.406.833-3.965.681-1.558-.151-3.007-1.06-3.514-1.439-.507-.378-1.804-1.495-2.537-2.535-.733-1.041-1.879-3.123-1.879-3.123s.639 2.086 1.038 2.972c.23.508.937 2.067 1.94 3.425.936 1.266 2.753 3.445 5.516 3.936 2.762.493 4.66-.757 5.13-1.059.47-.302 1.459-1.137 2.086-1.812.654-.705 1.273-1.603 1.616-2.142.251-.394.658-1.192.658-1.192l-.657-3.463zM17.443 8.369l6.245 21.384 6.245-21.384h4.522l-10.336 35.133h-.431l-6.46-21.773-6.461 21.773h-.43l-10.336-35.133h4.522l6.245 21.384 4.221-14.401-2.067-6.983h4.522zM47.296 32.224c0 3.181-.84 5.856-2.52 8.025-1.68 2.168-3.855 3.252-6.525 3.252-2.011 0-3.762-.644-5.255-1.93-1.493-1.287-2.599-3.028-3.316-5.226l3.532-1.474c.518 1.33 1.199 2.378 2.047 3.144.847.766 1.844 1.149 2.993 1.149 1.206 0 2.225-.679 3.058-2.038.833-1.359 1.249-2.993 1.249-4.901 0-2.112-.445-3.744-1.335-4.901-1.034-1.359-2.657-2.038-4.867-2.038h-1.722v-2.082l6.03-10.497h-7.279l-2.024 3.47h-1.292v-7.807h16.797v2.126l-6.375 11.059c2.24.724 3.934 2.04 5.082 3.949 1.148 1.908 1.724 4.148 1.724 6.722zM69.428 9.211c.446 0 .65.125.65.436 0 .299-.204.405-.638.405h-.402v-.842h.39zm.087-.312h-.953v2.544h.476v-1.085h.47l.513 1.085h.533l-.563-1.16c.365-.074.576-.324.576-.685 0-.461-.347-.699-1.052-.699zm1.876 1.334c0 .518-.198.998-.564 1.353-.384.375-.861.573-1.386.573-.495 0-.984-.205-1.349-.58-.365-.374-.57-.854-.57-1.365s.21-1.01.588-1.396c.352-.362.829-.555 1.349-.555.532 0 1.009.199 1.38.58.359.361.551.847.551 1.389zm-1.937-2.262c-.601 0-1.139.218-1.548.636-.433.443-.674 1.015-.674 1.608 0 .593.229 1.141.65 1.571.427.436.977.673 1.572.673.582 0 1.145-.237 1.584-.667.421-.412.65-.96.65-1.577 0-.599-.235-1.159-.644-1.577-.427-.437-.985-.667-1.591-.667z"/></g><path d="M259.336 35.742v2.013c0 .65-.214 1.179-.64 1.585-.543.528-1.238.732-2.089.609-.746-.117-1.613-.659-2.206-1.65v-21.761c.697-.936 1.431-1.463 2.206-1.587.851-.123 1.547.081 2.089.611.426.407.64.935.64 1.585v18.595zm2.848-25.04c-.879-.606-1.976-.91-3.293-.91-1.876 0-3.372.703-4.49 2.11v-10.6h-5.243v30.137c-.042.869-.383 1.647-1.342 1.913-2.788.431-4.922 2.855-4.922 5.782 0 3.234 2.601 5.854 5.812 5.854 1.436 0 2.75-.526 3.764-1.396l.003.003.049-.049c.145-.127.282-.26.414-.4.201-.17.433-.306.708-.306.352 0 .608.063.899.321 1.136 1.287 2.585 1.933 4.346 1.933l.208-.011c1.247-.023 2.297-.321 3.141-.903.88-.607 1.489-1.286 1.829-2.036.324-.712.49-1.917.506-3.6l.005-.243v-21.716c0-1.82-.18-3.104-.54-3.851-.36-.748-.978-1.426-1.855-2.032zm10.282 1.149v-1.854h-5.184v34.798h5.184v-28.317c.756-.932 1.53-1.46 2.326-1.583.874-.122 1.611.081 2.208.609v-5.834c-1.869 0-3.38.728-4.534 2.181z" fill="#67b82d"/><path d="M212.198 37.294c0 2.166-.746 4.013-2.236 5.542-1.49 1.529-3.304 2.292-5.438 2.292-2.135 0-3.979-.757-5.528-2.273-1.553-1.513-2.327-3.343-2.327-5.484v-19.702c0-2.142.758-3.97 2.274-5.484 1.516-1.514 3.347-2.276 5.49-2.276 2.144 0 3.974.761 5.49 2.276 1.515 1.515 2.275 3.342 2.275 5.484v12.304h-5.216v-12.489c0-.69-.251-1.291-.75-1.798-.499-.508-1.088-.761-1.769-.761-.719 0-1.33.255-1.83.763-.5.504-.749 1.106-.749 1.797v20.069c0 .694.249 1.293.749 1.8.5.506 1.111.761 1.83.761.681 0 1.27-.262 1.769-.785.499-.525.75-1.143.75-1.859v-2.011h5.216v1.834zM225.702 10.639l.013-.008v.003l-.013.005zm.013 26.418c-.761.936-1.541 1.463-2.339 1.583-.88.125-1.599-.08-2.159-.607-.4-.408-.6-.934-.6-1.584v-20.580000000000002c0-.648.248-1.207.748-1.675.5-.466 1.189-.638 2.071-.518.797.123 1.558.651 2.279 1.585v21.795zm0-28.345v1.917c-1.16-1.417-2.681-2.124-4.558-2.124-1.318 0-2.419.302-3.299.908-.879.608-1.489 1.285-1.829 2.036-.339.744-.507 2.022-.509 3.824l-.001.001v21.737c0 1.821.169 3.109.509 3.856.34.751.949 1.428 1.829 2.036.879.606 1.981.907 3.299.907 1.878 0 3.399-.707 4.559-2.125v3.561c0 .749-.252 1.374-.75 1.876-.5.498-1.11.75-1.829.75-.719 0-1.319-.259-1.8-.769-.48-.517-.719-1.125-.719-1.825h-5.098c0 2.074.735 3.76 2.206 5.063 1.472 1.298 3.294 1.95 5.469 1.95 2.175 0 4.01-.645 5.501-1.931 1.489-1.289 2.235-2.992 2.235-5.114v-36.535h-5.216zM239.661 44.892h-5.216v-34.862h5.216v34.862zm0-38.443h-5.216v-5.135h5.216v5.135z" fill="#fff"/><path d="M251.688 39.135c0 1.661-1.335 3.007-2.982 3.007-1.649 0-2.984-1.346-2.984-3.007 0-1.659 1.335-3.003 2.984-3.003 1.648 0 2.982 1.344 2.982 3.003z" fill="#fff400"/><path d="M200.252 61.95h1.376l-.029.419c-.039.742-.197 1.301-.475 1.679-.329.454-.846.683-1.55.683-1.014 0-1.689-.319-2.025-.956-.232-.449-.349-1.256-.349-2.42v-1.044c0-1.106.126-1.883.378-2.332.342-.618 1.008-.924 1.996-.918 1.344.006 2.015.79 2.015 2.352v.097h-1.337c-.064-.547-.1-.829-.107-.849-.097-.332-.287-.497-.572-.497-.652 0-.979.523-.979 1.571v2.303c0 1.06.325 1.59.972 1.59.315 0 .518-.221.607-.664.013-.058.039-.396.078-1.014zm3.575-1.025v1.834c0 .371.035.615.107.732.091.156.278.234.562.234.271 0 .449-.079.533-.234.064-.117.096-.361.096-.732v-1.834c0-.344-.026-.582-.077-.712-.09-.221-.274-.331-.552-.331-.297 0-.491.11-.581.331-.058.131-.087.368-.087.712zm.582 3.777c-.743 0-1.244-.209-1.502-.625-.226-.365-.339-1.028-.339-1.991v-.088c0-1.132.084-1.883.252-2.254.252-.559.811-.839 1.676-.839.846 0 1.395.28 1.647.839.161.364.242 1.116.242 2.254v.098c0 .956-.11 1.616-.329 1.981-.258.416-.749.625-1.473.625h-.174zm4.389-5.65v.566c.226-.475.639-.712 1.24-.712.265 0 .505.055.719.166.241.13.379.312.418.546h.019c.239-.475.66-.712 1.263-.712.441 0 .78.12 1.019.362.215.214.321.484.321.809v4.479h-1.26v-3.718c0-.305-.029-.526-.087-.663-.084-.195-.239-.292-.465-.292h-.048c-.278 0-.462.116-.552.351-.058.143-.087.377-.087.702v3.62h-1.259v-3.786c0-.292-.029-.501-.087-.624-.09-.176-.261-.263-.514-.263h-.019c-.272 0-.449.1-.533.302-.058.137-.087.387-.087.752v3.62h-1.26v-5.503h1.26zm7.615 5.503h-1.26v-5.503h1.26v5.503zm0-6.166h-1.26v-1.152h1.26v1.152zm3.16 5.2v.986c-.336.033-.549.048-.64.048-.769 0-1.153-.306-1.153-.917v-3.727h-.514v-.927h.514v-1.512h1.26v1.512h.533v.927h-.533v3.415c.013.13.129.196.349.196h.184v-.001zm.765-2.8c0-.605.158-1.07.475-1.396.316-.325.772-.488 1.366-.488.807 0 1.35.214 1.628.644.207.326.31.917.31 1.776v.742h-2.519v.8c0 .572.223.859.669.859.394 0 .591-.306.591-.918v-.117h1.26v.156c0 1.236-.585 1.854-1.754 1.854-.714 0-1.229-.174-1.547-.522-.318-.348-.478-.909-.478-1.684v-1.707zm1.26.302h1.26v-.478c0-.28-.047-.472-.141-.576-.094-.104-.267-.156-.519-.156-.258 0-.429.087-.514.263-.058.111-.087.309-.087.595v.351zm.043-4.049h1.216l1.105 1.424h-1.105l-.611-.8-.62.8h-1.085l1.1-1.424zm5.983 4.313v-1.044c0-1.106.126-1.88.378-2.323.336-.618 1.001-.927 1.996-.927.626 0 1.114.104 1.463.312.401.247.672.67.814 1.268.032.124.055.419.068.888h-1.357c-.013-.462-.065-.78-.155-.956-.142-.267-.42-.403-.833-.41-.653-.014-.979.51-.979 1.571v2.303c0 1.06.326 1.59.979 1.59.665 0 .998-.589.998-1.766l-.01-.165h-.93v-1.074h2.257v3.932h-1.017v-.84c-.241.67-.669 1.008-1.286 1.015-1.02.013-1.699-.302-2.036-.946-.234-.449-.35-1.259-.35-2.43zm5.9-.566c0-.605.158-1.07.475-1.396.316-.325.772-.488 1.366-.488.807 0 1.35.214 1.628.644.207.326.31.917.31 1.776v.742h-2.519v.8c0 .572.223.859.669.859.394 0 .591-.306.591-.918v-.117h1.26v.156c0 1.236-.585 1.854-1.754 1.854-.714 0-1.229-.174-1.547-.522-.318-.348-.478-.909-.478-1.684v-1.707zm1.26.302h1.26v-.478c0-.28-.047-.472-.141-.576-.094-.104-.267-.156-.518-.156-.258 0-.429.087-.514.263-.058.111-.087.309-.087.595v.351zm3.352 1.649h1.24v.293c0 .299.061.497.186.595.071.065.195.098.371.098h.049c.157 0 .287-.044.391-.132.105-.088.157-.203.157-.347l-.02-.137c-.006-.13-.081-.257-.224-.38l-.399-.273-.69-.478c-.694-.481-1.042-1.061-1.042-1.736 0-.423.163-.752.489-.986.326-.234.79-.351 1.391-.351 1.169 0 1.754.578 1.754 1.736v.088h-1.26v-.127c0-.482-.194-.722-.582-.722-.355 0-.532.149-.532.449 0 .208.158.419.473.634l1.022.703c.451.312.73.673.839 1.083.026.098.039.221.039.371 0 1.054-.628 1.581-1.885 1.581-.444 0-.819-.104-1.12-.313-.438-.286-.657-.748-.657-1.386l.01-.263zm6.463.849v.986c-.336.033-.549.048-.64.048-.769 0-1.153-.306-1.153-.917v-3.727h-.514v-.927h.514v-1.512h1.26v1.512h.533v.927h-.533v3.415c.013.13.129.195.349.195h.184zm2.023-2.664v1.834c0 .371.036.615.107.732.091.156.278.234.562.234.271 0 .449-.079.533-.234.065-.117.097-.361.097-.732v-1.834c0-.344-.026-.582-.078-.712-.091-.221-.275-.331-.552-.331-.297 0-.491.11-.581.331-.058.131-.088.368-.088.712zm.582 3.777c-.743 0-1.243-.209-1.502-.625-.226-.365-.339-1.028-.339-1.991v-.088c0-1.132.084-1.883.251-2.254.252-.559.811-.839 1.676-.839.846 0 1.395.28 1.647.839.162.364.243 1.116.243 2.254v.098c0 .956-.11 1.616-.329 1.981-.258.416-.749.625-1.473.625h-.174zm4.282-5.65v.975h.019c.142-.358.306-.618.494-.781.213-.175.475-.273.785-.292v1.493h-.262c-.659 0-.988.309-.988.927v3.18h-1.26v-5.502h1.211zm6.793 3.698v-1.834c0-.69-.197-1.034-.591-1.034-.265 0-.432.107-.504.322-.045.123-.068.371-.068.742v1.834c0 .631.185.947.553.947.406 0 .61-.325.61-.976zm0 1.805v-.585h-.019c-.207.481-.568.725-1.085.732-.878.019-1.318-.599-1.318-1.854v-1.99c0-.723.117-1.237.349-1.542.213-.273.536-.41.969-.41h.039c.504 0 .866.234 1.085.703h.019c-.026-.149-.039-.312-.039-.488v-1.883h1.26v7.317h-1.26zm6.172 0h-1.192c-.058-.111-.087-.247-.087-.409l.01-.156h-.019c-.31.475-.678.713-1.104.713-.504 0-.874-.134-1.11-.401-.236-.267-.354-.683-.354-1.249 0-.559.187-.995.562-1.307.2-.163.636-.383 1.308-.663.433-.182.65-.416.65-.703l-.029-.215c-.044-.189-.238-.282-.582-.282-.255 0-.427.06-.515.18-.089.12-.134.307-.134.561v.059h-1.202v-.039c0-.566.123-.982.367-1.249.296-.325.806-.488 1.532-.488.719 0 1.221.162 1.503.488.193.228.289.566.289 1.015v3.377c0 .247.036.504.106.771v-.001zm-1.366-2.302v-.596c-.233.143-.572.377-1.018.703-.142.118-.213.339-.213.663 0 .469.197.703.591.703.323 0 .523-.179.601-.537.026-.124.039-.436.039-.937zm-64.394 13.626h-1.357v-7.318h1.357v7.318zm2.519-5.503v.566c.215-.475.596-.713 1.143-.713.378 0 .677.104.898.313.247.228.371.562.371 1.005v4.332h-1.26v-3.669c0-.312-.029-.53-.087-.653-.077-.17-.226-.254-.446-.254h-.029c-.394 0-.591.309-.591.926v3.649h-1.259v-5.503h1.259zm5.437 4.537v.986c-.336.032-.549.048-.64.048-.769 0-1.153-.306-1.153-.917v-3.727h-.513v-.927h.513v-1.512h1.26v1.512h.533v.927h-.533v3.414c.013.131.129.196.349.196h.184zm.765-2.8c0-.605.158-1.07.475-1.396.316-.325.772-.488 1.366-.488.807 0 1.35.215 1.628.644.207.326.31.917.31 1.776v.741h-2.519v.8c0 .573.222.858.668.858.394 0 .591-.306.591-.918v-.117h1.259v.156c0 1.237-.584 1.854-1.753 1.854-.714 0-1.229-.174-1.547-.522-.318-.348-.478-.91-.478-1.684v-1.707zm1.26.302h1.26v-.478c0-.279-.047-.471-.14-.575-.094-.104-.267-.156-.519-.156-.258 0-.429.088-.514.263-.058.111-.087.309-.087.596v.351zm4.862-2.039v.975h.02c.142-.358.307-.618.494-.78.213-.176.475-.273.785-.293v1.493h-.262c-.659 0-.988.308-.988.926v3.181h-1.26v-5.503h1.211zm3.284 0v.566c.215-.475.596-.713 1.143-.713.378 0 .677.104.898.313.247.228.371.562.371 1.005v4.332h-1.259v-3.669c0-.312-.029-.53-.088-.653-.077-.17-.226-.254-.446-.254h-.029c-.394 0-.591.309-.591.926v3.649h-1.26v-5.503h1.26zm3.509 1.737c0-.605.158-1.07.475-1.396.316-.325.772-.488 1.366-.488.807 0 1.35.215 1.628.644.207.326.31.917.31 1.776v.741h-2.519v.8c0 .573.223.858.669.858.394 0 .591-.306.591-.918v-.117h1.26v.156c0 1.237-.585 1.854-1.754 1.854-.714 0-1.229-.174-1.547-.522-.318-.348-.478-.91-.478-1.684v-1.707zm1.26.302h1.26v-.478c0-.279-.047-.471-.141-.575-.094-.104-.266-.156-.519-.156-.258 0-.429.088-.513.263-.058.111-.087.309-.087.596v.351zm5.513 2.498v.986c-.336.032-.549.048-.64.048-.769 0-1.153-.306-1.153-.917v-3.727h-.514v-.927h.514v-1.512h1.26v1.512h.533v.927h-.533v3.414c.013.131.129.196.349.196h.184zm4.523-4.537v.566c.215-.475.596-.713 1.144-.713.378 0 .677.104.898.313.247.228.371.562.371 1.005v4.332h-1.26v-3.669c0-.312-.029-.53-.087-.653-.078-.17-.226-.254-.446-.254h-.029c-.394 0-.592.309-.592.926v3.649h-1.259v-5.503h1.259zm4.767 1.874v1.834c0 .371.035.614.107.731.091.156.278.234.562.234.271 0 .449-.078.533-.234.064-.117.097-.361.097-.731v-1.834c0-.345-.025-.582-.077-.712-.091-.221-.275-.332-.553-.332-.297 0-.491.111-.581.332-.059.13-.088.367-.088.712zm.582 3.776c-.743 0-1.244-.208-1.502-.624-.226-.365-.339-1.028-.339-1.991v-.088c0-1.132.084-1.883.252-2.254.252-.559.811-.839 1.676-.839.846 0 1.395.28 1.647.839.161.364.242 1.116.242 2.254v.098c0 .956-.11 1.616-.329 1.981-.259.416-.749.624-1.473.624h-.174zm6.898-1.219h.591c.226 0 .397-.027.513-.079.278-.123.417-.461.417-1.014 0-.416-.062-.703-.184-.859-.142-.176-.413-.264-.814-.264h-.523v2.216zm0-3.289h.378c.44 0 .72-.085.843-.254.097-.13.145-.394.145-.79 0-.299-.045-.507-.136-.625-.11-.144-.311-.215-.601-.215h-.63v1.883zm1.037 4.362h-2.393v-7.318h2.19c.749 0 1.263.179 1.541.537.239.305.358.744.358 1.316 0 .807-.291 1.318-.872 1.532v.02c.704.098 1.056.663 1.056 1.697 0 .384-.032.683-.097.898-.142.462-.354.797-.635 1.005-.281.208-.664.312-1.148.312zm4.157-5.503v.975h.019c.142-.358.307-.618.494-.78.213-.176.475-.273.785-.293v1.493h-.261c-.659 0-.988.308-.988.926v3.181h-1.26v-5.503h1.211zm5.699 5.503h-1.192c-.058-.111-.087-.247-.087-.41l.01-.156h-.019c-.31.475-.678.712-1.104.712-.504 0-.874-.134-1.11-.4-.236-.267-.353-.683-.353-1.249 0-.559.187-.996.562-1.308.2-.162.636-.384 1.308-.663.433-.182.649-.416.649-.703l-.029-.214c-.043-.189-.237-.283-.581-.283-.255 0-.427.061-.515.18-.089.121-.134.308-.134.561v.059h-1.202v-.039c0-.566.123-.982.367-1.249.296-.325.806-.488 1.533-.488.718 0 1.221.163 1.503.488.192.228.289.566.289 1.015v3.376c0 .248.035.504.107.771zm-1.366-2.303v-.595c-.233.143-.572.378-1.017.703-.142.116-.213.338-.213.663 0 .468.197.703.591.703.323 0 .523-.179.601-.537.026-.123.038-.436.038-.937zm2.229.488h1.24v.292c0 .3.061.498.185.595.071.065.195.098.372.098h.048c.157 0 .288-.044.391-.132.105-.088.156-.203.156-.346l-.019-.137c-.006-.131-.081-.257-.224-.38l-.399-.273-.69-.478c-.694-.482-1.042-1.061-1.042-1.737 0-.423.163-.751.49-.985.326-.234.789-.352 1.39-.352 1.169 0 1.754.579 1.754 1.737v.088h-1.26v-.127c0-.482-.194-.722-.581-.722-.355 0-.533.15-.533.449 0 .208.158.419.473.634l1.022.703c.45.312.73.672.839 1.083.026.097.039.221.039.371 0 1.054-.628 1.581-1.885 1.581-.444 0-.819-.104-1.12-.312-.438-.287-.657-.749-.657-1.386l.01-.263zm5.996 1.814h-1.26v-5.503h1.26v5.503zm0-6.166h-1.26v-1.152h1.26v1.152zm2.693 6.166h-1.26v-7.318h1.26v7.318z" fill="#fff"/><path d="M154.01 35.692v2.025c0 .653-.215 1.185-.644 1.594-.545.532-1.245.739-2.102.613-.751-.118-1.622-.662-2.219-1.66v-21.899c.702-.941 1.44-1.471 2.219-1.596.858-.124 1.557.081 2.102.614.429.41.644.941.644 1.596v18.713zm2.865-25.199c-.883-.61-1.987-.916-3.313-.916-1.887 0-3.392.708-4.518 2.124v-10.667h-5.276v30.327c-.042.875-.386 1.657-1.351 1.928-2.805.431-4.953 2.871-4.953 5.816 0 3.255 2.618 5.893 5.85 5.893 1.445 0 2.765-.532 3.786-1.405l.004.002.049-.05c.145-.127.285-.262.416-.403.203-.169.437-.307.714-.307.353 0 .611.064.902.323 1.143 1.296 2.603 1.946 4.375 1.946l.21-.012c1.254-.023 2.312-.324 3.16-.909.886-.611 1.498-1.294 1.841-2.05.326-.715.494-1.927.51-3.624l.005-.245v-21.852c0-1.831-.181-3.123-.544-3.875-.363-.754-.984-1.436-1.868-2.046zm10.347 1.157v-1.866h-5.215v35.017h5.215v-28.495c.762-.938 1.541-1.469 2.343-1.592.879-.123 1.621.08 2.222.612v-5.871c-1.881 0-3.402.733-4.564 2.195z" fill="#67b82d"/><path d="M146.314 37.787c0 1.673-1.343 3.026-3.002 3.026-1.659 0-3.003-1.354-3.003-3.026 0-1.669 1.344-3.021 3.003-3.021s3.002 1.352 3.002 3.021z" fill="#fff400"/><path d="M106.465 44.78h-5.201v-27.666c0-.647-.215-1.177-.645-1.582-.546-.526-1.246-.73-2.102-.608-.78.121-1.522.648-2.22 1.581v28.274h-5.203v-34.767h5.203v1.872c1.156-1.408 2.652-2.112 4.486-2.112 1.315 0 2.411.305 3.291.91.874.607 1.492 1.286 1.852 2.034.358.75.538 2.032.538 3.852v28.212zM115.436 43.462h-5.201v-34.767h5.201v34.767zm0-38.341h-5.201v-5.122h5.201v5.122zM134.005 35.886c0 2.157-.743 4.001-2.229 5.527-1.488 1.526-3.298 2.289-5.426 2.289-2.129 0-3.968-.759-5.514-2.274-1.547-1.517-2.32-3.347-2.32-5.493v-19.714c0-2.143.754-3.973 2.268-5.489 1.512-1.518 3.337-2.277 5.476-2.277s3.964.762 5.478 2.28c1.509 1.52 2.267 3.352 2.267 5.498v12.335h-5.203v-12.543c0-.691-.249-1.293-.747-1.803-.499-.51-1.086-.765-1.765-.765-.719 0-1.327.255-1.825.765-.5.511-.747 1.111-.747 1.803v20.108c0 .694.248 1.295.747 1.806.498.506 1.106.761 1.825.761.678 0 1.266-.262 1.765-.782.499-.524.747-1.143.747-1.852v-2.01h5.203v1.83zM94.731 58.597v-1.47h1.391v7.503h-1.45l-1.083-2.671c-.351-.867-.682-1.861-.993-2.981h-.02c.145 1.82.219 3.234.219 4.241v1.41h-1.391v-7.503h1.44l1.083 2.731c.371.94.702 1.933.993 2.981h.02c-.139-1.908-.209-3.321-.209-4.242zm5.117 6.033v-.84h-.02c-.192.654-.592.984-1.202.99-.483 0-.821-.127-1.013-.38-.159-.22-.238-.584-.238-1.091v-4.321h1.291v3.952c0 .3.043.52.129.66.113.12.245.179.398.179.258 0 .431-.127.516-.38.053-.147.08-.383.08-.71v-3.702h1.291v5.642h-1.232zm-1.391-6.293l.934-1.46h1.54l-1.47 1.46h-1.004zm7.309 2.611h-1.291v-.63c0-.32-.149-.481-.447-.481-.199 0-.335.097-.408.291-.053.147-.079.387-.079.72v1.861c0 .413.034.688.104.825.069.136.197.218.383.245.178-.007.298-.09.357-.25.033-.087.063-.28.09-.58v-.52h1.291v.52c0 1.221-.59 1.831-1.768 1.831-1.166 0-1.748-.65-1.748-1.951v-2.02c0-1.314.582-1.971 1.748-1.971.602 0 1.059.167 1.371.501.265.293.397.67.397 1.13v.48zm2.434 3.681h-1.291v-7.503h1.291v7.503zm1.263-3.862c0-.62.162-1.097.487-1.43.325-.333.791-.501 1.401-.501.828 0 1.384.221 1.669.661.212.334.318.94.318 1.82v.761h-2.583v.82c0 .587.228.88.685.88.404 0 .606-.313.606-.94v-.12h1.291v.16c0 1.267-.599 1.901-1.798 1.901-.732 0-1.26-.178-1.586-.535-.326-.356-.49-.932-.49-1.726v-1.751zm1.291.311h1.291v-.49c0-.287-.048-.484-.144-.59-.096-.107-.273-.161-.531-.161-.265 0-.441.09-.527.27-.059.113-.089.317-.089.61v.361zm4.965-.17v1.88c0 .381.036.631.109.751.093.16.285.24.576.24.278 0 .46-.08.546-.24.066-.12.099-.37.099-.751v-1.88c0-.354-.026-.597-.079-.73-.093-.227-.281-.34-.566-.34-.305 0-.504.113-.596.34-.059.133-.089.376-.089.73zm.596 3.871c-.762 0-1.275-.214-1.54-.64-.232-.373-.348-1.054-.348-2.041v-.089c0-1.161.086-1.931.258-2.311.258-.573.831-.861 1.718-.861.868 0 1.43.288 1.688.861.166.373.249 1.143.249 2.311v.099c0 .98-.113 1.658-.338 2.031-.265.427-.768.64-1.51.64h-.179zm8.047-2v-1.881c0-.707-.202-1.061-.606-1.061-.272 0-.444.111-.517.331-.046.127-.069.38-.069.76v1.881c0 .647.188.97.566.97.417 0 .626-.333.626-1zm0 1.851v-.6h-.02c-.212.494-.583.744-1.113.75-.9.02-1.351-.613-1.351-1.901v-2.04c0-.74.119-1.267.358-1.581.219-.28.55-.421.993-.421h.04c.517 0 .888.24 1.113.721h.019c-.026-.154-.039-.32-.039-.501v-1.93h1.291v7.503h-1.291zm2.483-3.862c0-.62.162-1.097.487-1.43.325-.333.791-.501 1.401-.501.828 0 1.384.221 1.669.661.212.334.318.94.318 1.82v.761h-2.583v.82c0 .587.228.88.685.88.404 0 .606-.313.606-.94v-.12h1.291v.16c0 1.267-.599 1.901-1.798 1.901-.732 0-1.26-.178-1.586-.535-.326-.356-.49-.932-.49-1.726v-1.751zm1.291.311h1.291v-.49c0-.287-.048-.484-.144-.59-.096-.107-.273-.161-.531-.161-.265 0-.441.09-.527.27-.059.113-.089.317-.089.61v.361zm7.707 3.551h-1.391v-7.503h1.391v7.503zm2.583-5.642v.58c.22-.486.611-.73 1.172-.73.388 0 .694.107.92.321.253.233.381.577.381 1.031v4.441h-1.291v-3.761c0-.32-.03-.544-.089-.67-.079-.173-.232-.26-.457-.26h-.03c-.404 0-.606.317-.606.95v3.741h-1.291v-5.642h1.291zm3.774.95h-.497v-.95h.497v-.56c0-.494.109-.837.328-1.03.199-.18.543-.27 1.033-.27h.487v1.04l-.288-.06c-.179 0-.268.073-.268.22v.66h.556v.95h-.556v4.692h-1.291v-4.692zm3.874.97v1.88c0 .381.036.631.109.751.093.16.285.24.576.24.278 0 .46-.08.546-.24.066-.12.099-.37.099-.751v-1.88c0-.354-.026-.597-.079-.73-.093-.227-.281-.34-.566-.34-.305 0-.503.113-.596.34-.06.133-.089.376-.089.73zm.596 3.871c-.762 0-1.275-.214-1.54-.64-.232-.373-.348-1.054-.348-2.041v-.089c0-1.161.086-1.931.258-2.311.258-.573.831-.861 1.718-.861.868 0 1.431.288 1.689.861.165.373.248 1.143.248 2.311v.099c0 .98-.112 1.658-.338 2.031-.265.427-.768.64-1.51.64h-.179zm4.39-5.792v1h.019c.146-.366.315-.634.507-.8.219-.18.487-.28.805-.3v1.531h-.268c-.675 0-1.013.317-1.013.95v3.261h-1.292v-5.642h1.242zm3.417 0v.58c.232-.486.656-.73 1.272-.73.272 0 .518.057.737.171.247.134.389.32.428.56h.02c.245-.486.677-.73 1.295-.73.452 0 .799.124 1.044.371.22.22.33.497.33.83v4.592h-1.291v-3.812c0-.313-.03-.54-.089-.68-.086-.2-.245-.3-.477-.3h-.05c-.285 0-.473.12-.566.36-.059.147-.089.387-.089.72v3.712h-1.291v-3.882c0-.3-.03-.513-.089-.64-.092-.18-.268-.27-.526-.27h-.02c-.278 0-.461.104-.546.311-.06.14-.09.396-.09.769v3.712h-1.291v-5.642h1.291zm10.153 5.642h-1.222c-.06-.114-.089-.254-.089-.421l.01-.159h-.02c-.318.486-.695.73-1.133.73-.516 0-.896-.137-1.137-.41-.242-.274-.363-.701-.363-1.281 0-.573.192-1.02.576-1.34.205-.167.652-.393 1.341-.68.444-.187.665-.427.665-.72l-.03-.22c-.044-.194-.243-.291-.596-.291-.262 0-.437.062-.528.186-.091.123-.137.315-.137.575v.06h-1.231v-.041c0-.58.125-1.007.376-1.28.303-.333.826-.501 1.571-.501.737 0 1.251.167 1.541.501.197.234.296.58.296 1.04v3.462c0 .253.036.517.109.79zm-1.401-2.361v-.61c-.238.147-.586.387-1.043.72-.145.12-.219.347-.219.68 0 .481.202.721.606.721.331 0 .536-.183.616-.55.026-.126.039-.447.039-.961zm3.505 3.261l.496-.77c-1.013-.073-1.52-.714-1.52-1.921v-2.031c0-1.314.583-1.971 1.748-1.971.603 0 1.06.167 1.371.501.265.293.397.67.397 1.13v.48h-1.291v-.63c0-.32-.149-.481-.447-.481-.198 0-.334.097-.408.291-.053.147-.079.387-.079.72v1.861c0 .414.035.688.104.825.07.136.197.218.383.245.179-.007.298-.09.358-.25.033-.087.063-.28.089-.58v-.52h1.291v.52c0 1.127-.49 1.73-1.47 1.811l-.328.48.019.021c.08-.041.182-.061.308-.061.291 0 .516.08.675.24.145.113.219.29.219.531 0 .14-.043.293-.129.46-.252.32-.629.48-1.132.48-.185 0-.331-.014-.437-.04l-.646-.21.189-.419c.338.106.622.159.854.159.106 0 .205-.04.298-.12.092-.08.139-.176.139-.29v-.05c-.033-.127-.099-.207-.198-.24-.066-.033-.145-.05-.238-.05-.112 0-.249.026-.407.08l-.208-.2zm7.272-.9h-1.222c-.06-.114-.089-.254-.089-.421l.01-.159h-.02c-.318.486-.695.73-1.133.73-.516 0-.895-.137-1.137-.41-.242-.274-.363-.701-.363-1.281 0-.573.192-1.02.577-1.34.205-.167.652-.393 1.341-.68.444-.187.665-.427.665-.72l-.03-.22c-.044-.194-.243-.291-.596-.291-.261 0-.437.062-.528.186-.091.123-.137.315-.137.575v.06h-1.232v-.041c0-.58.126-1.007.376-1.28.303-.333.826-.501 1.571-.501.737 0 1.251.167 1.541.501.197.234.296.58.296 1.04v3.462c0 .253.037.517.109.79zm-1.401-2.361v-.61c-.238.147-.586.387-1.043.72-.146.12-.219.347-.219.68 0 .481.202.721.606.721.331 0 .537-.183.616-.55.026-.126.039-.447.039-.961zm.695-5.082h.646c-.146.807-.533 1.21-1.162 1.21-.172 0-.464-.073-.874-.22-.245-.087-.417-.13-.516-.13-.086 0-.159.017-.218.05-.06.033-.142.157-.249.371h-.616c.027-.38.169-.69.427-.93.219-.2.454-.3.705-.3.186 0 .442.062.77.185s.524.185.591.185c.258 0 .424-.14.496-.42zm3.117 3.721v1.88c0 .381.036.631.109.751.093.16.285.24.576.24.278 0 .46-.08.546-.24.066-.12.099-.37.099-.751v-1.88c0-.354-.026-.597-.079-.73-.093-.227-.281-.34-.566-.34-.305 0-.503.113-.596.34-.059.133-.089.376-.089.73zm.596 3.871c-.762 0-1.275-.214-1.54-.64-.232-.373-.348-1.054-.348-2.041v-.089c0-1.161.086-1.931.258-2.311.258-.573.831-.861 1.718-.861.868 0 1.43.288 1.689.861.165.374.248 1.143.248 2.311v.1c0 .98-.112 1.657-.338 2.031-.265.427-.768.64-1.51.64h-.179zm-85.761 7.285c0-.62.162-1.096.487-1.43.325-.333.791-.501 1.401-.501.828 0 1.384.22 1.669.661.212.334.318.94.318 1.821v.76h-2.582v.82c0 .587.228.88.685.88.404 0 .606-.313.606-.941v-.119h1.291v.16c0 1.267-.599 1.901-1.798 1.901-.731 0-1.26-.178-1.586-.535-.326-.356-.49-.932-.49-1.726v-1.751zm1.291.311h1.291v-.49c0-.287-.048-.484-.144-.591-.096-.106-.273-.16-.531-.16-.265 0-.44.091-.526.27-.06.113-.09.317-.09.61v.361zm9.306.88h1.41l-.03.43c-.04.76-.202 1.334-.487 1.721-.338.467-.867.7-1.589.7-1.04 0-1.732-.327-2.076-.98-.238-.46-.358-1.287-.358-2.481v-1.071c0-1.134.129-1.93.388-2.39.351-.634 1.033-.947 2.046-.941 1.377.007 2.066.811 2.066 2.411v.1h-1.371l-.109-.871c-.099-.34-.295-.51-.586-.51-.669 0-1.003.537-1.003 1.611v2.36c0 1.087.333 1.631.996 1.631.323 0 .532-.227.623-.68.013-.06.039-.407.079-1.04zm3.666-1.051v1.881c0 .38.036.63.109.75.093.16.285.24.576.24.278 0 .46-.08.546-.24.066-.12.099-.37.099-.75v-1.881c0-.354-.026-.596-.079-.73-.093-.227-.282-.34-.566-.34-.304 0-.504.113-.596.34-.06.134-.089.376-.089.73zm.596 3.871c-.761 0-1.275-.214-1.539-.64-.232-.373-.348-1.054-.348-2.041v-.089c0-1.161.086-1.931.258-2.311.258-.574.831-.861 1.719-.861.868 0 1.43.287 1.689.861.165.374.248 1.144.248 2.311v.099c0 .981-.113 1.658-.338 2.031-.265.427-.768.64-1.51.64h-.179zm4.371-3.871v1.881c0 .38.036.63.109.75.093.16.285.24.576.24.278 0 .46-.08.546-.24.066-.12.099-.37.099-.75v-1.881c0-.354-.026-.596-.079-.73-.093-.227-.281-.34-.566-.34-.305 0-.503.113-.596.34-.06.134-.089.376-.089.73zm.596 3.871c-.762 0-1.275-.214-1.54-.64-.232-.373-.348-1.054-.348-2.041v-.089c0-1.161.086-1.931.258-2.311.258-.574.831-.861 1.718-.861.868 0 1.43.287 1.688.861.165.374.248 1.144.248 2.311v.099c0 .981-.112 1.658-.338 2.031-.265.427-.768.64-1.51.64h-.179zm4.39-5.792v1h.02c.145-.367.315-.634.506-.8.218-.18.487-.28.805-.3v1.531h-.268c-.675 0-1.013.317-1.013.95v3.261h-1.291v-5.642h1.242zm4.482 3.791v-1.881c0-.706-.202-1.06-.606-1.06-.272 0-.444.111-.517.331-.046.127-.069.38-.069.76v1.881c0 .647.189.97.566.97.417 0 .626-.333.626-1zm0 1.85v-.6h-.02c-.212.493-.583.744-1.113.75-.9.02-1.351-.613-1.351-1.901v-2.04c0-.74.119-1.267.358-1.581.218-.28.55-.421.993-.421h.04c.517 0 .887.24 1.113.721h.02c-.026-.154-.039-.32-.039-.501v-1.93h1.291v7.502h-1.291zm2.483-3.862c0-.62.162-1.096.487-1.43.325-.333.791-.501 1.401-.501.828 0 1.384.22 1.669.661.212.334.318.94.318 1.821v.76h-2.583v.82c0 .587.228.88.685.88.404 0 .606-.313.606-.941v-.119h1.291v.16c0 1.267-.599 1.901-1.798 1.901-.732 0-1.26-.178-1.586-.535-.326-.356-.49-.932-.49-1.726v-1.751zm1.291.311h1.291v-.49c0-.287-.048-.484-.144-.59-.096-.107-.273-.161-.531-.161-.265 0-.441.091-.527.27-.059.113-.089.317-.089.61v.361zm5.044-2.091v.58c.22-.486.611-.73 1.172-.73.388 0 .694.107.921.32.253.234.381.577.381 1.031v4.441h-1.291v-3.761c0-.32-.03-.544-.089-.67-.08-.173-.232-.26-.457-.26h-.029c-.404 0-.606.317-.606.95v3.741h-1.291v-5.642h1.291zm7.442 5.642h-1.222c-.06-.113-.089-.254-.089-.421l.01-.16h-.02c-.318.486-.695.73-1.132.73-.517 0-.896-.137-1.137-.41-.242-.273-.363-.699-.363-1.28 0-.573.192-1.02.576-1.34.205-.167.652-.393 1.341-.68.444-.187.665-.427.665-.72l-.03-.22c-.045-.194-.243-.291-.596-.291-.262 0-.437.062-.528.185-.091.124-.137.315-.137.575v.06h-1.232v-.039c0-.581.126-1.008.376-1.281.303-.333.826-.501 1.571-.501.737 0 1.251.167 1.541.501.197.233.296.58.296 1.04v3.462c0 .253.037.517.11.79zm-1.401-2.361v-.611c-.238.147-.586.387-1.043.72-.146.12-.219.347-.219.68 0 .481.202.721.606.721.331 0 .537-.183.616-.55.026-.126.04-.447.04-.96zm3.505 3.261l.497-.771c-1.014-.073-1.52-.714-1.52-1.921v-2.03c0-1.314.582-1.971 1.748-1.971.603 0 1.06.167 1.371.501.265.293.397.67.397 1.13v.48h-1.291v-.63c0-.32-.149-.481-.447-.481-.199 0-.335.097-.407.291-.053.147-.08.387-.08.72v1.861c0 .413.035.688.105.825.069.136.197.218.382.245.179-.006.298-.09.358-.25.033-.087.063-.28.089-.58v-.521h1.291v.521c0 1.127-.49 1.731-1.47 1.81l-.328.48.02.021c.079-.04.182-.061.308-.061.291 0 .516.081.675.24.145.113.218.29.218.531 0 .14-.043.293-.129.46-.251.32-.629.48-1.132.48-.185 0-.331-.013-.437-.04l-.646-.21.189-.42c.338.107.622.16.854.16.106 0 .205-.041.298-.12.093-.08.139-.176.139-.29v-.05c-.033-.127-.099-.207-.199-.24-.066-.034-.146-.05-.238-.05-.113 0-.248.026-.407.08l-.208-.199zm7.273-.901h-1.222c-.059-.113-.089-.254-.089-.421l.01-.16h-.02c-.318.486-.695.73-1.132.73-.517 0-.896-.137-1.137-.41-.242-.273-.363-.699-.363-1.28 0-.573.192-1.02.576-1.34.205-.167.652-.393 1.341-.68.444-.187.665-.427.665-.72l-.03-.22c-.045-.194-.243-.291-.596-.291-.262 0-.437.062-.528.185-.091.124-.137.315-.137.575v.06h-1.232v-.039c0-.581.126-1.008.376-1.281.303-.333.826-.501 1.571-.501.737 0 1.252.167 1.542.501.197.233.296.58.296 1.04v3.462c0 .253.037.517.11.79zm-1.401-2.361v-.611c-.238.147-.586.387-1.043.72-.146.12-.218.347-.218.68 0 .481.202.721.606.721.331 0 .536-.183.616-.55.026-.126.04-.447.04-.96zm.695-5.082h.645c-.145.807-.533 1.21-1.162 1.21-.172 0-.463-.073-.874-.219-.245-.087-.417-.13-.517-.13-.086 0-.159.017-.219.05s-.142.157-.248.371h-.616c.027-.38.169-.69.427-.93.219-.2.453-.3.705-.3.185 0 .442.062.77.185.328.124.525.185.591.185.258 0 .424-.14.497-.42zm3.117 3.721v1.881c0 .38.036.63.109.75.093.16.285.24.576.24.278 0 .461-.08.547-.24.066-.12.099-.37.099-.75v-1.881c0-.354-.027-.596-.08-.73-.093-.227-.281-.34-.566-.34-.305 0-.503.113-.596.34-.059.134-.089.376-.089.73zm.596 3.871c-.761 0-1.275-.214-1.54-.64-.232-.373-.348-1.054-.348-2.041v-.089c0-1.161.086-1.931.258-2.311.258-.574.831-.861 1.718-.861.868 0 1.43.287 1.689.861.165.374.248 1.144.248 2.311v.099c0 .981-.113 1.658-.338 2.031-.265.427-.768.64-1.51.64h-.179zm8.047-2v-1.881c0-.706-.202-1.06-.606-1.06-.271 0-.443.111-.516.331-.046.127-.069.38-.069.76v1.881c0 .647.188.97.566.97.417 0 .626-.333.626-1zm0 1.85v-.6h-.02c-.212.493-.582.744-1.112.75-.901.02-1.351-.613-1.351-1.901v-2.04c0-.74.119-1.267.358-1.581.218-.28.549-.421.993-.421h.04c.516 0 .887.24 1.112.721h.02c-.027-.154-.04-.32-.04-.501v-1.93h1.291v7.502h-1.291zm3.773-3.721v1.881c0 .38.037.63.109.75.093.16.285.24.576.24.278 0 .46-.08.546-.24.067-.12.099-.37.099-.75v-1.881c0-.354-.026-.596-.079-.73-.092-.227-.281-.34-.566-.34-.305 0-.503.113-.596.34-.059.134-.089.376-.089.73zm.596 3.871c-.762 0-1.275-.214-1.54-.64-.232-.373-.348-1.054-.348-2.041v-.089c0-1.161.086-1.931.258-2.311.258-.573.831-.861 1.718-.861.868 0 1.43.287 1.688.861.166.374.248 1.144.248 2.311v.099c0 .981-.112 1.658-.338 2.031-.265.427-.768.64-1.51.64h-.179zm-68.322 5.372v2.161h.745c.675 0 1.013-.39 1.013-1.17 0-.407-.088-.683-.268-.82-.151-.116-.437-.171-.855-.171h-.635zm0 6.403h-1.391v-7.503h2.841c.616 0 1.073.224 1.371.671.245.367.367.854.367 1.46 0 .813-.232 1.407-.695 1.78-.371.3-.868.45-1.49.45h-1.003v3.141zm5.275-3.721v1.88c0 .38.038.629.109.75.094.16.285.241.576.241.278 0 .46-.081.547-.241.065-.12.099-.37.099-.75v-1.88c0-.354-.026-.598-.08-.731-.092-.227-.281-.34-.566-.34-.304 0-.5.114-.596.34-.057.135-.089.377-.089.731zm.596 3.871c-.761 0-1.275-.214-1.539-.64-.232-.373-.348-1.053-.348-2.04v-.09c0-1.161.087-1.931.258-2.311.259-.573.831-.86 1.718-.86.868 0 1.432.286 1.689.86.166.373.248 1.144.248 2.311v.1c0 .979-.11 1.659-.338 2.03-.262.428-.769.64-1.51.64h-.179zm4.45-5.792v.58c.22-.487.611-.73 1.172-.73.387 0 .693.108.92.32.252.235.381.578.381 1.031v4.441h-1.291v-3.761c0-.32-.03-.543-.089-.67-.08-.173-.232-.261-.457-.261h-.03c-.403 0-.606.317-.606.95v3.741h-1.291v-5.642h1.291zm5.574 4.652v1.01c-.344.033-.562.05-.655.05-.788 0-1.182-.314-1.182-.941v-3.821h-.526v-.95h.526v-1.551h1.291v1.551h.546v.95h-.546v3.501c0 .134.132.2.358.2h.188zm2.075-2.731v1.881c0 .38.038.629.109.75.094.16.285.241.576.241.278 0 .46-.081.546-.241.065-.12.099-.37.099-.75v-1.881c0-.354-.026-.598-.079-.731-.092-.227-.281-.34-.566-.34-.305 0-.501.114-.596.34-.057.135-.089.377-.089.731zm.596 3.871c-.762 0-1.275-.214-1.54-.64-.232-.373-.348-1.053-.348-2.04v-.09c0-1.161.087-1.931.258-2.311.258-.573.831-.86 1.718-.86.868 0 1.432.286 1.688.86.167.373.248 1.144.248 2.311v.1c0 .979-.11 1.659-.338 2.03-.262.428-.768.64-1.51.64h-.179zM118.323 86.725h.606c.232 0 .408-.027.527-.08.284-.127.427-.474.427-1.04 0-.427-.062-.721-.189-.88-.145-.181-.424-.27-.834-.27h-.536v2.27zm0-3.371h.387c.451 0 .738-.087.864-.261.098-.134.149-.403.149-.81 0-.307-.047-.521-.139-.64-.113-.146-.319-.22-.616-.22h-.645v1.931zm1.063 4.472h-2.453v-7.503h2.245c.768 0 1.295.184 1.58.55.244.314.367.764.367 1.35 0 .827-.298 1.351-.894 1.571v.02c.722.1 1.083.68 1.083 1.74 0 .394-.033.701-.099.92-.145.474-.363.817-.651 1.031-.288.213-.68.32-1.177.32zm4.47-3.232v3.232h-1.391v-7.503h2.632c1.411 0 2.116.6 2.116 1.801 0 1.1-.381 1.703-1.142 1.811v.02c.715.093 1.073.547 1.073 1.36v.32c0 1.24.099 1.924.298 2.051v.14h-1.53c-.099-.281-.149-.804-.149-1.571v-.33c0-.333-.02-.58-.06-.739-.066-.267-.206-.43-.417-.491-.232-.066-.564-.1-.994-.1h-.437zm0-3.171v2.071h1.093c.543 0 .815-.36.815-1.081 0-.393-.079-.664-.239-.81-.132-.12-.345-.18-.636-.18h-1.033z" fill="#fff"/></g></svg>