<?xml version="1.0" encoding="utf-8"?>
<!-- Generator: Adobe Illustrator 16.0.0, SVG Export Plug-In . SVG Version: 6.00 Build 0)  -->
<!DOCTYPE svg PUBLIC "-//W3C//DTD SVG 1.1//EN" "http://www.w3.org/Graphics/SVG/1.1/DTD/svg11.dtd">
<svg version="1.1" id="Layer_1" xmlns="http://www.w3.org/2000/svg" xmlns:xlink="http://www.w3.org/1999/xlink" x="0px" y="0px"
	 width="317.5px" height="111.5px" viewBox="0 0 317.5 111.5" enable-background="new 0 0 317.5 111.5" xml:space="preserve">
<g>
	<defs>
		<path id="SVGID_1_" d="M243.361,107.155l-4.883-8.314c11.117-5.611,10.909-11.848,10.909-16.316V13.619h12.468v67.658
			C261.855,97.906,251.882,102.998,243.361,107.155L243.361,107.155z M303.933,24.843c-2.909-1.143-6.441-2.39-9.663-2.39
			c-4.986,0-9.246,2.287-9.246,7.171c0,6.236,3.844,9.77,12.468,13.095c11.117,4.469,17.663,9.25,17.663,20.578
			c0,10.705-8.312,21.306-23.481,21.306c-10.702,0-19.845-5.196-22.547-6.755l4.364-9.666c2.182,1.247,4.26,2.391,6.441,3.326
			c3.637,1.663,7.896,3.325,10.91,3.325c7.377,0,10.806-3.845,10.806-10.185c0-6.235-4.053-8.626-10.391-11.121
			c-12.364-5.196-19.845-9.977-19.845-22.137c0-10.185,9.247-18.708,22.131-18.708c9.767,0,18.286,4.157,20.469,5.508l-5.092,9.042
			C307.361,26.402,305.699,25.571,303.933,24.843L303.933,24.843z"/>
	</defs>
	<use xlink:href="#SVGID_1_"  overflow="visible" fill="#FFFFFF"/>
	<clipPath id="SVGID_2_">
		<use xlink:href="#SVGID_1_"  overflow="visible"/>
	</clipPath>
</g>
<g>
	<defs>
		<path id="SVGID_3_" d="M40.885,47.292c10.39,3.014,15.377,9.042,15.377,17.045c0,12.991-9.975,19.746-29.819,19.746
			c-3.948,0-17.456-0.104-20.469-0.104v-70.36c2.494,0,17.248-0.208,21.611-0.208c17.456,0,26.599,7.067,26.599,18.292
			C54.184,38.77,49.612,44.382,40.885,47.292L40.885,47.292z M27.481,24.74c-1.767,0-3.533,0-4.364,0.104v18.292h4.779
			c4.26,0,8.312-2.183,8.312-9.146C36.209,28.273,33.612,24.74,27.481,24.74L27.481,24.74z M27.689,53.84
			c-1.871,0-3.637,0.104-4.572,0.208v18.707h5.091c5.611,0,9.975-1.975,9.975-8.834C38.183,58.725,35.585,53.84,27.689,53.84
			L27.689,53.84z M92.829,47.916c-0.935-0.52-2.598-1.144-4.883-1.144c-2.909,0-8,3.222-8,10.705v26.502H63.529V56.958
			c0-16.421-5.714-21.722-5.714-21.722L71.01,31.08c0,0,3.221,3.221,4.676,9.353c3.429-6.651,8.208-9.353,14.65-9.353
			c2.909,0,5.195,0.623,6.753,1.143L92.829,47.916L92.829,47.916z M133.243,84.811c0,0-3.741-3.533-4.987-10.393
			c-2.286,6.443-6.754,10.185-14.235,10.185c-13.611,0-20.053-10.289-20.053-25.878c0-15.901,10.598-27.645,26.08-27.645
			c8.624,0,20.468,3.013,20.676,3.013v24.84c0,16.421,5.715,21.721,5.715,21.721L133.243,84.811L133.243,84.811z M124.308,43.966
			c-0.936-0.416-3.013-0.831-4.26-0.831c-6.754,0-8.624,6.131-8.624,14.55c0,7.69,0.312,14.861,5.299,14.861
			c4.26,0,7.585-7.795,7.585-16.524V43.966L124.308,43.966z M186.746,72.027v11.952h-39.897v-9.146L166.59,44.07
			c-2.598,0.104-4.987,0.208-7.273,0.208h-9.559l-2.079-12.056h38.132v10.081l-18.702,29.932c1.766-0.104,3.532-0.208,5.402-0.208
			H186.746L186.746,72.027z M203.989,84.395c-7.792,0-13.195-4.364-13.195-11.743V31.807h16.416v36.168
			c0,3.117,0.936,4.053,2.909,4.053c1.039,0,2.39-0.312,2.701-0.416l1.455,10.289C214.067,82.108,209.6,84.395,203.989,84.395
			L203.989,84.395z M231,84.395c-9.559,0-13.715-5.924-13.715-13.303V11.437l16.416-2.806v58.928c0,3.325,1.039,4.469,4.156,4.469
			c1.454,0,3.532-0.312,5.091-0.623l1.559,10.288C242.429,82.628,237.026,84.395,231,84.395L231,84.395z"/>
	</defs>
	<use xlink:href="#SVGID_3_"  overflow="visible" fill="#FFFFFF"/>
	<clipPath id="SVGID_4_">
		<use xlink:href="#SVGID_3_"  overflow="visible"/>
	</clipPath>
	<g display="none" clip-path="url(#SVGID_4_)">
		
			<image display="inline" overflow="visible" width="3291" height="1122" xlink:href="E35D00F86DA3A8EC.jpg"  transform="matrix(0.0945 0 0 0.0945 5 2)">
		</image>
	</g>
</g>
<g>
	<defs>
		<polygon id="SVGID_5_" points="206.496,26.507 198.735,21.562 190.853,26.309 193.156,17.398 186.207,11.366 195.391,10.804 
			198.979,2.329 202.352,10.892 211.518,11.687 204.418,17.541 206.496,26.507 		"/>
	</defs>
	<use xlink:href="#SVGID_5_"  overflow="visible" fill="#FFFFFF"/>
	<clipPath id="SVGID_6_">
		<use xlink:href="#SVGID_5_"  overflow="visible"/>
	</clipPath>
</g>
</svg>
